<?xml version="1.0" standalone="no"?>
<!DOCTYPE svg PUBLIC "-//W3C//DTD SVG 1.1//EN" "http://www.w3.org/Graphics/SVG/1.1/DTD/svg11.dtd" >
<svg xmlns="http://www.w3.org/2000/svg" xmlns:xlink="http://www.w3.org/1999/xlink" version="1.1">
<metadata>
Created by FontForge 20170731 at Mon Sep 25 13:25:10 2017
 By Aleksey,,,
Copyright 2017 Oded Ezer
</metadata>
<defs>
<font id="OEAugustPro-Regular" horiz-adv-x="751" >
  <font-face 
    font-family="OE August Pro"
    font-weight="400"
    font-stretch="normal"
    units-per-em="2048"
    panose-1="0 0 5 0 0 0 0 0 0 0"
    ascent="1638"
    descent="-410"
    x-height="1082"
    cap-height="1456"
    bbox="-993 -727 1935 2146"
    underline-thickness="50"
    underline-position="-150"
    unicode-range="U+0020-FB4F"
  />
<missing-glyph horiz-adv-x="1351" 
d="M1107 2146v-2701h-856v2701h856zM899 1965h-445v-89h175v-100h-178v-89h448v89h-178v100h178v89zM721 1617h-270v-281h448v92h-178v189zM629 1525v-97h-89v97h89zM899 1263h-448v-89h178v-100h-178v-89h270v189h178v89zM899 1101h-89v-179h-359v-91h448v270zM899 771
h-270v-151h92v62h89v-127h-270v216h-89v-305h448v305zM899 304h-448v-305h448v305zM810 215v-127h-270v127h270zM899 -63h-448v-90h189l-189 -126v-90h448v90h-275l189 126h86v90z" />
    <glyph glyph-name="fi" unicode="fi" horiz-adv-x="1201" 
d="M426 1151v-69h240v-165h-240v-917h-220v917h-170v165h170v69q0 196 113 301t318 105q151 0 316 -58l-31 -184q-71 25 -130 37t-142 12q-106 0 -165 -55.5t-59 -157.5zM839 1082h220v-1082h-220v1082z" />
    <glyph glyph-name="f_f" unicode="ff" horiz-adv-x="1408" 
d="M206 1195q0 174 96 268t265 94q73 0 144 -19l-3 -173q-46 11 -98 11q-87 0 -135.5 -47t-48.5 -134v-113h240v-165h-240v-917h-220v917h-170v165h170v113zM1314 1376q-87 0 -135.5 -47t-48.5 -134v-113h240v-165h-240v-917h-220v917h-170v165h170v113q0 174 96 268t265 94
q73 0 144 -19l-3 -173q-46 11 -98 11z" />
    <glyph glyph-name="f_f_i" unicode="ffi" horiz-adv-x="1835" 
d="M1059 1151v-69h241v-165h-241v-917h-220v917h-413v-917h-220v917h-170v165h170v113q0 174 96 268t265 94q73 0 144 -19l-3 -173q-46 11 -98 11q-87 0 -135.5 -47t-48.5 -134v-113h413v69q0 196 113.5 301t318.5 105q150 0 315 -58l-31 -184q-71 25 -130 37t-141 12
q-107 0 -166 -55.5t-59 -157.5zM1473 1082h219v-1082h-219v1082z" />
    <glyph glyph-name="f_f_l" unicode="ffl" horiz-adv-x="1835" 
d="M1238 1557q192 0 454 -36v-1521h-219v1359q-119 17 -205 17q-99 0 -154 -50.5t-55 -142.5v-101h241v-165h-241v-917h-220v917h-413v-917h-220v917h-170v165h170v113q0 174 96 268t265 94q73 0 144 -19l-3 -173q-46 11 -98 11q-87 0 -135.5 -47t-48.5 -134v-113h413v101
q0 180 104.5 277t294.5 97z" />
    <glyph glyph-name=".notdef" horiz-adv-x="1351" 
d="M1107 2146v-2701h-856v2701h856zM899 1965h-445v-89h175v-100h-178v-89h448v89h-178v100h178v89zM721 1617h-270v-281h448v92h-178v189zM629 1525v-97h-89v97h89zM899 1263h-448v-89h178v-100h-178v-89h270v189h178v89zM899 1101h-89v-179h-359v-91h448v270zM899 771
h-270v-151h92v62h89v-127h-270v216h-89v-305h448v305zM899 304h-448v-305h448v305zM810 215v-127h-270v127h270zM899 -63h-448v-90h189l-189 -126v-90h448v90h-275l189 126h86v90z" />
    <glyph glyph-name=".null" horiz-adv-x="0" 
 />
    <glyph glyph-name="nonmarkingreturn" horiz-adv-x="682" 
 />
    <glyph glyph-name="space" unicode=" " horiz-adv-x="502" 
 />
    <glyph glyph-name="exclam" unicode="!" horiz-adv-x="499" 
d="M345 438h-183l-25 1018h233zM256 238q58 0 95 -36t37 -90t-37 -89.5t-95 -35.5t-95 35.5t-37 89.5t37 90t95 36z" />
    <glyph glyph-name="quotedbl" unicode="&#x22;" horiz-adv-x="602" 
d="M240 1396l-30 -368h-129l2 358v151h157v-141zM529 1396l-30 -368h-129l2 364v145h157v-141z" />
    <glyph glyph-name="numbersign" unicode="#" horiz-adv-x="1170" 
d="M1161 906h-261l-63 -363h248v-133h-271l-71 -410h-141l71 410h-245l-71 -410h-141l71 410h-242v133h265l63 363h-253v134h276l72 416h141l-72 -416h246l72 416h141l-72 -416h237v-134zM696 543l63 363h-245l-63 -363h245z" />
    <glyph glyph-name="dollar" unicode="$" horiz-adv-x="1159" 
d="M626 824q72 -28 121 -50.5t102.5 -53t88 -63.5t63.5 -75t42.5 -94.5t13.5 -115.5q0 -169 -107 -272t-287 -118v-196h-119v195q-71 5 -133.5 23.5t-120.5 54.5t-99.5 87.5t-66.5 128t-25 170.5h220q0 -79 24 -137.5t66 -90t89.5 -46t102.5 -14.5q111 0 174 61.5t63 151.5
q0 99 -55 154.5t-201 110.5q-88 34 -145.5 60.5t-117 65.5t-93 81.5t-54.5 104t-21 137.5q0 166 109.5 271.5t291.5 119.5v202h119v-204q179 -20 282.5 -138t103.5 -313h-219q0 131 -63.5 204t-175.5 73q-113 0 -171 -61.5t-58 -153.5t53 -148.5t203 -111.5z" />
    <glyph glyph-name="percent" unicode="%" horiz-adv-x="1521" 
d="M100 1176q0 129 81.5 215t221.5 86q141 0 221.5 -86t80.5 -215v-77q0 -128 -80 -213.5t-220 -85.5q-141 0 -223 86t-82 213v77zM250 1099q0 -68 40.5 -117t114.5 -49q72 0 111 49t39 117v77q0 70 -39.5 119t-112.5 49t-113 -49.5t-40 -118.5v-77zM456 117l-111 61
l711 1138l111 -61zM818 357q0 128 81.5 214t220.5 86q142 0 222.5 -85.5t80.5 -214.5v-77q0 -128 -80.5 -214t-220.5 -86q-141 0 -222.5 86t-81.5 214v77zM968 280q0 -68 42 -117.5t112 -49.5q79 0 115 47.5t36 119.5v77q0 72 -39.5 119.5t-113.5 47.5q-73 0 -112.5 -47.5
t-39.5 -119.5v-77z" />
    <glyph glyph-name="ampersand" unicode="&#x26;" horiz-adv-x="1322" 
d="M1284 0h-249l-100 114q-181 -135 -393 -135t-336 109t-124 288q0 61 18.5 115t56.5 101.5t80 86.5t103 85l19 13q-73 97 -108.5 176.5t-35.5 162.5q0 160 101 260.5t267 100.5q153 0 246 -92t93 -225q0 -89 -55 -169.5t-138 -142.5l-114 -83l326 -372q79 132 79 298h188
q0 -279 -134 -450zM409 1119q0 -95 106 -233l104 73q120 83 120 186q0 61 -42 106t-115 45q-82 0 -127.5 -50.5t-45.5 -126.5zM554 160q143 0 260 91l-353 400l-29 -21q-75 -67 -102.5 -124t-27.5 -116q0 -99 68 -164.5t184 -65.5z" />
    <glyph glyph-name="quotesingle" unicode="'" horiz-adv-x="328" 
d="M250 1371l-25 -348h-142l3 340v173h164v-165z" />
    <glyph glyph-name="parenleft" unicode="(" horiz-adv-x="678" 
d="M132 590q0 187 40 360.5t106 303t148.5 222.5t171.5 137l45 -119q-137 -96 -233 -336t-96 -566v-29q0 -326 96 -566t233 -336l-45 -119q-89 44 -171.5 135.5t-149 220t-106 302.5t-39.5 365v25z" />
    <glyph glyph-name="parenright" unicode=")" horiz-adv-x="684" 
d="M560 565q0 -185 -41 -358t-109 -303t-153 -224t-176 -138l-46 119q137 96 233.5 336t96.5 566v29q0 326 -96.5 566t-233.5 336l46 119q91 -44 176.5 -139.5t153 -226.5t108.5 -303t41 -354v-25z" />
    <glyph glyph-name="asterisk" unicode="*" horiz-adv-x="911" 
d="M366 979l-338 103l46 138l334 -132l-14 368h149l-17 -373l325 134l46 -138l-339 -108l228 -285l-121 -86l-206 305l-200 -299l-121 81z" />
    <glyph glyph-name="plus" unicode="+" horiz-adv-x="1121" 
d="M1056 778v-198h-398v-434h-207v434h-393v198h393v428h207v-428h398z" />
    <glyph glyph-name="comma" unicode="," horiz-adv-x="477" 
d="M355 35q0 -107 -49 -206.5t-128 -167.5l-124 61q30 48 40.5 67t30 61.5t27 83t7.5 89.5v202h196v-190z" />
    <glyph glyph-name="hyphen" unicode="-" horiz-adv-x="900" 
d="M776 551h-666v182h666v-182z" />
    <glyph glyph-name="period" unicode="." horiz-adv-x="546" 
d="M262 230q58 0 95 -37t37 -93q0 -55 -37 -92.5t-95 -37.5t-95 37.5t-37 92.5q0 56 37 93t95 37z" />
    <glyph glyph-name="slash" unicode="/" horiz-adv-x="752" 
d="M167 -125h-166l548 1581h166z" />
    <glyph glyph-name="zero" unicode="0" horiz-adv-x="1254" 
d="M1104 595q0 -299 -126.5 -457t-349.5 -158q-222 0 -350 158.5t-128 456.5v191q0 299 127 457t349 158q223 0 350.5 -158.5t127.5 -456.5v-191zM884 813q0 407 -258 407q-127 0 -192 -102.5t-65 -304.5v-243q0 -202 66 -305.5t193 -103.5q126 0 191 103t65 306v243z" />
    <glyph glyph-name="one" unicode="1" horiz-adv-x="900" 
d="M687 0h-220v1120l-367 -120v181l563 201h24v-1382z" />
    <glyph glyph-name="two" unicode="2" horiz-adv-x="1196" 
d="M1097 0h-957v156l472 477q118 119 164 193.5t46 146.5q0 118 -62 182.5t-178 64.5q-112 0 -183 -81t-71 -204h-220q0 195 134 330.5t344 135.5q218 0 337 -107t119 -303q0 -71 -21.5 -136.5t-67.5 -131t-99.5 -123t-136.5 -134.5l-291 -285h671v-181z" />
    <glyph glyph-name="three" unicode="3" horiz-adv-x="1253" 
d="M899 711q210 -89 210 -318q0 -195 -138.5 -304t-357.5 -109q-72 0 -141.5 15.5t-134 49.5t-112.5 82.5t-77 120t-29 157.5h220q0 -105 80.5 -174.5t199.5 -69.5q127 0 199 63t72 171q0 241 -297 241h-142v136h142q130 0 200 61.5t70 164.5q0 99 -62.5 160.5t-185.5 61.5
q-105 0 -178.5 -59.5t-73.5 -157.5h-219q0 180 135 289t330 109q217 0 345 -104t128 -296q0 -91 -48.5 -166.5t-134.5 -123.5z" />
    <glyph glyph-name="four" unicode="4" horiz-adv-x="1164" 
d="M1114 524v-181h-209v-343h-213v343h-643l-11 138l631 900h236v-857h209zM262 524h430v596l-64 -109z" />
    <glyph glyph-name="five" unicode="5" horiz-adv-x="1226" 
d="M189 700l79 693h790v-182h-609l-43 -370q36 25 104.5 47t142.5 22q206 0 323.5 -118.5t117.5 -324.5q0 -101 -28 -187t-83 -154t-146 -107t-209 -39q-125 0 -230.5 48t-174 146t-72.5 228h219q10 -114 77 -177.5t180 -63.5q128 0 188 84.5t60 235.5q0 120 -73 192.5
t-204 72.5q-145 0 -236 -91z" />
    <glyph glyph-name="six" unicode="6" horiz-adv-x="1229" 
d="M703 939q196 0 306 -132t110 -347q0 -213 -130.5 -346.5t-337.5 -133.5q-227 0 -367.5 148.5t-140.5 401.5v99q0 156 37 284.5t103.5 219.5t158.5 153.5t201 92.5t233 30h38v-184h-18q-221 0 -363.5 -110.5t-166.5 -340.5q57 75 142.5 120t194.5 45zM646 161
q114 0 183.5 83t69.5 216q0 140 -70.5 225.5t-195.5 85.5q-94 0 -168 -47t-103 -120v-104q0 -161 76 -250t208 -89z" />
    <glyph glyph-name="seven" unicode="7" horiz-adv-x="1153" 
d="M1072 1257l-585 -1257h-238l580 1200h-757v181h1000v-124z" />
    <glyph glyph-name="eight" unicode="8" horiz-adv-x="1319" 
d="M958 716q104 -51 161.5 -136.5t57.5 -194.5q0 -182 -142 -293.5t-374 -111.5q-233 0 -376 111.5t-143 293.5q0 110 57.5 195.5t161.5 135.5q-87 49 -135 125.5t-48 172.5q0 174 132 280.5t349 106.5t350 -106.5t133 -280.5q0 -97 -48 -173.5t-136 -124.5zM665 1220
q-116 0 -187 -59t-71 -156q0 -100 71.5 -161t188.5 -61q115 0 186 61t71 161q0 97 -71 156t-188 59zM668 161q133 0 214 65.5t81 173.5q0 107 -82 173t-215 66q-134 0 -216 -66t-82 -173q0 -108 82 -173.5t218 -65.5z" />
    <glyph glyph-name="nine" unicode="9" horiz-adv-x="1229" 
d="M578 1409q227 0 367.5 -148.5t140.5 -401.5v-95q0 -194 -57 -345.5t-157 -246t-232 -143.5t-287 -49h-38v184h19q138 0 245 41.5t182 136.5t97 237q-58 -67 -143 -107t-188 -40q-196 0 -306 137.5t-110 353.5q0 214 130.5 350t336.5 136zM596 612q94 0 168 49t103 123
v105q0 161 -76 250t-208 89q-114 0 -183.5 -85.5t-69.5 -219.5q0 -140 70.5 -225.5t195.5 -85.5z" />
    <glyph glyph-name="colon" unicode=":" horiz-adv-x="511" 
d="M253 1091q58 0 95 -37t37 -93q0 -55 -37 -92.5t-95 -37.5t-95 37.5t-37 92.5q0 56 37 93t95 37zM251 230q58 0 95 -37t37 -93q0 -55 -37 -92.5t-95 -37.5t-95 37.5t-37 92.5q0 56 37 93t95 37z" />
    <glyph glyph-name="semicolon" unicode=";" horiz-adv-x="493" 
d="M246 1091q58 0 95 -37t37 -93q0 -55 -37 -92.5t-95 -37.5t-95 37.5t-37 92.5q0 56 37 93t95 37zM365 35q0 -107 -49 -206.5t-128 -167.5l-124 61q30 48 40.5 67t30 61.5t27 83t7.5 89.5v202h196v-190z" />
    <glyph glyph-name="less" unicode="&#x3c;" horiz-adv-x="1047" 
d="M923 1091v-211l-637 -249l637 -246v-212l-861 367v184z" />
    <glyph glyph-name="equal" unicode="=" horiz-adv-x="1172" 
d="M1022 768h-885v181h885v-181zM1022 342h-885v181h885v-181z" />
    <glyph glyph-name="greater" unicode="&#x3e;" horiz-adv-x="1053" 
d="M114 1091l861 -367v-183l-861 -367v211l635 249l-635 246v211z" />
    <glyph glyph-name="question" unicode="?" horiz-adv-x="981" 
d="M364 438q1 126 33.5 208t116.5 154q90 80 129 139.5t39 143.5q0 101 -50 156.5t-146 55.5q-91 0 -148.5 -57.5t-59.5 -160.5h-220q2 195 121.5 297t306.5 102q196 0 306 -102.5t110 -281.5q0 -63 -15 -115.5t-51 -102t-70 -84.5t-97 -93q-62 -52 -86.5 -112.5
t-26.5 -146.5h-192zM465 230q58 0 95 -37t37 -93q0 -55 -37 -92.5t-95 -37.5t-95 37.5t-37 92.5q0 56 37 93t95 37z" />
    <glyph glyph-name="at" unicode="@" horiz-adv-x="1860" 
d="M978 1410q263 0 443.5 -109t264 -303t72.5 -458q-4 -107 -30 -203.5t-74.5 -178.5t-129 -130.5t-183.5 -48.5q-88 0 -151.5 43.5t-91.5 121.5q-102 -162 -286 -162q-143 0 -219.5 124.5t-57.5 329.5q27 251 154.5 402t307.5 151q68 0 125 -18t85 -35.5t79 -56.5l-50 -586
q-6 -56 4.5 -95t33.5 -57t45.5 -25.5t47.5 -7.5q109 0 175.5 119t73.5 306q9 172 -25 308.5t-111 235.5t-205 152t-301 53q-206 0 -368 -104t-255 -289t-105 -423q-17 -366 155.5 -573.5t499.5 -207.5q86 0 176.5 20t153.5 51l33 -120q-64 -42 -167 -65.5t-200 -23.5
q-396 0 -607.5 239.5t-195.5 679.5q12 277 123 490.5t308.5 333.5t452.5 120zM857 120q155 0 227 217l41 487q-52 26 -117 26q-125 0 -203.5 -104.5t-99.5 -309.5q-14 -147 25 -231.5t127 -84.5z" />
    <glyph glyph-name="A" unicode="A" horiz-adv-x="1326" 
d="M1070 0l-115 334h-584l-115 -334h-243l540 1456h219l542 -1456h-244zM435 522h455l-227 663z" />
    <glyph glyph-name="B" unicode="B" horiz-adv-x="1286" 
d="M922 747q130 -27 199 -118t69 -209q0 -205 -132 -312.5t-374 -107.5h-535v1456h467q253 0 391 -98t138 -293q0 -113 -55.5 -198t-167.5 -120zM616 1268h-240v-448h247q150 0 222.5 55t72.5 166q0 116 -74 171.5t-228 55.5zM684 187q135 0 207 63.5t72 171.5
q0 105 -67 170t-200 65h-320v-470h308z" />
    <glyph glyph-name="C" unicode="C" horiz-adv-x="1337" 
d="M1248 475q-16 -232 -166.5 -363.5t-400.5 -131.5q-269 0 -424.5 184.5t-155.5 497.5v132q0 312 157.5 497.5t421.5 185.5q253 0 400.5 -134t168.5 -367h-226q-13 155 -96 232.5t-247 77.5q-168 0 -258 -124t-90 -366v-134q0 -492 349 -492q317 0 340 305h227z" />
    <glyph glyph-name="D" unicode="D" horiz-adv-x="1332" 
d="M588 1456q282 0 463.5 -188.5t181.5 -486.5v-106q0 -148 -48.5 -274t-133 -214t-204 -137.5t-258.5 -49.5h-440v1456h439zM1002 675v108q0 225 -111.5 355t-302.5 130h-212v-1081h213q190 0 301.5 130.5t111.5 357.5z" />
    <glyph glyph-name="E" unicode="E" horiz-adv-x="1155" 
d="M1102 1268h-726v-429h625v-182h-625v-470h725v-187h-952v1456h953v-188z" />
    <glyph glyph-name="F" unicode="F" horiz-adv-x="1141" 
d="M1090 1268h-714v-448h637v-188h-637v-632h-227v1456h941v-188z" />
    <glyph glyph-name="G" unicode="G" horiz-adv-x="1400" 
d="M1269 171q-60 -72 -199.5 -131.5t-343.5 -59.5q-276 0 -442.5 182.5t-166.5 498.5v142q0 311 163 492.5t427 181.5q133 0 236.5 -34.5t170.5 -97.5t105 -146.5t49 -186.5h-220q-43 277 -334 277q-170 0 -268 -128t-98 -356v-144q0 -234 102 -364t289 -130q113 0 191.5 29
t111.5 65v302h-327v170h554v-562z" />
    <glyph glyph-name="H" unicode="H" horiz-adv-x="1440" 
d="M1064 1456h227v-1456h-227v652h-688v-652h-227v1456h227v-617h688v617z" />
    <glyph glyph-name="I" unicode="I" horiz-adv-x="582" 
d="M404 0h-226v1456h226v-1456z" />
    <glyph glyph-name="J" unicode="J" horiz-adv-x="1140" 
d="M767 1456h227v-1005q0 -216 -132.5 -343.5t-335.5 -127.5q-216 0 -342 112t-126 333h228q0 -134 60 -196t180 -62q108 0 174.5 75t66.5 209v1005z" />
    <glyph glyph-name="K" unicode="K" horiz-adv-x="1304" 
d="M1017 0l-458 640l-183 -188v-452h-227v1456h227v-729l168 214l437 515h285l-554 -651l576 -805h-271z" />
    <glyph glyph-name="L" unicode="L" horiz-adv-x="1090" 
d="M376 187h669v-187h-896v1456h227v-1269z" />
    <glyph glyph-name="M" unicode="M" horiz-adv-x="1780" 
d="M1630 1456v-1456h-228v479l24 725l-460 -1204h-155l-459 1201l24 -722v-479h-227v1456h300l439 -1153l440 1153h302z" />
    <glyph glyph-name="N" unicode="N" horiz-adv-x="1444" 
d="M1295 0h-227l-692 1082v-1082h-227v1456h227l692 -1080v1080h227v-1456z" />
    <glyph glyph-name="O" unicode="O" horiz-adv-x="1395" 
d="M1297 668q0 -313 -165 -500.5t-434 -187.5q-270 0 -435.5 187.5t-165.5 500.5v120q0 313 165 500.5t434 187.5q270 0 435.5 -187.5t165.5 -500.5v-120zM1067 790q0 232 -98 364t-273 132q-176 0 -272 -131.5t-96 -364.5v-122q0 -233 97 -365.5t273 -132.5
q175 0 272 132.5t97 365.5v122z" />
    <glyph glyph-name="P" unicode="P" horiz-adv-x="1292" 
d="M679 1456q245 0 385 -129t140 -339q0 -206 -138.5 -327t-386.5 -121h-303v-540h-227v1456h530zM679 728q149 0 222 71t73 187q0 124 -73.5 203t-221.5 79h-303v-540h303z" />
    <glyph glyph-name="Q" unicode="Q" horiz-adv-x="1395" 
d="M1298 668q0 -202 -71.5 -355.5t-200.5 -238.5l248 -212l-144 -127l-300 258q-59 -13 -131 -13q-270 0 -435.5 187.5t-165.5 500.5v120q0 313 165 500.5t434 187.5q270 0 435.5 -187.5t165.5 -500.5v-120zM1067 668v122q0 232 -97.5 364t-272.5 132q-176 0 -272 -131.5
t-96 -364.5v-122q0 -233 97 -365.5t273 -132.5q175 0 271.5 132.5t96.5 365.5z" />
    <glyph glyph-name="R" unicode="R" horiz-adv-x="1332" 
d="M911 614l336 -599v-15h-243l-305 556h-325v-556h-227v1456h525q240 0 380.5 -112.5t140.5 -319.5q0 -157 -75.5 -259.5t-206.5 -150.5zM374 1268v-524h317q132 0 203 73t71 187q0 124 -77.5 194t-215.5 70h-298z" />
    <glyph glyph-name="S" unicode="S" horiz-adv-x="1250" 
d="M611 645q-90 28 -157 54.5t-132.5 65t-106.5 82.5t-66.5 105.5t-25.5 134.5q0 177 147.5 283t378.5 106t375 -122t144 -322h-226q0 116 -79.5 188t-217.5 72q-139 0 -217.5 -59.5t-78.5 -146.5q0 -85 79 -144.5t259 -109.5q243 -72 365 -177.5t122 -280.5
q0 -185 -143 -289.5t-376 -104.5q-109 0 -208 26.5t-183.5 80.5t-135 147t-50.5 215h227q0 -78 28.5 -135.5t78.5 -89t110.5 -46t132.5 -14.5q136 0 214 58t78 150q0 97 -70.5 156t-265.5 117z" />
    <glyph glyph-name="T" unicode="T" horiz-adv-x="1261" 
d="M1216 1456v-188h-475v-1268h-227v1268h-469v188h1171z" />
    <glyph glyph-name="U" unicode="U" horiz-adv-x="1360" 
d="M1221 1456v-965q0 -245 -147.5 -378t-392.5 -133t-394 133t-149 378v965h228v-965q0 -160 84.5 -242t230.5 -82t229 82t83 242v965h228z" />
    <glyph glyph-name="V" unicode="V" horiz-adv-x="1301" 
d="M1035 1456h253l-514 -1456h-248l-513 1456h252l383 -1190l2 -11l2 11z" />
    <glyph glyph-name="W" unicode="W" horiz-adv-x="1811" 
d="M1542 1456h228l-344 -1456h-235l-287 1119l-285 -1119h-235l-345 1456h229l247 -1170l291 1170h198l292 -1171z" />
    <glyph glyph-name="X" unicode="X" horiz-adv-x="1274" 
d="M637 900l334 556h262l-447 -719l461 -737h-264l-346 573l-347 -573h-263l461 737l-447 719h262z" />
    <glyph glyph-name="Y" unicode="Y" horiz-adv-x="1258" 
d="M628 739l368 717h249l-502 -921v-535h-230v535l-502 921h252z" />
    <glyph glyph-name="Z" unicode="Z" horiz-adv-x="1238" 
d="M369 187h801v-187h-1091v131l786 1138h-773v187h1060v-126z" />
    <glyph glyph-name="bracketleft" unicode="[" horiz-adv-x="523" 
d="M524 1518h-166v-1681h166v-172h-386v2025h386v-172z" />
    <glyph glyph-name="backslash" unicode="\" horiz-adv-x="834" 
d="M13 1456h228l608 -1581h-228z" />
    <glyph glyph-name="bracketright" unicode="]" horiz-adv-x="523" 
d="M6 1690h385v-2025h-385v172h165v1681h-165v172z" />
    <glyph glyph-name="asciicircum" unicode="^" horiz-adv-x="887" 
d="M823 729h-175l-207 529l-208 -529h-174l299 727h166z" />
    <glyph glyph-name="underscore" unicode="_" horiz-adv-x="884" 
d="M883 -175h-883v175h883v-175z" />
    <glyph glyph-name="grave" unicode="`" horiz-adv-x="631" 
d="M522 1240h-184l-248 296h237z" />
    <glyph glyph-name="a" unicode="a" horiz-adv-x="1087" 
d="M959 252q0 -160 39 -238v-14h-223q-20 49 -30 129q-114 -149 -323 -149q-153 0 -253.5 88t-100.5 225q0 162 129.5 254t373.5 92h168v96q0 95 -54 148t-158 53q-95 0 -154 -47t-59 -127l-220 1q0 144 124 241.5t320 97.5q189 0 305 -95t116 -274v-481zM468 148
q98 0 169 43t102 111v205h-166q-137 0 -211.5 -57.5t-74.5 -146.5q0 -66 51 -110.5t130 -44.5z" />
    <glyph glyph-name="b" unicode="b" horiz-adv-x="1141" 
d="M642 1102q202 0 309 -148.5t107 -400.5v-21q0 -166 -45.5 -289t-140 -193t-228.5 -70q-195 0 -306 159l-11 -139h-199v1536h219v-587q109 153 295 153zM838 532v21q0 168 -58.5 268t-187.5 100q-186 0 -245 -167v-434q60 -160 247 -160q244 0 244 372z" />
    <glyph glyph-name="c" unicode="c" horiz-adv-x="1056" 
d="M780 364h207q-3 -173 -126.5 -278.5t-307.5 -105.5q-154 0 -264 71.5t-163.5 193t-53.5 281.5v30q0 243 125.5 394.5t353.5 151.5q190 0 311.5 -109t124.5 -303h-207q-3 106 -67 168.5t-166 62.5q-70 0 -121 -28.5t-79.5 -80t-41.5 -115t-13 -141.5v-30q0 -365 257 -365
q98 0 162.5 52.5t68.5 150.5z" />
    <glyph glyph-name="d" unicode="d" horiz-adv-x="1141" 
d="M793 1536h220v-1536h-200l-12 140q-114 -160 -304 -160q-195 0 -305 151.5t-110 397.5v21q0 254 109.5 403t307.5 149q184 0 294 -155v589zM547 161q182 0 246 157v436q-61 167 -244 167q-125 0 -186 -100.5t-61 -270.5v-21q0 -168 60 -268t185 -100z" />
    <glyph glyph-name="e" unicode="e" horiz-adv-x="1082" 
d="M1024 598v-109h-731q7 -145 93.5 -236.5t221.5 -91.5q181 0 280 126l107 -123q-57 -80 -160 -132t-240 -52q-232 0 -377 152t-145 378v40q0 158 59.5 283t172.5 197t261 72q211 0 334.5 -137t123.5 -367zM809 640v21q0 115 -65.5 187.5t-179.5 72.5q-112 0 -179.5 -77.5
t-85.5 -203.5h510z" />
    <glyph glyph-name="f" unicode="f" horiz-adv-x="704" 
d="M610 1376q-87 0 -135.5 -47t-48.5 -134v-113h240v-165h-240v-917h-220v917h-170v165h170v113q0 174 96 268t265 94q73 0 144 -19l-3 -173q-46 11 -98 11z" />
    <glyph glyph-name="g" unicode="g" horiz-adv-x="1156" 
d="M825 1082h201v-1050q0 -217 -132.5 -339.5t-357.5 -122.5q-112 0 -216 45.5t-168 124.5l100 136q112 -132 276 -132q134 0 206 76t72 213v93q-110 -146 -296 -146q-131 0 -228.5 70.5t-148 194.5t-50.5 284v21q0 252 115 402t314 150t303 -154zM561 161q180 0 245 144
v463q-65 153 -243 153q-126 0 -193 -102t-67 -269v-21q0 -165 66 -266.5t192 -101.5z" />
    <glyph glyph-name="h" unicode="h" horiz-adv-x="1141" 
d="M662 1102q355 0 355 -419v-683h-220v684q0 132 -53.5 184.5t-157.5 52.5q-178 0 -243 -169v-752h-220v1536h220v-615q55 86 137 133.5t182 47.5z" />
    <glyph glyph-name="i" unicode="i" horiz-adv-x="505" 
d="M252 1506q58 0 95 -34.5t37 -87.5q0 -54 -37 -88.5t-95 -34.5t-94.5 34.5t-36.5 88.5t36.5 88t94.5 34zM363 0h-220v1082h220v-1082z" />
    <glyph glyph-name="j" unicode="j" horiz-adv-x="508" 
d="M254 1506q58 0 95 -34.5t37 -87.5q0 -54 -37 -88.5t-95 -34.5t-94.5 35t-36.5 88t36.5 87.5t94.5 34.5zM366 1082v-1153q0 -176 -93.5 -271t-261.5 -95q-69 0 -134 18l1 177q58 -12 95 -12q84 0 129 46.5t45 136.5v1153h219z" />
    <glyph glyph-name="k" unicode="k" horiz-adv-x="1057" 
d="M814 0l-343 482l-123 -117v-365h-219v1537h219v-912l74 88l350 369h267l-425 -455l454 -627h-254z" />
    <glyph glyph-name="l" unicode="l" horiz-adv-x="505" 
d="M363 0h-220v1536h220v-1536z" />
    <glyph glyph-name="m" unicode="m" horiz-adv-x="1793" 
d="M1327 1102q165 0 254.5 -97.5t89.5 -316.5v-688h-220v688q0 133 -51 183.5t-149 49.5q-92 -1 -154.5 -50.5t-90.5 -128.5v-21v-721h-219v695q0 129 -50.5 177.5t-149.5 48.5q-89 0 -150.5 -51t-92.5 -132v-738h-219v1082h207l9 -165q55 88 140 136.5t195 48.5
q236 0 304 -198q53 93 141.5 145.5t205.5 52.5z" />
    <glyph glyph-name="n" unicode="n" horiz-adv-x="1141" 
d="M675 1102q165 0 253.5 -97.5t88.5 -316.5v-688h-220v689q0 131 -53 181.5t-157 50.5q-91 0 -152 -49t-92 -128v-744h-219v1082h207l9 -164q56 88 142 136t193 48z" />
    <glyph glyph-name="o" unicode="o" horiz-adv-x="1143" 
d="M70 555q0 242 134.5 394.5t365.5 152.5q233 0 368 -152t135 -395v-29q0 -242 -134.5 -394t-366.5 -152t-367 152t-135 394v29zM289 526q0 -160 72 -262.5t211 -102.5q93 0 158 50.5t94.5 131t29.5 183.5v29q0 101 -29.5 181.5t-95 132.5t-159.5 52q-92 0 -157 -51.5
t-94.5 -132.5t-29.5 -182v-29z" />
    <glyph glyph-name="p" unicode="p" horiz-adv-x="1141" 
d="M642 1102q198 0 307 -147.5t109 -401.5v-21q0 -247 -109.5 -399.5t-304.5 -152.5q-186 0 -297 147v-543h-219v1498h206l9 -137q108 157 299 157zM839 532v21q0 169 -61 268.5t-186 99.5q-187 0 -245 -163v-439q61 -158 247 -158q124 0 184.5 101.5t60.5 269.5z" />
    <glyph glyph-name="q" unicode="q" horiz-adv-x="1141" 
d="M819 1082h194v-1498h-220v543q-111 -147 -296 -147q-195 0 -305 152t-110 399v21q0 254 109.5 402t307.5 148q193 0 303 -164zM547 161q183 0 246 155v443q-60 162 -244 162q-125 0 -186 -100t-61 -269v-21q0 -168 60 -269t185 -101z" />
    <glyph glyph-name="r" unicode="r" horiz-adv-x="736" 
d="M625 1102q53 0 86 -12l-6 -211q-58 7 -94 7q-104 0 -170.5 -48.5t-92.5 -135.5v-702h-219v1082h207l8 -164q93 184 281 184z" />
    <glyph glyph-name="s" unicode="s" horiz-adv-x="1039" 
d="M478 467q-183 39 -279.5 113.5t-96.5 205.5q0 133 111.5 224.5t298.5 91.5q201 0 319 -92.5t118 -243.5h-220q0 80 -55.5 129t-161.5 49q-95 0 -148 -42.5t-53 -103.5q0 -62 52 -101.5t189 -68.5q95 -19 163 -43.5t123.5 -63t83 -95t27.5 -131.5q0 -138 -118.5 -226.5
t-315.5 -88.5q-105 0 -192 29t-142 77.5t-84.5 108.5t-29.5 124h207q6 -93 75 -137t171 -44t159.5 44t57.5 107q0 59 -56.5 102.5t-202.5 75.5z" />
    <glyph glyph-name="t" unicode="t" horiz-adv-x="680" 
d="M630 171l4 -169q-66 -22 -158 -22q-142 0 -215.5 73t-73.5 238v626h-165v165h165v278h220v-278h205v-165h-205v-600q0 -89 31.5 -121t98.5 -32q54 0 93 7z" />
    <glyph glyph-name="u" unicode="u" horiz-adv-x="1141" 
d="M796 1082h221v-1082h-208l-7 133q-110 -153 -321 -153q-168 0 -263.5 98.5t-95.5 308.5v695h220v-697q0 -115 53.5 -169.5t148.5 -54.5q193 0 252 152v769z" />
    <glyph glyph-name="v" unicode="v" horiz-adv-x="1023" 
d="M771 1082h231l-382 -1082h-219l-381 1082h231l260 -823z" />
    <glyph glyph-name="w" unicode="w" horiz-adv-x="1515" 
d="M1247 1082h215l-282 -1082h-189l-228 743l-9 44l-9 -43l-229 -744h-187l-282 1082h214l169 -760l9 -75l13 72l222 763h161l222 -762l12 -68l9 80z" />
    <glyph glyph-name="x" unicode="x" horiz-adv-x="1023" 
d="M514 714l234 368h234l-326 -527l342 -555h-234l-250 392l-248 -392h-236l342 555l-325 527h236z" />
    <glyph glyph-name="y" unicode="y" horiz-adv-x="1023" 
d="M777 1082h235l-452 -1250q-12 -33 -22 -56t-28.5 -58t-43 -59.5t-57 -48t-77.5 -35.5t-99 -12q-57 0 -115 17v168q36 -4 55 -4q84 0 128 35t70 105l43 113l-399 1085h236l267 -786z" />
    <glyph glyph-name="z" unicode="z" horiz-adv-x="1023" 
d="M359 181h602v-181h-885v133l572 768h-548v181h831v-131z" />
    <glyph glyph-name="braceleft" unicode="{" horiz-adv-x="666" 
d="M448 73q0 -268 195 -337l-45 -127q-96 28 -164.5 74.5t-107.5 108t-56 130.5t-17 151v219q0 108 -48.5 168t-149.5 60v165q198 0 198 227v220q0 83 17 151.5t56 130t107.5 108.5t164.5 75l43 -126q-193 -66 -193 -339v-220q0 -107 -46.5 -188t-142.5 -122
q96 -41 142.5 -122t46.5 -188v-219z" />
    <glyph glyph-name="bar" unicode="|" horiz-adv-x="478" 
d="M308 -270h-132v1726h132v-1726z" />
    <glyph glyph-name="braceright" unicode="}" horiz-adv-x="666" 
d="M413 912q0 -108 48.5 -167.5t150.5 -59.5v-165q-101 0 -150 -60t-49 -168v-219q0 -65 -10.5 -121.5t-35 -110t-63.5 -96.5t-98.5 -78t-136.5 -58l-45 127q195 69 195 337v219q0 108 47.5 188.5t143.5 121.5q-96 41 -143.5 121.5t-47.5 188.5v220q0 273 -193 339l43 126
q96 -28 164.5 -75t107 -108.5t55.5 -130.5t17 -151v-220z" />
    <glyph glyph-name="asciitilde" unicode="~" horiz-adv-x="1347" 
d="M1221 781q0 -173 -84 -279t-225 -106q-80 0 -142 32t-140 106q-56 52 -97.5 74.5t-90.5 22.5q-72 0 -114.5 -55.5t-42.5 -148.5l-163 2q0 176 82 279.5t225 103.5q80 0 145 -33t140 -104q55 -52 97 -75t88 -23q72 0 114.5 57t42.5 148z" />
    <glyph glyph-name="exclamdown" unicode="&#xa1;" horiz-adv-x="528" 
d="M263 851q-57 0 -94 36t-37 90t37 89.5t94 35.5q58 0 95 -35.5t37 -89.5t-37 -90t-95 -36zM174 651h183l25 -1018h-233z" />
    <glyph glyph-name="cent" unicode="&#xa2;" horiz-adv-x="1166" 
d="M589 161q98 0 162.5 52.5t68.5 150.5h207q-3 -154 -103 -255.5t-256 -123.5v-230h-145v229q-132 16 -225.5 90t-139.5 189.5t-46 262.5v30q0 224 107 371.5t304 170.5v220h145v-221q160 -22 258 -128t101 -279h-207q-3 106 -67 168.5t-166 62.5q-70 0 -121 -28.5
t-79.5 -80t-41.5 -115t-13 -141.5v-30q0 -365 257 -365z" />
    <glyph glyph-name="sterling" unicode="&#xa3;" horiz-adv-x="1197" 
d="M210 187q79 22 77 205l-6 210h-182v181h176l-8 256q0 205 114 320.5t307 115.5q205 0 318 -112t113 -299h-215q0 116 -59 170t-154 54q-92 0 -144.5 -64t-52.5 -185l9 -256h332v-181h-325l7 -196q2 -143 -67 -219h678l1 -187h-1026v187h107z" />
    <glyph glyph-name="currency" unicode="&#xa4;" horiz-adv-x="1442" 
d="M1314 608q0 -208 -114 -373l155 -157l-104 -105l-148 152q-166 -145 -383 -145t-382 144l-147 -150l-102 104l152 154q-117 164 -117 376q0 221 126 388l-161 164l102 104l159 -162q162 132 370 132q211 0 370 -134l161 165l104 -105l-164 -167q123 -168 123 -385z
M720 119q124 0 229.5 64.5t167.5 177.5t62 247t-62 246.5t-167.5 176.5t-229.5 64q-191 0 -325.5 -141.5t-134.5 -345.5q0 -205 134.5 -347t325.5 -142z" />
    <glyph glyph-name="yen" unicode="&#xa5;" horiz-adv-x="1079" 
d="M1059 1456l-352 -739h264v-139h-321v-153h321v-138h-321v-287h-227v287h-337v138h337v153h-337v139h285l-352 739h236l285 -647l283 647h236z" />
    <glyph glyph-name="brokenbar" unicode="&#xa6;" horiz-adv-x="474" 
d="M336 698h-195v758h195v-758zM141 -270v779h195v-779h-195z" />
    <glyph glyph-name="section" unicode="&#xa7;" horiz-adv-x="1269" 
d="M960 202q83 -50 124 -121.5t41 -175.5q0 -173 -134 -268.5t-363 -95.5q-82 0 -155 12.5t-142.5 43t-119 77t-79.5 120t-30 166.5l219 1q0 -68 26.5 -117t72.5 -74.5t97 -36.5t111 -11q132 0 204.5 49t72.5 133q0 80 -66 129t-250 98q-120 30 -203 63t-150 80t-99.5 112
t-32.5 151q0 95 50 165t142 110q-162 101 -162 293q0 169 136 270t363 101q235 0 367.5 -111t132.5 -316h-219q0 107 -74 176.5t-207 69.5q-139 0 -209 -52.5t-70 -135.5q0 -59 26 -96t93 -68t199 -67q97 -25 167.5 -49.5t133 -58t100.5 -74.5t59.5 -96t21.5 -124
q0 -190 -194 -272zM324 562q0 -93 65.5 -140.5t272.5 -107.5q80 -21 129 -38q70 22 108.5 67.5t38.5 105.5q0 86 -72.5 138t-270.5 109q-94 26 -139 42q-132 -41 -132 -176z" />
    <glyph glyph-name="dieresis" unicode="&#xa8;" horiz-adv-x="961" 
d="M237 1490q47 0 79.5 -30t32.5 -74q0 -43 -32.5 -73t-79.5 -30t-79.5 30t-32.5 73q0 44 32.5 74t79.5 30zM721 1490q47 0 80 -30t33 -74q0 -43 -33 -73t-80 -30t-79 30t-32 73q0 44 32 74t79 30z" />
    <glyph glyph-name="copyright" unicode="&#xa9;" horiz-adv-x="1630" 
d="M810 1476q145 0 276 -57.5t226.5 -156.5t151.5 -238t56 -295t-56 -295t-151.5 -238.5t-226.5 -157.5t-276 -58q-144 0 -275.5 58t-226.5 157.5t-151.5 238.5t-56.5 295t56.5 295t151.5 238t226 156.5t276 57.5zM810 78q124 0 237.5 50.5t196 137t131 207.5t48.5 256
t-48.5 255.5t-131 206.5t-195.5 136.5t-238 50.5t-238 -50.5t-195.5 -136.5t-131 -206.5t-48.5 -255.5t48.5 -256t131 -207.5t195.5 -137t238 -50.5zM1120 604q0 -154 -85 -234t-236 -80q-154 0 -246 106.5t-92 280.5v103q0 173 92.5 280t245.5 107q151 0 236.5 -80
t85.5 -233h-116q0 210 -206 210q-105 0 -163 -78.5t-58 -204.5v-104q0 -127 58 -205t163 -78q102 0 153.5 50.5t51.5 159.5h116z" />
    <glyph glyph-name="ordfeminine" unicode="&#xaa;" horiz-adv-x="903" 
d="M763 705h-131q-15 45 -19 85q-82 -99 -216 -99q-119 0 -184 59.5t-65 161.5q0 111 84.5 171t247.5 60h128v58q0 78 -37.5 120.5t-110.5 42.5q-82 0 -128.5 -33.5t-46.5 -96.5l-128 9q0 102 83.5 167.5t219.5 65.5q127 0 202 -71t75 -205v-314q0 -97 26 -181zM424 801
q51 0 103.5 26.5t80.5 63.5v159h-127q-100 0 -152.5 -36t-52.5 -98q0 -115 148 -115z" />
    <glyph glyph-name="guillemotleft" unicode="&#xab;" horiz-adv-x="991" 
d="M531 911l-257 -392l257 -392h-150l-283 382v19l283 383h150zM890 911l-257 -392l257 -392h-150l-283 382v19l283 383h150z" />
    <glyph glyph-name="logicalnot" unicode="&#xac;" horiz-adv-x="1116" 
d="M124 785h819v-403h-144v277h-675v126z" />
    <glyph glyph-name="uni00AD" unicode="&#xad;" horiz-adv-x="600" 
d="M776 551h-666v182h666v-182z" />
    <glyph glyph-name="registered" unicode="&#xae;" horiz-adv-x="1633" 
d="M807 1476q145 0 276 -57.5t226.5 -156.5t151.5 -238t56 -295t-56 -295t-151.5 -238.5t-226.5 -157.5t-276 -58t-276 58t-226.5 157.5t-151.5 238.5t-56 295t56 295t151.5 238t226.5 156.5t276 57.5zM807 78q124 0 237.5 50.5t196 137t131 207.5t48.5 256t-48.5 255.5
t-131 206.5t-195.5 136.5t-238 50.5t-238.5 -50.5t-196 -136.5t-131 -206.5t-48.5 -255.5q0 -108 31 -208t88 -179.5t132.5 -139.5t169 -92t193.5 -32zM1102 511v-48q0 -85 17 -127v-16h-118q-13 34 -13 144v46q0 81 -36.5 117t-122.5 36h-179v-343h-114v842h265
q148 0 229.5 -65.5t81.5 -189.5q0 -121 -123 -183q113 -52 113 -213zM809 767q81 0 135.5 37t54.5 104q0 82 -44 116.5t-154 34.5h-151v-292h159z" />
    <glyph glyph-name="macron" unicode="&#xaf;" horiz-adv-x="960" 
d="M804 1323h-644v127h644v-127z" />
    <glyph glyph-name="degree" unicode="&#xb0;" horiz-adv-x="798" 
d="M399 1476q106 0 182 -78t76 -187t-75.5 -185.5t-182.5 -76.5q-108 0 -184.5 76.5t-76.5 185.5t77 187t184 78zM399 1065q61 0 101.5 41.5t40.5 104.5q0 64 -40.5 107t-101.5 43t-104 -43t-43 -107q0 -62 43 -104t104 -42z" />
    <glyph glyph-name="plusminus" unicode="&#xb1;" horiz-adv-x="1092" 
d="M641 909h356v-188h-356v-391h-194v391h-366v188h366v374h194v-374zM111 0v183h859v-183h-859z" />
    <glyph glyph-name="uni00B2" unicode="&#xb2;" 
d="M679 666h-594v108l288 269q121 111 121 185q0 52 -33 81.5t-96 29.5q-69 0 -106.5 -38.5t-37.5 -97.5h-155q0 111 80.5 187.5t211.5 76.5q137 0 214 -62.5t77 -176.5q0 -78 -49 -142.5t-159 -155.5l-152 -137h390v-127z" />
    <glyph glyph-name="uni00B3" unicode="&#xb3;" 
d="M517 1070q160 -40 160 -186q0 -107 -87.5 -168t-224.5 -61q-77 0 -144 23t-115 80t-48 140h156q0 -49 45 -82.5t115 -33.5q72 0 109.5 32t37.5 84q0 117 -165 117h-82v107h82q73 0 111 30.5t38 80.5q0 45 -34 75.5t-104 30.5q-60 0 -99.5 -26t-39.5 -70h-154
q0 104 84 164t205 60q135 0 216.5 -59t81.5 -165q0 -60 -38.5 -104.5t-105.5 -68.5z" />
    <glyph glyph-name="acute" unicode="&#xb4;" horiz-adv-x="620" 
d="M300 1536h237l-246 -296h-185z" />
    <glyph glyph-name="paragraph" unicode="&#xb6;" horiz-adv-x="981" 
d="M678 0v520h-99q-233 0 -362.5 130t-129.5 338q0 207 130 337.5t362 130.5h259v-1456h-160z" />
    <glyph glyph-name="periodcentered" unicode="&#xb7;" horiz-adv-x="579" 
d="M286 733q58 0 95 -37t37 -93t-37 -93t-95 -37t-95 37t-37 93t37 93t95 37z" />
    <glyph glyph-name="cedilla" unicode="&#xb8;" horiz-adv-x="535" 
d="M304 6l-11 -67q70 -10 115.5 -50t45.5 -121q0 -104 -88 -165t-247 -61l-7 134q62 0 106 25.5t44 75.5q0 47 -36 66.5t-121 26.5l29 136h170z" />
    <glyph glyph-name="uni00B9" unicode="&#xb9;" 
d="M498 666h-155v605l-206 -53v124l346 112h15v-788z" />
    <glyph glyph-name="ordmasculine" unicode="&#xba;" horiz-adv-x="929" 
d="M130 1129q0 153 89.5 250t239.5 97q152 0 241.5 -96.5t89.5 -250.5v-93q0 -154 -89 -250t-240 -96t-241 96t-90 250v93zM258 1036q0 -104 51.5 -169.5t151.5 -65.5q97 0 149 65.5t52 169.5v93q0 103 -52 169t-151 66q-97 0 -149 -66t-52 -169v-93z" />
    <glyph glyph-name="guillemotright" unicode="&#xbb;" horiz-adv-x="988" 
d="M531 519l-282 -383h-150l257 393l-257 395h150l282 -386v-19zM611 924l282 -386v-19l-282 -383h-150l257 393l-257 395h150z" />
    <glyph glyph-name="questiondown" unicode="&#xbf;" horiz-adv-x="988" 
d="M530 847q-57 0 -94 37t-37 93q0 55 37 92.5t94 37.5q58 0 95 -37.5t37 -92.5q0 -56 -37 -93t-95 -37zM624 655q-1 -130 -26.5 -200t-106.5 -141q-42 -39 -60.5 -57.5t-48 -53t-42.5 -60.5t-23.5 -63.5t-10.5 -79.5q0 -99 51 -151t144 -52q95 0 151 57t58 161h220
q-3 -198 -120.5 -298t-304.5 -100q-197 0 -308 101.5t-111 282.5q0 54 14 103.5t33 86t57.5 81.5t67 72.5t80.5 75.5q60 50 76 97t18 138h192z" />
    <glyph glyph-name="Agrave" unicode="&#xc0;" horiz-adv-x="1326" 
d="M797 1554h-184l-248 296h237zM1070 0l-115 334h-584l-115 -334h-243l540 1456h219l542 -1456h-244zM435 522h455l-227 663z" />
    <glyph glyph-name="Aacute" unicode="&#xc1;" horiz-adv-x="1326" 
d="M978 1850l-246 -296h-184l194 296h236zM1070 0l-115 334h-584l-115 -334h-243l540 1456h219l542 -1456h-244zM435 522h455l-227 663z" />
    <glyph glyph-name="Acircumflex" unicode="&#xc2;" horiz-adv-x="1326" 
d="M663 1723l-167 -159h-178v16l281 263h130l286 -267v-12h-182zM1070 0l-115 334h-584l-115 -334h-243l540 1456h219l542 -1456h-244zM435 522h455l-227 663z" />
    <glyph glyph-name="Atilde" unicode="&#xc3;" horiz-adv-x="1326" 
d="M536 1686q-42 0 -68.5 -26.5t-26.5 -76.5l-133 6q0 99 59.5 168t148.5 69q40 0 79.5 -15.5t67 -34t64 -34t70.5 -15.5q42 0 69.5 28t27.5 78l132 -7q0 -101 -60 -170.5t-150 -69.5q-44 0 -84 15.5t-65 34.5t-60 34.5t-71 15.5zM1070 0l-115 334h-584l-115 -334h-243
l540 1456h219l542 -1456h-244zM435 522h455l-227 663z" />
    <glyph glyph-name="Adieresis" unicode="&#xc4;" horiz-adv-x="1326" 
d="M421 1597q-47 0 -79.5 30t-32.5 73q0 44 32.5 74t79.5 30t79.5 -30t32.5 -74q0 -43 -32.5 -73t-79.5 -30zM905 1597q-47 0 -79 30t-32 73q0 44 32 74t79 30t80 -30t33 -74q0 -43 -33 -73t-80 -30zM1070 0l-115 334h-584l-115 -334h-243l540 1456h219l542 -1456h-244z
M435 522h455l-227 663z" />
    <glyph glyph-name="Aring" unicode="&#xc5;" horiz-adv-x="1326" 
d="M666 1531q-87 0 -145.5 54t-58.5 134t58.5 136t145.5 56q86 0 144.5 -56t58.5 -136t-58 -134t-145 -54zM666 1830q-49 0 -79.5 -31.5t-30.5 -79.5q0 -47 30.5 -78t79.5 -31t79 31t30 78q0 48 -30 79.5t-79 31.5zM1070 0l-115 334h-584l-115 -334h-243l540 1456h219
l542 -1456h-244zM435 522h455l-227 663z" />
    <glyph glyph-name="AE" unicode="&#xc6;" horiz-adv-x="1884" 
d="M1192 184h630v-184h-841l-15 366h-491l-193 -366h-255l800 1456h934v-183h-614l18 -431h515v-184h-508zM573 553h385l-28 676z" />
    <glyph glyph-name="Ccedilla" unicode="&#xc7;" horiz-adv-x="1337" 
d="M681 170q317 0 340 305h227q-14 -210 -140.5 -339t-339.5 -152l-8 -49q70 -10 115.5 -50t45.5 -121q0 -104 -88 -165t-247 -61l-7 134q62 0 106 25.5t44 75.5q0 47 -36 66.5t-121 26.5l25 119q-232 28 -364 208.5t-132 468.5v132q0 312 157.5 497.5t421.5 185.5
q253 0 400.5 -134t168.5 -367h-226q-13 155 -96 232.5t-247 77.5q-168 0 -258 -124t-90 -366v-134q0 -492 349 -492z" />
    <glyph glyph-name="Egrave" unicode="&#xc8;" horiz-adv-x="1155" 
d="M766 1554h-184l-248 296h237zM1102 1268h-726v-429h625v-182h-625v-470h725v-187h-952v1456h953v-188z" />
    <glyph glyph-name="Eacute" unicode="&#xc9;" horiz-adv-x="1155" 
d="M947 1850l-246 -296h-184l194 296h236zM1102 1268h-726v-429h625v-182h-625v-470h725v-187h-952v1456h953v-188z" />
    <glyph glyph-name="Ecircumflex" unicode="&#xca;" horiz-adv-x="1155" 
d="M632 1723l-167 -159h-178v16l281 263h130l286 -267v-12h-182zM1102 1268h-726v-429h625v-182h-625v-470h725v-187h-952v1456h953v-188z" />
    <glyph glyph-name="Edieresis" unicode="&#xcb;" horiz-adv-x="1155" 
d="M390 1597q-47 0 -79.5 30t-32.5 73q0 44 32.5 74t79.5 30t79.5 -30t32.5 -74q0 -43 -32.5 -73t-79.5 -30zM874 1597q-47 0 -79 30t-32 73q0 44 32 74t79 30t80 -30t33 -74q0 -43 -33 -73t-80 -30zM1102 1268h-726v-429h625v-182h-625v-470h725v-187h-952v1456h953v-188z
" />
    <glyph glyph-name="Igrave" unicode="&#xcc;" horiz-adv-x="582" 
d="M424 1554h-184l-248 296h237zM404 0h-226v1456h226v-1456z" />
    <glyph glyph-name="Iacute" unicode="&#xcd;" horiz-adv-x="582" 
d="M369 1850h236l-246 -296h-184zM404 0h-226v1456h226v-1456z" />
    <glyph glyph-name="Icircumflex" unicode="&#xce;" horiz-adv-x="582" 
d="M642 1576v-12h-182l-170 159l-167 -159h-178v16l281 263h130zM404 0h-226v1456h226v-1456z" />
    <glyph glyph-name="Idieresis" unicode="&#xcf;" horiz-adv-x="582" 
d="M48 1804q47 0 79.5 -30t32.5 -74q0 -43 -32.5 -73t-79.5 -30t-79.5 30t-32.5 73q0 44 32.5 74t79.5 30zM532 1804q47 0 80 -30t33 -74q0 -43 -33 -73t-80 -30t-79 30t-32 73q0 44 32 74t79 30zM404 0h-226v1456h226v-1456z" />
    <glyph glyph-name="Eth" unicode="&#xd0;" horiz-adv-x="1332" 
d="M588 1456q282 0 463.5 -188.5t181.5 -486.5v-106q0 -148 -48.5 -274t-133 -214t-204 -137.5t-258.5 -49.5h-440v665h-143v138h143v653h439zM1002 675v108q0 225 -111.5 355t-302.5 130h-212v-465h300v-138h-300v-478h213q190 0 301.5 130.5t111.5 357.5z" />
    <glyph glyph-name="Ntilde" unicode="&#xd1;" horiz-adv-x="1444" 
d="M1088 1826q0 -101 -60 -170.5t-150 -69.5q-44 0 -84 15.5t-65 34.5t-60 34.5t-71 15.5q-42 0 -68.5 -26.5t-26.5 -76.5l-133 6q0 99 59.5 168t148.5 69q40 0 79.5 -15.5t67 -34t64 -34t70.5 -15.5q42 0 69.5 28t27.5 78zM1295 0h-227l-692 1082v-1082h-227v1456h227
l692 -1080v1080h227v-1456z" />
    <glyph glyph-name="Ograve" unicode="&#xd2;" horiz-adv-x="1395" 
d="M827 1562h-184l-248 296h237zM1297 668q0 -313 -165 -500.5t-434 -187.5q-270 0 -435.5 187.5t-165.5 500.5v120q0 313 165 500.5t434 187.5q270 0 435.5 -187.5t165.5 -500.5v-120zM1067 790q0 232 -98 364t-273 132q-176 0 -272 -131.5t-96 -364.5v-122
q0 -233 97 -365.5t273 -132.5q175 0 272 132.5t97 365.5v122z" />
    <glyph glyph-name="Oacute" unicode="&#xd3;" horiz-adv-x="1395" 
d="M772 1858h236l-246 -296h-184zM1297 668q0 -313 -165 -500.5t-434 -187.5q-270 0 -435.5 187.5t-165.5 500.5v120q0 313 165 500.5t434 187.5q270 0 435.5 -187.5t165.5 -500.5v-120zM1067 790q0 232 -98 364t-273 132q-176 0 -272 -131.5t-96 -364.5v-122
q0 -233 97 -365.5t273 -132.5q175 0 272 132.5t97 365.5v122z" />
    <glyph glyph-name="Ocircumflex" unicode="&#xd4;" horiz-adv-x="1395" 
d="M1045 1584v-12h-182l-170 159l-167 -159h-178v16l281 263h130zM1297 668q0 -313 -165 -500.5t-434 -187.5q-270 0 -435.5 187.5t-165.5 500.5v120q0 313 165 500.5t434 187.5q270 0 435.5 -187.5t165.5 -500.5v-120zM1067 790q0 232 -98 364t-273 132q-176 0 -272 -131.5
t-96 -364.5v-122q0 -233 97 -365.5t273 -132.5q175 0 272 132.5t97 365.5v122z" />
    <glyph glyph-name="Otilde" unicode="&#xd5;" horiz-adv-x="1395" 
d="M1056 1834q0 -101 -60 -170.5t-150 -69.5q-44 0 -84 15.5t-65 34.5t-60 34.5t-71 15.5q-42 0 -68.5 -26.5t-26.5 -76.5l-133 6q0 99 59.5 168t148.5 69q40 0 79.5 -15.5t67 -34t64 -34t70.5 -15.5q42 0 69.5 28t27.5 78zM1297 668q0 -313 -165 -500.5t-434 -187.5
q-270 0 -435.5 187.5t-165.5 500.5v120q0 313 165 500.5t434 187.5q270 0 435.5 -187.5t165.5 -500.5v-120zM1067 790q0 232 -98 364t-273 132q-176 0 -272 -131.5t-96 -364.5v-122q0 -233 97 -365.5t273 -132.5q175 0 272 132.5t97 365.5v122z" />
    <glyph glyph-name="Odieresis" unicode="&#xd6;" horiz-adv-x="1395" 
d="M451 1812q47 0 79.5 -30t32.5 -74q0 -43 -32.5 -73t-79.5 -30t-79.5 30t-32.5 73q0 44 32.5 74t79.5 30zM935 1812q47 0 80 -30t33 -74q0 -43 -33 -73t-80 -30t-79 30t-32 73q0 44 32 74t79 30zM1297 668q0 -313 -165 -500.5t-434 -187.5q-270 0 -435.5 187.5
t-165.5 500.5v120q0 313 165 500.5t434 187.5q270 0 435.5 -187.5t165.5 -500.5v-120zM1067 790q0 232 -98 364t-273 132q-176 0 -272 -131.5t-96 -364.5v-122q0 -233 97 -365.5t273 -132.5q175 0 272 132.5t97 365.5v122z" />
    <glyph glyph-name="multiply" unicode="&#xd7;" horiz-adv-x="1072" 
d="M992 249l-130 -127l-330 336l-330 -336l-129 127l332 339l-322 328l130 128l320 -326l319 326l129 -128l-321 -328z" />
    <glyph glyph-name="Oslash" unicode="&#xd8;" horiz-adv-x="1392" 
d="M1133 1293q170 -189 170 -505v-120q0 -313 -165 -500.5t-434 -187.5q-174 0 -310 82l-89 -149h-150l138 229q-190 190 -190 526v120q0 313 165 500.5t434 187.5q191 0 334 -97l78 130h149zM334 668q0 -205 75 -332l521 867q-91 83 -228 83q-176 0 -272 -131.5t-96 -364.5
v-122zM1073 668v122q0 180 -60 302l-515 -858q85 -64 206 -64q175 0 272 132.5t97 365.5z" />
    <glyph glyph-name="Ugrave" unicode="&#xd9;" horiz-adv-x="1360" 
d="M815 1554h-184l-248 296h237zM1221 1456v-965q0 -245 -147.5 -378t-392.5 -133t-394 133t-149 378v965h228v-965q0 -160 84.5 -242t230.5 -82t229 82t83 242v965h228z" />
    <glyph glyph-name="Uacute" unicode="&#xda;" horiz-adv-x="1360" 
d="M760 1850h236l-246 -296h-184zM1221 1456v-965q0 -245 -147.5 -378t-392.5 -133t-394 133t-149 378v965h228v-965q0 -160 84.5 -242t230.5 -82t229 82t83 242v965h228z" />
    <glyph glyph-name="Ucircumflex" unicode="&#xdb;" horiz-adv-x="1360" 
d="M1033 1576v-12h-182l-170 159l-167 -159h-178v16l281 263h130zM1221 1456v-965q0 -245 -147.5 -378t-392.5 -133t-394 133t-149 378v965h228v-965q0 -160 84.5 -242t230.5 -82t229 82t83 242v965h228z" />
    <glyph glyph-name="Udieresis" unicode="&#xdc;" horiz-adv-x="1360" 
d="M439 1804q47 0 79.5 -30t32.5 -74q0 -43 -32.5 -73t-79.5 -30t-79.5 30t-32.5 73q0 44 32.5 74t79.5 30zM923 1804q47 0 80 -30t33 -74q0 -43 -33 -73t-80 -30t-79 30t-32 73q0 44 32 74t79 30zM1221 1456v-965q0 -245 -147.5 -378t-392.5 -133t-394 133t-149 378v965
h228v-965q0 -160 84.5 -242t230.5 -82t229 82t83 242v965h228z" />
    <glyph glyph-name="Yacute" unicode="&#xdd;" horiz-adv-x="1258" 
d="M706 1845h236l-246 -296h-184zM628 739l368 717h249l-502 -921v-535h-230v535l-502 921h252z" />
    <glyph glyph-name="Thorn" unicode="&#xde;" horiz-adv-x="1244" 
d="M641 1177q243 0 378.5 -121t135.5 -318t-135.5 -318t-378.5 -121h-269v-299h-220v1456h220v-279h269zM641 481q76 0 134 21.5t92 58.5t51 81t17 94q0 109 -73.5 184.5t-220.5 75.5h-269v-515h269z" />
    <glyph glyph-name="germandbls" unicode="&#xdf;" horiz-adv-x="1266" 
d="M365 0h-219v1116q0 212 114 323.5t321 111.5q163 0 275.5 -92t112.5 -249q0 -63 -16.5 -113.5t-36.5 -78.5t-36.5 -76.5t-16.5 -108.5q0 -42 33 -84t79.5 -82t93.5 -84.5t80 -107.5t33 -134q0 -167 -118.5 -264t-309.5 -97q-81 0 -164 18.5t-124 46.5l46 175
q38 -24 102.5 -42t135.5 -18q94 0 154 51.5t60 130.5q0 43 -24 82.5t-59.5 68.5t-77 64.5t-77 69.5t-59.5 85t-24 110q0 65 16.5 118t36 83t36 77t16.5 102q0 71 -54 120t-129 49q-97 0 -148.5 -60t-51.5 -199v-1112z" />
    <glyph glyph-name="agrave" unicode="&#xe0;" horiz-adv-x="1087" 
d="M687 1240h-184l-248 296h237zM959 252q0 -160 39 -238v-14h-223q-20 49 -30 129q-114 -149 -323 -149q-153 0 -253.5 88t-100.5 225q0 162 129.5 254t373.5 92h168v96q0 95 -54 148t-158 53q-95 0 -154 -47t-59 -127l-220 1q0 144 124 241.5t320 97.5q189 0 305 -95
t116 -274v-481zM468 148q98 0 169 43t102 111v205h-166q-137 0 -211.5 -57.5t-74.5 -146.5q0 -66 51 -110.5t130 -44.5z" />
    <glyph glyph-name="aacute" unicode="&#xe1;" horiz-adv-x="1087" 
d="M868 1536l-246 -296h-184l194 296h236zM959 252q0 -160 39 -238v-14h-223q-20 49 -30 129q-114 -149 -323 -149q-153 0 -253.5 88t-100.5 225q0 162 129.5 254t373.5 92h168v96q0 95 -54 148t-158 53q-95 0 -154 -47t-59 -127l-220 1q0 144 124 241.5t320 97.5
q189 0 305 -95t116 -274v-481zM468 148q98 0 169 43t102 111v205h-166q-137 0 -211.5 -57.5t-74.5 -146.5q0 -66 51 -110.5t130 -44.5z" />
    <glyph glyph-name="acircumflex" unicode="&#xe2;" horiz-adv-x="1087" 
d="M553 1409l-167 -159h-178v16l281 263h130l286 -267v-12h-182zM959 252q0 -160 39 -238v-14h-223q-20 49 -30 129q-114 -149 -323 -149q-153 0 -253.5 88t-100.5 225q0 162 129.5 254t373.5 92h168v96q0 95 -54 148t-158 53q-95 0 -154 -47t-59 -127l-220 1
q0 144 124 241.5t320 97.5q189 0 305 -95t116 -274v-481zM468 148q98 0 169 43t102 111v205h-166q-137 0 -211.5 -57.5t-74.5 -146.5q0 -66 51 -110.5t130 -44.5z" />
    <glyph glyph-name="atilde" unicode="&#xe3;" horiz-adv-x="1087" 
d="M426 1372q-42 0 -68.5 -26.5t-26.5 -76.5l-133 6q0 99 59.5 168t148.5 69q40 0 79.5 -15.5t67 -34t64 -34t70.5 -15.5q42 0 69.5 28t27.5 78l132 -7q0 -101 -60 -170.5t-150 -69.5q-44 0 -84 15.5t-65 34.5t-60 34.5t-71 15.5zM959 252q0 -160 39 -238v-14h-223
q-20 49 -30 129q-114 -149 -323 -149q-153 0 -253.5 88t-100.5 225q0 162 129.5 254t373.5 92h168v96q0 95 -54 148t-158 53q-95 0 -154 -47t-59 -127l-220 1q0 144 124 241.5t320 97.5q189 0 305 -95t116 -274v-481zM468 148q98 0 169 43t102 111v205h-166
q-137 0 -211.5 -57.5t-74.5 -146.5q0 -66 51 -110.5t130 -44.5z" />
    <glyph glyph-name="adieresis" unicode="&#xe4;" horiz-adv-x="1087" 
d="M311 1283q-47 0 -79.5 30t-32.5 73q0 44 32.5 74t79.5 30t79.5 -30t32.5 -74q0 -43 -32.5 -73t-79.5 -30zM795 1283q-47 0 -79 30t-32 73q0 44 32 74t79 30t80 -30t33 -74q0 -43 -33 -73t-80 -30zM959 252q0 -160 39 -238v-14h-223q-20 49 -30 129q-114 -149 -323 -149
q-153 0 -253.5 88t-100.5 225q0 162 129.5 254t373.5 92h168v96q0 95 -54 148t-158 53q-95 0 -154 -47t-59 -127l-220 1q0 144 124 241.5t320 97.5q189 0 305 -95t116 -274v-481zM468 148q98 0 169 43t102 111v205h-166q-137 0 -211.5 -57.5t-74.5 -146.5q0 -66 51 -110.5
t130 -44.5z" />
    <glyph glyph-name="aring" unicode="&#xe5;" horiz-adv-x="1087" 
d="M556 1217q-87 0 -145.5 54t-58.5 134t58.5 136t145.5 56q86 0 144.5 -56t58.5 -136t-58 -134t-145 -54zM556 1516q-49 0 -79.5 -31.5t-30.5 -79.5q0 -47 30.5 -78t79.5 -31t79 31t30 78q0 48 -30 79.5t-79 31.5zM959 252q0 -160 39 -238v-14h-223q-20 49 -30 129
q-114 -149 -323 -149q-153 0 -253.5 88t-100.5 225q0 162 129.5 254t373.5 92h168v96q0 95 -54 148t-158 53q-95 0 -154 -47t-59 -127l-220 1q0 144 124 241.5t320 97.5q189 0 305 -95t116 -274v-481zM468 148q98 0 169 43t102 111v205h-166q-137 0 -211.5 -57.5
t-74.5 -146.5q0 -66 51 -110.5t130 -44.5z" />
    <glyph glyph-name="ae" unicode="&#xe6;" horiz-adv-x="1732" 
d="M1673 630v-141h-703q1 -148 76.5 -238t230.5 -90q168 0 305 91l60 -143q-63 -55 -163.5 -92t-227.5 -37q-256 0 -388 169q-58 -73 -158 -121t-238 -48q-187 0 -289.5 88.5t-102.5 240.5q0 158 123.5 247t356.5 89h201v63q0 102 -50.5 157.5t-148.5 55.5
q-107 0 -168.5 -47.5t-61.5 -121.5l-219 14q0 148 123.5 242t327.5 94q228 0 334 -139q130 139 343 139q203 0 320 -126.5t117 -345.5zM1458 641v28q0 115 -57.5 183.5t-164.5 68.5q-115 0 -180.5 -75.5t-81.5 -204.5h484zM504 143q72 0 142 31.5t110 74.5v250h-199
q-126 0 -194.5 -56t-68.5 -138q0 -77 53.5 -119.5t156.5 -42.5z" />
    <glyph glyph-name="ccedilla" unicode="&#xe7;" horiz-adv-x="1056" 
d="M549 161q98 0 162.5 52.5t68.5 150.5h207q-2 -150 -98 -251t-247 -126l-9 -52q70 -10 115.5 -50t45.5 -121q0 -104 -88 -165t-247 -61l-7 134q62 0 106 25.5t44 75.5q0 47 -36 66.5t-121 26.5l26 120q-192 27 -295.5 173.5t-103.5 366.5v30q0 243 125.5 394.5
t353.5 151.5q190 0 311.5 -109t124.5 -303h-207q-3 106 -67 168.5t-166 62.5q-70 0 -121 -28.5t-79.5 -80t-41.5 -115t-13 -141.5v-30q0 -365 257 -365z" />
    <glyph glyph-name="egrave" unicode="&#xe8;" horiz-adv-x="1082" 
d="M682 1240h-184l-248 296h237zM1024 598v-109h-731q7 -145 93.5 -236.5t221.5 -91.5q181 0 280 126l107 -123q-57 -80 -160 -132t-240 -52q-232 0 -377 152t-145 378v40q0 158 59.5 283t172.5 197t261 72q211 0 334.5 -137t123.5 -367zM809 640v21q0 115 -65.5 187.5
t-179.5 72.5q-112 0 -179.5 -77.5t-85.5 -203.5h510z" />
    <glyph glyph-name="eacute" unicode="&#xe9;" horiz-adv-x="1082" 
d="M863 1536l-246 -296h-184l194 296h236zM1024 598v-109h-731q7 -145 93.5 -236.5t221.5 -91.5q181 0 280 126l107 -123q-57 -80 -160 -132t-240 -52q-232 0 -377 152t-145 378v40q0 158 59.5 283t172.5 197t261 72q211 0 334.5 -137t123.5 -367zM809 640v21
q0 115 -65.5 187.5t-179.5 72.5q-112 0 -179.5 -77.5t-85.5 -203.5h510z" />
    <glyph glyph-name="ecircumflex" unicode="&#xea;" horiz-adv-x="1082" 
d="M548 1409l-167 -159h-178v16l281 263h130l286 -267v-12h-182zM1024 598v-109h-731q7 -145 93.5 -236.5t221.5 -91.5q181 0 280 126l107 -123q-57 -80 -160 -132t-240 -52q-232 0 -377 152t-145 378v40q0 158 59.5 283t172.5 197t261 72q211 0 334.5 -137t123.5 -367z
M809 640v21q0 115 -65.5 187.5t-179.5 72.5q-112 0 -179.5 -77.5t-85.5 -203.5h510z" />
    <glyph glyph-name="edieresis" unicode="&#xeb;" horiz-adv-x="1082" 
d="M306 1283q-47 0 -79.5 30t-32.5 73q0 44 32.5 74t79.5 30t79.5 -30t32.5 -74q0 -43 -32.5 -73t-79.5 -30zM790 1283q-47 0 -79 30t-32 73q0 44 32 74t79 30t80 -30t33 -74q0 -43 -33 -73t-80 -30zM1024 598v-109h-731q7 -145 93.5 -236.5t221.5 -91.5q181 0 280 126
l107 -123q-57 -80 -160 -132t-240 -52q-232 0 -377 152t-145 378v40q0 158 59.5 283t172.5 197t261 72q211 0 334.5 -137t123.5 -367zM809 640v21q0 115 -65.5 187.5t-179.5 72.5q-112 0 -179.5 -77.5t-85.5 -203.5h510z" />
    <glyph glyph-name="igrave" unicode="&#xec;" horiz-adv-x="511" 
d="M391 1218h-184l-248 296h237zM368 0h-220v1082h220v-1082z" />
    <glyph glyph-name="iacute" unicode="&#xed;" horiz-adv-x="511" 
d="M336 1514h236l-246 -296h-184zM368 0h-220v1082h220v-1082z" />
    <glyph glyph-name="icircumflex" unicode="&#xee;" horiz-adv-x="511" 
d="M609 1240v-12h-182l-170 159l-167 -159h-178v16l281 263h130zM368 0h-220v1082h220v-1082z" />
    <glyph glyph-name="idieresis" unicode="&#xef;" horiz-adv-x="511" 
d="M15 1468q47 0 79.5 -30t32.5 -74q0 -43 -32.5 -73t-79.5 -30t-79.5 30t-32.5 73q0 44 32.5 74t79.5 30zM499 1468q47 0 80 -30t33 -74q0 -43 -33 -73t-80 -30t-79 30t-32 73q0 44 32 74t79 30zM368 0h-220v1082h220v-1082z" />
    <glyph glyph-name="eth" unicode="&#xf0;" horiz-adv-x="1175" 
d="M838 1305q250 -255 250 -665v-69q0 -262 -137 -426.5t-350 -164.5q-216 0 -353.5 140t-137.5 347q0 228 116.5 359.5t327.5 131.5q171 0 292 -102q-48 202 -191 340l-200 -120l-59 91l170 102q-122 86 -295 140l70 169q243 -64 412 -197l178 107l59 -92zM869 546v96v22
q-35 53 -104 88t-168 35q-134 0 -200.5 -86.5t-66.5 -233.5q0 -129 74 -216.5t201 -87.5q124 0 194 106.5t70 276.5z" />
    <glyph glyph-name="ntilde" unicode="&#xf1;" horiz-adv-x="1141" 
d="M449 1371q-42 0 -68.5 -26.5t-26.5 -76.5l-133 6q0 99 59.5 168t148.5 69q40 0 79.5 -15.5t67 -34t64 -34t70.5 -15.5q42 0 69.5 28t27.5 78l132 -7q0 -101 -60 -170.5t-150 -69.5q-44 0 -84 15.5t-65 34.5t-60 34.5t-71 15.5zM675 1102q165 0 253.5 -97.5t88.5 -316.5
v-688h-220v689q0 131 -53 181.5t-157 50.5q-91 0 -152 -49t-92 -128v-744h-219v1082h207l9 -164q56 88 142 136t193 48z" />
    <glyph glyph-name="ograve" unicode="&#xf2;" horiz-adv-x="1143" 
d="M706 1239h-184l-248 296h237zM70 555q0 242 134.5 394.5t365.5 152.5q233 0 368 -152t135 -395v-29q0 -242 -134.5 -394t-366.5 -152t-367 152t-135 394v29zM289 526q0 -160 72 -262.5t211 -102.5q93 0 158 50.5t94.5 131t29.5 183.5v29q0 101 -29.5 181.5t-95 132.5
t-159.5 52q-92 0 -157 -51.5t-94.5 -132.5t-29.5 -182v-29z" />
    <glyph glyph-name="oacute" unicode="&#xf3;" horiz-adv-x="1143" 
d="M651 1535h236l-246 -296h-184zM70 555q0 242 134.5 394.5t365.5 152.5q233 0 368 -152t135 -395v-29q0 -242 -134.5 -394t-366.5 -152t-367 152t-135 394v29zM289 526q0 -160 72 -262.5t211 -102.5q93 0 158 50.5t94.5 131t29.5 183.5v29q0 101 -29.5 181.5t-95 132.5
t-159.5 52q-92 0 -157 -51.5t-94.5 -132.5t-29.5 -182v-29z" />
    <glyph glyph-name="ocircumflex" unicode="&#xf4;" horiz-adv-x="1143" 
d="M924 1261v-12h-182l-170 159l-167 -159h-178v16l281 263h130zM70 555q0 242 134.5 394.5t365.5 152.5q233 0 368 -152t135 -395v-29q0 -242 -134.5 -394t-366.5 -152t-367 152t-135 394v29zM289 526q0 -160 72 -262.5t211 -102.5q93 0 158 50.5t94.5 131t29.5 183.5v29
q0 101 -29.5 181.5t-95 132.5t-159.5 52q-92 0 -157 -51.5t-94.5 -132.5t-29.5 -182v-29z" />
    <glyph glyph-name="otilde" unicode="&#xf5;" horiz-adv-x="1143" 
d="M935 1511q0 -101 -60 -170.5t-150 -69.5q-44 0 -84 15.5t-65 34.5t-60 34.5t-71 15.5q-42 0 -68.5 -26.5t-26.5 -76.5l-133 6q0 99 59.5 168t148.5 69q40 0 79.5 -15.5t67 -34t64 -34t70.5 -15.5q42 0 69.5 28t27.5 78zM70 555q0 242 134.5 394.5t365.5 152.5
q233 0 368 -152t135 -395v-29q0 -242 -134.5 -394t-366.5 -152t-367 152t-135 394v29zM289 526q0 -160 72 -262.5t211 -102.5q93 0 158 50.5t94.5 131t29.5 183.5v29q0 101 -29.5 181.5t-95 132.5t-159.5 52q-92 0 -157 -51.5t-94.5 -132.5t-29.5 -182v-29z" />
    <glyph glyph-name="odieresis" unicode="&#xf6;" horiz-adv-x="1143" 
d="M330 1489q47 0 79.5 -30t32.5 -74q0 -43 -32.5 -73t-79.5 -30t-79.5 30t-32.5 73q0 44 32.5 74t79.5 30zM814 1489q47 0 80 -30t33 -74q0 -43 -33 -73t-80 -30t-79 30t-32 73q0 44 32 74t79 30zM70 555q0 242 134.5 394.5t365.5 152.5q233 0 368 -152t135 -395v-29
q0 -242 -134.5 -394t-366.5 -152t-367 152t-135 394v29zM289 526q0 -160 72 -262.5t211 -102.5q93 0 158 50.5t94.5 131t29.5 183.5v29q0 101 -29.5 181.5t-95 132.5t-159.5 52q-92 0 -157 -51.5t-94.5 -132.5t-29.5 -182v-29z" />
    <glyph glyph-name="divide" unicode="&#xf7;" horiz-adv-x="1164" 
d="M582 1206q58 0 94.5 -35t36.5 -88t-36.5 -87.5t-94.5 -34.5t-95 34.5t-37 87.5q0 54 37 88.5t95 34.5zM1089 610h-1023v171h1023v-171zM582 409q58 0 94.5 -35t36.5 -88t-36.5 -87.5t-94.5 -34.5t-95 34.5t-37 87.5q0 54 37 88.5t95 34.5z" />
    <glyph glyph-name="oslash" unicode="&#xf8;" horiz-adv-x="1141" 
d="M870 1011q97 -72 149.5 -190t52.5 -266v-29q0 -242 -134.5 -394t-366.5 -152q-100 0 -187 31l-76 -156h-130l102 210q-102 70 -156.5 190t-54.5 271v29q0 242 134.5 394.5t365.5 152.5q110 0 198 -35l74 152h130zM288 526q0 -176 82 -276l314 647q-53 24 -115 24
q-92 0 -157 -51.5t-94.5 -132.5t-29.5 -182v-29zM853 526v29q0 167 -76 266l-311 -641q49 -19 105 -19q93 0 158 50.5t94.5 131t29.5 183.5z" />
    <glyph glyph-name="ugrave" unicode="&#xf9;" horiz-adv-x="1141" 
d="M710 1240h-184l-248 296h237zM796 1082h221v-1082h-208l-7 133q-110 -153 -321 -153q-168 0 -263.5 98.5t-95.5 308.5v695h220v-697q0 -115 53.5 -169.5t148.5 -54.5q193 0 252 152v769z" />
    <glyph glyph-name="uacute" unicode="&#xfa;" horiz-adv-x="1141" 
d="M891 1536l-246 -296h-184l194 296h236zM796 1082h221v-1082h-208l-7 133q-110 -153 -321 -153q-168 0 -263.5 98.5t-95.5 308.5v695h220v-697q0 -115 53.5 -169.5t148.5 -54.5q193 0 252 152v769z" />
    <glyph glyph-name="ucircumflex" unicode="&#xfb;" horiz-adv-x="1141" 
d="M576 1409l-167 -159h-178v16l281 263h130l286 -267v-12h-182zM796 1082h221v-1082h-208l-7 133q-110 -153 -321 -153q-168 0 -263.5 98.5t-95.5 308.5v695h220v-697q0 -115 53.5 -169.5t148.5 -54.5q193 0 252 152v769z" />
    <glyph glyph-name="udieresis" unicode="&#xfc;" horiz-adv-x="1141" 
d="M334 1283q-47 0 -79.5 30t-32.5 73q0 44 32.5 74t79.5 30t79.5 -30t32.5 -74q0 -43 -32.5 -73t-79.5 -30zM818 1283q-47 0 -79 30t-32 73q0 44 32 74t79 30t80 -30t33 -74q0 -43 -33 -73t-80 -30zM796 1082h221v-1082h-208l-7 133q-110 -153 -321 -153
q-168 0 -263.5 98.5t-95.5 308.5v695h220v-697q0 -115 53.5 -169.5t148.5 -54.5q193 0 252 152v769z" />
    <glyph glyph-name="yacute" unicode="&#xfd;" horiz-adv-x="1023" 
d="M837 1536l-246 -296h-184l194 296h236zM777 1082h235l-452 -1250q-12 -33 -22 -56t-28.5 -58t-43 -59.5t-57 -48t-77.5 -35.5t-99 -12q-57 0 -115 17v168q36 -4 55 -4q84 0 128 35t70 105l43 113l-399 1085h236l267 -786z" />
    <glyph glyph-name="thorn" unicode="&#xfe;" horiz-adv-x="1141" 
d="M641 1102q198 0 307.5 -147.5t109.5 -401.5v-21q0 -247 -110 -399.5t-305 -152.5q-184 0 -296 146v-542h-220v1952h220v-583q109 149 294 149zM838 532v21q0 169 -61 268.5t-186 99.5q-184 0 -244 -160v-445q63 -155 246 -155q124 0 184.5 101.5t60.5 269.5z" />
    <glyph glyph-name="ydieresis" unicode="&#xff;" horiz-adv-x="1023" 
d="M280 1283q-47 0 -79.5 30t-32.5 73q0 44 32.5 74t79.5 30t79.5 -30t32.5 -74q0 -43 -32.5 -73t-79.5 -30zM764 1283q-47 0 -79 30t-32 73q0 44 32 74t79 30t80 -30t33 -74q0 -43 -33 -73t-80 -30zM777 1082h235l-452 -1250q-12 -33 -22 -56t-28.5 -58t-43 -59.5t-57 -48
t-77.5 -35.5t-99 -12q-57 0 -115 17v168q36 -4 55 -4q84 0 128 35t70 105l43 113l-399 1085h236l267 -786z" />
    <glyph glyph-name="dotlessi" unicode="&#x131;" horiz-adv-x="511" 
d="M368 0h-220v1082h220v-1082z" />
    <glyph glyph-name="OE" unicode="&#x152;" horiz-adv-x="1946" 
d="M1866 1268h-726v-429h625v-182h-625v-470h725v-187h-877q-188 -20 -305 -20q-259 0 -420.5 165.5t-161.5 430.5v304q0 265 161 430.5t419 165.5q136 0 307 -20h878v-188zM320 576q0 -193 98 -304t265 -111q126 0 230 13v1108q-117 13 -232 13q-167 0 -264 -109t-97 -304
v-306z" />
    <glyph glyph-name="oe" unicode="&#x153;" horiz-adv-x="1876" 
d="M1801 630v-141h-706q5 -140 86.5 -234t214.5 -94q106 0 176.5 22.5t138.5 69.5l61 -144q-66 -58 -169.5 -93.5t-231.5 -35.5q-122 0 -222.5 50t-167.5 139q-65 -90 -165.5 -139.5t-229.5 -49.5q-232 0 -367.5 152t-135.5 394v29q0 242 135 394.5t366 152.5
q129 0 229.5 -49t166.5 -139q64 90 159.5 139.5t214.5 48.5q206 0 326.5 -127t120.5 -345zM867 526v29q0 101 -29 181.5t-94.5 132.5t-159.5 52q-92 0 -157 -51.5t-94.5 -132.5t-29.5 -182v-29q0 -160 72 -262.5t211 -102.5q137 0 209 103t72 262zM1586 640v29
q0 114 -61 183t-171 69q-106 0 -171 -77.5t-82 -203.5h485z" />
    <glyph glyph-name="longs" unicode="&#x17f;" horiz-adv-x="493" 
d="M130 0v1195q0 174 96 268t269 94q72 0 151 -19l-18 -174q-50 12 -107 12q-82 0 -127 -47t-45 -134v-1195h-219z" />
    <glyph glyph-name="circumflex" unicode="&#x2c6;" horiz-adv-x="939" 
d="M821 1262v-12h-182l-170 159l-167 -159h-178v16l281 263h130z" />
    <glyph glyph-name="ring" unicode="&#x2da;" horiz-adv-x="642" 
d="M321 1520q86 0 144.5 -56t58.5 -136t-58 -134t-145 -54t-145.5 54t-58.5 134t58.5 136t145.5 56zM321 1219q49 0 79 31t30 78q0 48 -30 79.5t-79 31.5t-79.5 -31.5t-30.5 -79.5q0 -47 30.5 -78t79.5 -31z" />
    <glyph glyph-name="tilde" unicode="&#x2dc;" horiz-adv-x="922" 
d="M823 1509q0 -101 -60 -170.5t-150 -69.5q-44 0 -84 15.5t-65 34.5t-60 34.5t-71 15.5q-42 0 -68.5 -26.5t-26.5 -76.5l-133 6q0 99 59.5 168t148.5 69q40 0 79.5 -15.5t67 -34t64 -34t70.5 -15.5q42 0 69.5 28t27.5 78z" />
    <glyph glyph-name="gravecomb" unicode="&#x300;" horiz-adv-x="0" 
d="M-412 1240h-184l-248 296h237z" />
    <glyph glyph-name="acutecomb" unicode="&#x301;" horiz-adv-x="0" 
d="M-450 1536h236l-246 -296h-184z" />
    <glyph glyph-name="tildecomb" unicode="&#x303;" horiz-adv-x="0" 
d="M-177 1509q0 -101 -60 -170.5t-150 -69.5q-44 0 -84 15.5t-65 34.5t-60 34.5t-71 15.5q-42 0 -68.5 -26.5t-26.5 -76.5l-133 6q0 99 59.5 168t148.5 69q40 0 79.5 -15.5t67 -34t64 -34t70.5 -15.5q42 0 69.5 28t27.5 78z" />
    <glyph glyph-name="alpha" unicode="&#x3b1;" horiz-adv-x="1151" 
d="M1131 167l19 -170q-43 -18 -105 -18q-188 0 -242 190q-104 -189 -301 -189q-196 0 -305.5 147t-109.5 392v21q0 256 110 409t307 153q184 0 289 -188l20 168h191v-756q0 -90 23 -127.5t68 -37.5q19 0 36 6zM552 161q168 0 233 152v432q-66 176 -231 176q-124 0 -185 -105
t-61 -276v-21q0 -167 59 -262.5t185 -95.5z" />
    <glyph glyph-name="uni05B0" unicode="&#x5b0;" horiz-adv-x="0" 
d="M610 -324q-37 0 -61.5 22.5t-24.5 56.5t24.5 56.5t61.5 22.5q38 0 62 -22.5t24 -56.5t-24.5 -56.5t-61.5 -22.5zM610 -570q-37 0 -61.5 22.5t-24.5 56.5t24.5 57t61.5 23t61.5 -23t24.5 -57t-24.5 -56.5t-61.5 -22.5z" />
    <glyph glyph-name="uni05B1" unicode="&#x5b1;" horiz-adv-x="0" 
d="M365 -324q-37 0 -62 22.5t-25 56.5t24.5 56.5t62.5 22.5q37 0 61.5 -22.5t24.5 -56.5t-24.5 -56.5t-61.5 -22.5zM610 -324q-37 0 -61.5 22.5t-24.5 56.5t24.5 56.5t61.5 22.5q38 0 62 -22.5t24 -56.5t-24.5 -56.5t-61.5 -22.5zM858 -324q-37 0 -62 22.5t-25 56.5
t24.5 56.5t62.5 22.5q37 0 61.5 -22.5t24.5 -56.5t-24.5 -56.5t-61.5 -22.5zM487 -534q-36 0 -61 22.5t-25 56.5t25 57t61 23q38 0 62.5 -23t24.5 -57t-25 -56.5t-62 -22.5zM858 -570q-37 0 -62 22.5t-25 56.5t25 57t62 23t61.5 -23t24.5 -57t-24.5 -56.5t-61.5 -22.5z" />
    <glyph glyph-name="uni05B2" unicode="&#x5b2;" horiz-adv-x="0" 
d="M850 -324q-36 0 -61 22.5t-25 56.5t24.5 56.5t61.5 22.5q38 0 62.5 -22.5t24.5 -56.5t-25 -56.5t-62 -22.5zM286 -298v108h403v-108h-403zM850 -570q-36 0 -61 22.5t-25 56.5t25 57t61 23q37 0 62 -23t25 -57t-25 -56.5t-62 -22.5z" />
    <glyph glyph-name="uni05B3" unicode="&#x5b3;" horiz-adv-x="0" 
d="M851 -324q-37 0 -62 22.5t-25 56.5t24.5 56.5t62.5 22.5q37 0 61.5 -22.5t24.5 -56.5t-24.5 -56.5t-61.5 -22.5zM489 -558q-36 0 -61 23.5t-25 55.5q0 20 11 40t24 54t16 87h-169v108h406v-108h-167q3 -52 16 -86.5t24 -54.5t11 -40q0 -34 -24.5 -56.5t-61.5 -22.5z
M851 -570q-37 0 -62 22.5t-25 56.5t25 57t62 23t61.5 -23t24.5 -57t-24.5 -56.5t-61.5 -22.5z" />
    <glyph glyph-name="uni05B4" unicode="&#x5b4;" horiz-adv-x="0" 
d="M610 -324q-36 0 -61 23t-25 56q0 34 24.5 56.5t61.5 22.5q38 0 62 -22.5t24 -56.5t-24.5 -56.5t-61.5 -22.5z" />
    <glyph glyph-name="uni05B5" unicode="&#x5b5;" horiz-adv-x="0" 
d="M487 -324q-36 0 -61 23.5t-25 55.5q0 34 24.5 56.5t61.5 22.5q38 0 62.5 -22.5t24.5 -56.5t-25 -56.5t-62 -22.5zM732 -324q-36 0 -61 23t-25 56q0 34 24.5 56.5t61.5 22.5q38 0 62 -22.5t24 -56.5t-24.5 -56.5t-61.5 -22.5z" />
    <glyph glyph-name="uni05B6" unicode="&#x5b6;" horiz-adv-x="0" 
d="M487 -324q-36 0 -61 23.5t-25 55.5q0 34 24.5 56.5t61.5 22.5q38 0 62.5 -22.5t24.5 -56.5t-25 -56.5t-62 -22.5zM732 -324q-36 0 -61 23t-25 56q0 34 24.5 56.5t61.5 22.5q38 0 62 -22.5t24 -56.5t-24.5 -56.5t-61.5 -22.5zM610 -534q-37 0 -61.5 22.5t-24.5 56.5
t24.5 57t61.5 23t61.5 -22.5t24.5 -57.5q0 -34 -24.5 -56.5t-61.5 -22.5z" />
    <glyph glyph-name="uni05B7" unicode="&#x5b7;" horiz-adv-x="0" 
d="M395 -298v108h430v-108h-430z" />
    <glyph glyph-name="uni05B8" unicode="&#x5b8;" horiz-adv-x="0" 
d="M612 -539q-36 0 -61.5 23t-25.5 56q0 21 11 39.5t24.5 48.5t16.5 74h-163v108h393v-108h-161q4 -44 17 -74t24 -48.5t11 -39.5q0 -34 -24.5 -56.5t-61.5 -22.5z" />
    <glyph glyph-name="uni05B9" unicode="&#x5b9;" horiz-adv-x="0" 
d="M275 1338q-36 0 -61 23t-25 55q0 34 24.5 57t61.5 23q38 0 62.5 -23t24.5 -57t-24.5 -56t-62.5 -22z" />
    <glyph glyph-name="uni05BA" unicode="&#x5ba;" horiz-adv-x="0" 
d="M275 1338q-36 0 -61 23t-25 55q0 34 24.5 57t61.5 23q38 0 62.5 -23t24.5 -57t-24.5 -56t-62.5 -22z" />
    <glyph glyph-name="uni05BB" unicode="&#x5bb;" horiz-adv-x="0" 
d="M610 -324q-36 0 -61 23.5t-25 55.5q0 34 24.5 56.5t61.5 22.5q38 0 62.5 -22.5t24.5 -56.5t-25 -56.5t-62 -22.5zM741 -525q-36 0 -61 23t-25 55q0 34 24.5 57t61.5 23t62 -23.5t25 -56.5q0 -34 -25 -56t-62 -22zM872 -727q-36 0 -61 23t-25 55q0 34 25 57t61 23
q38 0 62.5 -23t24.5 -57t-24.5 -56t-62.5 -22z" />
    <glyph glyph-name="uni05BC" unicode="&#x5bc;" horiz-adv-x="0" 
d="M322 521q-36 0 -61 23.5t-25 55.5q0 34 25 56.5t61 22.5q38 0 62.5 -22.5t24.5 -56.5q0 -35 -24.5 -57t-62.5 -22z" />
    <glyph glyph-name="uni05BE" unicode="&#x5be;" horiz-adv-x="583" 
d="M523 1016h-463v185h463v-185z" />
    <glyph glyph-name="uni05BF" unicode="&#x5bf;" horiz-adv-x="0" 
d="M233 1361v125h520v-125h-520z" />
    <glyph glyph-name="uni05C1" unicode="&#x5c1;" horiz-adv-x="0" 
d="M1361 1338q-36 0 -61 23t-25 55q0 34 24.5 57t61.5 23q38 0 62.5 -23t24.5 -57t-24.5 -56t-62.5 -22z" />
    <glyph glyph-name="uni05C2" unicode="&#x5c2;" horiz-adv-x="0" 
d="M255 1338q-36 0 -61.5 23t-25.5 55q0 34 25 57t62 23t61.5 -23t24.5 -57t-24.5 -56t-61.5 -22z" />
    <glyph glyph-name="uni05C7" unicode="&#x5c7;" horiz-adv-x="0" 
d="M613 -592q-37 0 -62 23.5t-25 56.5q0 19 11 40.5t24.5 63.5t16.5 109h-157v109h382v-109h-155q4 -67 17.5 -109t24.5 -63.5t11 -40.5q0 -35 -25 -57.5t-63 -22.5z" />
    <glyph glyph-name="uni05D0" unicode="&#x5d0;" horiz-adv-x="1408" 
d="M1325 1201q-168 -363 -407 -671l403 -492v-38h-235l-606 720q-83 -88 -83 -215v-505h-226v477q0 116 51.5 216t142.5 163l-86 103q-44 51 -69 118t-23 124h216q17 -64 45 -99l325 -396q187 232 293 495h259z" />
    <glyph glyph-name="uni05D1" unicode="&#x5d1;" horiz-adv-x="1225" 
d="M1016 192l125 -15v-177h-1065v185h710q-23 71 -23 160v671h-622v185h857v-856q0 -81 18 -153z" />
    <glyph glyph-name="uni05D2" unicode="&#x5d2;" horiz-adv-x="902" 
d="M784 0h-210l-75 291q-67 -104 -153.5 -177t-210.5 -133h-69v209q91 31 195 101t190 159v566h-292v185h466q26 -29 41.5 -84.5t15.5 -116.5v-415q0 -94 19 -187z" />
    <glyph glyph-name="uni05D3" unicode="&#x5d3;" horiz-adv-x="1187" 
d="M1099 1201v-185h-187q-19 -81 -19 -173v-843h-234v825q0 109 32 191h-631v185h1039z" />
    <glyph glyph-name="uni05D4" unicode="&#x5d4;" horiz-adv-x="1429" 
d="M988 0v1016h-790v185h1024v-1201h-234zM210 0v418q0 69 11 124t21 77.5t27 53.5h190q-23 -95 -23 -235v-438h-226z" />
    <glyph glyph-name="uni05D5" unicode="&#x5d5;" horiz-adv-x="631" 
d="M440 0h-236v942q0 173 -37 259h228q45 -73 45 -255v-946z" />
    <glyph glyph-name="uni05D6" unicode="&#x5d6;" horiz-adv-x="820" 
d="M385 0l-254 946q-44 165 -8 255h598v-185h-368q13 -69 33 -143l235 -873h-236z" />
    <glyph glyph-name="uni05D7" unicode="&#x5d7;" horiz-adv-x="1427" 
d="M207 0l1 1201h565q472 0 475 -458v-743l-234 1l-2 759q0 133 -57 194.5t-181 61.5h-332v-1015z" />
    <glyph glyph-name="uni05D8" unicode="&#x5d8;" horiz-adv-x="1445" 
d="M746 -29q-119 0 -222.5 44.5t-179 126t-118.5 203.5t-43 269v328q0 180 -34 259h222q48 -77 48 -255v-351q0 -200 93.5 -317.5t232.5 -117.5t233 118t93 317v352q0 42 -15 69h-349l31 185h483q38 -40 61 -108t23 -140v-324q1 -151 -41 -275.5t-117 -208t-178 -129
t-223 -45.5z" />
    <glyph glyph-name="uni05D9" unicode="&#x5d9;" horiz-adv-x="738" 
d="M563 1201v-302q0 -140 -67.5 -259.5t-176.5 -184.5l-120 142q60 51 94.5 129.5t34.5 163.5v126h-248v185h483z" />
    <glyph glyph-name="uni05DA" unicode="&#x5da;" horiz-adv-x="1082" 
d="M644 -416v1432h-591v185h822v-1617h-231z" />
    <glyph glyph-name="uni05DB" unicode="&#x5db;" horiz-adv-x="1093" 
d="M94 0v185h304q97 0 174.5 35.5t124.5 95t72 132.5t25 153q0 79 -25 152t-72 132.5t-124.5 95t-174.5 35.5h-304v185h347q141 0 254.5 -51.5t183.5 -137t107.5 -191t37.5 -220.5q0 -92 -23 -178.5t-71 -163t-115.5 -134.5t-164 -91.5t-209.5 -33.5h-347z" />
    <glyph glyph-name="uni05DC" unicode="&#x5dc;" horiz-adv-x="1156" 
d="M1065 1201v-149l-425 -1052h-250l420 1016h-718v281q0 145 76 273l186 -83q-39 -83 -39 -194v-92h750z" />
    <glyph glyph-name="uni05DD" unicode="&#x5dd;" horiz-adv-x="1480" 
d="M207 0v1201h1066v-1201h-1066zM442 185h597v831h-597v-831z" />
    <glyph glyph-name="uni05DE" unicode="&#x5de;" horiz-adv-x="1399" 
d="M100 0l160 731q20 93 61.5 171t84.5 111l-1 6l-283 -3v185h601q255 0 388 -124.5t133 -374.5v-702h-533v185h298v546q0 139 -68.5 217.5t-189.5 78.5q-93 0 -158 -70.5t-91 -198.5l-157 -758h-245z" />
    <glyph glyph-name="uni05DF" unicode="&#x5df;" horiz-adv-x="608" 
d="M427 -416h-235v1358q0 149 -49 259h228q56 -84 56 -255v-1362z" />
    <glyph glyph-name="uni05E0" unicode="&#x5e0;" horiz-adv-x="811" 
d="M294 -20q-114 0 -226 25l23 179q63 -12 147 -12q156 0 156 180v664h-240v185h474v-867q0 -166 -89 -260t-245 -94z" />
    <glyph glyph-name="uni05E1" unicode="&#x5e1;" horiz-adv-x="1431" 
d="M752 -39q-131 0 -241 48.5t-184.5 133t-115.5 201t-41 250.5q0 123 52 237.5t141 187.5l-68 -3h-153v185h611q275 0 429 -161.5t154 -445.5q0 -181 -69 -323.5t-203 -226t-312 -83.5zM753 142q159 0 252 124.5t93 312.5q0 202 -91.5 325.5t-254.5 123.5
q-160 0 -252.5 -124.5t-92.5 -324.5q0 -186 95.5 -311.5t250.5 -125.5z" />
    <glyph glyph-name="uni05E2" unicode="&#x5e2;" horiz-adv-x="1346" 
d="M945 1201h228v-553q0 -306 -200.5 -491t-530.5 -185q-86 0 -188.5 17.5t-184.5 49.5l58 182q72 -31 156.5 -50t153.5 -19q19 0 53 2q-86 113 -127 273l-204 774h227l207 -783q41 -160 75 -222q130 55 203.5 169t73.5 269v567z" />
    <glyph glyph-name="uni05E3" unicode="&#x5e3;" horiz-adv-x="1252" 
d="M550 1201q145 0 260 -51t185 -137t106 -192.5t36 -223.5v-1013h-234v1017q0 82 -23 154.5t-70 132t-126.5 94t-182.5 34.5h-75q-61 -99 -61 -256v-342h-234v342q0 319 163 441h256z" />
    <glyph glyph-name="uni05E4" unicode="&#x5e4;" horiz-adv-x="1355" 
d="M667 1201q146 0 260.5 -50.5t183 -136t104 -190.5t35.5 -223q0 -92 -23 -178.5t-71 -163t-115.5 -134.5t-164 -91.5t-209.5 -33.5h-543v185h494q103 0 182.5 35.5t126 95t70 132t23.5 153.5q0 82 -23 154.5t-70 132t-126.5 94t-182.5 34.5h-120q-28 -44 -45 -113.5
t-17 -142.5v-265h-234v265q0 317 164 441h301z" />
    <glyph glyph-name="uni05E5" unicode="&#x5e5;" horiz-adv-x="1181" 
d="M1149 1201q-165 -363 -410 -673l84 -112v-832h-225v780l-437 550q-51 65 -83 144t-33 143h227q22 -80 74 -149l254 -339q183 224 290 488h259z" />
    <glyph glyph-name="uni05E6" unicode="&#x5e6;" horiz-adv-x="1246" 
d="M119 0v185h566q85 0 153 -5q-122 114 -185 191l-441 543q-51 62 -83 141t-33 146h220q25 -86 74 -150l248 -319q171 215 276 469h258q-163 -356 -393 -650l49 -64l275 -335v-152h-984z" />
    <glyph glyph-name="uni05E7" unicode="&#x5e7;" horiz-adv-x="1429" 
d="M688 61l395 955h-901v185h1156v-149l-425 -1052h-225v61zM457 694v-853q0 -153 45 -257h-216q-59 88 -59 254v856h230z" />
    <glyph glyph-name="uni05E8" unicode="&#x5e8;" horiz-adv-x="1118" 
d="M700 0v822q0 91 -52.5 142.5t-146.5 51.5h-441v185h452q199 0 311 -104.5t112 -290.5v-806h-235z" />
    <glyph glyph-name="uni05E9" unicode="&#x5e9;" horiz-adv-x="1779" 
d="M865 -34q-175 0 -360.5 67.5t-312.5 178.5v989h227v-893q73 -70 194.5 -111.5t249.5 -41.5q232 0 373.5 130.5t141.5 348.5v567h228v-553q0 -202 -92 -357t-260.5 -240t-388.5 -85zM781 329l-131 131q60 51 96 126t36 153v462h227v-440q0 -130 -62 -247t-166 -185z" />
    <glyph glyph-name="uni05EA" unicode="&#x5ea;" horiz-adv-x="1512" 
d="M105 1201h1200v-1201h-234v1016h-505v-682q0 -166 -89.5 -260t-245.5 -94q-94 0 -206 21l23 179q64 -8 128 -8q155 0 155 180v664h-226v185z" />
    <glyph glyph-name="uni05F0" unicode="&#x5f0;" horiz-adv-x="1262" 
d="M440 0h-236v942q0 173 -37 259h228q45 -73 45 -255v-946zM1071 0h-236v942q0 173 -37 259h228q45 -73 45 -255v-946z" />
    <glyph glyph-name="uni05F1" unicode="&#x5f1;" horiz-adv-x="1369" 
d="M440 0h-236v942q0 173 -37 259h228q45 -73 45 -255v-946zM1194 1201v-302q0 -140 -67.5 -259.5t-176.5 -184.5l-120 142q60 51 94.5 129.5t34.5 163.5v126h-248v185h483z" />
    <glyph glyph-name="uni05F2" unicode="&#x5f2;" horiz-adv-x="1476" 
d="M563 1201v-302q0 -140 -67.5 -259.5t-176.5 -184.5l-120 142q60 51 94.5 129.5t34.5 163.5v126h-248v185h483zM1301 1201v-302q0 -140 -67.5 -259.5t-176.5 -184.5l-120 142q60 51 94.5 129.5t34.5 163.5v126h-248v185h483z" />
    <glyph glyph-name="uni05F3" unicode="&#x5f3;" horiz-adv-x="385" 
d="M156 885l-140 61q98 133 98 288v199h207v-179q-1 -103 -46.5 -202.5t-118.5 -166.5z" />
    <glyph glyph-name="uni05F4" unicode="&#x5f4;" horiz-adv-x="764" 
d="M173 885l-140 61q98 133 98 288v199h208l-1 -179q-1 -103 -46.5 -202.5t-118.5 -166.5zM519 885l-140 61q98 133 98 288v199h208l-1 -179q-1 -103 -46.5 -202.5t-118.5 -166.5z" />
    <glyph glyph-name="uni1E9E" unicode="&#x1e9e;" horiz-adv-x="1380" 
d="M841 845q214 -16 327 -127t113 -301q0 -140 -63.5 -240.5t-171 -149t-248.5 -48.5q-173 0 -317 57l69 173q113 -49 221 -49q137 0 214 66t77 191q0 142 -79.5 211.5t-246.5 69.5h-139v142l311 329q-127 127 -301 127q-131 0 -197 -75t-66 -250v-971h-220v973
q1 248 117 376t366 128q165 0 303.5 -63.5t277.5 -188.5z" />
    <glyph glyph-name="uni200C" unicode="&#x200c;" horiz-adv-x="0" 
d="M-652 1213h163v-1413h-163v1413z" />
    <glyph glyph-name="uni200D" unicode="&#x200d;" horiz-adv-x="0" 
d="M-271 1412l-185 -188l185 -188l-119 -114l-100 102v-1224h-163v1224l-100 -102l-119 114l185 188l-185 188l119 113l181 -184l182 184z" />
    <glyph glyph-name="uni200E" unicode="&#x200e;" horiz-adv-x="0" 
d="M-372 1520l204 -250l-204 -248h-180l153 174h-267v-1396h-163v1546h428l-151 174h180z" />
    <glyph glyph-name="uni200F" unicode="&#x200f;" horiz-adv-x="0" 
d="M-760 1346h428v-1546h-163v1396h-267l153 -174h-180l-204 248l204 250h180z" />
    <glyph glyph-name="endash" unicode="&#x2013;" horiz-adv-x="1294" 
d="M1181 633h-1030v183h1030v-183z" />
    <glyph glyph-name="emdash" unicode="&#x2014;" horiz-adv-x="1553" 
d="M1473 633h-1374v183h1374v-183z" />
    <glyph glyph-name="quoteleft" unicode="&#x2018;" horiz-adv-x="432" 
d="M105 1230q0 93 43.5 184.5t109.5 153.5l103 -62q-43 -66 -65 -129.5t-22 -146.5v-140h-169v140z" />
    <glyph glyph-name="quoteright" unicode="&#x2019;" horiz-adv-x="424" 
d="M325 1395q0 -93 -43.5 -184.5t-109.5 -152.5l-103 61q42 65 64.5 129t22.5 147v141h169v-141z" />
    <glyph glyph-name="quotesinglbase" unicode="&#x201a;" horiz-adv-x="449" 
d="M323 77q0 -93 -44 -184.5t-110 -153.5l-103 62q81 123 81 275v165h176v-164z" />
    <glyph glyph-name="quotedblleft" unicode="&#x201c;" horiz-adv-x="723" 
d="M107 1230q0 93 43.5 184.5t109.5 153.5l103 -62q-43 -66 -65 -129.5t-22 -146.5v-140h-169v140zM394 1230q0 93 43.5 184.5t109.5 153.5l103 -62q-43 -66 -65 -129.5t-22 -146.5v-140h-169v140z" />
    <glyph glyph-name="quotedblright" unicode="&#x201d;" horiz-adv-x="727" 
d="M334 1395q0 -93 -43.5 -184.5t-109.5 -152.5l-103 61q42 65 64.5 129t22.5 147v141h169v-141zM624 1395q0 -93 -43.5 -184.5t-109.5 -152.5l-103 61q42 65 64.5 129t22.5 147v141h169v-141z" />
    <glyph glyph-name="quotedblbase" unicode="&#x201e;" horiz-adv-x="715" 
d="M323 77q0 -98 -41.5 -193t-106.5 -157l-109 61q81 130 81 288v177h176v-176zM608 77q0 -97 -44 -191.5t-110 -158.5l-109 61q42 68 64.5 134.5t22.5 153.5v177h176v-176z" />
    <glyph glyph-name="bullet" unicode="&#x2022;" horiz-adv-x="707" 
d="M143 752q0 93 59 151t157 58q100 0 159 -58.5t59 -150.5v-35q0 -92 -58.5 -149.5t-158.5 -57.5q-99 0 -158 57.5t-59 149.5v35z" />
    <glyph glyph-name="ellipsis" unicode="&#x2026;" horiz-adv-x="1446" 
d="M283 230q58 0 95 -37t37 -93q0 -55 -37 -92.5t-95 -37.5t-95 37.5t-37 92.5q0 56 37 93t95 37zM728 230q58 0 95 -37t37 -93q0 -55 -37 -92.5t-95 -37.5t-95 37.5t-37 92.5q0 56 37 93t95 37zM1166 230q58 0 95 -37t37 -93q0 -55 -37 -92.5t-95 -37.5t-95 37.5t-37 92.5
q0 56 37 93t95 37z" />
    <glyph glyph-name="guilsinglleft" unicode="&#x2039;" horiz-adv-x="631" 
d="M541 925l-257 -392l257 -392h-150l-283 382v19l283 383h150z" />
    <glyph glyph-name="guilsinglright" unicode="&#x203a;" horiz-adv-x="614" 
d="M239 924l282 -386v-19l-282 -383h-150l257 393l-257 395h150z" />
    <glyph glyph-name="fraction" unicode="&#x2044;" horiz-adv-x="906" 
d="M148 117l-111 61l711 1138l111 -61z" />
    <glyph glyph-name="uni2070" unicode="&#x2070;" 
d="M672 979q0 -159 -79 -241.5t-217 -82.5t-217.5 83t-79.5 241v160q0 158 79.5 242.5t216.5 84.5t217 -84.5t80 -242.5v-160zM517 1145q0 194 -142 194q-141 0 -141 -194v-171q0 -192 142 -192q141 0 141 192v171z" />
    <glyph glyph-name="uni2074" unicode="&#x2074;" 
d="M699 970v-129h-106v-175h-156v175h-370l-9 102l377 512h158v-485h106zM212 970h225v298l-26 -40z" />
    <glyph glyph-name="uni2075" unicode="&#x2075;" 
d="M105 1056l52 399h486v-124h-360l-26 -186q68 34 149 34q127 0 198.5 -66t71.5 -186q0 -116 -75 -194t-220 -78q-116 0 -203 62.5t-91 167.5h156q3 -51 40.5 -77t97.5 -26q140 0 140 145q0 67 -39.5 105t-113.5 38q-80 0 -141 -45z" />
    <glyph glyph-name="uni2076" unicode="&#x2076;" 
d="M434 1191q120 0 186.5 -72.5t66.5 -190.5t-82 -195.5t-210 -77.5q-140 0 -226.5 79.5t-86.5 230.5v61q0 116 36.5 203.5t100 139t142 76.5t171.5 25h28v-130h-11q-281 0 -310 -229q77 80 195 80zM391 781q62 0 101.5 43.5t39.5 105.5q0 63 -38 98.5t-108 35.5
q-51 0 -92 -21.5t-58 -52.5v-51q0 -77 41 -117.5t114 -40.5z" />
    <glyph glyph-name="uni2077" unicode="&#x2077;" 
d="M674 1368l-349 -702h-163l348 661h-454v128h618v-87z" />
    <glyph glyph-name="uni2078" unicode="&#x2078;" 
d="M535 1072q67 -27 105 -76t38 -115q0 -109 -83.5 -167.5t-217.5 -58.5q-135 0 -219.5 58.5t-84.5 167.5q0 66 38.5 115t105.5 76q-58 26 -90.5 71t-32.5 102q0 106 78 164t203 58q127 0 205 -58t78 -164q0 -58 -32.5 -102.5t-90.5 -70.5zM375 1339q-58 0 -92 -27.5
t-34 -75.5q0 -47 35 -75.5t93 -28.5q57 0 91 28.5t34 75.5q0 48 -34.5 75.5t-92.5 27.5zM377 782q65 0 105.5 30t40.5 83q0 52 -41.5 81t-106.5 29t-105.5 -29t-40.5 -81q0 -53 41 -83t107 -30z" />
    <glyph glyph-name="uni2079" unicode="&#x2079;" 
d="M367 1467q135 0 217 -80.5t82 -240.5v-64q0 -428 -437 -428h-17v126h15q132 0 201.5 47.5t80.5 161.5q-73 -71 -176 -71q-121 0 -191.5 70t-70.5 193q0 119 84 202.5t212 83.5zM372 1036q51 0 87 21t52 51v68q0 163 -143 163q-63 0 -102 -47t-39 -113q0 -65 38 -104
t107 -39z" />
    <glyph glyph-name="uni2080" unicode="&#x2080;" 
d="M672 -52q0 -159 -79 -241.5t-217 -82.5t-217.5 83t-79.5 241v160q0 158 79.5 242.5t216.5 84.5t217 -84.5t80 -242.5v-160zM517 114q0 194 -142 194q-141 0 -141 -194v-171q0 -192 142 -192q141 0 141 192v171z" />
    <glyph glyph-name="uni2081" unicode="&#x2081;" 
d="M498 -361h-155v605l-206 -53v124l346 112h15v-788z" />
    <glyph glyph-name="uni2082" unicode="&#x2082;" 
d="M679 -361h-594v108l288 269q121 111 121 185q0 52 -33 81.5t-96 29.5q-69 0 -106.5 -38.5t-37.5 -97.5h-155q0 111 80.5 187.5t211.5 76.5q137 0 214 -62.5t77 -176.5q0 -78 -49 -142.5t-159 -155.5l-152 -137h390v-127z" />
    <glyph glyph-name="uni2083" unicode="&#x2083;" 
d="M517 43q160 -40 160 -186q0 -107 -87.5 -168t-224.5 -61q-77 0 -144 23t-115 80t-48 140h156q0 -49 45 -82.5t115 -33.5q72 0 109.5 32t37.5 84q0 117 -165 117h-82v107h82q73 0 111 30.5t38 80.5q0 45 -34 75.5t-104 30.5q-60 0 -99.5 -26t-39.5 -70h-154q0 104 84 164
t205 60q135 0 216.5 -59t81.5 -165q0 -60 -38.5 -104.5t-105.5 -68.5z" />
    <glyph glyph-name="uni2084" unicode="&#x2084;" 
d="M699 -57v-129h-106v-175h-156v175h-370l-9 102l377 512h158v-485h106zM212 -57h225v298l-26 -40z" />
    <glyph glyph-name="uni2085" unicode="&#x2085;" 
d="M105 29l52 399h486v-124h-360l-26 -186q68 34 149 34q127 0 198.5 -66t71.5 -186q0 -116 -75 -194t-220 -78q-116 0 -203 62.5t-91 167.5h156q3 -51 40.5 -77t97.5 -26q140 0 140 145q0 67 -39.5 105t-113.5 38q-80 0 -141 -45z" />
    <glyph glyph-name="uni2086" unicode="&#x2086;" 
d="M434 164q120 0 186.5 -72.5t66.5 -190.5t-82 -195.5t-210 -77.5q-140 0 -226.5 79.5t-86.5 230.5v61q0 116 36.5 203.5t100 139t142 76.5t171.5 25h28v-130h-11q-281 0 -310 -229q77 80 195 80zM391 -246q62 0 101.5 43.5t39.5 105.5q0 63 -38 98.5t-108 35.5
q-51 0 -92 -21.5t-58 -52.5v-51q0 -76 41 -117t114 -41z" />
    <glyph glyph-name="uni2087" unicode="&#x2087;" 
d="M674 341l-349 -702h-163l348 661h-454v128h618v-87z" />
    <glyph glyph-name="uni2088" unicode="&#x2088;" 
d="M535 45q67 -27 105 -76t38 -115q0 -109 -83.5 -167.5t-217.5 -58.5q-135 0 -219.5 58.5t-84.5 167.5q0 66 38.5 115t105.5 76q-58 26 -90.5 71t-32.5 102q0 106 78 164t203 58q127 0 205 -58t78 -164q0 -58 -32.5 -102.5t-90.5 -70.5zM375 312q-58 0 -92 -27.5t-34 -75.5
q0 -47 35 -75.5t93 -28.5q57 0 91 28.5t34 75.5q0 48 -34.5 75.5t-92.5 27.5zM377 -245q65 0 105.5 30t40.5 83q0 52 -41.5 81t-106.5 29t-105.5 -29t-40.5 -81q0 -53 41 -83t107 -30z" />
    <glyph glyph-name="uni2089" unicode="&#x2089;" 
d="M367 440q135 0 217 -80.5t82 -240.5v-64q0 -428 -437 -428h-17v126h15q132 0 201.5 47.5t80.5 161.5q-73 -71 -176 -71q-121 0 -191.5 70t-70.5 193q0 119 84 202.5t212 83.5zM372 9q51 0 87 21t52 51v68q0 163 -143 163q-63 0 -102 -47t-39 -113q0 -65 38 -104t107 -39z
" />
    <glyph glyph-name="uni20AA" unicode="&#x20aa;" horiz-adv-x="2110" 
d="M207 0l1 1201h746q473 0 474 -458v-358h-234l-1 375q-1 133 -58 194.5t-180 61.5h-513v-1016h-235zM1286 -31q-136 0 -297.5 56t-290.5 147v592h228v-493q75 -50 175.5 -81t184.5 -31q190 0 306 120.5t116 317.5v604h227v-590q0 -289 -178.5 -465.5t-470.5 -176.5z" />
    <glyph glyph-name="Euro" unicode="&#x20ac;" horiz-adv-x="1159" 
d="M857 167q108 0 195 31l26 -187q-118 -31 -246 -31q-257 0 -413.5 143.5t-156.5 409.5v4h-181v120h181v148h-181v120h181q9 265 168 407.5t419 142.5q105 0 229 -31l-26 -188q-94 32 -191 32q-358 0 -371 -363h371v-120h-371v-148h371v-120h-371v-4q0 -366 367 -366z" />
    <glyph glyph-name="minus" unicode="&#x2212;" horiz-adv-x="1142" 
d="M1007 633h-859v183h859v-183z" />
    <glyph glyph-name="longst" unicode="&#xfb05;" horiz-adv-x="1276" 
d="M1226 171l4 -169q-66 -22 -158 -22q-142 0 -215.5 73t-73.5 238v626h-165v165h165v259q-28 14 -80 24.5t-106 10.5q-81 0 -126.5 -47t-45.5 -134v-1195h-219v917h-170v165h170v113q0 174 96 268t270 94q187 0 431 -93v-382h205v-165h-205v-600q0 -89 31.5 -121t98.5 -32
q54 0 93 7z" />
    <glyph glyph-name="st" unicode="&#xfb06;" horiz-adv-x="1709" 
d="M1659 170l4 -167q-65 -23 -158 -23q-289 0 -289 343v594h-165v165h165v79q0 104 -52.5 156t-142.5 52q-83 0 -126 -49t-43 -122q0 -59 15 -116t33.5 -96t33.5 -98t15 -122h-220q0 80 -55.5 129t-161.5 49q-95 0 -148 -42.5t-53 -103.5q0 -62 52 -101.5t189 -68.5
q95 -19 163 -43.5t123.5 -63t83 -95t27.5 -131.5q0 -138 -118.5 -226.5t-315.5 -88.5q-105 0 -192 29t-142 77.5t-84.5 108.5t-29.5 124h207q6 -93 75 -137t171 -44t159.5 44t57.5 107q0 59 -56.5 102.5t-202.5 75.5q-183 39 -279.5 113.5t-96.5 205.5q0 133 111.5 224.5
t298.5 91.5q103 0 192 -27q-43 96 -43 174q0 126 98 204t269 78q110 0 191 -29t127.5 -81t68 -116.5t21.5 -143.5v-79h205v-165h-205v-592q0 -89 32 -125.5t98 -36.5q44 0 93 7z" />
    <glyph glyph-name="uniFB1F" unicode="&#xfb1f;" horiz-adv-x="1304" 
d="M563 1201v-302q0 -140 -67.5 -259.5t-176.5 -184.5l-120 142q60 51 94.5 129.5t34.5 163.5v126h-248v185h483zM1301 1201v-302q0 -140 -67.5 -259.5t-176.5 -184.5l-120 142q60 51 94.5 129.5t34.5 163.5v126h-248v185h483zM460 -298v108h430v-108h-430z" />
    <glyph glyph-name="uniFB29" unicode="&#xfb29;" horiz-adv-x="1120" 
d="M451 1206h208v-431h398v-192h-998v192h392v431z" />
    <glyph glyph-name="uniFB2A" unicode="&#xfb2a;" horiz-adv-x="1779" 
d="M1464 1354q-36 0 -61 23t-25 55q0 34 24.5 57t61.5 23q38 0 62.5 -23t24.5 -57t-24.5 -56t-62.5 -22zM865 -34q-175 0 -360.5 67.5t-312.5 178.5v989h227v-893q73 -70 194.5 -111.5t249.5 -41.5q232 0 373.5 130.5t141.5 348.5v567h228v-553q0 -202 -92 -357t-260.5 -240
t-388.5 -85zM781 329l-131 131q60 51 96 126t36 153v462h227v-440q0 -130 -62 -247t-166 -185z" />
    <glyph glyph-name="uniFB2B" unicode="&#xfb2b;" horiz-adv-x="1779" 
d="M296 1354q-36 0 -61.5 23t-25.5 55q0 34 25 57t62 23t61.5 -23t24.5 -57t-24.5 -56t-61.5 -22zM865 -34q-175 0 -360.5 67.5t-312.5 178.5v989h227v-893q73 -70 194.5 -111.5t249.5 -41.5q232 0 373.5 130.5t141.5 348.5v567h228v-553q0 -202 -92 -357t-260.5 -240
t-388.5 -85zM781 329l-131 131q60 51 96 126t36 153v462h227v-440q0 -130 -62 -247t-166 -185z" />
    <glyph glyph-name="uniFB2C" unicode="&#xfb2c;" horiz-adv-x="1772" 
d="M1498 1353q-36 0 -61 23t-25 55q0 34 24.5 57t61.5 23q38 0 62.5 -23t24.5 -57t-24.5 -56t-62.5 -22zM865 -34q-175 0 -360.5 67.5t-312.5 178.5v989h227v-893q73 -70 194.5 -111.5t249.5 -41.5q232 0 373.5 130.5t141.5 348.5v567h228v-553q0 -202 -92 -357t-260.5 -240
t-388.5 -85zM781 329l-131 131q60 51 96 126t36 153v462h227v-440q0 -130 -62 -247t-166 -185zM1164 524q-36 0 -61 23.5t-25 55.5q0 34 25 56.5t61 22.5q38 0 62.5 -22.5t24.5 -56.5q0 -35 -24.5 -57t-62.5 -22z" />
    <glyph glyph-name="uniFB2D" unicode="&#xfb2d;" horiz-adv-x="1779" 
d="M296 1354q-36 0 -61.5 23t-25.5 55q0 34 25 57t62 23t61.5 -23t24.5 -57t-24.5 -56t-61.5 -22zM865 -34q-175 0 -360.5 67.5t-312.5 178.5v989h227v-893q73 -70 194.5 -111.5t249.5 -41.5q232 0 373.5 130.5t141.5 348.5v567h228v-553q0 -202 -92 -357t-260.5 -240
t-388.5 -85zM781 329l-131 131q60 51 96 126t36 153v462h227v-440q0 -130 -62 -247t-166 -185zM1166 524q-36 0 -61 23.5t-25 55.5q0 34 25 56.5t61 22.5q38 0 62.5 -22.5t24.5 -56.5q0 -35 -24.5 -57t-62.5 -22z" />
    <glyph glyph-name="uniFB2E" unicode="&#xfb2e;" horiz-adv-x="1408" 
d="M1325 1201q-168 -363 -407 -671l403 -492v-38h-235l-606 720q-83 -88 -83 -215v-505h-226v477q0 116 51.5 216t142.5 163l-86 103q-44 51 -69 118t-23 124h216q17 -64 45 -99l325 -396q187 232 293 495h259zM517 -298v108h430v-108h-430z" />
    <glyph glyph-name="uniFB2F" unicode="&#xfb2f;" horiz-adv-x="1408" 
d="M1325 1201q-168 -363 -407 -671l403 -492v-38h-235l-606 720q-83 -88 -83 -215v-505h-226v477q0 116 51.5 216t142.5 163l-86 103q-44 51 -69 118t-23 124h216q17 -64 45 -99l325 -396q187 232 293 495h259zM537 -298v108h393v-108h-161q4 -44 17 -74t24 -48.5t11 -39.5
q0 -34 -24.5 -56.5t-61.5 -22.5q-36 0 -61.5 23t-25.5 56q0 21 11 39.5t24.5 48.5t16.5 74h-163z" />
    <glyph glyph-name="uniFB30" unicode="&#xfb30;" horiz-adv-x="1408" 
d="M1325 1201q-168 -363 -407 -671l403 -492v-38h-235l-606 720q-83 -88 -83 -215v-505h-226v477q0 116 51.5 216t142.5 163l-86 103q-44 51 -69 118t-23 124h216q17 -64 45 -99l325 -396q187 232 293 495h259zM625 282q38 0 62.5 -22.5t24.5 -56.5q0 -35 -24.5 -57
t-62.5 -22q-36 0 -61 23.5t-25 55.5q0 34 25 56.5t61 22.5z" />
    <glyph glyph-name="uniFB31" unicode="&#xfb31;" horiz-adv-x="1225" 
d="M1016 192l125 -15v-177h-1065v185h710q-23 71 -23 160v671h-622v185h857v-856q0 -81 18 -153zM514 603q0 -35 -24.5 -57t-62.5 -22q-36 0 -61 23.5t-25 55.5q0 34 25 56.5t61 22.5q38 0 62.5 -22.5t24.5 -56.5z" />
    <glyph glyph-name="uniFB32" unicode="&#xfb32;" horiz-adv-x="902" 
d="M784 0h-210l-75 291q-67 -104 -153.5 -177t-210.5 -133h-69v209q91 31 195 101t190 159v566h-292v185h466q26 -29 41.5 -84.5t15.5 -116.5v-415q0 -94 19 -187zM315 642q0 -35 -24.5 -57t-62.5 -22q-36 0 -61 23.5t-25 55.5q0 34 25 56.5t61 22.5q38 0 62.5 -22.5
t24.5 -56.5z" />
    <glyph glyph-name="uniFB33" unicode="&#xfb33;" horiz-adv-x="1187" 
d="M1099 1201v-185h-187q-19 -81 -19 -173v-843h-234v825q0 109 32 191h-631v185h1039zM340 682q38 0 62.5 -22.5t24.5 -56.5q0 -35 -24.5 -57t-62.5 -22q-36 0 -61 23.5t-25 55.5q0 34 25 56.5t61 22.5z" />
    <glyph glyph-name="uniFB34" unicode="&#xfb34;" horiz-adv-x="1429" 
d="M988 0v1016h-790v185h1024v-1201h-234zM713 524q-36 0 -61 23.5t-25 55.5q0 34 25 56.5t61 22.5q38 0 62.5 -22.5t24.5 -56.5q0 -35 -24.5 -57t-62.5 -22zM210 0v418q0 69 11 124t21 77.5t27 53.5h190q-23 -95 -23 -235v-438h-226z" />
    <glyph glyph-name="uniFB35" unicode="&#xfb35;" horiz-adv-x="631" 
d="M440 0h-236v942q0 173 -37 259h228q45 -73 45 -255v-946zM54 531q-36 0 -61 23.5t-25 55.5q0 34 25 56.5t61 22.5q38 0 62.5 -22.5t24.5 -56.5q0 -35 -24.5 -57t-62.5 -22z" />
    <glyph glyph-name="uniFB36" unicode="&#xfb36;" horiz-adv-x="820" 
d="M385 0l-254 946q-44 165 -8 255h598v-185h-368q13 -69 33 -143l235 -873h-236zM652 524q-36 0 -61 23.5t-25 55.5q0 34 25 56.5t61 22.5q38 0 62.5 -22.5t24.5 -56.5q0 -35 -24.5 -57t-62.5 -22z" />
    <glyph glyph-name="uniFB38" unicode="&#xfb38;" horiz-adv-x="1445" 
d="M746 -29q-119 0 -222.5 44.5t-179 126t-118.5 203.5t-43 269v328q0 180 -34 259h222q48 -77 48 -255v-351q0 -200 93.5 -317.5t232.5 -117.5t233 118t93 317v352q0 42 -15 69h-349l31 185h483q38 -40 61 -108t23 -140v-324q1 -151 -41 -275.5t-117 -208t-178 -129
t-223 -45.5zM746 545q-36 0 -61 23.5t-25 55.5q0 34 25 56.5t61 22.5q38 0 62.5 -22.5t24.5 -56.5q0 -35 -24.5 -57t-62.5 -22z" />
    <glyph glyph-name="uniFB39" unicode="&#xfb39;" horiz-adv-x="738" 
d="M563 1201v-302q0 -140 -67.5 -259.5t-176.5 -184.5l-120 142q60 51 94.5 129.5t34.5 163.5v126h-248v185h483zM128 735q-36 0 -61 23.5t-25 55.5q0 34 25 56.5t61 22.5q38 0 62.5 -22.5t24.5 -56.5q0 -35 -24.5 -57t-62.5 -22z" />
    <glyph glyph-name="uniFB3A" unicode="&#xfb3a;" horiz-adv-x="1082" 
d="M644 -416v1432h-591v185h822v-1617h-231zM327 523q-36 0 -61 23.5t-25 55.5q0 34 25 56.5t61 22.5q38 0 62.5 -22.5t24.5 -56.5q0 -35 -24.5 -57t-62.5 -22z" />
    <glyph glyph-name="uniFB3B" unicode="&#xfb3b;" horiz-adv-x="1093" 
d="M94 0v185h304q97 0 174.5 35.5t124.5 95t72 132.5t25 153q0 79 -25 152t-72 132.5t-124.5 95t-174.5 35.5h-304v185h347q141 0 254.5 -51.5t183.5 -137t107.5 -191t37.5 -220.5q0 -92 -23 -178.5t-71 -163t-115.5 -134.5t-164 -91.5t-209.5 -33.5h-347zM405 524
q-36 0 -61 23.5t-25 55.5q0 34 25 56.5t61 22.5q38 0 62.5 -22.5t24.5 -56.5q0 -35 -24.5 -57t-62.5 -22z" />
    <glyph glyph-name="uniFB3C" unicode="&#xfb3c;" horiz-adv-x="1156" 
d="M1065 1201v-149l-425 -1052h-250l420 1016h-718v281q0 145 76 273l186 -83q-39 -83 -39 -194v-92h750zM357 609q-36 0 -61 23.5t-25 55.5q0 34 25 56.5t61 22.5q38 0 62.5 -22.5t24.5 -56.5q0 -35 -24.5 -57t-62.5 -22z" />
    <glyph glyph-name="uniFB3E" unicode="&#xfb3e;" horiz-adv-x="1399" 
d="M100 0l160 731q20 93 61.5 171t84.5 111l-1 6l-283 -3v185h601q255 0 388 -124.5t133 -374.5v-702h-533v185h298v546q0 139 -68.5 217.5t-189.5 78.5q-93 0 -158 -70.5t-91 -198.5l-157 -758h-245zM744 524q-36 0 -61 23.5t-25 55.5q0 34 25 56.5t61 22.5
q38 0 62.5 -22.5t24.5 -56.5q0 -35 -24.5 -57t-62.5 -22z" />
    <glyph glyph-name="uniFB40" unicode="&#xfb40;" horiz-adv-x="811" 
d="M294 -20q-114 0 -226 25l23 179q63 -12 147 -12q156 0 156 180v664h-240v185h474v-867q0 -166 -89 -260t-245 -94zM176 524q-36 0 -61 23.5t-25 55.5q0 34 25 56.5t61 22.5q38 0 62.5 -22.5t24.5 -56.5q0 -35 -24.5 -57t-62.5 -22z" />
    <glyph glyph-name="uniFB41" unicode="&#xfb41;" horiz-adv-x="1431" 
d="M752 -39q-131 0 -241 48.5t-184.5 133t-115.5 201t-41 250.5q0 123 52 237.5t141 187.5l-68 -3h-153v185h611q275 0 429 -161.5t154 -445.5q0 -181 -69 -323.5t-203 -226t-312 -83.5zM753 142q159 0 252 124.5t93 312.5q0 202 -91.5 325.5t-254.5 123.5
q-160 0 -252.5 -124.5t-92.5 -324.5q0 -186 95.5 -311.5t250.5 -125.5zM753 524q-36 0 -61 23.5t-25 55.5q0 34 25 56.5t61 22.5q38 0 62.5 -22.5t24.5 -56.5q0 -35 -24.5 -57t-62.5 -22z" />
    <glyph glyph-name="uniFB43" unicode="&#xfb43;" horiz-adv-x="1252" 
d="M550 1201q145 0 260 -51t185 -137t106 -192.5t36 -223.5v-1013h-234v1017q0 82 -23 154.5t-70 132t-126.5 94t-182.5 34.5h-75q-61 -99 -61 -256v-342h-234v342q0 319 163 441h256zM624 529q-36 0 -61 23.5t-25 55.5q0 34 25 56.5t61 22.5q38 0 62.5 -22.5t24.5 -56.5
q0 -35 -24.5 -57t-62.5 -22z" />
    <glyph glyph-name="uniFB44" unicode="&#xfb44;" horiz-adv-x="1355" 
d="M667 1201q146 0 260.5 -50.5t183 -136t104 -190.5t35.5 -223q0 -92 -23 -178.5t-71 -163t-115.5 -134.5t-164 -91.5t-209.5 -33.5h-543v185h494q103 0 182.5 35.5t126 95t70 132t23.5 153.5q0 82 -23 154.5t-70 132t-126.5 94t-182.5 34.5h-120q-28 -44 -45 -113.5
t-17 -142.5v-265h-234v265q0 317 164 441h301zM667 525q-36 0 -61 23.5t-25 55.5q0 34 25 56.5t61 22.5q38 0 62.5 -22.5t24.5 -56.5q0 -35 -24.5 -57t-62.5 -22z" />
    <glyph glyph-name="uniFB46" unicode="&#xfb46;" horiz-adv-x="1246" 
d="M119 0v185h566q85 0 153 -5q-122 114 -185 191l-441 543q-51 62 -83 141t-33 146h220q25 -86 74 -150l248 -319q171 215 276 469h258q-163 -356 -393 -650l49 -64l275 -335v-152h-984zM314 330q-36 0 -61 23.5t-25 55.5q0 34 25 56.5t61 22.5q38 0 62.5 -22.5t24.5 -56.5
q0 -35 -24.5 -57t-62.5 -22z" />
    <glyph glyph-name="uniFB47" unicode="&#xfb47;" horiz-adv-x="1429" 
d="M688 61l395 955h-901v185h1156v-149l-425 -1052h-225v61zM686 657q-36 0 -61 23.5t-25 55.5q0 34 25 56.5t61 22.5q38 0 62.5 -22.5t24.5 -56.5q0 -35 -24.5 -57t-62.5 -22zM457 694v-853q0 -153 45 -257h-216q-59 88 -59 254v856h230z" />
    <glyph glyph-name="uniFB48" unicode="&#xfb48;" horiz-adv-x="1118" 
d="M700 0v822q0 91 -52.5 142.5t-146.5 51.5h-441v185h452q199 0 311 -104.5t112 -290.5v-806h-235zM357 524q-36 0 -61 23.5t-25 55.5q0 34 25 56.5t61 22.5q38 0 62.5 -22.5t24.5 -56.5q0 -35 -24.5 -57t-62.5 -22z" />
    <glyph glyph-name="uniFB49" unicode="&#xfb49;" horiz-adv-x="1779" 
d="M865 -34q-175 0 -360.5 67.5t-312.5 178.5v989h227v-893q73 -70 194.5 -111.5t249.5 -41.5q232 0 373.5 130.5t141.5 348.5v567h228v-553q0 -202 -92 -357t-260.5 -240t-388.5 -85zM781 329l-131 131q60 51 96 126t36 153v462h227v-440q0 -130 -62 -247t-166 -185z
M1166 524q-36 0 -61 23.5t-25 55.5q0 34 25 56.5t61 22.5q38 0 62.5 -22.5t24.5 -56.5q0 -35 -24.5 -57t-62.5 -22z" />
    <glyph glyph-name="uniFB4A" unicode="&#xfb4a;" horiz-adv-x="1512" 
d="M105 1201h1200v-1201h-234v1016h-505v-682q0 -166 -89.5 -260t-245.5 -94q-94 0 -206 21l23 179q64 -8 128 -8q155 0 155 180v664h-226v185zM832 682q38 0 62.5 -22.5t24.5 -56.5q0 -35 -24.5 -57t-62.5 -22q-36 0 -61 23.5t-25 55.5q0 34 25 56.5t61 22.5z" />
    <glyph glyph-name="uniFB4B" unicode="&#xfb4b;" horiz-adv-x="631" 
d="M283 1353q-36 0 -61 23t-25 55q0 34 24.5 57t61.5 23q38 0 62.5 -23t24.5 -57t-24.5 -56t-62.5 -22zM440 0h-236v942q0 173 -37 259h228q45 -73 45 -255v-946z" />
    <glyph glyph-name="uniFB4C" unicode="&#xfb4c;" horiz-adv-x="1225" 
d="M820 1502v-125h-520v125h520zM1016 192l125 -15v-177h-1065v185h710q-23 71 -23 160v671h-622v185h857v-856q0 -81 18 -153z" />
    <glyph glyph-name="uniFB4D" unicode="&#xfb4d;" horiz-adv-x="1093" 
d="M238 1377v125h520v-125h-520zM94 0v185h304q97 0 174.5 35.5t124.5 95t72 132.5t25 153q0 79 -25 152t-72 132.5t-124.5 95t-174.5 35.5h-304v185h347q141 0 254.5 -51.5t183.5 -137t107.5 -191t37.5 -220.5q0 -92 -23 -178.5t-71 -163t-115.5 -134.5t-164 -91.5
t-209.5 -33.5h-347z" />
    <glyph glyph-name="uniFB4E" unicode="&#xfb4e;" horiz-adv-x="1355" 
d="M423 1377v125h520v-125h-520zM667 1201q146 0 260.5 -50.5t183 -136t104 -190.5t35.5 -223q0 -92 -23 -178.5t-71 -163t-115.5 -134.5t-164 -91.5t-209.5 -33.5h-543v185h494q103 0 182.5 35.5t126 95t70 132t23.5 153.5q0 82 -23 154.5t-70 132t-126.5 94t-182.5 34.5
h-120q-28 -44 -45 -113.5t-17 -142.5v-265h-234v265q0 317 164 441h301z" />
    <glyph glyph-name="uniFB4F" unicode="&#xfb4f;" horiz-adv-x="1312" 
d="M1228 1201q-161 -354 -408 -673l404 -490v-38h-234l-898 1064v233q0 147 76 273l186 -83q-39 -81 -39 -194v-153l360 -436q190 234 294 497h259z" />
    <glyph glyph-name="K.alt" horiz-adv-x="1315" 
d="M1028 0l-456 628h-197v-628h-227v1456h227v-612h176l424 612h278l-495 -701l542 -755h-272z" />
    <glyph glyph-name="R.alt" horiz-adv-x="1334" 
d="M1178 247q0 -58 17.5 -122.5t56.5 -96.5v-28h-232q-37 33 -53 107.5t-16 141.5v103q0 121 -68 185t-205 64h-304v-601h-228v1456h543q243 0 372 -107.5t129 -308.5q0 -123 -71.5 -209t-203.5 -130q142 -34 202.5 -122.5t60.5 -224.5v-107zM666 788q149 0 223 64t74 169
q0 116 -72.5 181.5t-215.5 65.5h-301v-480h292z" />
    <glyph glyph-name="K.alt2" horiz-adv-x="1314" 
d="M1251 0h-289l-587 674v-674h-227v1456h227v-666h3l552 666h286l-612 -724z" />
    <glyph glyph-name="C.ss06" horiz-adv-x="1360" 
d="M1285 475q-24 -241 -171 -368.5t-399 -127.5q-280 0 -450 199.5t-170 524.5v49q0 323 173 524t447 201q254 0 400 -131.5t172 -369.5h-227q-22 155 -103 234t-242 79q-176 0 -284 -146.5t-108 -388.5v-51q0 -245 105 -391t287 -146q302 0 344 309h226z" />
    <glyph glyph-name="D.ss06" horiz-adv-x="1378" 
d="M578 1456q206 0 367.5 -91.5t249 -251.5t87.5 -361v-49q0 -150 -51.5 -280t-142.5 -223t-222.5 -146.5t-286.5 -53.5h-431v1456h430zM1054 703v51q0 147 -54.5 261.5t-167 183.5t-267.5 69h-190v-1081h191q155 0 267 69t166.5 184t54.5 263z" />
    <glyph glyph-name="G.ss06" horiz-adv-x="1420" 
d="M1292 170q-25 -31 -67.5 -62t-106 -61.5t-154 -49t-191.5 -18.5q-196 0 -351 93.5t-241 258.5t-86 372v51q0 156 46.5 290.5t128 229.5t198 149t252.5 54q258 0 403 -127t167 -338h-220q-19 128 -104 202.5t-240 74.5q-181 0 -292 -149.5t-111 -383.5v-53
q0 -233 123 -385t327 -152q107 0 184.5 27t106.5 60v299h-313v170h541v-552z" />
    <glyph glyph-name="O.ss06" horiz-adv-x="1461" 
d="M1364 704q0 -203 -79.5 -368.5t-225 -261t-328.5 -95.5t-329 95.5t-226.5 261t-80.5 368.5v48q0 203 80 368.5t225.5 261t328.5 95.5q137 0 256 -56t202 -153t130 -230.5t47 -285.5v-48zM1138 754q0 149 -48.5 270t-143 193.5t-217.5 72.5q-124 0 -217.5 -72.5
t-141 -193.5t-47.5 -270v-50q0 -149 48 -270.5t142 -194.5t218 -73q123 0 217 73t142 194.5t48 270.5v50z" />
    <glyph glyph-name="Q.ss06" horiz-adv-x="1461" 
d="M1364 711q0 -197 -70.5 -356t-196.5 -255l256 -222l-144 -127l-293 255q-87 -27 -185 -27q-184 0 -329.5 93.5t-226 260.5t-80.5 378v30q0 158 47 294.5t130 233.5t201 152.5t256 55.5q184 0 329 -94.5t225.5 -262.5t80.5 -379v-30zM1138 711v32q0 157 -49 280.5
t-142.5 195t-217.5 71.5t-217 -71.5t-141 -195t-48 -280.5v-32q0 -240 110.5 -392.5t297.5 -152.5q124 0 217 71t141.5 194t48.5 280z" />
    <glyph glyph-name="g.alt" horiz-adv-x="1080" 
d="M655 215q173 0 274 -78t101 -219q0 -63 -36.5 -125t-102.5 -114t-170 -84.5t-227 -32.5q-220 0 -344.5 80.5t-124.5 199.5q0 90 59 157t152 107q-53 48 -53 133q0 104 107 179q-99 46 -155 126.5t-56 177.5v22q0 159 123.5 258.5t321.5 99.5q86 0 161 -20h341l2 -116
h-142q84 -92 84 -222v-22q0 -150 -124 -251t-320 -101q-72 0 -142 16q-45 -38 -45 -86q0 -49 34 -67t93 -18h189zM297 744v-22q0 -74 63 -129t166 -55q101 0 163 55t62 129v22q0 80 -62 134.5t-165 54.5q-102 0 -164.5 -54.5t-62.5 -134.5zM494 -270q151 0 234.5 54
t83.5 121q0 61 -47.5 101t-145.5 40h-190q-37 0 -72 6q-54 -18 -90.5 -63t-36.5 -98q0 -70 67.5 -115.5t196.5 -45.5z" />
    <glyph glyph-name="k.alt" horiz-adv-x="1057" 
d="M802 0l-346 477h-108v-477h-219v1536h219v-881h88l329 427h256l-390 -497l425 -585h-254z" />
    <glyph glyph-name="k.alt2" horiz-adv-x="1034" 
d="M1025 0h-261l-416 510v-510h-219v1560h219v-913h8l376 435h256l-438 -510z" />
    <glyph glyph-name="b.ss06" horiz-adv-x="1154" 
d="M642 1102q205 0 320.5 -149t115.5 -402v-21q0 -246 -116 -398t-318 -152q-198 0 -309 164l-18 -144h-189v1536h219v-587q108 153 295 153zM858 530v21q0 168 -67 269t-199 101q-182 0 -245 -155v-459q65 -147 247 -147q132 0 198 101.5t66 268.5z" />
    <glyph glyph-name="c.ss06" horiz-adv-x="1087" 
d="M809 364h207q-6 -173 -131 -278.5t-309 -105.5q-232 0 -366.5 152.5t-134.5 393.5v30q0 241 134.5 393.5t364.5 152.5q190 0 313 -109t129 -303h-207q-4 105 -70.5 168t-168.5 63q-137 0 -206 -102.5t-69 -262.5v-30q0 -78 16 -143t48.5 -115.5t87 -78.5t125.5 -28
q99 0 165.5 52.5t71.5 150.5z" />
    <glyph glyph-name="d.ss06" horiz-adv-x="1154" 
d="M806 1536h220v-1536h-193l-17 144q-114 -164 -306 -164q-197 0 -316 153.5t-119 396.5v21q0 251 118.5 401t318.5 150q184 0 294 -155v589zM560 161q175 0 246 146v460q-66 154 -244 154q-127 0 -197 -102t-70 -268v-21q0 -164 69.5 -266.5t195.5 -102.5z" />
    <glyph glyph-name="g.ss06" horiz-adv-x="1155" 
d="M835 1082h191v-1026q0 -229 -130.5 -357.5t-359.5 -128.5q-179 0 -310 65l31 160q131 -51 252 -51q148 0 222.5 80t74.5 234v69q-109 -147 -296 -147q-197 0 -316 153.5t-119 397.5v21q0 251 118 400.5t319 149.5q204 0 307 -160zM560 161q180 0 246 146v462
q-64 152 -244 152q-127 0 -197 -102t-70 -267v-21q0 -164 69.5 -267t195.5 -103z" />
    <glyph glyph-name="o.ss06" horiz-adv-x="1158" 
d="M65 555q0 240 141.5 393.5t371.5 153.5q232 0 373.5 -153t141.5 -394v-29q0 -240 -141 -393t-372 -153t-373 153.5t-142 392.5v29zM285 526q0 -156 78.5 -260.5t216.5 -104.5q136 0 215 104.5t79 260.5v29q0 99 -33.5 181t-102 133.5t-160.5 51.5q-135 0 -214 -106.5
t-79 -259.5v-29z" />
    <glyph glyph-name="p.ss06" horiz-adv-x="1154" 
d="M642 1102q200 0 318 -149.5t118 -400.5v-21q0 -244 -118.5 -397.5t-315.5 -153.5q-186 0 -297 147v-543h-219v1498h201l12 -140q110 160 301 160zM859 531v21q0 165 -70 267t-197 102q-181 0 -245 -152v-463q68 -145 247 -145q126 0 195.5 103t69.5 267z" />
    <glyph glyph-name="q.ss06" horiz-adv-x="1154" 
d="M835 1082h191v-1498h-220v541q-112 -145 -296 -145q-198 0 -316.5 152t-118.5 395v21q0 251 118.5 402.5t318.5 151.5q194 0 304 -165zM560 161q179 0 246 142v467q-65 151 -244 151q-127 0 -197 -104t-70 -269v-21q0 -164 69 -265t196 -101z" />
    <glyph glyph-name="e.ss07" horiz-adv-x="1082" 
d="M1024 606v-117h-731q5 -147 94 -237.5t246 -90.5q174 0 301 91l45 -156q-148 -116 -378 -116q-233 0 -380.5 149t-147.5 374v48q0 158 59.5 282.5t172.5 196.5t261 72q212 0 335 -133.5t123 -362.5zM809 640v29q0 114 -64 183t-179 69q-112 0 -180.5 -77.5t-86.5 -203.5
h510z" />
    <glyph glyph-name="g.ss07" horiz-adv-x="1156" 
d="M821 1082h191v-1026q0 -229 -130.5 -357.5t-359.5 -128.5q-181 0 -309 62l31 163q129 -51 251 -51q148 0 222.5 80t74.5 234v69q-109 -147 -296 -147q-195 0 -304.5 150.5t-109.5 396.5v21q0 254 109.5 404t306.5 150q204 0 307 -160zM546 161q185 0 246 157v439
q-58 164 -244 164q-125 0 -186 -101.5t-61 -271.5v-21q0 -167 60 -266.5t185 -99.5z" />
    <glyph glyph-name="f_l" horiz-adv-x="1201" 
d="M605 1557q190 0 454 -36v-1521h-220v1359q-117 17 -204 17q-99 0 -154 -50.5t-55 -142.5v-101h240v-165h-240v-917h-220v917h-170v165h170v101q0 180 104.5 277t294.5 97z" />
    <glyph glyph-name="A.smcp" horiz-adv-x="1150" 
d="M922 0l-98 257h-500l-96 -257h-223l461 1165h214l464 -1165h-222zM385 419h377l-181 473l-9 42l-9 -41z" />
    <glyph glyph-name="Aacute.smcp" horiz-adv-x="1150" 
d="M890 1565l-246 -296h-184l194 296h236zM922 0l-98 257h-500l-96 -257h-223l461 1165h214l464 -1165h-222zM385 419h377l-181 473l-9 42l-9 -41z" />
    <glyph glyph-name="Acircumflex.smcp" horiz-adv-x="1150" 
d="M575 1438l-167 -159h-178v16l281 263h130l286 -267v-12h-182zM922 0l-98 257h-500l-96 -257h-223l461 1165h214l464 -1165h-222zM385 419h377l-181 473l-9 42l-9 -41z" />
    <glyph glyph-name="Adieresis.smcp" horiz-adv-x="1150" 
d="M333 1312q-47 0 -79.5 30t-32.5 73q0 44 32.5 74t79.5 30t79.5 -30t32.5 -74q0 -43 -32.5 -73t-79.5 -30zM817 1312q-47 0 -79 30t-32 73q0 44 32 74t79 30t80 -30t33 -74q0 -43 -33 -73t-80 -30zM922 0l-98 257h-500l-96 -257h-223l461 1165h214l464 -1165h-222z
M385 419h377l-181 473l-9 42l-9 -41z" />
    <glyph glyph-name="Agrave.smcp" horiz-adv-x="1150" 
d="M709 1269h-184l-248 296h237zM922 0l-98 257h-500l-96 -257h-223l461 1165h214l464 -1165h-222zM385 419h377l-181 473l-9 42l-9 -41z" />
    <glyph glyph-name="Aring.smcp" horiz-adv-x="1150" 
d="M578 1246q-87 0 -145.5 54t-58.5 134t58.5 136t145.5 56q86 0 144.5 -56t58.5 -136t-58 -134t-145 -54zM578 1545q-49 0 -79.5 -31.5t-30.5 -79.5q0 -47 30.5 -78t79.5 -31t79 31t30 78q0 48 -30 79.5t-79 31.5zM922 0l-98 257h-500l-96 -257h-223l461 1165h214
l464 -1165h-222zM385 419h377l-181 473l-9 42l-9 -41z" />
    <glyph glyph-name="Atilde.smcp" horiz-adv-x="1150" 
d="M448 1401q-42 0 -68.5 -26.5t-26.5 -76.5l-133 6q0 99 59.5 168t148.5 69q40 0 79.5 -15.5t67 -34t64 -34t70.5 -15.5q42 0 69.5 28t27.5 78l132 -7q0 -101 -60 -170.5t-150 -69.5q-44 0 -84 15.5t-65 34.5t-60 34.5t-71 15.5zM922 0l-98 257h-500l-96 -257h-223
l461 1165h214l464 -1165h-222zM385 419h377l-181 473l-9 42l-9 -41z" />
    <glyph glyph-name="AE.smcp" horiz-adv-x="1596" 
d="M944 180h590v-180h-804l-6 255h-383l-129 -255h-241l618 1165h917v-180h-582l7 -291h505v-180h-500zM431 433h289l-13 546z" />
    <glyph glyph-name="B.smcp" horiz-adv-x="1112" 
d="M810 592q110 -21 167.5 -96t57.5 -167q0 -165 -114 -247t-331 -82h-471v1165h413q224 0 345 -79t121 -236q0 -91 -46 -160.5t-142 -97.5zM550 984h-211v-323h212q227 0 227 159q0 84 -56.5 124t-171.5 40zM590 180q110 0 168 46t58 119q0 74 -53.5 119t-161.5 45h-262
v-329h251z" />
    <glyph glyph-name="C.smcp" horiz-adv-x="1151" 
d="M1081 388q-13 -190 -145.5 -297t-350.5 -107q-236 0 -371 149t-135 405v88q0 254 137 405t365 151q223 0 353 -110.5t148 -300.5h-219q-9 106 -78.5 167.5t-203.5 61.5t-208 -96t-74 -277v-89q0 -374 286 -374q263 0 277 224h219z" />
    <glyph glyph-name="Ccedilla.smcp" horiz-adv-x="1151" 
d="M585 164q263 0 277 224h219q-11 -169 -119 -273.5t-289 -125.5l-8 -50q70 -10 115.5 -50t45.5 -121q0 -104 -88 -165t-247 -61l-7 134q62 0 106 25.5t44 75.5q0 47 -36 66.5t-121 26.5l25 119q-199 26 -311 171.5t-112 377.5v88q0 254 137 405t365 151q223 0 353 -110.5
t148 -300.5h-219q-9 106 -78.5 167.5t-203.5 61.5t-208 -96t-74 -277v-89q0 -374 286 -374z" />
    <glyph glyph-name="D.smcp" horiz-adv-x="1143" 
d="M505 1165q244 0 402 -153.5t158 -391.5v-76q0 -157 -72 -281.5t-198.5 -193.5t-284.5 -69h-391v1165h386zM844 544v78q0 174 -86 268t-253 94h-166v-804h171q164 0 249 93.5t85 270.5z" />
    <glyph glyph-name="Eth.smcp" horiz-adv-x="1143" 
d="M505 1165q244 0 402 -153.5t158 -391.5v-76q0 -157 -72 -281.5t-198.5 -193.5t-284.5 -69h-391v514h-204v138h204v513h386zM844 544v78q0 174 -86 268t-253 94h-166v-332h246v-138h-246v-334h171q164 0 249 93.5t85 270.5z" />
    <glyph glyph-name="E.smcp" horiz-adv-x="990" 
d="M952 984h-613v-290h525v-181h-525v-333h611v-180h-831v1165h833v-181z" />
    <glyph glyph-name="Eacute.smcp" horiz-adv-x="990" 
d="M863 1565l-246 -296h-184l194 296h236zM952 984h-613v-290h525v-181h-525v-333h611v-180h-831v1165h833v-181z" />
    <glyph glyph-name="Ecircumflex.smcp" horiz-adv-x="990" 
d="M548 1438l-167 -159h-178v16l281 263h130l286 -267v-12h-182zM952 984h-613v-290h525v-181h-525v-333h611v-180h-831v1165h833v-181z" />
    <glyph glyph-name="Edieresis.smcp" horiz-adv-x="990" 
d="M306 1312q-47 0 -79.5 30t-32.5 73q0 44 32.5 74t79.5 30t79.5 -30t32.5 -74q0 -43 -32.5 -73t-79.5 -30zM790 1312q-47 0 -79 30t-32 73q0 44 32 74t79 30t80 -30t33 -74q0 -43 -33 -73t-80 -30zM952 984h-613v-290h525v-181h-525v-333h611v-180h-831v1165h833v-181z
" />
    <glyph glyph-name="Egrave.smcp" horiz-adv-x="990" 
d="M682 1269h-184l-248 296h237zM952 984h-613v-290h525v-181h-525v-333h611v-180h-831v1165h833v-181z" />
    <glyph glyph-name="F.smcp" horiz-adv-x="978" 
d="M939 984h-600v-315h540v-181h-540v-488h-220v1165h820v-181z" />
    <glyph glyph-name="G.smcp" horiz-adv-x="1193" 
d="M1100 135q-53 -58 -177 -104.5t-300 -46.5q-241 0 -384.5 146.5t-143.5 403.5v102q0 252 143 399t369 147q231 0 352 -104t140 -282h-212q-16 99 -80 151.5t-192 52.5q-137 0 -219 -94.5t-82 -267.5v-104q0 -179 83.5 -274.5t241.5 -95.5q87 0 150 19.5t91 43.5v214h-273
v160h493v-466z" />
    <glyph glyph-name="H.smcp" horiz-adv-x="1236" 
d="M898 1165h218v-1165h-218v482h-559v-482h-220v1165h220v-502h559v502z" />
    <glyph glyph-name="I.smcp" horiz-adv-x="509" 
d="M364 0h-219v1165h219v-1165z" />
    <glyph glyph-name="Iacute.smcp" horiz-adv-x="509" 
d="M333 1565h236l-246 -296h-184zM364 0h-219v1165h219v-1165z" />
    <glyph glyph-name="Icircumflex.smcp" horiz-adv-x="509" 
d="M606 1291v-12h-182l-170 159l-167 -159h-178v16l281 263h130zM364 0h-219v1165h219v-1165z" />
    <glyph glyph-name="Idieresis.smcp" horiz-adv-x="509" 
d="M12 1519q47 0 79.5 -30t32.5 -74q0 -43 -32.5 -73t-79.5 -30t-79.5 30t-32.5 73q0 44 32.5 74t79.5 30zM496 1519q47 0 80 -30t33 -74q0 -43 -33 -73t-80 -30t-79 30t-32 73q0 44 32 74t79 30zM364 0h-219v1165h219v-1165z" />
    <glyph glyph-name="Igrave.smcp" horiz-adv-x="509" 
d="M388 1269h-184l-248 296h237zM364 0h-219v1165h219v-1165z" />
    <glyph glyph-name="J.smcp" horiz-adv-x="983" 
d="M645 1165h220v-781q0 -184 -114 -292t-287 -108q-194 0 -305.5 95t-111.5 283h220q0 -198 197 -198q84 0 132.5 56.5t48.5 163.5v781z" />
    <glyph glyph-name="K.smcp" horiz-adv-x="1125" 
d="M854 0l-364 488l-151 -143v-345h-220v1165h220v-551l131 160l346 391h278l-453 -523l475 -642h-262z" />
    <glyph glyph-name="L.smcp" horiz-adv-x="939" 
d="M339 180h562v-180h-782v1165h220v-985z" />
    <glyph glyph-name="M.smcp" horiz-adv-x="1532" 
d="M1413 1165v-1165h-221v321l24 630l-378 -951h-146l-377 946l24 -625v-321h-220v1165h291l354 -873l355 873h294z" />
    <glyph glyph-name="N.smcp" horiz-adv-x="1238" 
d="M1119 0h-219l-561 830v-830h-220v1165h220l561 -829v829h219v-1165z" />
    <glyph glyph-name="Ntilde.smcp" horiz-adv-x="1238" 
d="M986 1541q0 -101 -60 -170.5t-150 -69.5q-44 0 -84 15.5t-65 34.5t-60 34.5t-71 15.5q-42 0 -68.5 -26.5t-26.5 -76.5l-133 6q0 99 59.5 168t148.5 69q40 0 79.5 -15.5t67 -34t64 -34t70.5 -15.5q42 0 69.5 28t27.5 78zM1119 0h-219l-561 830v-830h-220v1165h220
l561 -829v829h219v-1165z" />
    <glyph glyph-name="O.smcp" horiz-adv-x="1201" 
d="M1123 539q0 -252 -144 -403.5t-378 -151.5q-236 0 -380.5 151t-144.5 404v86q0 253 144 404.5t379 151.5q234 0 379 -152t145 -404v-86zM903 626q0 174 -80.5 274.5t-223.5 100.5q-145 0 -223.5 -99.5t-78.5 -275.5v-87q0 -174 79.5 -275t224.5 -101q141 0 221.5 101.5
t80.5 274.5v87z" />
    <glyph glyph-name="Oacute.smcp" horiz-adv-x="1201" 
d="M674 1565h236l-246 -296h-184zM1123 539q0 -252 -144 -403.5t-378 -151.5q-236 0 -380.5 151t-144.5 404v86q0 253 144 404.5t379 151.5q234 0 379 -152t145 -404v-86zM903 626q0 174 -80.5 274.5t-223.5 100.5q-145 0 -223.5 -99.5t-78.5 -275.5v-87q0 -174 79.5 -275
t224.5 -101q141 0 221.5 101.5t80.5 274.5v87z" />
    <glyph glyph-name="Ocircumflex.smcp" horiz-adv-x="1201" 
d="M947 1291v-12h-182l-170 159l-167 -159h-178v16l281 263h130zM1123 539q0 -252 -144 -403.5t-378 -151.5q-236 0 -380.5 151t-144.5 404v86q0 253 144 404.5t379 151.5q234 0 379 -152t145 -404v-86zM903 626q0 174 -80.5 274.5t-223.5 100.5q-145 0 -223.5 -99.5
t-78.5 -275.5v-87q0 -174 79.5 -275t224.5 -101q141 0 221.5 101.5t80.5 274.5v87z" />
    <glyph glyph-name="Odieresis.smcp" horiz-adv-x="1201" 
d="M353 1519q47 0 79.5 -30t32.5 -74q0 -43 -32.5 -73t-79.5 -30t-79.5 30t-32.5 73q0 44 32.5 74t79.5 30zM837 1519q47 0 80 -30t33 -74q0 -43 -33 -73t-80 -30t-79 30t-32 73q0 44 32 74t79 30zM1123 539q0 -252 -144 -403.5t-378 -151.5q-236 0 -380.5 151t-144.5 404
v86q0 253 144 404.5t379 151.5q234 0 379 -152t145 -404v-86zM903 626q0 174 -80.5 274.5t-223.5 100.5q-145 0 -223.5 -99.5t-78.5 -275.5v-87q0 -174 79.5 -275t224.5 -101q141 0 221.5 101.5t80.5 274.5v87z" />
    <glyph glyph-name="Ograve.smcp" horiz-adv-x="1201" 
d="M729 1269h-184l-248 296h237zM1123 539q0 -252 -144 -403.5t-378 -151.5q-236 0 -380.5 151t-144.5 404v86q0 253 144 404.5t379 151.5q234 0 379 -152t145 -404v-86zM903 626q0 174 -80.5 274.5t-223.5 100.5q-145 0 -223.5 -99.5t-78.5 -275.5v-87q0 -174 79.5 -275
t224.5 -101q141 0 221.5 101.5t80.5 274.5v87z" />
    <glyph glyph-name="Oslash.smcp" horiz-adv-x="1201" 
d="M984 1022q139 -152 139 -397v-86q0 -252 -144 -403.5t-378 -151.5q-171 0 -295 81l-91 -128h-128l138 194q-149 152 -149 408v86q0 253 144 404.5t379 151.5q176 0 306 -90l89 126h128zM297 539q0 -139 51 -233l444 626q-75 69 -193 69q-145 0 -223.5 -99.5t-78.5 -275.5
v-87zM903 539v87q0 130 -45 219l-441 -622q74 -60 184 -60q141 0 221.5 101.5t80.5 274.5z" />
    <glyph glyph-name="Otilde.smcp" horiz-adv-x="1201" 
d="M958 1541q0 -101 -60 -170.5t-150 -69.5q-44 0 -84 15.5t-65 34.5t-60 34.5t-71 15.5q-42 0 -68.5 -26.5t-26.5 -76.5l-133 6q0 99 59.5 168t148.5 69q40 0 79.5 -15.5t67 -34t64 -34t70.5 -15.5q42 0 69.5 28t27.5 78zM1123 539q0 -252 -144 -403.5t-378 -151.5
q-236 0 -380.5 151t-144.5 404v86q0 253 144 404.5t379 151.5q234 0 379 -152t145 -404v-86zM903 626q0 174 -80.5 274.5t-223.5 100.5q-145 0 -223.5 -99.5t-78.5 -275.5v-87q0 -174 79.5 -275t224.5 -101q141 0 221.5 101.5t80.5 274.5v87z" />
    <glyph glyph-name="P.smcp" horiz-adv-x="1117" 
d="M582 1165q214 0 336.5 -107t122.5 -281q0 -166 -122 -265.5t-337 -99.5h-243v-412h-220v1165h463zM582 593q120 0 180 50.5t60 131.5q0 92 -60.5 150.5t-179.5 58.5h-243v-391h243z" />
    <glyph glyph-name="Thorn.smcp" horiz-adv-x="1017" 
d="M501 985q213 0 336 -104t123 -271q0 -172 -122 -275t-337 -103h-162v-232h-220v1165h220v-180h162zM501 414q120 0 180 53.5t60 140.5q0 86 -60.5 141t-179.5 55h-162v-390h162z" />
    <glyph glyph-name="Q.smcp" horiz-adv-x="1201" 
d="M1125 539q0 -158 -59.5 -280t-166.5 -192l203 -163l-137 -120l-258 209q-49 -9 -105 -9q-235 0 -379 151t-144 404v86q0 253 143.5 404.5t378.5 151.5q234 0 379 -152t145 -404v-86zM906 539v87q0 174 -81 274.5t-224 100.5q-145 0 -223.5 -100t-78.5 -275v-87
q0 -174 79.5 -275t223.5 -101q143 0 223.5 101.5t80.5 274.5z" />
    <glyph glyph-name="R.smcp" horiz-adv-x="1156" 
d="M800 483l282 -471v-12h-236l-248 425h-261v-425h-220v1165h466q207 0 330 -90.5t123 -256.5q0 -246 -236 -335zM337 984v-378h261q106 0 162.5 51t56.5 136q0 90 -62.5 140.5t-171.5 50.5h-246z" />
    <glyph glyph-name="S.smcp" horiz-adv-x="1085" 
d="M529 501q-113 27 -187.5 55t-130 69t-80.5 96.5t-25 131.5q0 147 123.5 237.5t313.5 90.5q207 0 335.5 -96t128.5 -262h-219q0 81 -67 137t-177 56q-108 0 -169.5 -46.5t-61.5 -106.5q0 -63 57.5 -104.5t203.5 -76.5q223 -50 329.5 -133.5t106.5 -237.5t-124 -240.5
t-326 -86.5q-94 0 -178.5 21t-157 63.5t-115.5 117.5t-43 174h219q0 -111 78 -161.5t209 -50.5q109 0 169.5 46t60.5 110q0 72 -60.5 116.5t-212.5 80.5z" />
    <glyph glyph-name="uni1E9E.smcp" horiz-adv-x="1112" 
d="M706 672q168 -22 257.5 -106t89.5 -219q0 -176 -108 -272t-281 -96q-138 0 -243 61l67 163q72 -49 148 -49q95 0 149.5 49.5t54.5 143.5q0 183 -268 183h-74v139l218 246q-75 92 -189 92q-195 0 -195 -263v-744h-213v746q2 434 411 434q132 0 234 -57.5t191 -174.5z" />
    <glyph glyph-name="T.smcp" horiz-adv-x="1095" 
d="M1057 1165v-181h-403v-984h-220v984h-398v181h1021z" />
    <glyph glyph-name="U.smcp" horiz-adv-x="1173" 
d="M1059 1165v-763q0 -201 -128 -309.5t-344 -108.5q-215 0 -344 109t-129 309v763h219v-763q0 -118 67.5 -178t186.5 -60t185.5 59.5t66.5 178.5v763h220z" />
    <glyph glyph-name="Uacute.smcp" horiz-adv-x="1173" 
d="M666 1565h236l-246 -296h-184zM1059 1165v-763q0 -201 -128 -309.5t-344 -108.5q-215 0 -344 109t-129 309v763h219v-763q0 -118 67.5 -178t186.5 -60t185.5 59.5t66.5 178.5v763h220z" />
    <glyph glyph-name="Ucircumflex.smcp" horiz-adv-x="1173" 
d="M939 1291v-12h-182l-170 159l-167 -159h-178v16l281 263h130zM1059 1165v-763q0 -201 -128 -309.5t-344 -108.5q-215 0 -344 109t-129 309v763h219v-763q0 -118 67.5 -178t186.5 -60t185.5 59.5t66.5 178.5v763h220z" />
    <glyph glyph-name="Udieresis.smcp" horiz-adv-x="1173" 
d="M345 1519q47 0 79.5 -30t32.5 -74q0 -43 -32.5 -73t-79.5 -30t-79.5 30t-32.5 73q0 44 32.5 74t79.5 30zM829 1519q47 0 80 -30t33 -74q0 -43 -33 -73t-80 -30t-79 30t-32 73q0 44 32 74t79 30zM1059 1165v-763q0 -201 -128 -309.5t-344 -108.5q-215 0 -344 109t-129 309
v763h219v-763q0 -118 67.5 -178t186.5 -60t185.5 59.5t66.5 178.5v763h220z" />
    <glyph glyph-name="Ugrave.smcp" horiz-adv-x="1173" 
d="M721 1269h-184l-248 296h237zM1059 1165v-763q0 -201 -128 -309.5t-344 -108.5q-215 0 -344 109t-129 309v763h219v-763q0 -118 67.5 -178t186.5 -60t185.5 59.5t66.5 178.5v763h220z" />
    <glyph glyph-name="V.smcp" horiz-adv-x="1126" 
d="M890 1165h230l-435 -1165h-245l-434 1165h230l313 -911l13 -63l13 60z" />
    <glyph glyph-name="W.smcp" horiz-adv-x="1552" 
d="M1299 1165h211l-287 -1165h-224l-227 861l-224 -861h-223l-290 1165h214l196 -916l230 916h196l232 -916z" />
    <glyph glyph-name="X.smcp" horiz-adv-x="1100" 
d="M538 743l265 422h253l-378 -576l406 -589h-261l-282 434l-276 -434h-253l391 589l-379 576h252z" />
    <glyph glyph-name="Y.smcp" horiz-adv-x="1090" 
d="M1082 1165l-429 -745v-420h-221v425l-425 740h239l298 -563l299 563h239z" />
    <glyph glyph-name="Yacute.smcp" horiz-adv-x="1090" 
d="M849 1565l-246 -296h-184l194 296h236zM1082 1165l-429 -745v-420h-221v425l-425 740h239l298 -563l299 563h239z" />
    <glyph glyph-name="Z.smcp" horiz-adv-x="1068" 
d="M358 180h657v-180h-951v117l649 867h-640v181h929v-113z" />
    <glyph glyph-name="alpha.alt" horiz-adv-x="1181" 
d="M1087 0h-195l-35 222q-112 -243 -343 -243q-202 0 -314.5 147.5t-112.5 392.5v21q0 256 113 409t316 153q225 0 337 -249l32 229h195l-100 -542zM803 478v94q-4 65 -19.5 123.5t-44 111t-76.5 83.5t-109 31q-124 0 -185 -105t-61 -276v-21q0 -109 24 -187t79.5 -125
t140.5 -47q111 0 176 89.5t75 228.5z" />
    <glyph glyph-name="uni05D2.001" horiz-adv-x="878" 
d="M94 -10q-33 0 -57 4v210q40 -6 71 -5q131 3 215.5 74.5t114.5 190.5v539h-265v182h492v-608q0 -92 19 -184l82 -393h-214l-70 320h-7q-21 -137 -128.5 -233.5t-252.5 -96.5z" />
    <glyph glyph-name="uni05E8.001" horiz-adv-x="1025" 
d="M660 0v811q0 90 -52 141t-145 51h-384v182h395q196 0 306.5 -103t110.5 -286v-796h-231z" />
    <glyph glyph-name="uni05E8.002" horiz-adv-x="1025" 
d="M660 0v811q0 90 -52 141t-145 51h-384v182h395q196 0 306.5 -103t110.5 -286v-796h-231z" />
    <glyph glyph-name="uni05E8.003" horiz-adv-x="1025" 
d="M660 0v811q0 90 -52 141t-145 51h-384v182h395q196 0 306.5 -103t110.5 -286v-796h-231z" />
    <glyph glyph-name="uni05E8.004" horiz-adv-x="1025" 
d="M660 0v811q0 90 -52 141t-145 51h-384v182h395q196 0 306.5 -103t110.5 -286v-796h-231z" />
    <glyph glyph-name="zero.frac" 
d="M672 977q0 -159 -79 -241.5t-217 -82.5t-217.5 83t-79.5 241v160q0 158 79.5 242.5t216.5 84.5t217 -84.5t80 -242.5v-160zM517 1143q0 194 -142 194q-141 0 -141 -194v-171q0 -192 142 -192q141 0 141 192v171z" />
    <glyph glyph-name="four.frac" 
d="M699 968v-129h-106v-175h-156v175h-370l-9 102l377 512h158v-485h106zM212 968h225v298l-26 -40z" />
    <glyph glyph-name="five.frac" 
d="M105 1054l52 399h486v-124h-360l-26 -186q68 34 149 34q127 0 198.5 -66t71.5 -186q0 -116 -75 -194t-220 -78q-116 0 -203 62.5t-91 167.5h156q3 -51 40.5 -77t97.5 -26q140 0 140 145q0 67 -39.5 105t-113.5 38q-80 0 -141 -45z" />
    <glyph glyph-name="six.frac" 
d="M434 1189q120 0 186.5 -72.5t66.5 -190.5t-82 -195.5t-210 -77.5q-140 0 -226.5 79.5t-86.5 230.5v61q0 116 36.5 203.5t100 139t142 76.5t171.5 25h28v-130h-11q-281 0 -310 -229q77 80 195 80zM391 779q62 0 101.5 43.5t39.5 105.5q0 63 -38 98.5t-108 35.5
q-51 0 -92 -21.5t-58 -52.5v-51q0 -77 41 -117.5t114 -40.5z" />
    <glyph glyph-name="seven.frac" 
d="M674 1366l-349 -702h-163l348 661h-454v128h618v-87z" />
    <glyph glyph-name="eight.frac" 
d="M535 1070q67 -27 105 -76t38 -115q0 -109 -83.5 -167.5t-217.5 -58.5q-135 0 -219.5 58.5t-84.5 167.5q0 66 38.5 115t105.5 76q-58 26 -90.5 71t-32.5 102q0 106 78 164t203 58q127 0 205 -58t78 -164q0 -58 -32.5 -102.5t-90.5 -70.5zM375 1337q-58 0 -92 -27.5
t-34 -75.5q0 -47 35 -75.5t93 -28.5q57 0 91 28.5t34 75.5q0 48 -34.5 75.5t-92.5 27.5zM377 780q65 0 105.5 30t40.5 83q0 52 -41.5 81t-106.5 29t-105.5 -29t-40.5 -81q0 -53 41 -83t107 -30z" />
    <glyph glyph-name="nine.frac" 
d="M367 1465q135 0 217 -80.5t82 -240.5v-64q0 -428 -437 -428h-17v126h15q132 0 201.5 47.5t80.5 161.5q-73 -71 -176 -71q-121 0 -191.5 70t-70.5 193q0 119 84 202.5t212 83.5zM372 1034q51 0 87 21t52 51v68q0 163 -143 163q-63 0 -102 -47t-39 -113q0 -65 38 -104
t107 -39z" />
    <glyph glyph-name="zero.sup" 
d="M672 313q0 -159 -79 -241.5t-217 -82.5t-217.5 83t-79.5 241v160q0 158 79.5 242.5t216.5 84.5t217 -84.5t80 -242.5v-160zM517 479q0 194 -142 194q-141 0 -141 -194v-171q0 -192 142 -192q141 0 141 192v171z" />
    <glyph glyph-name="one.sup" 
d="M498 0h-155v605l-206 -53v124l346 112h15v-788z" />
    <glyph glyph-name="two.sup" 
d="M679 0h-594v108l288 269q121 111 121 185q0 52 -33 81.5t-96 29.5q-69 0 -106.5 -38.5t-37.5 -97.5h-155q0 111 80.5 187.5t211.5 76.5q137 0 214 -62.5t77 -176.5q0 -78 -49 -142.5t-159 -155.5l-152 -137h390v-127z" />
    <glyph glyph-name="three.sup" 
d="M517 404q160 -40 160 -186q0 -107 -87.5 -168t-224.5 -61q-77 0 -144 23t-115 80t-48 140h156q0 -49 45 -82.5t115 -33.5q72 0 109.5 32t37.5 84q0 117 -165 117h-82v107h82q73 0 111 30.5t38 80.5q0 45 -34 75.5t-104 30.5q-60 0 -99.5 -26t-39.5 -70h-154q0 104 84 164
t205 60q135 0 216.5 -59t81.5 -165q0 -60 -38.5 -104.5t-105.5 -68.5z" />
    <glyph glyph-name="four.sup" 
d="M699 304v-129h-106v-175h-156v175h-370l-9 102l377 512h158v-485h106zM212 304h225v298l-26 -40z" />
    <glyph glyph-name="five.sup" 
d="M105 390l52 399h486v-124h-360l-26 -186q68 34 149 34q127 0 198.5 -66t71.5 -186q0 -116 -75 -194t-220 -78q-116 0 -203 62.5t-91 167.5h156q3 -51 40.5 -77t97.5 -26q140 0 140 145q0 67 -39.5 105t-113.5 38q-80 0 -141 -45z" />
    <glyph glyph-name="six.sup" 
d="M434 525q120 0 186.5 -72.5t66.5 -190.5t-82 -195.5t-210 -77.5q-140 0 -226.5 79.5t-86.5 230.5v61q0 116 36.5 203.5t100 139t142 76.5t171.5 25h28v-130h-11q-281 0 -310 -229q77 80 195 80zM391 115q62 0 101.5 43.5t39.5 105.5q0 63 -38 98.5t-108 35.5
q-51 0 -92 -21.5t-58 -52.5v-51q0 -77 41 -117.5t114 -40.5z" />
    <glyph glyph-name="seven.sup" 
d="M674 702l-349 -702h-163l348 661h-454v128h618v-87z" />
    <glyph glyph-name="eight.sup" 
d="M535 406q67 -27 105 -76t38 -115q0 -109 -83.5 -167.5t-217.5 -58.5q-135 0 -219.5 58.5t-84.5 167.5q0 66 38.5 115t105.5 76q-58 26 -90.5 71t-32.5 102q0 106 78 164t203 58q127 0 205 -58t78 -164q0 -58 -32.5 -102.5t-90.5 -70.5zM375 673q-58 0 -92 -27.5
t-34 -75.5q0 -47 35 -75.5t93 -28.5q57 0 91 28.5t34 75.5q0 48 -34.5 75.5t-92.5 27.5zM377 116q65 0 105.5 30t40.5 83q0 52 -41.5 81t-106.5 29t-105.5 -29t-40.5 -81q0 -53 41 -83t107 -30z" />
    <glyph glyph-name="nine.sup" 
d="M367 801q135 0 217 -80.5t82 -240.5v-64q0 -428 -437 -428h-17v126h15q132 0 201.5 47.5t80.5 161.5q-73 -71 -176 -71q-121 0 -191.5 70t-70.5 193q0 119 84 202.5t212 83.5zM372 370q51 0 87 21t52 51v68q0 163 -143 163q-63 0 -102 -47t-39 -113q0 -65 38 -104
t107 -39z" />
    <glyph glyph-name="zero.tnum" horiz-adv-x="1235" 
 />
    <glyph glyph-name="one.tnum" horiz-adv-x="1106" 
 />
    <glyph glyph-name="two.tnum" horiz-adv-x="1154" 
 />
    <glyph glyph-name="three.tnum" horiz-adv-x="1116" 
 />
    <glyph glyph-name="four.tnum" horiz-adv-x="1199" 
 />
    <glyph glyph-name="five.tnum" horiz-adv-x="1131" 
 />
    <glyph glyph-name="six.tnum" horiz-adv-x="1159" 
d="M697 939q196 0 306 -132t110 -347q0 -213 -130.5 -346.5t-337.5 -133.5q-227 0 -367.5 148.5t-140.5 401.5v99q0 156 37 284.5t103.5 219.5t158.5 153.5t201 92.5t233 30h38v-184h-18q-221 0 -363.5 -110.5t-166.5 -340.5q57 75 142.5 120t194.5 45zM640 161
q114 0 183.5 83t69.5 216q0 140 -70.5 225.5t-195.5 85.5q-94 0 -168 -47t-103 -120v-104q0 -161 76 -250t208 -89z" />
    <glyph glyph-name="seven.tnum" horiz-adv-x="1070" 
 />
    <glyph glyph-name="eight.tnum" horiz-adv-x="1159" 
d="M956 716q104 -51 161.5 -136.5t57.5 -194.5q0 -182 -142 -293.5t-374 -111.5q-233 0 -376 111.5t-143 293.5q0 110 57.5 195.5t161.5 135.5q-87 49 -135 125.5t-48 172.5q0 174 132 280.5t349 106.5t350 -106.5t133 -280.5q0 -97 -48 -173.5t-136 -124.5zM663 1220
q-116 0 -187 -59t-71 -156q0 -100 71.5 -161t188.5 -61q115 0 186 61t71 161q0 97 -71 156t-188 59zM666 161q133 0 214 65.5t81 173.5q0 107 -82 173t-215 66q-134 0 -216 -66t-82 -173q0 -108 82 -173.5t218 -65.5z" />
    <glyph glyph-name="nine.tnum" horiz-adv-x="1171" 
 />
    <glyph glyph-name="zero.smcp" horiz-adv-x="1048" 
d="M960 462q0 -233 -116 -355.5t-319 -122.5t-320 123t-117 355v238q0 232 116.5 356.5t318.5 124.5t319.5 -124.5t117.5 -356.5v-238zM741 707q0 145 -55.5 219t-162.5 74q-106 0 -161 -74t-55 -219v-251q0 -292 218 -292q216 0 216 292v251z" />
    <glyph glyph-name="one.smcp" horiz-adv-x="1048" 
d="M700 0h-218v904l-326 -83v174l523 168h21v-1163z" />
    <glyph glyph-name="two.smcp" horiz-adv-x="1048" 
d="M969 0h-870v153l424 399q90 84 135.5 156.5t45.5 122.5q0 80 -50 124.5t-147 44.5q-102 0 -159.5 -58.5t-57.5 -146.5h-220q0 163 117.5 275t310.5 112q200 0 313.5 -92t113.5 -259q0 -60 -20 -114.5t-63.5 -109.5t-94 -103t-131.5 -114l-227 -210h580v-180z" />
    <glyph glyph-name="three.smcp" horiz-adv-x="1048" 
d="M728 597q240 -59 240 -277q0 -157 -128.5 -246.5t-330.5 -89.5q-65 0 -127.5 12t-122 40t-104 68.5t-71.5 101.5t-27 136h221q0 -75 69 -126.5t176 -51.5q110 0 167.5 49t57.5 129q0 177 -252 177h-120v150h120q109 0 168.5 47t59.5 122q0 69 -52 115.5t-159 46.5
q-91 0 -151.5 -40t-60.5 -108h-220q0 103 60 179.5t155 113.5t210 37q200 0 319 -86.5t119 -242.5q0 -90 -57.5 -156t-158.5 -100z" />
    <glyph glyph-name="four.smcp" horiz-adv-x="1048" 
d="M1005 445v-183h-164v-262h-219v262h-548l-13 145l559 758h221v-720h164zM279 445h343v454l-40 -61z" />
    <glyph glyph-name="five.smcp" horiz-adv-x="1048" 
d="M127 578l78 587h715v-177h-538l-39 -285q32 18 95 35t129 17q188 0 293.5 -97t105.5 -272q0 -81 -26 -152t-77.5 -127.5t-136.5 -89.5t-194 -33q-108 0 -204 39t-160 118t-67 182h221q5 -79 62 -119t148 -40q214 0 214 222q0 100 -59.5 157.5t-172.5 57.5
q-79 0 -126.5 -18.5t-87.5 -49.5z" />
    <glyph glyph-name="six.smcp" horiz-adv-x="1048" 
d="M609 774q175 0 274.5 -106.5t99.5 -280.5q0 -173 -122 -288t-308 -115q-99 0 -181.5 28t-145.5 83t-98 143t-35 201v94q0 139 36.5 251t98 186t147.5 123.5t180.5 71.5t200.5 22h39v-183h-16q-420 0 -462 -350q111 120 292 120zM547 163q94 0 155 66.5t61 159.5
q0 97 -58 151.5t-165 54.5q-77 0 -139.5 -32.5t-88.5 -79.5v-83q0 -115 61.5 -176t173.5 -61z" />
    <glyph glyph-name="seven.smcp" horiz-adv-x="1048" 
d="M962 1040l-517 -1040h-232l517 984h-677v181h909v-125z" />
    <glyph glyph-name="eight.smcp" horiz-adv-x="1048" 
d="M755 599q100 -39 157.5 -112t57.5 -171q0 -161 -122.5 -246.5t-321.5 -85.5q-200 0 -324 85.5t-124 246.5q0 98 57.5 171.5t158.5 111.5q-87 38 -136 104.5t-49 152.5q0 155 115 240.5t300 85.5q186 0 300.5 -85.5t114.5 -240.5q0 -86 -48.5 -152.5t-135.5 -104.5z
M524 1000q-89 0 -142 -42t-53 -115q0 -71 53.5 -114.5t143.5 -43.5q88 0 141 43.5t53 114.5q0 72 -53.5 114.5t-142.5 42.5zM526 164q99 0 162 46t63 126q0 79 -64 123.5t-163 44.5q-100 0 -163 -44.5t-63 -123.5q0 -80 63.5 -126t164.5 -46z" />
    <glyph glyph-name="nine.smcp" horiz-adv-x="1048" 
d="M511 1182q95 0 173.5 -27.5t138.5 -83.5t93.5 -148t33.5 -214v-97q0 -137 -31 -244t-86.5 -179t-136.5 -119t-176.5 -67.5t-210.5 -20.5h-26l1 179h22q197 0 302 73.5t120 247.5q-50 -51 -120 -80.5t-146 -29.5q-177 0 -282 103.5t-105 285.5q0 174 124.5 297.5
t311.5 123.5zM518 539q80 0 134.5 33.5t78.5 80.5v99q0 248 -219 248q-97 0 -156 -71t-59 -172q0 -98 58 -158t163 -60z" />
    <glyph glyph-name="ampersand.smcp" horiz-adv-x="1322" 
d="M1227 0h-242l-84 83q-158 -104 -369 -104q-197 0 -313 85.5t-116 225.5q0 93 51.5 160t156.5 136l48 31q-80 83 -117 147t-37 143q0 115 88 194.5t238 79.5q155 0 244.5 -76.5t89.5 -204.5q0 -75 -48.5 -141.5t-124.5 -116.5l-72 -48l279 -274q71 96 71 224h188
q0 -207 -127 -352zM392 886q0 -38 26.5 -78.5t82.5 -96.5l68 44q59 39 82.5 72.5t23.5 73.5q0 45 -37.5 78t-102.5 33q-68 0 -105.5 -36t-37.5 -90zM532 159q134 0 238 53l-293 288l-46 -31q-64 -45 -86 -82t-22 -77q0 -66 55 -108.5t154 -42.5z" />
    <glyph glyph-name="dollar.smcp" horiz-adv-x="1085" 
d="M1010 311q0 -142 -107 -227.5t-285 -97.5v-223h-119v223q-68 5 -129.5 20.5t-117.5 45.5t-97 71.5t-65 102.5t-24 134h219q0 -111 78 -161.5t209 -50.5q109 0 169.5 46t60.5 110q0 72 -60.5 116.5t-212.5 80.5q-113 27 -187.5 55t-130 69t-80.5 96.5t-25 131.5
q0 138 109.5 227t283.5 100v215h119v-218q176 -17 282.5 -110.5t106.5 -243.5h-219q0 81 -67 137t-177 56q-108 0 -169.5 -46.5t-61.5 -106.5q0 -63 57.5 -104.5t203.5 -76.5q223 -50 329.5 -133.5t106.5 -237.5z" />
    <glyph glyph-name="Euro.smcp" horiz-adv-x="992" 
d="M706 163q83 0 204 29l13 -179q-112 -31 -217 -31q-205 0 -330.5 109t-151.5 301h-164v133h158v101h-158v134h164q25 199 150 311t330 112q107 0 220 -32l-13 -180q-105 31 -207 31q-225 0 -260 -242h384v-134h-390v-101h390v-133h-383q36 -229 261 -229z" />
    <glyph glyph-name="sterling.smcp" horiz-adv-x="1119" 
d="M127 181q34 10 58 42t36 77t17 92.5t3 96.5l-1 18h-183v133h179l-3 93q-7 211 98 329.5t296 118.5q201 0 298.5 -109t97.5 -301h-220q0 124 -43.5 177.5t-131.5 53.5q-92 0 -137.5 -69t-38.5 -200l5 -93h380v-133h-373v-5q9 -201 -121 -321h700l1 -181h-927v181h10z" />
    <glyph glyph-name="yen.smcp" horiz-adv-x="936" 
d="M920 1165l-268 -577h214v-134h-277l-14 -31v-44h291v-134h-291v-245h-220v245h-291v134h291v53l-10 22h-281v134h218l-267 577h230l223 -542l223 542h229z" />
    <glyph glyph-name="crossbar" horiz-adv-x="925" 
d="M797 678h-670v138h670v-138z" />
    </font>
</defs>
</svg>
