<?xml version="1.0" standalone="no"?>
<!DOCTYPE svg PUBLIC "-//W3C//DTD SVG 1.1//EN" "http://www.w3.org/Graphics/SVG/1.1/DTD/svg11.dtd" >
<svg xmlns="http://www.w3.org/2000/svg" xmlns:xlink="http://www.w3.org/1999/xlink" version="1.1">
<metadata>
Created by FontForge 20170731 at Thu Mar 18 12:52:50 2021
 By Aleksey,,,
Copyright (c) 2020 by Adi Stern &#38; Meir Sadan. All rights reserved.
</metadata>
<defs>
<font id="GalDMH-Regular" horiz-adv-x="0" >
  <font-face 
    font-family="Gal DMH"
    font-weight="400"
    font-stretch="normal"
    units-per-em="2048"
    panose-1="0 0 5 0 0 0 0 0 0 0"
    ascent="1536"
    descent="-512"
    bbox="0 -582 2048 1579"
    underline-thickness="102"
    underline-position="-307"
    unicode-range="U+0020-FB44"
  />
<missing-glyph horiz-adv-x="1024" 
d="M190 1536h650v-2048h-650v2048zM682 1331v68h-338v-68h133v-76h-135v-67h340v67h-135v76h135zM547 991v144h-205v-213h340v69h-135zM410 1065h67v-74h-67v74zM682 799v67h-340v-67h135v-76h-135v-68h205v144h135zM682 539v204h-68v-135h-272v-69h340zM682 262v232h-205
v-115h70v47h67v-96h-204v164h-68v-232h340zM682 -92v231h-340v-231h340zM410 72h204v-97h-204v97zM682 -207v68h-340v-68h143l-143 -96v-68h340v68h-209l143 96h66z" />
    <glyph glyph-name=".notdef" horiz-adv-x="1024" 
d="M190 1536h650v-2048h-650v2048zM682 1331v68h-338v-68h133v-76h-135v-67h340v67h-135v76h135zM547 991v144h-205v-213h340v69h-135zM410 1065h67v-74h-67v74zM682 799v67h-340v-67h135v-76h-135v-68h205v144h135zM682 539v204h-68v-135h-272v-69h340zM682 262v232h-205
v-115h70v47h67v-96h-204v164h-68v-232h340zM682 -92v231h-340v-231h340zM410 72h204v-97h-204v97zM682 -207v68h-340v-68h143l-143 -96v-68h340v68h-209l143 96h66z" />
    <glyph glyph-name=".null" 
 />
    <glyph glyph-name="nonmarkingreturn" horiz-adv-x="682" 
 />
    <glyph glyph-name="space" unicode=" " horiz-adv-x="446" 
 />
    <glyph glyph-name="exclam" unicode="!" horiz-adv-x="616" 
d="M387 344h-156l-24 817h203zM307 -18q-52 0 -87.5 34.5t-35.5 85.5t35.5 86t87.5 35t87.5 -35t35.5 -86t-35.5 -85.5t-87.5 -34.5z" />
    <glyph glyph-name="quotedbl" unicode="&#x22;" horiz-adv-x="782" 
d="M80 762l35 440h225l-129 -440h-131zM412 762l63 440h225l-155 -440h-133z" />
    <glyph glyph-name="numbersign" unicode="#" horiz-adv-x="1314" 
d="M1251 877v-138h-268l-39 -374h252v-138h-266l-41 -391h-158l41 391h-299l-41 -391h-158l41 391h-256v138h273l39 374h-254v138h268l37 342h156l-37 -342h299l37 342h157l-37 -342h254zM487 365h299l39 374h-299z" />
    <glyph glyph-name="dollar" unicode="$" horiz-adv-x="1001" 
d="M891 365q0 -130 -97.5 -241.5t-246.5 -135.5v-264h-137v258q-161 5 -254 30l12 172q54 -21 129 -34t137 -13q119 0 191.5 50.5t72.5 152.5q0 52 -32 86.5t-83 53t-112.5 32.5t-123.5 32t-113 44t-83 76.5t-32 121.5q0 123 88.5 209t238.5 103v211h138v-209
q126 -2 217 -23l-13 -164q-112 37 -231 37q-136 0 -194 -35t-58 -106q0 -41 32.5 -70t84 -45.5t114 -32t125 -36.5t114 -51t84 -83t32.5 -126z" />
    <glyph glyph-name="percent" unicode="%" horiz-adv-x="1636" 
d="M399 426q-141 0 -226 81.5t-85 246.5q0 82 27.5 150t74 111.5t106 67t124.5 23.5q143 0 230 -78.5t87 -245.5q0 -162 -99.5 -259t-238.5 -97zM1343 989l-985 -1034l-114 113l983 1034zM408 559q74 0 119.5 57t45.5 154q0 105 -39.5 154t-121.5 49q-69 0 -114.5 -56.5
t-45.5 -148.5q0 -209 156 -209zM1188 -31q-141 0 -226 81.5t-85 246.5q0 109 47.5 191t121.5 121.5t162 39.5q143 0 230.5 -78t87.5 -245q0 -162 -99.5 -259.5t-238.5 -97.5zM1196 102q74 0 120 57t46 154q0 105 -40 154t-122 49q-69 0 -114.5 -56.5t-45.5 -148.5
q0 -209 156 -209z" />
    <glyph glyph-name="quotesingle" unicode="'" horiz-adv-x="405" 
d="M80 762l35 440h225l-129 -440h-131z" />
    <glyph glyph-name="parenleft" unicode="(" horiz-adv-x="620" 
d="M600 -395h-176q-155 249 -218 488.5t-63 488.5q0 528 283 987h170q-133 -218 -202.5 -467.5t-69.5 -509.5q0 -543 276 -987z" />
    <glyph glyph-name="parenright" unicode=")" horiz-adv-x="620" 
d="M487 584q0 -250 -62.5 -490.5t-217.5 -488.5h-174q274 442 274 985q0 260 -69.5 510t-204.5 469h174q280 -454 280 -985z" />
    <glyph glyph-name="asterisk" unicode="*" horiz-adv-x="765" 
d="M676 891l-70 -119l-184 135l22 -229h-137l23 229l-185 -135l-67 119l211 92l-211 94l69 119l185 -135l-23 229h137l-24 -229l186 135l68 -119l-211 -92z" />
    <glyph glyph-name="plus" unicode="+" horiz-adv-x="1153" 
d="M670 604h387v-153h-387v-410h-185v410h-389v153h389v408h185v-408z" />
    <glyph glyph-name="comma" unicode="," horiz-adv-x="466" 
d="M35 -270l119 469h225l-211 -469h-133z" />
    <glyph glyph-name="hyphen" unicode="-" horiz-adv-x="675" 
d="M580 440h-484v148h484v-148z" />
    <glyph glyph-name="period" unicode="." horiz-adv-x="466" 
d="M233 236q53 0 90 -37t37 -90t-37 -90t-90 -37t-90 37t-37 90t37 90t90 37z" />
    <glyph glyph-name="slash" unicode="/" horiz-adv-x="858" 
d="M788 1382l-526 -1382h-180l528 1382h178z" />
    <glyph glyph-name="zero" unicode="0" horiz-adv-x="1034" 
d="M934 563q0 -138 -36.5 -250.5t-97.5 -183.5t-137 -109t-159 -38q-188 0 -296 146t-108 421q0 236 121.5 389.5t308.5 153.5q192 0 298 -140t106 -389zM750 551q0 180 -57.5 283.5t-172.5 103.5q-105 0 -170 -103t-65 -270q0 -88 12 -162t38 -136t71 -97t106 -35
q104 0 171 115t67 301z" />
    <glyph glyph-name="one" unicode="1" horiz-adv-x="667" 
d="M72 967l309 108h137v-1075h-184v887l-232 -92z" />
    <glyph glyph-name="two" unicode="2" horiz-adv-x="946" 
d="M360 158v-13q166 9 486 9v-154h-744v152q529 292 529 538q0 124 -64.5 192t-173.5 68q-118 0 -250 -76l-26 150q160 80 325 80q164 0 268.5 -108.5t104.5 -276.5q0 -152 -111 -289.5t-344 -271.5z" />
    <glyph glyph-name="three" unicode="3" horiz-adv-x="903" 
d="M584 571v-14q107 -37 163 -103t56 -153q0 -159 -134 -238t-370 -79q-129 0 -205 20l17 166q101 -33 227 -33q122 0 201 42t79 112q0 94 -100.5 138.5t-288.5 31.5v153q175 -6 266 42.5t91 148.5q0 48 -61.5 90.5t-162.5 42.5q-120 0 -239 -61l-17 155q139 60 297 60
q94 0 166.5 -24t115 -65t64 -91t21.5 -107q0 -87 -43.5 -140.5t-142.5 -93.5z" />
    <glyph glyph-name="four" unicode="4" horiz-adv-x="1042" 
d="M930 422v-154h-168v-268h-184v268h-472l-20 135l434 672h240l2 -655q29 0 85 1t83 1zM575 895l-307 -481q78 4 310 4v477h-3z" />
    <glyph glyph-name="five" unicode="5" horiz-adv-x="923" 
d="M823 369q0 -189 -147 -287t-404 -98q-71 0 -143 10l18 160q69 -17 140 -17q162 0 257 52.5t95 156.5q0 88 -56 129t-139 41q-150 0 -282 -22v581h588v-153h-404v-263q96 13 162 13q148 0 231.5 -85.5t83.5 -217.5z" />
    <glyph glyph-name="six" unicode="6" horiz-adv-x="995" 
d="M561 711q138 0 230 -97t92 -252q0 -169 -108 -275.5t-292 -106.5q-161 0 -265.5 124.5t-104.5 313.5q0 163 43.5 291.5t120.5 209t179.5 122.5t223.5 42q82 0 123 -6v-157q-75 10 -135 10q-96 0 -167.5 -26.5t-117 -79.5t-72.5 -118t-43 -155l6 -10q42 79 115 124.5
t172 45.5zM496 133q93 0 147.5 63.5t54.5 151.5q0 93 -47.5 151t-138.5 58q-97 0 -158 -61.5t-61 -147.5q0 -84 61 -149.5t142 -65.5z" />
    <glyph glyph-name="seven" unicode="7" horiz-adv-x="933" 
d="M86 922v153h715v-160q-97 -193 -148.5 -313t-95 -270.5t-70.5 -331.5h-194q23 155 53.5 281t75 240t84.5 197.5t106 207.5q-98 -4 -526 -4z" />
    <glyph glyph-name="eight" unicode="8" horiz-adv-x="970" 
d="M678 569q94 -37 146.5 -98.5t52.5 -173.5q0 -129 -112.5 -218t-277.5 -89q-163 0 -275 87t-112 210q0 112 51.5 176.5t141.5 105.5q-80 33 -124 85.5t-44 142.5q0 121 110 207t254 86q157 0 260 -83t103 -210q0 -88 -46 -140.5t-128 -87.5zM309 797q0 -67 44 -104
t128 -64q92 30 139.5 65.5t47.5 102.5q0 56 -48 97.5t-133 41.5q-79 0 -128.5 -42t-49.5 -97zM489 135q72 0 137.5 43t65.5 119q0 87 -52.5 132.5t-150.5 76.5q-98 -32 -151 -80t-53 -135q0 -73 61.5 -114.5t142.5 -41.5z" />
    <glyph glyph-name="nine" unicode="9" horiz-adv-x="980" 
d="M498 1092q72 0 138.5 -30.5t122 -89.5t89 -157.5t33.5 -222.5q0 -160 -42.5 -281.5t-114 -191t-155.5 -103.5t-178 -34q-69 0 -143 12v162q76 -21 166 -21q118 0 209.5 98t91.5 240l-15 6q-84 -112 -268 -112q-134 0 -233 103.5t-99 262.5q0 69 26 133t75 114.5t126 81
t171 30.5zM481 520q98 0 150.5 56.5t52.5 152.5q0 111 -60 167t-143 56q-86 0 -141 -57t-55 -160q0 -100 61 -157.5t135 -57.5z" />
    <glyph glyph-name="colon" unicode=":" horiz-adv-x="526" 
d="M264 834q53 0 90 -36.5t37 -90.5q0 -53 -37.5 -90t-89.5 -37q-54 0 -91.5 37t-37.5 90q0 54 37.5 90.5t91.5 36.5zM264 236q52 0 89.5 -37t37.5 -90t-37.5 -90t-89.5 -37q-54 0 -91.5 37t-37.5 90t37.5 90t91.5 37z" />
    <glyph glyph-name="semicolon" unicode=";" horiz-adv-x="526" 
d="M391 707q0 -53 -37.5 -90t-89.5 -37q-54 0 -91.5 37t-37.5 90q0 54 37.5 90.5t91.5 36.5q53 0 90 -36.5t37 -90.5zM37 -270l119 469h225l-211 -469h-133z" />
    <glyph glyph-name="less" unicode="&#x3c;" horiz-adv-x="1026" 
d="M115 516l549 502l118 -119l-430 -381l428 -366l-116 -125z" />
    <glyph glyph-name="equal" unicode="=" horiz-adv-x="1200" 
d="M1012 618h-826v152h826v-152zM1012 268h-826v152h826v-152z" />
    <glyph glyph-name="greater" unicode="&#x3e;" horiz-adv-x="1026" 
d="M909 524l-547 -497l-118 118l428 377l-426 365l116 125z" />
    <glyph glyph-name="question" unicode="?" horiz-adv-x="866" 
d="M741 891q0 -53 -16.5 -98.5t-42.5 -78.5t-57.5 -63.5t-63.5 -61.5t-58 -64.5t-42.5 -79.5t-16.5 -101h-180q0 67 16.5 121t42.5 90.5t57.5 67.5t63.5 58.5t58 56t42.5 67.5t16.5 86q0 80 -56.5 122t-133.5 42q-67 0 -119 -24t-105 -68l-75 129q141 120 303 120
q160 0 263 -91t103 -230zM485 102q0 -51 -35.5 -85.5t-87.5 -34.5t-87 34.5t-35 85.5t35 86t87 35t87.5 -35t35.5 -86z" />
    <glyph glyph-name="bracketleft" unicode="[" horiz-adv-x="659" 
d="M582 -408h-406v1987h406v-141h-234v-1700h234v-146z" />
    <glyph glyph-name="backslash" unicode="\" horiz-adv-x="837" 
d="M770 0h-174l-530 1382h170z" />
    <glyph glyph-name="bracketright" unicode="]" horiz-adv-x="659" 
d="M483 -408h-405v146h233v1700h-233v141h405v-1987z" />
    <glyph glyph-name="asciicircum" unicode="^" horiz-adv-x="1095" 
d="M967 772l-138 -70l-294 543l-283 -543l-125 68l338 612h147z" />
    <glyph glyph-name="underscore" unicode="_" horiz-adv-x="1024" 
d="M1024 -516h-1024v145h1024v-145z" />
    <glyph glyph-name="braceleft" unicode="{" horiz-adv-x="698" 
d="M633 -408h-37q-171 0 -245.5 98t-74.5 302v358q0 120 -48.5 169.5t-168.5 55.5v146q123 6 170 52t47 169v240q0 190 74 293.5t246 103.5h37v-141q-106 0 -146.5 -53t-40.5 -197v-238q0 -264 -190 -299v-4q92 -14 141 -91t49 -212v-356q0 -144 40.5 -197t146.5 -53v-146z
" />
    <glyph glyph-name="bar" unicode="|" horiz-adv-x="571" 
d="M356 -512h-145v2048h145v-2048z" />
    <glyph glyph-name="braceright" unicode="}" horiz-adv-x="692" 
d="M651 721v-146q-120 -6 -168.5 -55.5t-48.5 -169.5v-358q0 -205 -74 -302.5t-245 -97.5h-37v146q106 0 146 53t40 197v356q0 134 49 211.5t142 91.5v4q-191 24 -191 291v246q0 144 -40 197t-146 53v141h37q172 0 245.5 -103.5t73.5 -293.5v-232q0 -128 46.5 -175.5
t170.5 -53.5z" />
    <glyph glyph-name="asciitilde" unicode="~" horiz-adv-x="1185" 
d="M1022 672l61 -131q-124 -127 -280 -127q-67 0 -132 20.5t-107.5 45t-97.5 45t-106 20.5q-99 0 -200 -88l-60 135q129 113 275 113q68 0 130.5 -20.5t102 -45.5t95.5 -45.5t112 -20.5q97 0 207 99z" />
    <glyph glyph-name="degree" unicode="&#xb0;" horiz-adv-x="770" 
d="M653 1047q0 -118 -83.5 -190.5t-196.5 -72.5q-121 0 -192.5 69.5t-71.5 188.5q0 80 41 141t103 91.5t132 30.5q131 0 199.5 -73t68.5 -185zM510 1044q0 56 -31.5 99t-97.5 43q-55 0 -91 -40t-36 -102q0 -65 34.5 -102t90.5 -37q57 0 94 39t37 100z" />
    <glyph glyph-name="periodcentered" unicode="&#xb7;" horiz-adv-x="479" 
d="M240 721q56 0 93.5 -37.5t37.5 -93.5t-37.5 -93.5t-93.5 -37.5t-93.5 37.5t-37.5 93.5t37.5 93.5t93.5 37.5z" />
    <glyph glyph-name="multiply" unicode="&#xd7;" horiz-adv-x="1159" 
d="M928 961l102 -101l-342 -344l342 -342l-112 -115l-343 344l-342 -342l-102 103l342 342l-344 344l113 113l344 -345z" />
    <glyph glyph-name="divide" unicode="&#xf7;" horiz-adv-x="1202" 
d="M725 899q0 -52 -36 -88.5t-87 -36.5q-52 0 -88.5 36t-36.5 89q0 51 36.5 87t88.5 36q51 0 87 -36t36 -87zM1108 451h-1014v155h1014v-155zM725 135q0 -52 -36 -88.5t-87 -36.5q-52 0 -88.5 36t-36.5 89q0 51 36.5 87t88.5 36q51 0 87 -36t36 -87z" />
    <glyph glyph-name="uni05B0" unicode="&#x5b0;" 
d="M96 -283q-37 0 -63.5 26.5t-26.5 63.5q0 38 26.5 64.5t63.5 26.5t63.5 -26.5t26.5 -64.5q0 -37 -26.5 -63.5t-63.5 -26.5zM96 -530q-37 0 -63.5 26.5t-26.5 63.5q0 38 26.5 64t63.5 26t63.5 -26t26.5 -64q0 -37 -26.5 -63.5t-63.5 -26.5z" />
    <glyph glyph-name="uni05B1" unicode="&#x5b1;" 
d="M127 -283q-37 0 -63.5 26.5t-26.5 63.5q0 38 26.5 64.5t63.5 26.5t63.5 -26.5t26.5 -64.5q0 -37 -26.5 -63.5t-63.5 -26.5zM362 -283q-37 0 -63.5 26.5t-26.5 63.5q0 38 26.5 64.5t63.5 26.5t64 -26.5t27 -64.5q0 -37 -27 -63.5t-64 -26.5zM614 -283q-37 0 -63.5 26.5
t-26.5 63.5q0 38 26.5 64.5t63.5 26.5t64 -26.5t27 -64.5q0 -37 -27 -63.5t-64 -26.5zM242 -524q-37 0 -63.5 26.5t-26.5 63.5q0 38 26.5 64t63.5 26t63.5 -26t26.5 -64q0 -37 -26.5 -63.5t-63.5 -26.5zM614 -530q-37 0 -63.5 26.5t-26.5 63.5q0 38 26.5 64t63.5 26t64 -26
t27 -64q0 -37 -27 -63.5t-64 -26.5z" />
    <glyph glyph-name="uni05B2" unicode="&#x5b2;" 
d="M592 -283q-37 0 -63.5 26.5t-26.5 63.5q0 38 26.5 64.5t63.5 26.5t63.5 -26.5t26.5 -64.5q0 -37 -26.5 -63.5t-63.5 -26.5zM377 -260h-377v133h377v-133zM592 -530q-37 0 -63.5 26.5t-26.5 63.5q0 38 26.5 64t63.5 26t63.5 -26t26.5 -64q0 -37 -26.5 -63.5t-63.5 -26.5z
" />
    <glyph glyph-name="uni05B3" unicode="&#x5b3;" 
d="M592 -283q-37 0 -63.5 26.5t-26.5 63.5q0 38 26.5 64.5t63.5 26.5t63.5 -26.5t26.5 -64.5q0 -37 -26.5 -63.5t-63.5 -26.5zM133 -260h-133v133h377v-133h-141l16 -246h-135zM592 -350q37 0 63.5 -26t26.5 -64q0 -37 -26.5 -63.5t-63.5 -26.5t-63.5 26.5t-26.5 63.5
q0 38 26.5 64t63.5 26z" />
    <glyph glyph-name="uni05B4" unicode="&#x5b4;" 
d="M127 -283q-37 0 -63.5 26.5t-26.5 63.5q0 38 26.5 64.5t63.5 26.5t63.5 -26.5t26.5 -64.5q0 -37 -26.5 -63.5t-63.5 -26.5z" />
    <glyph glyph-name="uni05B5" unicode="&#x5b5;" 
d="M90 -283q-37 0 -63.5 26.5t-26.5 63.5q0 38 26.5 64.5t63.5 26.5t63.5 -26.5t26.5 -64.5q0 -37 -26.5 -63.5t-63.5 -26.5zM326 -283q-37 0 -63.5 26.5t-26.5 63.5q0 38 26.5 64.5t63.5 26.5t63.5 -26.5t26.5 -64.5q0 -37 -26.5 -63.5t-63.5 -26.5z" />
    <glyph glyph-name="uni05B6" unicode="&#x5b6;" 
d="M94 -262q-37 0 -63.5 26.5t-26.5 63.5q0 38 26.5 64t63.5 26t63.5 -26t26.5 -64q0 -37 -26.5 -63.5t-63.5 -26.5zM330 -262q-37 0 -63.5 26.5t-26.5 63.5q0 38 26.5 64t63.5 26t63.5 -26t26.5 -64q0 -37 -26.5 -63.5t-63.5 -26.5zM209 -504q-37 0 -63.5 26.5t-26.5 63.5
q0 38 26.5 64t63.5 26t63.5 -26t26.5 -64q0 -37 -26.5 -63.5t-63.5 -26.5z" />
    <glyph glyph-name="uni05B7" unicode="&#x5b7;" 
d="M2 -260v133h377v-133h-377z" />
    <glyph glyph-name="uni05B8" unicode="&#x5b8;" 
d="M2 -127h377v-133h-137l16 -205h-135l16 205h-137v133z" />
    <glyph glyph-name="uni05B9" unicode="&#x5b9;" 
d="M127 1167q-37 0 -63.5 26.5t-26.5 63.5q0 38 26.5 64.5t63.5 26.5t63.5 -26.5t26.5 -64.5q0 -37 -26.5 -63.5t-63.5 -26.5z" />
    <glyph glyph-name="uni05BA" unicode="&#x5ba;" 
d="M127 1167q-37 0 -63.5 26.5t-26.5 63.5q0 38 26.5 64.5t63.5 26.5t63.5 -26.5t26.5 -64.5q0 -37 -26.5 -63.5t-63.5 -26.5z" />
    <glyph glyph-name="uni05BB" unicode="&#x5bb;" 
d="M127 -283q-37 0 -63.5 26.5t-26.5 63.5q0 38 26.5 64.5t63.5 26.5t63.5 -26.5t26.5 -64.5q0 -37 -26.5 -63.5t-63.5 -26.5zM283 -434q-37 0 -63.5 26.5t-26.5 63.5q0 38 26.5 64t63.5 26t63.5 -26t26.5 -64q0 -37 -26.5 -63.5t-63.5 -26.5zM449 -582q-37 0 -64 26.5
t-27 63.5q0 38 27 64.5t64 26.5t63.5 -26.5t26.5 -64.5q0 -37 -26.5 -63.5t-63.5 -26.5z" />
    <glyph glyph-name="uni05BC" unicode="&#x5bc;" 
d="M100 457q-37 0 -63.5 25.5t-26.5 62.5q0 38 26.5 64t63.5 26t63.5 -26t26.5 -64q0 -37 -26.5 -62.5t-63.5 -25.5z" />
    <glyph glyph-name="uni05BE" unicode="&#x5be;" horiz-adv-x="675" 
d="M580 928h-484v147h484v-147z" />
    <glyph glyph-name="uni05C1" unicode="&#x5c1;" 
d="M90 1169q-37 0 -63.5 27t-26.5 64q0 38 26.5 64t63.5 26t63.5 -26t26.5 -64q0 -37 -26.5 -64t-63.5 -27z" />
    <glyph glyph-name="uni05C2" unicode="&#x5c2;" 
d="M90 1169q-37 0 -63.5 27t-26.5 64q0 38 26.5 64t63.5 26t63.5 -26t26.5 -64q0 -37 -26.5 -64t-63.5 -27z" />
    <glyph glyph-name="uni05D0" unicode="&#x5d0;" horiz-adv-x="1193" 
d="M1081 70l-131 -115q-117 144 -315 433t-311 425l-9 -4q52 -164 52 -342v-467h-185v467q0 115 -1.5 181.5t-12 175.5t-31.5 202l164 68q93 -102 190 -225t141 -183t159 -219q75 134 75 348v105q-134 19 -157 22v131q157 10 340 10l2 -268q1 -149 -46 -254.5t-135 -208.5
q141 -192 211 -282z" />
    <glyph glyph-name="uni05D1" unicode="&#x5d1;" horiz-adv-x="1003" 
d="M811 645v-487q18 -1 64 -4.5t77 -3.5v-150h-829v150q99 1 265 4t235 4l6 487q1 149 -55.5 223t-159.5 74q-67 0 -127.5 -11.5t-153.5 -41.5l-37 149q179 58 318 58q86 0 156.5 -25t125.5 -77.5t85 -141t30 -207.5z" />
    <glyph glyph-name="uni05D2" unicode="&#x5d2;" horiz-adv-x="778" 
d="M647 0h-194l-19 270l-10 4q-88 -177 -262 -303l-101 183q85 41 145 79t110 88t74 111.5t22 136.5l-9 349q-110 13 -225 16v135q133 10 406 10q0 -635 63 -1079z" />
    <glyph glyph-name="uni05D3" unicode="&#x5d3;" horiz-adv-x="1044" 
d="M70 922v153h854v-153h-74q-43 0 -71.5 -124.5t-28.5 -236.5v-563h-185v563q-1 129 18.5 199t71.5 131l-16 31h-569z" />
    <glyph glyph-name="uni05D4" unicode="&#x5d4;" horiz-adv-x="1165" 
d="M1032 0h-190l8 631q1 166 -56.5 228.5t-193.5 62.5h-258h-199v153h64h448q203 0 290 -103t87 -351v-621zM358 0h-184v651h184v-651z" />
    <glyph glyph-name="uni05D5" unicode="&#x5d5;" horiz-adv-x="634" 
d="M489 1079l3 -1079h-185v920q-110 11 -211 14v135q130 10 393 10z" />
    <glyph glyph-name="uni05D6" unicode="&#x5d6;" horiz-adv-x="743" 
d="M115 915v160h508v-180q-232 -106 -232 -436q0 -86 18 -182t68 -277h-192q-45 195 -61.5 288t-16.5 171q0 265 190 430l-4 18q-172 8 -278 8z" />
    <glyph glyph-name="uni05D7" unicode="&#x5d7;" horiz-adv-x="1189" 
d="M231 1075h449q203 0 290 -103t87 -351v-621h-185v631q0 166 -56 228.5t-191 62.5h-234v-922h-184v926q-63 13 -115 18v117q69 14 139 14z" />
    <glyph glyph-name="uni05D8" unicode="&#x5d8;" horiz-adv-x="1224" 
d="M659 928v143q156 10 465 10l-14 -338q-15 -360 -175.5 -556.5t-412.5 -196.5q-124 0 -289 35l-51 897q-3 1 -119 16v129q150 12 291 12l41 -921q76 -13 137 -13q173 0 280.5 165t119.5 448l6 160q-52 5 -279 10z" />
    <glyph glyph-name="uni05D9" unicode="&#x5d9;" horiz-adv-x="622" 
d="M477 1079l2 -626h-184v465q-108 13 -223 16v135q133 10 405 10z" />
    <glyph glyph-name="uni05DA" unicode="&#x5da;" horiz-adv-x="987" 
d="M854 -297h-190l8 942q3 297 -238 297q-141 0 -305 -53l-37 149q181 58 342 58q95 0 170 -25t132 -77.5t87.5 -141t30.5 -207.5v-942z" />
    <glyph glyph-name="uni05DB" unicode="&#x5db;" horiz-adv-x="958" 
d="M113 6v144h284q58 0 98 10.5t73.5 37.5t53 74t30 119.5t10.5 175.5v31q0 98 -14 160.5t-48.5 99t-84 50.5t-128.5 14h-131h-160v137q88 16 160 16h186q221 0 312.5 -106t91.5 -371v-31q0 -137 -21 -238t-58 -164.5t-95 -101.5t-123.5 -52.5t-151.5 -14.5q-159 0 -284 10z
" />
    <glyph glyph-name="uni05DC" unicode="&#x5dc;" horiz-adv-x="989" 
d="M279 1436v-363q100 2 589 2v-346q0 -98 -27 -198t-81.5 -198.5t-146.5 -189.5t-212 -159l-61 110q96 68 165.5 148.5t107 164t54.5 162t17 160.5v193h-590v512z" />
    <glyph glyph-name="uni05DD" unicode="&#x5dd;" horiz-adv-x="1210" 
d="M231 1075h469q193 0 285 -105t92 -349v-621h-870v926q-63 13 -115 18v117q69 14 139 14zM391 922v-768h498l6 477q2 154 -43 222.5t-152 68.5h-309z" />
    <glyph glyph-name="uni05DE" unicode="&#x5de;" horiz-adv-x="1208" 
d="M721 1096q67 0 118 -14t99 -52t78.5 -101t49 -166t17.5 -243l-2 -520h-454v154q231 9 272 12v356q0 165 -24 258t-70.5 129.5t-126.5 36.5q-128 0 -215.5 -114.5t-87.5 -329.5l2 -502h-184v918q-73 8 -99 10v147q80 4 281 4v-213l8 -4q104 234 338 234z" />
    <glyph glyph-name="uni05DF" unicode="&#x5df;" horiz-adv-x="643" 
d="M498 1079l2 -1376h-185v1215q-108 13 -223 16v135q133 10 406 10z" />
    <glyph glyph-name="uni05E0" unicode="&#x5e0;" horiz-adv-x="700" 
d="M555 1079l2 -1079h-459v154q223 9 275 12v752q-110 13 -230 16v133q131 12 412 12z" />
    <glyph glyph-name="uni05E1" unicode="&#x5e1;" horiz-adv-x="1255" 
d="M270 1075h885l-4 -203q-9 -427 -162.5 -654.5t-445.5 -227.5q-142 0 -260 39l-78 891q-95 10 -123 14v135zM571 143q169 0 272 153.5t120 461.5l8 164h-580l60 -770q74 -9 120 -9z" />
    <glyph glyph-name="uni05E2" unicode="&#x5e2;" horiz-adv-x="1171" 
d="M854 643v432h184v-444q0 -179 -34 -304t-99.5 -195.5t-149.5 -101t-196 -30.5h-446v143l200 7q-17 438 -47 776l-143 16v123q175 14 317 14q44 -497 52 -925h67q54 0 95 11t80 42.5t64.5 85t40.5 142t15 208.5z" />
    <glyph glyph-name="uni05E3" unicode="&#x5e3;" horiz-adv-x="1114" 
d="M283 1075h315q203 0 290 -103t87 -351v-918h-191l9 928q1 166 -56.5 228.5t-193.5 62.5h-215v-459q66 -6 188 -14v-142q-104 -6 -371 -6l-2 643v117q69 14 140 14z" />
    <glyph glyph-name="uni05E4" unicode="&#x5e4;" horiz-adv-x="1101" 
d="M324 1075h264q220 0 310.5 -102t90.5 -352v-105q0 -152 -31 -255.5t-92 -160.5t-139 -80.5t-186 -23.5q-240 0 -379 8v146h379q72 0 119 16t81.5 57t50 112.5t15.5 180.5v105q0 174 -60.5 237.5t-214.5 63.5h-204v-308q44 -6 127 -10v-147q-94 -4 -310 -4l-2 491v117
q85 14 181 14z" />
    <glyph glyph-name="uni05E5" unicode="&#x5e5;" horiz-adv-x="983" 
d="M881 1083l2 -268q1 -51 -19 -100.5t-48.5 -87t-77 -78.5t-88 -68.5t-97.5 -64.5l2 -713h-184v676q-28 76 -138.5 291.5t-156.5 326.5l164 97q30 -78 74.5 -172t101 -208t86.5 -177q97 62 146.5 124t49.5 154v105q-134 19 -157 22v131q157 10 340 10z" />
    <glyph glyph-name="uni05E6" unicode="&#x5e6;" horiz-adv-x="1099" 
d="M780 348q68 -92 127 -190l6 -158h-755v154q481 4 575 8l8 14q-44 48 -123 132t-137 147.5t-131.5 149t-144.5 182t-137 202.5l151 107q57 -92 125 -187t114 -153.5t125 -156t111 -138.5q86 177 86 354v105q-134 19 -157 22v131q157 10 340 10l2 -268q1 -154 -44.5 -258
t-140.5 -209z" />
    <glyph glyph-name="uni05E7" unicode="&#x5e7;" horiz-adv-x="1169" 
d="M582 -14l-62 108q344 270 344 635v193h-721v153h906v-346q0 -94 -24.5 -187t-77.5 -189.5t-146 -191t-219 -175.5zM360 -297h-184v948h184v-948z" />
    <glyph glyph-name="uni05E8" unicode="&#x5e8;" horiz-adv-x="978" 
d="M846 0h-191l9 645q2 165 -49 231t-189 66q-141 0 -305 -53l-37 149q181 58 342 58q420 0 420 -451v-645z" />
    <glyph glyph-name="uni05E9" unicode="&#x5e9;" horiz-adv-x="1435" 
d="M1128 758l15 317h184l-14 -317q-8 -182 -63 -330t-144 -245.5t-207 -150t-254 -52.5q-246 0 -358 45l-94 899q-7 1 -43.5 6.5t-59.5 7.5v131q147 10 277 10l53 -551q100 27 167 109t77 197l20 241h184l-16 -225q-15 -204 -121.5 -322t-298.5 -143l23 -225q84 -25 190 -25
q96 0 179.5 38.5t149.5 114t106.5 196t47.5 274.5z" />
    <glyph glyph-name="uni05EA" unicode="&#x5ea;" horiz-adv-x="1236" 
d="M258 1075h469q203 0 290 -103t87 -351v-621h-191l9 631q1 166 -56.5 228.5t-193.5 62.5h-221v-922h-359v154l174 16v752h-8q-61 12 -139 22v117q69 14 139 14z" />
    <glyph glyph-name="uni05F3" unicode="&#x5f3;" horiz-adv-x="405" 
d="M80 762l35 440h225l-129 -440h-131z" />
    <glyph glyph-name="uni05F4" unicode="&#x5f4;" horiz-adv-x="782" 
d="M80 762l35 440h225l-129 -440h-131zM412 762l63 440h225l-155 -440h-133z" />
    <glyph glyph-name="endash" unicode="&#x2013;" horiz-adv-x="1024" 
d="M1024 492h-1024v159h1024v-159z" />
    <glyph glyph-name="emdash" unicode="&#x2014;" horiz-adv-x="2048" 
d="M2048 512h-2048v160h2048v-160z" />
    <glyph glyph-name="dagger" unicode="&#x2020;" horiz-adv-x="960" 
d="M549 1130h325v-143h-321q2 -18 20.5 -129.5t18.5 -169.5q0 -103 -8.5 -219t-22 -256.5t-18.5 -218.5h-127q-5 75 -18.5 218t-21 258t-7.5 218q0 58 18.5 169.5t20.5 129.5h-324v143h328q-3 72 -21 197t-22 168h223q-4 -43 -22 -168t-21 -197z" />
    <glyph glyph-name="daggerdbl" unicode="&#x2021;" horiz-adv-x="960" 
d="M549 1130h325v-143h-321q6 -44 22.5 -126.5t16.5 -108.5q0 -31 -17.5 -115.5t-21.5 -116.5h321v-143h-325q3 -80 21 -210.5t22 -166.5h-223q4 36 22 166.5t21 210.5h-328v143h324q-4 32 -21.5 116.5t-17.5 115.5q0 26 16.5 108.5t22.5 126.5h-324v143h328q-3 72 -21 197
t-22 168h223q-4 -43 -22 -168t-21 -197z" />
    <glyph glyph-name="bullet" unicode="&#x2022;" horiz-adv-x="880" 
d="M428 764q102 0 175 -73t73 -175q0 -103 -72.5 -175.5t-175.5 -72.5q-101 0 -173.5 72.5t-72.5 175.5q0 101 72.5 174.5t173.5 73.5z" />
    <glyph glyph-name="uni20AA" unicode="&#x20aa;" horiz-adv-x="1607" 
d="M672 922h-283v-922h-184v928q-88 14 -113 16v117q69 14 139 14h496q200 0 286.5 -103t86.5 -351v-201h-180v211q0 165 -57.5 228t-190.5 63zM1274 516v559h184v-559q0 -93 -12.5 -167.5t-43 -141t-79 -111t-125 -70.5t-176.5 -26h-461v672h187v-518h274q132 0 192 89
t60 273z" />
    <glyph glyph-name="arrowleft" unicode="&#x2190;" horiz-adv-x="1228" 
d="M373 676h811v-191h-813l266 -268l-125 -127l-362 363l-125 127l125 127l362 362l125 -127z" />
    <glyph glyph-name="arrowup" unicode="&#x2191;" horiz-adv-x="1228" 
d="M690 1034l363 -362l-127 -125l-267 264v-811h-190v813l-268 -266l-127 125l362 362l127 125z" />
    <glyph glyph-name="arrowright" unicode="&#x2192;" horiz-adv-x="1228" 
d="M1079 707l125 -127l-125 -127l-362 -363l-125 127l264 266h-811v191h813l-266 268l125 127z" />
    <glyph glyph-name="arrowdown" unicode="&#x2193;" horiz-adv-x="1228" 
d="M926 559l127 -125l-363 -362l-127 -125l-127 125l-362 362l127 125l266 -264v811h190v-813z" />
    <glyph glyph-name="minus" unicode="&#x2212;" horiz-adv-x="1126" 
d="M973 438h-819v154h819v-154z" />
    <glyph glyph-name="uniFB44" unicode="&#xfb44;" horiz-adv-x="1101" 
d="M303 1075h264q220 0 311 -102t91 -352v-105q0 -152 -31 -255.5t-92.5 -160.5t-139.5 -80.5t-186 -23.5q-223 0 -358 10v144h358q72 0 119 16t81.5 57t50 112.5t15.5 180.5v105q0 174 -60 237.5t-214 63.5h-184v-308q77 -8 106 -10v-149q-90 -2 -289 -2l-2 493v113
q88 16 160 16zM702 530q0 -37 -26.5 -62.5t-63.5 -25.5t-63.5 25.5t-26.5 62.5q0 38 26.5 64.5t63.5 26.5t63.5 -26.5t26.5 -64.5z" />
    <glyph glyph-name="colon.raised" horiz-adv-x="526" 
d="M264 956q53 0 90 -36.5t37 -90.5q0 -53 -37.5 -90t-89.5 -37q-54 0 -91.5 37t-37.5 90q0 54 37.5 90.5t91.5 36.5zM264 358q52 0 89.5 -37t37.5 -90t-37.5 -90t-89.5 -37q-54 0 -91.5 37t-37.5 90t37.5 90t91.5 37z" />
    <glyph glyph-name="uni05B5.narrow" 
d="M90 -283q-37 0 -63.5 26.5t-26.5 63.5q0 38 26.5 64.5t63.5 26.5t63.5 -26.5t26.5 -64.5q0 -37 -26.5 -63.5t-63.5 -26.5zM326 -283q-37 0 -63.5 26.5t-26.5 63.5q0 38 26.5 64.5t63.5 26.5t63.5 -26.5t26.5 -64.5q0 -37 -26.5 -63.5t-63.5 -26.5z" />
    <glyph glyph-name="uni05B6.narrow" 
d="M94 -262q-37 0 -63.5 26.5t-26.5 63.5q0 38 26.5 64t63.5 26t63.5 -26t26.5 -64q0 -37 -26.5 -63.5t-63.5 -26.5zM330 -262q-37 0 -63.5 26.5t-26.5 63.5q0 38 26.5 64t63.5 26t63.5 -26t26.5 -64q0 -37 -26.5 -63.5t-63.5 -26.5zM209 -504q-37 0 -63.5 26.5t-26.5 63.5
q0 38 26.5 64t63.5 26t63.5 -26t26.5 -64q0 -37 -26.5 -63.5t-63.5 -26.5z" />
    <glyph glyph-name="uni05B7.narrow" 
d="M2 -260v133h377v-133h-377z" />
    <glyph glyph-name="uni05B8.narrow" 
d="M2 -127h377v-133h-137l16 -205h-135l16 205h-137v133z" />
  </font>
</defs>
</svg>
