<?xml version="1.0" standalone="no"?>
<!DOCTYPE svg PUBLIC "-//W3C//DTD SVG 1.1//EN" "http://www.w3.org/Graphics/SVG/1.1/DTD/svg11.dtd" >
<svg xmlns="http://www.w3.org/2000/svg" xmlns:xlink="http://www.w3.org/1999/xlink" version="1.1">
<metadata>
Created by FontForge 20170731 at Thu Mar 18 12:52:50 2021
 By Aleksey,,,
Copyright (c) 2020 by Adi Stern &#38; Meir Sadan. All rights reserved.
</metadata>
<defs>
<font id="GalDMH-SemiBold" horiz-adv-x="0" >
  <font-face 
    font-family="Gal DMH SemiBold"
    font-weight="600"
    font-stretch="normal"
    units-per-em="2048"
    panose-1="0 0 7 0 0 0 0 0 0 0"
    ascent="1536"
    descent="-512"
    bbox="0 -623 2048 1583"
    underline-thickness="102"
    underline-position="-307"
    unicode-range="U+0020-FB44"
  />
<missing-glyph horiz-adv-x="1024" 
d="M190 1536h650v-2048h-650v2048zM682 1331v68h-338v-68h133v-76h-135v-67h340v67h-135v76h135zM547 991v144h-205v-213h340v69h-135zM410 1065h67v-74h-67v74zM682 799v67h-340v-67h135v-76h-135v-68h205v144h135zM682 539v204h-68v-135h-272v-69h340zM682 262v232h-205
v-115h70v47h67v-96h-204v164h-68v-232h340zM682 -92v231h-340v-231h340zM410 72h204v-97h-204v97zM682 -207v68h-340v-68h143l-143 -96v-68h340v68h-209l143 96h66z" />
    <glyph glyph-name=".notdef" horiz-adv-x="1024" 
d="M190 1536h650v-2048h-650v2048zM682 1331v68h-338v-68h133v-76h-135v-67h340v67h-135v76h135zM547 991v144h-205v-213h340v69h-135zM410 1065h67v-74h-67v74zM682 799v67h-340v-67h135v-76h-135v-68h205v144h135zM682 539v204h-68v-135h-272v-69h340zM682 262v232h-205
v-115h70v47h67v-96h-204v164h-68v-232h340zM682 -92v231h-340v-231h340zM410 72h204v-97h-204v97zM682 -207v68h-340v-68h143l-143 -96v-68h340v68h-209l143 96h66z" />
    <glyph glyph-name=".null" 
 />
    <glyph glyph-name="nonmarkingreturn" horiz-adv-x="682" 
 />
    <glyph glyph-name="space" unicode=" " horiz-adv-x="425" 
 />
    <glyph glyph-name="exclam" unicode="!" horiz-adv-x="618" 
d="M403 360h-184l-26 801h235zM309 -20q-60 0 -99.5 39t-39.5 96t39.5 96t99.5 39q58 0 97.5 -39t39.5 -96t-39.5 -96t-97.5 -39z" />
    <glyph glyph-name="quotedbl" unicode="&#x22;" horiz-adv-x="815" 
d="M74 727l35 469h253l-126 -469h-162zM414 727l71 469h258l-163 -469h-166z" />
    <glyph glyph-name="numbersign" unicode="#" horiz-adv-x="1325" 
d="M1266 883v-162h-260l-35 -344h237v-162h-256l-39 -379h-186l39 379h-279l-38 -379h-187l39 379h-244v162h262l35 344h-239v162h258l35 336h184l-35 -336h281l34 336h187l-35 -336h242zM504 377h280l35 344h-278z" />
    <glyph glyph-name="dollar" unicode="$" horiz-adv-x="1005" 
d="M901 358q0 -124 -94.5 -234t-247.5 -138v-254h-158v248q-152 5 -249 28l14 201q123 -47 262 -47q112 0 182 45t70 135q0 47 -31.5 78t-82 47.5t-111.5 30t-121.5 32t-111 46.5t-82 81.5t-31.5 128.5q0 124 87.5 210t237.5 106v203h158v-201q137 -5 215 -23l-14 -190
q-115 37 -232 37q-124 0 -177.5 -32t-53.5 -95q0 -38 31.5 -63.5t82 -41t111.5 -30t121.5 -36.5t111 -53t82 -87t31.5 -132z" />
    <glyph glyph-name="percent" unicode="%" horiz-adv-x="1648" 
d="M401 420q-146 0 -232.5 84t-86.5 250q0 164 99 260t239 96q146 0 235.5 -80t89.5 -250q0 -110 -49 -193.5t-126.5 -125t-168.5 -41.5zM1348 979l-949 -1028l-141 127l948 1028zM410 573q66 0 106.5 52t40.5 143q0 100 -35 144t-108 44q-63 0 -103.5 -51.5t-40.5 -138.5
q0 -100 35 -146.5t105 -46.5zM1204 -37q-145 0 -231 84.5t-86 249.5t99.5 261.5t238.5 96.5q146 0 234.5 -80t88.5 -249q0 -164 -101.5 -263.5t-242.5 -99.5zM1212 117q67 0 108.5 52.5t41.5 143.5q0 98 -36 143.5t-109 45.5q-61 0 -102.5 -52.5t-41.5 -138.5
q0 -100 34.5 -147t104.5 -47z" />
    <glyph glyph-name="quotesingle" unicode="'" horiz-adv-x="419" 
d="M74 727l35 469h253l-126 -469h-162z" />
    <glyph glyph-name="parenleft" unicode="(" horiz-adv-x="622" 
d="M614 -395h-206q-279 448 -279 977q0 532 281 987h200q-132 -215 -201 -465t-69 -512q0 -543 274 -987z" />
    <glyph glyph-name="parenright" unicode=")" horiz-adv-x="622" 
d="M504 586q0 -530 -281 -981h-205q273 439 273 985q0 262 -69.5 512t-203.5 467h207q279 -456 279 -983z" />
    <glyph glyph-name="asterisk" unicode="*" horiz-adv-x="774" 
d="M694 887l-80 -135l-180 137l27 -227h-158l27 227l-180 -137l-78 135l209 88l-209 90l80 135l180 -135l-27 225h156l-27 -225l180 135l80 -135l-211 -88z" />
    <glyph glyph-name="plus" unicode="+" horiz-adv-x="1155" 
d="M686 621h375v-185h-375v-395h-215v395h-377v185h377v391h215v-391z" />
    <glyph glyph-name="comma" unicode="," horiz-adv-x="491" 
d="M35 -279l117 488h256l-207 -488h-166z" />
    <glyph glyph-name="hyphen" unicode="-" horiz-adv-x="679" 
d="M586 430h-492v172h492v-172z" />
    <glyph glyph-name="period" unicode="." horiz-adv-x="491" 
d="M246 266q60 0 101.5 -41.5t41.5 -101.5q0 -59 -41.5 -101t-101.5 -42q-59 0 -101.5 42.5t-42.5 100.5q0 60 42.5 101.5t101.5 41.5z" />
    <glyph glyph-name="slash" unicode="/" horiz-adv-x="862" 
d="M807 1382l-526 -1382h-213l528 1382h211z" />
    <glyph glyph-name="zero" unicode="0" horiz-adv-x="1028" 
d="M940 565q0 -139 -35 -252t-95.5 -185t-139 -110t-166.5 -38q-194 0 -304 147t-110 420q0 155 54 279.5t154 196t228 71.5q196 0 305 -143.5t109 -385.5zM723 553q0 168 -51.5 262t-155.5 94q-94 0 -152.5 -94t-58.5 -250q0 -115 19 -201.5t66.5 -143t119.5 -56.5
q95 0 154 105.5t59 283.5z" />
    <glyph glyph-name="one" unicode="1" horiz-adv-x="677" 
d="M61 967l322 110h160v-1077h-219v854l-228 -90z" />
    <glyph glyph-name="two" unicode="2" horiz-adv-x="940" 
d="M379 195v-15q154 10 469 10v-190h-756v180q502 276 502 502q0 113 -58.5 175.5t-158.5 62.5q-115 0 -240 -76l-33 182q167 80 332 80q170 0 275.5 -108t105.5 -271q0 -148 -106.5 -278t-331.5 -254z" />
    <glyph glyph-name="three" unicode="3" horiz-adv-x="903" 
d="M596 575v-14q106 -35 161.5 -101t55.5 -153q0 -162 -137.5 -243.5t-376.5 -81.5q-130 0 -213 22l18 193q101 -33 222 -33q116 0 191 38t75 101q0 85 -96.5 125t-282.5 27v172q173 -6 260.5 37.5t87.5 130.5q0 43 -57 80.5t-152 37.5q-115 0 -235 -55l-19 178
q139 60 305 60q186 0 281.5 -82t95.5 -205q0 -88 -43.5 -141.5t-140.5 -92.5z" />
    <glyph glyph-name="four" unicode="4" horiz-adv-x="1034" 
d="M934 440v-184h-162v-256h-207v256h-465l-22 166l420 655h274v-639q26 0 80.5 1t81.5 1zM559 866l-274 -432q74 2 280 2v430h-6z" />
    <glyph glyph-name="five" unicode="5" horiz-adv-x="917" 
d="M827 369q0 -187 -150.5 -286t-406.5 -99q-86 0 -157 12l20 188q68 -16 152 -16q154 0 240.5 46.5t86.5 139.5q0 79 -54.5 115.5t-145.5 36.5q-132 0 -265 -21v592h613v-186q-135 2 -410 2l-2 -229q83 12 160 12q150 0 234.5 -86t84.5 -221z" />
    <glyph glyph-name="six" unicode="6" horiz-adv-x="997" 
d="M571 715q139 0 232.5 -94t93.5 -252q0 -171 -113 -281.5t-299 -110.5q-167 0 -276 127t-109 328q0 162 44 289t122.5 206t181.5 119.5t226 40.5q95 0 139 -8v-188q-78 16 -151 16q-168 0 -255.5 -86t-125.5 -254l6 -12q41 73 112.5 116.5t171.5 43.5zM496 162
q84 0 135 57.5t51 136.5q0 83 -44.5 136t-127.5 53q-87 0 -143 -56t-56 -133q0 -75 56 -134.5t129 -59.5z" />
    <glyph glyph-name="seven" unicode="7" horiz-adv-x="921" 
d="M78 893v184h725v-188q-133 -272 -194.5 -451t-102.5 -438h-227q23 150 52.5 272t70.5 232t79 192t99 201q-102 -4 -502 -4z" />
    <glyph glyph-name="eight" unicode="8" horiz-adv-x="978" 
d="M698 567q91 -35 144 -96.5t53 -169.5q0 -134 -116.5 -224.5t-286.5 -90.5q-171 0 -286.5 89.5t-115.5 217.5q0 108 51 171.5t140 100.5q-79 35 -122.5 87.5t-43.5 140.5q0 81 53.5 151t141 110t184.5 40q165 0 270.5 -85.5t105.5 -215.5q0 -86 -45.5 -138.5t-126.5 -87.5
zM328 786q0 -61 40 -94.5t117 -58.5q83 25 126.5 58.5t43.5 94.5q0 54 -42 91.5t-121 37.5q-72 0 -118 -38.5t-46 -90.5zM494 156q68 0 127 40.5t59 108.5q0 78 -48.5 121t-137.5 72q-90 -30 -139.5 -74.5t-49.5 -122.5q0 -67 57 -106t132 -39z" />
    <glyph glyph-name="nine" unicode="9" horiz-adv-x="985" 
d="M502 1098q75 0 144 -31.5t125.5 -91.5t90 -158.5t33.5 -222.5q0 -159 -42 -279.5t-114.5 -191.5t-162.5 -106t-195 -35q-78 0 -152 14v188q78 -22 174 -22q114 0 201 84t94 209l-12 10q-79 -103 -258 -103q-136 0 -237 104.5t-101 262.5q0 74 28 140t79.5 117.5
t130.5 81.5t174 30zM483 532q89 0 138 52t49 139q0 99 -55 150t-130 51q-79 0 -129.5 -53t-50.5 -144q0 -89 55 -142t123 -53z" />
    <glyph glyph-name="colon" unicode=":" horiz-adv-x="540" 
d="M272 856q59 0 101.5 -41.5t42.5 -101.5q0 -59 -43 -101.5t-101 -42.5q-61 0 -103 42.5t-42 101.5q0 60 42 101.5t103 41.5zM272 266q59 0 101.5 -41.5t42.5 -101.5q0 -58 -42.5 -100.5t-101.5 -42.5q-61 0 -103 42t-42 101q0 60 42 101.5t103 41.5z" />
    <glyph glyph-name="semicolon" unicode=";" horiz-adv-x="540" 
d="M416 713q0 -59 -43 -101.5t-101 -42.5q-61 0 -103 42.5t-42 101.5q0 60 42 101.5t103 41.5q59 0 101.5 -41.5t42.5 -101.5zM31 -279l121 502h256l-213 -502h-164z" />
    <glyph glyph-name="less" unicode="&#x3c;" horiz-adv-x="1030" 
d="M106 514l558 516l139 -141l-418 -373l418 -358l-139 -148z" />
    <glyph glyph-name="equal" unicode="=" horiz-adv-x="1187" 
d="M1008 614h-830v177h830v-177zM1008 246h-830v178h830v-178z" />
    <glyph glyph-name="greater" unicode="&#x3e;" horiz-adv-x="1030" 
d="M922 522l-555 -512l-142 142l418 368l-416 359l140 145z" />
    <glyph glyph-name="question" unicode="?" horiz-adv-x="874" 
d="M760 889q0 -53 -16.5 -98t-43 -77t-58 -61.5t-63.5 -58.5t-58.5 -61t-43 -76t-16.5 -97h-211q0 65 16 117.5t41.5 87t56.5 64t62.5 55t57 51.5t41.5 62t16 80q0 73 -54 112t-127 39q-68 0 -119.5 -23.5t-103.5 -68.5l-84 149q83 69 160 101.5t168 32.5q166 0 272.5 -94
t106.5 -236zM502 115q0 -57 -39.5 -96t-97.5 -39q-60 0 -100 39t-40 96t40 96t100 39q58 0 97.5 -39t39.5 -96z" />
    <glyph glyph-name="bracketleft" unicode="[" horiz-adv-x="663" 
d="M588 -412h-424v1995h424v-168h-221v-1655h221v-172z" />
    <glyph glyph-name="backslash" unicode="\" horiz-adv-x="841" 
d="M791 0h-207l-533 1382h203z" />
    <glyph glyph-name="bracketright" unicode="]" horiz-adv-x="663" 
d="M502 -412h-426v172h223v1655h-223v168h426v-1995z" />
    <glyph glyph-name="asciicircum" unicode="^" horiz-adv-x="1095" 
d="M977 778l-160 -82l-282 529l-273 -529l-145 78l336 608h170z" />
    <glyph glyph-name="underscore" unicode="_" horiz-adv-x="1024" 
d="M1024 -516h-1024v172h1024v-172z" />
    <glyph glyph-name="braceleft" unicode="{" horiz-adv-x="716" 
d="M651 -412h-41q-182 0 -261 101.5t-79 320.5v326q0 121 -49 170.5t-164 54.5v168q119 6 166 51.5t47 169.5v213q0 206 79 313t261 107h41v-168q-104 0 -142 -50.5t-38 -195.5v-213q0 -143 -48 -217t-142 -92v-4q91 -12 140.5 -90.5t49.5 -222.5v-322q0 -145 38 -196.5
t142 -51.5v-172z" />
    <glyph glyph-name="bar" unicode="|" horiz-adv-x="569" 
d="M367 -512h-170v2048h170v-2048z" />
    <glyph glyph-name="braceright" unicode="}" horiz-adv-x="710" 
d="M670 729v-168q-115 -5 -164 -54.5t-49 -170.5v-326q0 -219 -79.5 -320.5t-262.5 -101.5h-39v172q104 0 142 51.5t38 196.5v322q0 144 49.5 222.5t140.5 90.5v4q-190 25 -190 303v219q0 145 -38 195.5t-142 50.5v168h39q183 0 262.5 -107t79.5 -313v-207
q0 -128 46.5 -174.5t166.5 -52.5z" />
    <glyph glyph-name="asciitilde" unicode="~" horiz-adv-x="1179" 
d="M1016 690l69 -155q-122 -132 -288 -132q-65 0 -129 19.5t-107 43t-98 43t-105 19.5q-104 0 -198 -86l-68 160q133 115 285 115q66 0 127.5 -19.5t101.5 -43t94 -43t107 -19.5q101 0 209 98z" />
    <glyph glyph-name="degree" unicode="&#xb0;" horiz-adv-x="780" 
d="M672 1040q0 -125 -88 -199.5t-207 -74.5q-128 0 -203.5 73t-75.5 197q0 82 43.5 146t109 95.5t138.5 31.5q140 0 211.5 -76t71.5 -193zM506 1038q0 53 -30 93t-89 40q-53 0 -88 -37t-35 -96q0 -62 33 -97.5t86 -35.5q55 0 89 37t34 96z" />
    <glyph glyph-name="periodcentered" unicode="&#xb7;" horiz-adv-x="509" 
d="M254 735q62 0 104.5 -42t42.5 -105q0 -61 -42.5 -103.5t-104.5 -42.5t-105 42.5t-43 103.5q0 63 43 105t105 42z" />
    <glyph glyph-name="multiply" unicode="&#xd7;" horiz-adv-x="1165" 
d="M709 518l331 -332l-133 -133l-332 332l-329 -332l-121 121l332 332l-332 332l131 131l332 -332l332 332l118 -119z" />
    <glyph glyph-name="divide" unicode="&#xf7;" horiz-adv-x="1216" 
d="M748 905q0 -58 -40.5 -98.5t-97.5 -40.5q-59 0 -100 40.5t-41 98.5q0 57 41.5 98t99.5 41q57 0 97.5 -41t40.5 -98zM1122 438h-1026v180h1026v-180zM748 133q0 -58 -40.5 -99.5t-97.5 -41.5q-58 0 -99.5 41t-41.5 100q0 57 41 97t100 40q57 0 97.5 -40t40.5 -97z" />
    <glyph glyph-name="uni05B0" unicode="&#x5b0;" 
d="M100 -295q-40 0 -68 28t-28 68t28 68.5t68 28.5q39 0 68 -29t29 -68t-29 -67.5t-68 -28.5zM100 -557q-40 0 -68 28t-28 68t28 68t68 28q39 0 68 -28.5t29 -67.5t-29 -67.5t-68 -28.5z" />
    <glyph glyph-name="uni05B1" unicode="&#x5b1;" 
d="M674 -295q-40 0 -68 28t-28 68t28 68.5t68 28.5q38 0 67 -29t29 -68t-28.5 -67.5t-67.5 -28.5zM139 -297q-39 0 -67.5 28.5t-28.5 67.5q0 41 28 69t68 28t68.5 -28t28.5 -69q0 -39 -29 -67.5t-68 -28.5zM399 -297q-39 0 -67.5 28.5t-28.5 67.5q0 41 28 69t68 28t68.5 -28
t28.5 -69q0 -39 -29 -67.5t-68 -28.5zM268 -553q-39 0 -67.5 28.5t-28.5 67.5q0 41 28 70t68 29t68.5 -29t28.5 -70q0 -39 -28.5 -67.5t-68.5 -28.5zM674 -557q-40 0 -68 28t-28 68t28 68t68 28q39 0 67.5 -28.5t28.5 -67.5t-28.5 -67.5t-67.5 -28.5z" />
    <glyph glyph-name="uni05B2" unicode="&#x5b2;" 
d="M651 -295q-40 0 -68 28t-28 68t28 68.5t68 28.5q39 0 68 -29t29 -68t-29 -67.5t-68 -28.5zM418 -276h-418v151h418v-151zM651 -557q-40 0 -68 28t-28 68t28 68t68 28q39 0 68 -28.5t29 -67.5t-29 -67.5t-68 -28.5z" />
    <glyph glyph-name="uni05B3" unicode="&#x5b3;" 
d="M649 -295q-39 0 -67.5 28.5t-28.5 67.5t28.5 68t67.5 29q40 0 68 -28.5t28 -68.5t-28 -68t-68 -28zM145 -276h-145v151h418v-151h-152l19 -261h-158zM649 -365q40 0 68 -28t28 -68t-28 -68t-68 -28q-39 0 -67.5 28.5t-28.5 67.5t28.5 67.5t67.5 28.5z" />
    <glyph glyph-name="uni05B4" unicode="&#x5b4;" 
d="M131 -295q-40 0 -69 28t-29 68t29 68.5t69 28.5q39 0 67.5 -29t28.5 -68t-28.5 -67.5t-67.5 -28.5z" />
    <glyph glyph-name="uni05B5" unicode="&#x5b5;" 
d="M98 -297q-38 0 -67 29t-29 67q0 41 28.5 69t67.5 28q40 0 68.5 -28t28.5 -69q0 -39 -28.5 -67.5t-68.5 -28.5zM358 -297q-39 0 -67.5 28.5t-28.5 67.5q0 41 28 69t68 28t68.5 -28t28.5 -69q0 -39 -28.5 -67.5t-68.5 -28.5z" />
    <glyph glyph-name="uni05B6" unicode="&#x5b6;" 
d="M102 -279q-38 0 -67 28.5t-29 68.5q0 39 28.5 67.5t67.5 28.5q40 0 68.5 -28t28.5 -68t-28.5 -68.5t-68.5 -28.5zM362 -279q-40 0 -68 28.5t-28 68.5t28 68t68 28t68.5 -28t28.5 -68t-28.5 -68.5t-68.5 -28.5zM231 -535q-40 0 -68 28.5t-28 68.5t28 68t68 28t68.5 -28
t28.5 -68t-28.5 -68.5t-68.5 -28.5z" />
    <glyph glyph-name="uni05B7" unicode="&#x5b7;" 
d="M2 -276v151h418v-151h-418z" />
    <glyph glyph-name="uni05B8" unicode="&#x5b8;" 
d="M2 -125h418v-151h-148l17 -228h-156l17 228h-148v151z" />
    <glyph glyph-name="uni05B9" unicode="&#x5b9;" 
d="M129 1165q-40 0 -68 28.5t-28 68.5t28 68t68 28t68 -28t28 -68t-28 -68.5t-68 -28.5z" />
    <glyph glyph-name="uni05BA" unicode="&#x5ba;" 
d="M123 1165q-40 0 -68 28.5t-28 68.5t28 68t68 28q39 0 67.5 -28.5t28.5 -67.5q0 -40 -28.5 -68.5t-67.5 -28.5z" />
    <glyph glyph-name="uni05BB" unicode="&#x5bb;" 
d="M131 -297q-40 0 -69 29t-29 67q0 41 29 69t69 28q39 0 67.5 -28t28.5 -69q0 -38 -29 -67t-67 -29zM301 -461q-40 0 -68 28t-28 68t28 68.5t68 28.5t68 -28.5t28 -68.5t-28 -68t-68 -28zM481 -623q-40 0 -68 28.5t-28 68.5q0 41 28 68.5t68 27.5t68.5 -27.5t28.5 -68.5
q0 -40 -28.5 -68.5t-68.5 -28.5z" />
    <glyph glyph-name="uni05BC" unicode="&#x5bc;" 
d="M109 451q-40 0 -68.5 28t-28.5 66q0 41 28.5 68.5t68.5 27.5q39 0 66.5 -27.5t27.5 -68.5q0 -38 -28 -66t-66 -28z" />
    <glyph glyph-name="uni05BE" unicode="&#x5be;" horiz-adv-x="679" 
d="M586 903h-492v174h492v-174z" />
    <glyph glyph-name="uni05C1" unicode="&#x5c1;" 
d="M100 1169q-40 0 -68 28.5t-28 68.5t28 68t68 28q39 0 68 -28.5t29 -67.5t-29 -68t-68 -29z" />
    <glyph glyph-name="uni05C2" unicode="&#x5c2;" 
d="M100 1169q-40 0 -68 28.5t-28 68.5t28 68t68 28q39 0 68 -28.5t29 -67.5t-29 -68t-68 -29z" />
    <glyph glyph-name="uni05D0" unicode="&#x5d0;" horiz-adv-x="1208" 
d="M1102 80l-160 -125q-123 153 -316.5 430t-281.5 391l-10 -8q47 -155 47 -340v-428h-215v428q0 132 -1.5 203.5t-10.5 184t-27 214.5l188 64q128 -141 237 -280.5t253 -336.5q57 139 57 330v88q-135 15 -143 16v164q175 11 356 8l2 -276q1 -146 -45.5 -251t-134.5 -204
q92 -128 205 -272z" />
    <glyph glyph-name="uni05D1" unicode="&#x5d1;" horiz-adv-x="1001" 
d="M819 631v-447q135 -6 137 -6v-178h-843v178q97 1 256.5 4t230.5 4l4 445q1 142 -53.5 212t-151.5 70q-64 0 -121 -10.5t-157 -40.5l-29 180q179 58 307 58q192 0 306 -116t114 -353z" />
    <glyph glyph-name="uni05D2" unicode="&#x5d2;" horiz-adv-x="778" 
d="M668 0h-232l-14 262l-12 2q-88 -181 -269 -297l-86 217q82 37 140.5 73.5t106 84t70 106.5t21.5 130l-8 317q-86 8 -213 12v162q138 12 422 12q6 -632 74 -1081z" />
    <glyph glyph-name="uni05D3" unicode="&#x5d3;" horiz-adv-x="1040" 
d="M66 893v184h864v-184h-78q-42 0 -70 -116.5t-28 -227.5v-551h-217v551q-1 116 20.5 183t75.5 124l-15 37h-552z" />
    <glyph glyph-name="uni05D4" unicode="&#x5d4;" horiz-adv-x="1159" 
d="M1038 0h-223l8 631q1 148 -49.5 205t-169.5 57h-262h-207v184h58h469q203 0 289.5 -103t86.5 -351v-623zM379 0h-217v635h217v-635z" />
    <glyph glyph-name="uni05D5" unicode="&#x5d5;" horiz-adv-x="630" 
d="M500 1081l2 -1081h-217v893q-101 11 -197 14v164q141 10 412 10z" />
    <glyph glyph-name="uni05D6" unicode="&#x5d6;" horiz-adv-x="745" 
d="M106 889v188h527v-209q-223 -102 -223 -422q0 -87 20 -181t74 -265h-230q-46 187 -63.5 278t-17.5 168q0 247 192 410l-6 25q-160 8 -273 8z" />
    <glyph glyph-name="uni05D7" unicode="&#x5d7;" horiz-adv-x="1196" 
d="M223 1077h473q203 0 290 -103t87 -351v-623h-217l2 631q0 149 -50 205.5t-169 56.5h-221v-893h-217l2 899q-114 22 -119 23v143q71 12 139 12z" />
    <glyph glyph-name="uni05D8" unicode="&#x5d8;" horiz-adv-x="1239" 
d="M659 903v170q180 11 488 8l-14 -325q-20 -376 -182.5 -574t-413.5 -198q-145 0 -312 41l-53 880l-113 13v151q163 12 316 12l41 -899q56 -12 129 -12q161 0 261 152.5t112 422.5l6 148q-100 10 -265 10z" />
    <glyph glyph-name="uni05D9" unicode="&#x5d9;" horiz-adv-x="628" 
d="M496 1081l2 -635h-217v449q-86 8 -215 12v164q146 10 430 10z" />
    <glyph glyph-name="uni05DA" unicode="&#x5da;" horiz-adv-x="989" 
d="M866 -297h-221l6 928q1 142 -58 212t-171 70q-128 0 -305 -53l-29 184q180 54 334 54q206 0 325 -115.5t119 -351.5v-928z" />
    <glyph glyph-name="uni05DB" unicode="&#x5db;" horiz-adv-x="958" 
d="M104 8v172h285q54 0 92 10t69.5 34.5t50 68t28.5 109.5t10 159v31q0 122 -25 186.5t-79 89.5t-154 25h-135h-156v168q85 16 156 16h192q232 0 325 -106.5t93 -378.5v-31q0 -135 -20 -233.5t-56.5 -162t-95 -101.5t-127.5 -53t-162 -15q-151 0 -291 12z" />
    <glyph glyph-name="uni05DC" unicode="&#x5dc;" horiz-adv-x="989" 
d="M307 1436v-361q96 2 572 2v-348q0 -100 -27 -199t-83 -198.5t-151.5 -192t-222.5 -164.5l-78 134q347 243 347 620v164h-574v541z" />
    <glyph glyph-name="uni05DD" unicode="&#x5dd;" horiz-adv-x="1208" 
d="M223 1077h488q190 0 283 -106.5t93 -347.5v-623h-886l2 899q-114 22 -119 23v143q71 12 139 12zM416 893v-709h454l7 447q2 140 -39 201t-140 61h-282z" />
    <glyph glyph-name="uni05DE" unicode="&#x5de;" horiz-adv-x="1226" 
d="M752 1098q68 0 119.5 -14t98.5 -52.5t76.5 -103t47 -168.5t16.5 -246l-2 -514h-469v180q157 7 256 13v323q0 154 -23 242t-67 122.5t-117 34.5q-120 0 -200 -113.5t-80 -336.5l2 -465h-217v893q-79 9 -103 10v174q90 4 318 4v-213l10 -4q106 234 334 234z" />
    <glyph glyph-name="uni05DF" unicode="&#x5df;" horiz-adv-x="641" 
d="M508 1081l2 -1378h-215v1190q-108 11 -207 14v164q144 10 420 10z" />
    <glyph glyph-name="uni05E0" unicode="&#x5e0;" horiz-adv-x="696" 
d="M565 1081l2 -1081h-475v180q151 6 258 13v702q-123 12 -217 12v162q140 12 432 12z" />
    <glyph glyph-name="uni05E1" unicode="&#x5e1;" horiz-adv-x="1265" 
d="M287 1077h887l-7 -194q-15 -447 -172.5 -673t-449.5 -226q-152 0 -271 43l-81 866q-18 2 -56.5 7t-60.5 7v162q69 4 211 8zM580 170q156 0 251.5 142t112.5 433l8 148h-542l59 -715q60 -8 111 -8z" />
    <glyph glyph-name="uni05E2" unicode="&#x5e2;" horiz-adv-x="1177" 
d="M842 618l2 459h211v-469q0 -172 -33 -292t-98.5 -188t-150.5 -97.5t-202 -30.5h-467v176q61 0 201 4q-22 446 -51 725q-27 4 -135 17v145q148 14 334 14q47 -451 53 -897h65q52 0 90 9.5t74 37.5t58 75.5t35.5 125.5t13.5 186z" />
    <glyph glyph-name="uni05E3" unicode="&#x5e3;" horiz-adv-x="1120" 
d="M264 1077h352q203 0 290 -103t87 -351v-920h-221l8 928q1 149 -48.5 205.5t-168.5 56.5h-213v-412q89 -9 164 -12v-168q-159 -9 -379 -6l-2 625v145q67 12 131 12z" />
    <glyph glyph-name="uni05E4" unicode="&#x5e4;" horiz-adv-x="1114" 
d="M322 1077h268q233 0 326.5 -101t93.5 -351v-121q0 -147 -30 -246.5t-93 -156.5t-148 -81t-207 -24q-228 0 -385 14v170q135 2 385 2q144 0 203 68t60 254v121q0 153 -55 210.5t-195 57.5h-195v-262q84 -8 121 -10v-177q-98 -4 -336 -4l-2 482v143q95 12 189 12z" />
    <glyph glyph-name="uni05E5" unicode="&#x5e5;" horiz-adv-x="1017" 
d="M922 1083l2 -276q2 -222 -326 -418l2 -686h-217v678q-13 24 -86 157t-128.5 244t-102.5 224l198 88q33 -84 76.5 -175t110 -220.5t88.5 -174.5q83 61 125.5 125t42.5 158v88q-132 15 -144 16v164q176 11 359 8z" />
    <glyph glyph-name="uni05E6" unicode="&#x5e6;" horiz-adv-x="1110" 
d="M813 358q71 -88 129 -180l4 -178h-794v180q516 5 553 6l8 19q-37 39 -119.5 122t-136 139.5t-127.5 142t-141.5 182.5t-129.5 206l189 99q26 -46 56.5 -94t53.5 -83t61 -84.5t55.5 -73t62.5 -77t56 -67t62 -72t56 -64.5q61 149 61 326v88q-121 14 -141 16v164
q175 11 356 8l2 -276q1 -146 -43 -246.5t-133 -202.5z" />
    <glyph glyph-name="uni05E7" unicode="&#x5e7;" horiz-adv-x="1173" 
d="M606 -20l-82 133q181 148 252.5 298.5t71.5 317.5v164h-713v184h930v-348q0 -431 -459 -749zM379 -297h-217l2 932h215v-932z" />
    <glyph glyph-name="uni05E8" unicode="&#x5e8;" horiz-adv-x="978" 
d="M856 0h-221l6 627q2 156 -48.5 221t-186.5 65t-300 -53l-28 184q175 56 334 56q211 0 327.5 -115.5t116.5 -357.5v-627z" />
    <glyph glyph-name="uni05E9" unicode="&#x5e9;" horiz-adv-x="1447" 
d="M1122 768l17 309h213l-17 -309q-10 -191 -67 -343.5t-149 -249.5t-211 -148.5t-255 -51.5q-246 0 -377 56l-94 876q-8 0 -100 11v153q163 10 303 10l51 -536q89 30 147.5 106.5t67.5 179.5l23 246h209l-19 -233q-15 -194 -119.5 -307.5t-293.5 -139.5l20 -213
q81 -24 186 -24q94 0 174 36.5t143 108.5t102 190.5t46 272.5z" />
    <glyph glyph-name="uni05EA" unicode="&#x5ea;" horiz-adv-x="1243" 
d="M248 1077h495q203 0 290 -103t87 -351v-623h-219l8 631q1 148 -49.5 205t-169.5 57h-217v-893h-387v180l174 17l2 696q-18 3 -70.5 13.5t-82.5 15.5v143q71 12 139 12z" />
    <glyph glyph-name="uni05F3" unicode="&#x5f3;" horiz-adv-x="419" 
d="M74 727l35 469h253l-126 -469h-162z" />
    <glyph glyph-name="uni05F4" unicode="&#x5f4;" horiz-adv-x="815" 
d="M74 727l35 469h253l-126 -469h-162zM420 727l65 469h258l-155 -469h-168z" />
    <glyph glyph-name="endash" unicode="&#x2013;" horiz-adv-x="1024" 
d="M1024 477h-1024v189h1024v-189z" />
    <glyph glyph-name="emdash" unicode="&#x2014;" horiz-adv-x="2048" 
d="M2048 498h-2048v188h2048v-188z" />
    <glyph glyph-name="dagger" unicode="&#x2020;" horiz-adv-x="968" 
d="M559 1130h326v-167h-320q5 -35 18.5 -96t22 -112t8.5 -96q0 -95 -9 -205t-23.5 -248t-20.5 -214h-155q-6 75 -20.5 214t-23 248.5t-8.5 204.5q0 60 21.5 173.5t23.5 130.5h-319v167h326q-4 70 -25.5 194t-26.5 171h260q-6 -44 -27.5 -169t-27.5 -196z" />
    <glyph glyph-name="daggerdbl" unicode="&#x2021;" horiz-adv-x="968" 
d="M559 1137h326v-168h-320q7 -42 28 -117.5t21 -99.5q0 -30 -20 -106.5t-25 -108.5h316v-168h-322q6 -75 26 -200t25 -169h-260q5 47 26.5 171t27.5 198h-328v168h321q-5 26 -26 105.5t-21 109.5q0 23 19 98t26 119h-319v168h326q-4 70 -25 189.5t-27 168.5h260
q-6 -45 -27.5 -166.5t-27.5 -191.5z" />
    <glyph glyph-name="bullet" unicode="&#x2022;" horiz-adv-x="907" 
d="M442 786q114 0 193.5 -79.5t79.5 -192.5t-79.5 -191.5t-193.5 -78.5q-111 0 -189.5 79t-78.5 191t79 192t189 80z" />
    <glyph glyph-name="uni20AA" unicode="&#x20aa;" horiz-adv-x="1619" 
d="M707 893h-293v-893h-217l2 901q-18 3 -56 10.5t-59 10.5v143q71 12 139 12h545q187 0 267.5 -97t80.5 -331v-231h-192v213q0 148 -50.5 205t-166.5 57zM1274 506v571h211v-571q0 -118 -21 -207t-68 -158t-129 -105t-198 -36h-500v672h199v-488h279q118 0 172.5 80
t54.5 242z" />
    <glyph glyph-name="arrowleft" unicode="&#x2190;" horiz-adv-x="1249" 
d="M426 698l778 2v-219l-780 2l252 -252l-146 -147l-358 358l-145 148l145 147l358 359l146 -148z" />
    <glyph glyph-name="arrowup" unicode="&#x2191;" horiz-adv-x="1228" 
d="M1069 674l-147 -146l-250 250l2 -778h-219l2 780l-252 -252l-150 146l359 358l149 148z" />
    <glyph glyph-name="arrowright" unicode="&#x2192;" horiz-adv-x="1249" 
d="M719 1096l506 -506l-506 -506l-146 147l248 250l-776 -2v217l780 -2l-252 254z" />
    <glyph glyph-name="arrowdown" unicode="&#x2193;" horiz-adv-x="1228" 
d="M922 588l147 -146l-358 -358l-148 -145l-149 145l2 2l-361 356l150 146l250 -248l-2 776h217l-2 -780z" />
    <glyph glyph-name="minus" unicode="&#x2212;" horiz-adv-x="1126" 
d="M973 430h-819v184h819v-184z" />
    <glyph glyph-name="uniFB44" unicode="&#xfb44;" horiz-adv-x="1110" 
d="M305 1077h264q233 0 326.5 -101.5t93.5 -352.5v-117q0 -148 -29.5 -248t-91.5 -157t-145.5 -81t-202.5 -24q-218 0 -373 14v170q135 2 381 2q90 0 142.5 27t80 98.5t27.5 198.5v117q0 155 -56 212.5t-198 57.5h-178v-275q30 -4 94 -8v-159q-186 -4 -305 -2l-2 475v135
q103 18 172 18zM610 438q-38 0 -66 28t-28 66q0 41 27.5 69t66.5 28q40 0 68.5 -28t28.5 -69q0 -38 -28.5 -66t-68.5 -28z" />
    <glyph glyph-name="colon.raised" horiz-adv-x="540" 
d="M272 969q59 0 101.5 -42t42.5 -102q0 -58 -42.5 -100.5t-101.5 -42.5q-61 0 -103 42t-42 101q0 60 42 102t103 42zM272 379q59 0 101.5 -42.5t42.5 -100.5t-43 -101t-101 -43q-61 0 -103 42.5t-42 101.5t42 101t103 42z" />
    <glyph glyph-name="uni05B5.narrow" 
d="M106 -297q-39 0 -67.5 28.5t-28.5 67.5q0 41 28 69t68 28q39 0 68 -28t29 -69q0 -38 -29.5 -67t-67.5 -29zM352 -297q-39 0 -67.5 28.5t-28.5 67.5q0 41 28 69t68 28q39 0 68 -28t29 -69q0 -38 -29.5 -67t-67.5 -29z" />
    <glyph glyph-name="uni05B6.narrow" 
d="M111 -279q-40 0 -68.5 28.5t-28.5 68.5t28.5 68t68.5 28q39 0 67.5 -28.5t28.5 -67.5q0 -40 -28.5 -68.5t-67.5 -28.5zM356 -279q-40 0 -68 28.5t-28 68.5t28 68t68 28q39 0 68 -28.5t29 -67.5t-29 -68t-68 -29zM231 -535q-40 0 -68 28.5t-28 68.5t28 68t68 28t68.5 -28
t28.5 -68t-28.5 -68.5t-68.5 -28.5z" />
    <glyph glyph-name="uni05B7.narrow" 
d="M12 -276v151h398v-151h-398z" />
    <glyph glyph-name="uni05B8.narrow" 
d="M12 -125h398v-151h-140l19 -228h-156l19 228h-140v151z" />
  </font>
</defs>
</svg>
