<?xml version="1.0" standalone="no"?>
<!DOCTYPE svg PUBLIC "-//W3C//DTD SVG 1.1//EN" "http://www.w3.org/Graphics/SVG/1.1/DTD/svg11.dtd" >
<svg xmlns="http://www.w3.org/2000/svg" xmlns:xlink="http://www.w3.org/1999/xlink" version="1.1">
<metadata>
Created by FontForge 20170731 at Thu Mar 18 12:52:51 2021
 By Aleksey,,,
Copyright (c) 2020 by Adi Stern &#38; Meir Sadan. All rights reserved.
</metadata>
<defs>
<font id="GalDMH-SemiLight" horiz-adv-x="0" >
  <font-face 
    font-family="Gal DMH SemiLight"
    font-weight="300"
    font-stretch="normal"
    units-per-em="2048"
    panose-1="0 0 4 0 0 0 0 0 0 0"
    ascent="1536"
    descent="-512"
    bbox="-82 -582 2048 1575"
    underline-thickness="102"
    underline-position="-307"
    unicode-range="U+0020-FB44"
  />
<missing-glyph horiz-adv-x="1024" 
d="M190 1536h650v-2048h-650v2048zM682 1331v68h-338v-68h133v-76h-135v-67h340v67h-135v76h135zM547 991v144h-205v-213h340v69h-135zM410 1065h67v-74h-67v74zM682 799v67h-340v-67h135v-76h-135v-68h205v144h135zM682 539v204h-68v-135h-272v-69h340zM682 262v232h-205
v-115h70v47h67v-96h-204v164h-68v-232h340zM682 -92v231h-340v-231h340zM410 72h204v-97h-204v97zM682 -207v68h-340v-68h143l-143 -96v-68h340v68h-209l143 96h66z" />
    <glyph glyph-name=".notdef" horiz-adv-x="1024" 
d="M190 1536h650v-2048h-650v2048zM682 1331v68h-338v-68h133v-76h-135v-67h340v67h-135v76h135zM547 991v144h-205v-213h340v69h-135zM410 1065h67v-74h-67v74zM682 799v67h-340v-67h135v-76h-135v-68h205v144h135zM682 539v204h-68v-135h-272v-69h340zM682 262v232h-205
v-115h70v47h67v-96h-204v164h-68v-232h340zM682 -92v231h-340v-231h340zM410 72h204v-97h-204v97zM682 -207v68h-340v-68h143l-143 -96v-68h340v68h-209l143 96h66z" />
    <glyph glyph-name=".null" 
 />
    <glyph glyph-name="nonmarkingreturn" horiz-adv-x="682" 
 />
    <glyph glyph-name="space" unicode=" " horiz-adv-x="446" 
 />
    <glyph glyph-name="exclam" unicode="!" horiz-adv-x="614" 
d="M371 328h-127l-21 833h168zM307 -16q-46 0 -77 31t-31 75t31.5 75.5t76.5 31.5q44 0 75.5 -31.5t31.5 -75.5t-31.5 -75t-75.5 -31z" />
    <glyph glyph-name="quotedbl" unicode="&#x22;" horiz-adv-x="753" 
d="M86 754l35 440h196l-124 -440h-107zM414 754l47 440h196l-135 -440h-108z" />
    <glyph glyph-name="numbersign" unicode="#" horiz-adv-x="1251" 
d="M1186 872v-116h-250l-41 -404h235v-116h-247l-43 -400h-133l43 400h-316l-43 -400h-133l43 400h-240v116h252l43 404h-237v116h250l37 347h131l-37 -347h317l37 347h131l-37 -347h238zM446 352h316l43 404h-318z" />
    <glyph glyph-name="dollar" unicode="$" horiz-adv-x="997" 
d="M881 358q0 -133 -96.5 -241.5t-249.5 -128.5v-271h-117v267q-152 3 -256 30l8 148q53 -21 131 -35t139 -14q127 0 204 54.5t77 168.5q0 46 -25.5 78.5t-67 48.5t-95 30.5t-108.5 24t-108.5 29.5t-95 46t-67 75t-25.5 116q0 123 90.5 213t239.5 107v215h116v-215
q109 -2 220 -23l-11 -139q-119 37 -233 37q-270 0 -270 -174q0 -44 26 -75.5t68 -48t96 -32t110 -26t110 -31.5t96 -47.5t68 -74.5t26 -112z" />
    <glyph glyph-name="percent" unicode="%" horiz-adv-x="1597" 
d="M397 442q-137 0 -220 78.5t-83 243.5q0 161 96 253.5t230 92.5q66 0 120.5 -17t97.5 -53.5t67 -99t24 -147.5q0 -160 -98 -255.5t-234 -95.5zM1300 1018l-944 -1057l-96 90l942 1057zM406 555q84 0 134 60.5t50 164.5q0 112 -44.5 164.5t-135.5 52.5q-75 0 -126 -61
t-51 -158q0 -223 173 -223zM1155 -25q-138 0 -221.5 78.5t-83.5 243.5q0 161 96 253.5t230 92.5q140 0 225.5 -76t85.5 -241q0 -160 -98 -255.5t-234 -95.5zM1163 88q82 0 132.5 61t50.5 164q0 111 -44.5 164t-134.5 53q-76 0 -126 -61t-50 -158q0 -223 172 -223z" />
    <glyph glyph-name="quotesingle" unicode="'" horiz-adv-x="401" 
d="M94 754l35 440h197l-125 -440h-107z" />
    <glyph glyph-name="parenleft" unicode="(" horiz-adv-x="618" 
d="M586 -395h-146q-159 255 -219.5 492t-60.5 485q0 530 282 987h142q-136 -220 -206.5 -470t-70.5 -507q0 -540 279 -987z" />
    <glyph glyph-name="parenright" unicode=")" horiz-adv-x="618" 
d="M471 582q0 -246 -61 -484t-220 -493h-145q279 447 279 985q0 259 -70.5 508.5t-206.5 470.5h143q281 -456 281 -987z" />
    <glyph glyph-name="asterisk" unicode="*" horiz-adv-x="755" 
d="M659 895l-59 -102l-190 133l18 -232h-117l19 232l-189 -133l-57 100l211 98l-211 99l59 100l189 -131l-19 231h117l-18 -231l190 131l57 -100l-213 -97z" />
    <glyph glyph-name="plus" unicode="+" horiz-adv-x="1150" 
d="M653 596h398v-133h-398v-422h-153v422h-402v133h402v416h153v-416z" />
    <glyph glyph-name="comma" unicode="," horiz-adv-x="442" 
d="M51 -264l103 436h196l-192 -436h-107z" />
    <glyph glyph-name="hyphen" unicode="-" horiz-adv-x="671" 
d="M573 451h-475v120h475v-120z" />
    <glyph glyph-name="period" unicode="." horiz-adv-x="442" 
d="M221 205q46 0 78.5 -32.5t32.5 -78.5t-32.5 -78t-78.5 -32t-78 32t-32 78t32 78.5t78 32.5z" />
    <glyph glyph-name="slash" unicode="/" horiz-adv-x="851" 
d="M770 1382l-526 -1382h-148l529 1382h145z" />
    <glyph glyph-name="zero" unicode="0" horiz-adv-x="1021" 
d="M918 557q0 -138 -38 -250.5t-99 -181.5t-134 -106t-147 -37q-182 0 -288 147.5t-106 415.5q0 239 120.5 393t297.5 154q175 0 284.5 -138t109.5 -397zM764 543q0 196 -65 307t-185 111q-108 0 -182 -110.5t-74 -291.5q0 -89 14.5 -166.5t43.5 -141t78 -100t112 -36.5
q106 0 182 120t76 308z" />
    <glyph glyph-name="one" unicode="1" horiz-adv-x="641" 
d="M74 971l293 104h118v-1075h-153v922l-232 -93z" />
    <glyph glyph-name="two" unicode="2" horiz-adv-x="940" 
d="M336 137v-14q153 8 493 8v-131h-720v125q278 166 405 307.5t127 269.5q0 123 -65 197t-175 74q-130 0 -264 -82l-22 129q163 80 325 80q157 0 257 -105.5t100 -269.5q0 -311 -461 -588z" />
    <glyph glyph-name="three" unicode="3" horiz-adv-x="901" 
d="M561 571v-10q113 -31 174.5 -97.5t61.5 -158.5q0 -155 -135.5 -238t-362.5 -83q-125 0 -201 20l15 139q82 -28 213 -28q141 0 228 48.5t87 133.5q0 96 -110.5 147t-299.5 39v127q178 -7 277.5 47.5t99.5 153.5q0 61 -65.5 108.5t-173.5 47.5q-125 0 -246 -64l-12 131
q136 60 286 60q183 0 275 -82t92 -201q0 -87 -49.5 -144t-153.5 -96z" />
    <glyph glyph-name="four" unicode="4" horiz-adv-x="1040" 
d="M924 393v-131h-172v-262h-154v262h-485l-17 113l453 700h201l2 -682h172zM594 926l-344 -539q90 4 348 4v535h-4z" />
    <glyph glyph-name="five" unicode="5" horiz-adv-x="921" 
d="M813 356q0 -97 -39 -170t-108 -116.5t-157 -64.5t-194 -21q-108 0 -180 10l17 135q66 -14 178 -14q93 0 164 21t117 71.5t46 126.5q0 96 -57.5 147t-157.5 51q-133 0 -274 -22v565h588v-133h-439v-289q99 13 168 13q159 0 243.5 -87t84.5 -223z" />
    <glyph glyph-name="six" unicode="6" horiz-adv-x="987" 
d="M551 700q142 0 232.5 -95.5t90.5 -242.5q0 -76 -26 -144t-73.5 -121t-122 -84t-165.5 -31q-119 0 -204.5 60.5t-127.5 162t-42 233.5q0 156 43 280.5t118.5 204.5t176 122t217.5 42q62 0 108 -4v-133q-78 8 -123 8q-350 0 -409 -423l10 -11q83 176 297 176zM498 106
q107 0 165 72.5t58 167.5q0 99 -52.5 163t-150.5 64q-114 0 -182 -69.5t-68 -153.5q0 -90 63.5 -167t166.5 -77z" />
    <glyph glyph-name="seven" unicode="7" horiz-adv-x="927" 
d="M96 942v133h697v-133q-253 -522 -322 -942h-166q83 447 328 946q-100 -4 -537 -4z" />
    <glyph glyph-name="eight" unicode="8" horiz-adv-x="956" 
d="M651 571q45 -16 79 -36.5t63.5 -52t45 -78t15.5 -107.5q0 -130 -106.5 -219.5t-272.5 -89.5q-163 0 -266 86.5t-103 206.5q0 116 51.5 181.5t141.5 104.5q-80 31 -124 85t-44 149q0 120 102 205.5t254 85.5q154 0 247 -81t93 -202q0 -95 -46.5 -150t-129.5 -88zM285 807
q0 -42 14 -72.5t42 -51.5t57.5 -34t74.5 -26q48 15 78 27.5t61 33t45.5 50.5t14.5 71q0 64 -49 112t-142 48q-89 0 -142.5 -47.5t-53.5 -110.5zM483 111q87 0 150 50.5t63 135.5q0 51 -16.5 88.5t-50.5 62t-68.5 39.5t-85.5 29q-49 -16 -82.5 -32t-66 -42t-48.5 -64t-16 -89
q0 -80 64 -129t157 -49z" />
    <glyph glyph-name="nine" unicode="9" horiz-adv-x="976" 
d="M492 1096q73 0 138.5 -29t120.5 -86.5t88 -156t33 -226.5q0 -129 -27 -234t-73.5 -175t-111 -117.5t-136.5 -68.5t-153 -21q-57 0 -125 12v137q63 -18 145 -18q145 0 242 111t98 298l-12 -2q-94 -143 -283 -143q-134 0 -232 104t-98 254t104.5 255.5t281.5 105.5z
M471 508q112 0 173 66.5t61 156.5q0 115 -68.5 180.5t-161.5 65.5t-155 -63.5t-62 -165.5q0 -104 66 -172t147 -68z" />
    <glyph glyph-name="colon" unicode=":" horiz-adv-x="512" 
d="M256 811q46 0 78.5 -32.5t32.5 -78.5t-32.5 -78t-78.5 -32t-78.5 32t-32.5 78t32.5 78.5t78.5 32.5zM256 205q46 0 78.5 -32.5t32.5 -78.5t-32.5 -78t-78.5 -32t-78.5 32t-32.5 78t32.5 78.5t78.5 32.5z" />
    <glyph glyph-name="semicolon" unicode=";" horiz-adv-x="512" 
d="M367 700q0 -46 -32.5 -78t-78.5 -32t-78.5 32t-32.5 78t32.5 78.5t78.5 32.5t78.5 -32.5t32.5 -78.5zM59 -264l103 436h196l-192 -436h-107z" />
    <glyph glyph-name="less" unicode="&#x3c;" horiz-adv-x="1021" 
d="M494 721l20 16l160 -131l-25 -22zM383 348l266 236l121 -105l-266 -246z" />
    <glyph glyph-name="equal" unicode="=" horiz-adv-x="1212" 
d="M1018 623h-823v127h823v-127zM1018 291h-823v127h823v-127z" />
    <glyph glyph-name="greater" unicode="&#x3e;" horiz-adv-x="1021" 
d="M897 526l-547 -493l-96 96l446 395l-448 383l94 105z" />
    <glyph glyph-name="question" unicode="?" horiz-adv-x="858" 
d="M723 891q0 -58 -22 -108t-54.5 -84t-71 -74t-71 -77.5t-54.5 -94.5t-22 -125h-149q0 67 16 123.5t41.5 95.5t56 73t61 63.5t56 59t41.5 67.5t16 81q0 82 -60.5 132t-146.5 50q-108 0 -208 -78l-60 113q134 98 273 98q157 0 257.5 -90.5t100.5 -224.5zM469 90
q0 -44 -31.5 -75t-75.5 -31q-46 0 -77 31t-31 75t31 75.5t77 31.5q44 0 75.5 -31.5t31.5 -75.5z" />
    <glyph glyph-name="bracketleft" unicode="[" horiz-adv-x="653" 
d="M575 -401h-387v1976h387v-115h-245v-1745h245v-116z" />
    <glyph glyph-name="backslash" unicode="\" horiz-adv-x="833" 
d="M750 0h-142l-528 1382h139z" />
    <glyph glyph-name="bracketright" unicode="]" horiz-adv-x="653" 
d="M467 -401h-387v116h244v1745h-244v115h387v-1976z" />
    <glyph glyph-name="asciicircum" unicode="^" horiz-adv-x="1095" 
d="M956 766l-114 -57l-307 557l-293 -557l-105 55l338 618h127z" />
    <glyph glyph-name="underscore" unicode="_" horiz-adv-x="1024" 
d="M1024 -516h-1024v119h1024v-119z" />
    <glyph glyph-name="braceleft" unicode="{" horiz-adv-x="681" 
d="M614 -401h-34q-160 0 -228.5 92t-68.5 282v394q0 117 -49 166.5t-173 56.5v123q129 8 175.5 53.5t46.5 167.5v266q0 375 297 375h34v-115q-108 0 -149 -55.5t-41 -198.5v-262q0 -254 -193 -291v-2q94 -15 143.5 -91t49.5 -202v-391q0 -142 41 -197t149 -55v-116z" />
    <glyph glyph-name="bar" unicode="|" horiz-adv-x="573" 
d="M346 -512h-121v2048h121v-2048z" />
    <glyph glyph-name="braceright" unicode="}" horiz-adv-x="673" 
d="M635 713v-123q-126 -7 -174.5 -56.5t-48.5 -166.5v-394q0 -190 -68.5 -282t-228.5 -92h-35v116q108 0 150 55.5t42 196.5v391q0 126 48.5 202t142.5 91v2q-96 13 -143.5 86t-47.5 195v272q0 143 -42 198.5t-150 55.5v115h35q297 0 297 -375v-256q0 -129 46.5 -176
t176.5 -55z" />
    <glyph glyph-name="asciitilde" unicode="~" horiz-adv-x="1191" 
d="M1028 653l53 -106q-127 -123 -272 -123q-70 0 -135 21.5t-107 47t-97.5 47t-107.5 21.5q-96 0 -202 -88l-49 109q122 110 264 110q69 0 132 -21.5t103 -47t97 -47t116 -21.5q47 0 102.5 27.5t102.5 70.5z" />
    <glyph glyph-name="degree" unicode="&#xb0;" horiz-adv-x="759" 
d="M637 1053q0 -111 -80 -181.5t-188 -70.5q-115 0 -182.5 67.5t-67.5 180.5q0 115 78 183t184 68q123 0 189.5 -70.5t66.5 -176.5zM512 1051q0 60 -32.5 104.5t-104.5 44.5q-56 0 -93.5 -42t-37.5 -107q0 -68 36 -107t95 -39q60 0 98.5 41t38.5 105z" />
    <glyph glyph-name="periodcentered" unicode="&#xb7;" horiz-adv-x="450" 
d="M225 707q49 0 82 -33.5t33 -83.5q0 -48 -33 -81.5t-82 -33.5t-82.5 33.5t-33.5 81.5q0 50 33.5 83.5t82.5 33.5z" />
    <glyph glyph-name="multiply" unicode="&#xd7;" horiz-adv-x="1153" 
d="M936 954l84 -84l-354 -354l354 -354l-92 -96l-355 356l-352 -352l-84 84l352 352l-356 356l92 94l357 -356z" />
    <glyph glyph-name="divide" unicode="&#xf7;" horiz-adv-x="1187" 
d="M702 899q0 -45 -31.5 -76.5t-76.5 -31.5q-46 0 -77.5 31t-31.5 77q0 45 32 77t77 32q44 0 76 -32.5t32 -76.5zM1094 463h-1000v131h1000v-131zM702 143q0 -46 -32 -78t-76 -32q-46 0 -77.5 32t-31.5 78q0 45 32 77t77 32q44 0 76 -32.5t32 -76.5z" />
    <glyph glyph-name="uni05B0" unicode="&#x5b0;" 
d="M86 -283q-34 0 -59 24t-25 58q0 35 25 58.5t59 23.5q33 0 57.5 -23.5t24.5 -58.5q0 -33 -24.5 -57.5t-57.5 -24.5zM86 -530q-34 0 -59 24t-25 57q0 35 25 58.5t59 23.5q33 0 57.5 -23.5t24.5 -58.5q0 -33 -24.5 -57t-57.5 -24z" />
    <glyph glyph-name="uni05B1" unicode="&#x5b1;" 
d="M104 -283q-34 0 -59 24t-25 58q0 35 25 58.5t59 23.5t58 -23.5t24 -58.5q0 -34 -24 -58t-58 -24zM340 -283q-34 0 -59 24t-25 58q0 35 25 58.5t59 23.5t58 -23.5t24 -58.5q0 -34 -24 -58t-58 -24zM592 -283q-34 0 -59 24t-25 58q0 35 25 58.5t59 23.5t58 -23.5t24 -58.5
q0 -34 -24 -58t-58 -24zM219 -524q-34 0 -59 24t-25 58q0 35 25 58.5t59 23.5t58 -23.5t24 -58.5q0 -34 -24 -58t-58 -24zM592 -530q-34 0 -59 24t-25 57q0 35 25 58.5t59 23.5t58 -23.5t24 -58.5q0 -34 -24 -57.5t-58 -23.5z" />
    <glyph glyph-name="uni05B2" unicode="&#x5b2;" 
d="M559 -283q-33 0 -57.5 24.5t-24.5 57.5q0 35 24.5 58.5t57.5 23.5q34 0 59 -23.5t25 -58.5q0 -34 -25 -58t-59 -24zM360 -258h-360v115h360v-115zM559 -530q-33 0 -57.5 24t-24.5 57q0 35 24.5 58.5t57.5 23.5q34 0 59 -23.5t25 -58.5q0 -33 -25 -57t-59 -24z" />
    <glyph glyph-name="uni05B3" unicode="&#x5b3;" 
d="M578 -283q-34 0 -58 24t-24 58q0 35 24 58.5t58 23.5t57.5 -23.5t23.5 -58.5q0 -34 -23.5 -58t-57.5 -24zM152 -258h-134v115h359v-115h-137l18 -254h-125zM578 -367q34 0 57.5 -23.5t23.5 -58.5q0 -34 -23.5 -57.5t-57.5 -23.5t-58 23.5t-24 57.5q0 35 24 58.5t58 23.5z
" />
    <glyph glyph-name="uni05B4" unicode="&#x5b4;" 
d="M104 -283q-34 0 -59 24t-25 58q0 35 25 58.5t59 23.5t58 -23.5t24 -58.5q0 -34 -24 -58t-58 -24z" />
    <glyph glyph-name="uni05B5" unicode="&#x5b5;" 
d="M82 -283q-34 0 -58 24t-24 58q0 35 24 58.5t58 23.5t58 -23.5t24 -58.5q0 -34 -24 -58t-58 -24zM317 -283q-34 0 -57.5 24t-23.5 58q0 35 23.5 58.5t57.5 23.5t58 -23.5t24 -58.5q0 -34 -24 -58t-58 -24z" />
    <glyph glyph-name="uni05B6" unicode="&#x5b6;" 
d="M84 -272q-34 0 -58 25t-24 59t24 58t58 24t59 -24t25 -58t-25 -59t-59 -25zM319 -272q-33 0 -57 25t-24 59t23.5 58t57.5 24t59 -24t25 -58t-25 -59t-59 -25zM199 -514q-34 0 -58 25t-24 59t24 58t58 24t59 -24t25 -58t-25 -59t-59 -25z" />
    <glyph glyph-name="uni05B7" unicode="&#x5b7;" 
d="M2 -260v117h377v-117h-377z" />
    <glyph glyph-name="uni05B8" unicode="&#x5b8;" 
d="M2 -143h377v-117h-146l19 -213h-123l18 213h-145v117z" />
    <glyph glyph-name="uni05B9" unicode="&#x5b9;" 
d="M104 1184q-34 0 -59 24t-25 58q0 35 25 58.5t59 23.5t58 -23.5t24 -58.5q0 -34 -24 -58t-58 -24z" />
    <glyph glyph-name="uni05BA" unicode="&#x5ba;" 
d="M0 1184q-34 0 -58 24t-24 58q0 35 24 58.5t58 23.5t58 -23.5t24 -58.5q0 -34 -24 -58t-58 -24z" />
    <glyph glyph-name="uni05BB" unicode="&#x5bb;" 
d="M104 -283q-34 0 -59 24t-25 58q0 35 25 58.5t59 23.5t58 -23.5t24 -58.5q0 -34 -24 -58t-58 -24zM242 -434q-34 0 -58 24t-24 58q0 35 24 58.5t58 23.5t58 -23.5t24 -58.5q0 -34 -24 -58t-58 -24zM391 -582q-34 0 -58 24t-24 58q0 35 24 58.5t58 23.5t58 -23.5t24 -58.5
q0 -34 -24 -58t-58 -24z" />
    <glyph glyph-name="uni05BC" unicode="&#x5bc;" 
d="M92 461q-35 0 -60.5 24.5t-25.5 59.5q0 36 25 61t61 25t61 -25t25 -61q0 -35 -25.5 -59.5t-60.5 -24.5z" />
    <glyph glyph-name="uni05BE" unicode="&#x5be;" horiz-adv-x="671" 
d="M573 952h-475v123h475v-123z" />
    <glyph glyph-name="uni05C1" unicode="&#x5c1;" 
d="M82 1186q-34 0 -58 24t-24 58q0 35 24 58.5t58 23.5t58 -23.5t24 -58.5q0 -34 -24 -58t-58 -24z" />
    <glyph glyph-name="uni05C2" unicode="&#x5c2;" 
d="M82 1186q-34 0 -58 24t-24 58q0 35 24 58.5t58 23.5t58 -23.5t24 -58.5q0 -34 -24 -58t-58 -24z" />
    <glyph glyph-name="uni05D0" unicode="&#x5d0;" horiz-adv-x="1196" 
d="M1079 61l-112 -96q-124 150 -336.5 444t-323.5 429l-10 -7q45 -173 45 -364v-467h-154v467q0 357 -45 561l133 66q41 -46 80 -92t82 -100t70.5 -89t76 -99.5t66.5 -88t74 -99.5t68 -92q96 144 96 348l-2 160q-94 14 -172 23v108q112 8 323 8l2 -299q1 -140 -42 -242
t-130 -208q171 -221 211 -271z" />
    <glyph glyph-name="uni05D1" unicode="&#x5d1;" horiz-adv-x="1003" 
d="M811 645v-504q105 -14 137 -14v-127h-821v127q101 2 275 8t251 8l6 502q2 154 -59 237t-178 83q-110 0 -283 -54l-30 129q180 56 313 56q83 0 152 -25t123 -77.5t84 -141t30 -207.5z" />
    <glyph glyph-name="uni05D2" unicode="&#x5d2;" horiz-adv-x="757" 
d="M618 0h-163l-19 293l-10 4q-96 -190 -270 -326l-93 148q85 52 144.5 98.5t110.5 103.5t75.5 123t22.5 140l-10 356q-24 2 -220 14v117q137 9 371 6q6 -617 61 -1077z" />
    <glyph glyph-name="uni05D3" unicode="&#x5d3;" horiz-adv-x="1021" 
d="M84 944v131h815v-131h-78q-38 0 -68 -125t-30 -256v-565h-154v565q-1 127 20 203.5t73 148.5l-19 29h-559z" />
    <glyph glyph-name="uni05D4" unicode="&#x5d4;" horiz-adv-x="1142" 
d="M1008 0h-156l4 629q1 127 -26.5 196t-81 94t-150.5 25h-258h-186v131h69h408q205 0 291 -102t86 -350v-623zM342 0h-152v653h152v-653z" />
    <glyph glyph-name="uni05D5" unicode="&#x5d5;" horiz-adv-x="610" 
d="M457 1077l2 -1077h-154v940q-108 9 -203 12v119q134 9 355 6z" />
    <glyph glyph-name="uni05D6" unicode="&#x5d6;" horiz-adv-x="724" 
d="M121 944v131h479v-147q-235 -142 -235 -443q0 -91 21 -196.5t71 -288.5h-162q-45 184 -63.5 290t-18.5 195q0 142 50 245.5t153 189.5l-2 16q-30 1 -127.5 4t-165.5 4z" />
    <glyph glyph-name="uni05D7" unicode="&#x5d7;" horiz-adv-x="1177" 
d="M231 1075h435q205 0 291.5 -102t86.5 -350v-623h-153v629q0 96 -14 157t-46.5 96.5t-78 48.5t-117.5 13h-266v-944h-152v948q-70 10 -121 15v102q85 10 135 10z" />
    <glyph glyph-name="uni05D8" unicode="&#x5d8;" horiz-adv-x="1202" 
d="M633 954v121q129 4 465 4l-17 -295q-20 -384 -175 -592t-427 -208q-110 0 -252 32l-51 932q-49 2 -108 10v113q117 8 249 8l48 -950q71 -12 131 -12q191 0 303.5 170.5t132.5 505.5l8 149q-83 7 -307 12z" />
    <glyph glyph-name="uni05D9" unicode="&#x5d9;" horiz-adv-x="602" 
d="M449 1077l2 -624h-154v487q-28 3 -217 14v117q137 9 369 6z" />
    <glyph glyph-name="uni05DA" unicode="&#x5da;" horiz-adv-x="980" 
d="M844 -297h-158l8 942q2 156 -62.5 238t-193.5 82q-133 0 -309 -54l-33 129q183 56 342 56q185 0 295.5 -109.5t110.5 -341.5v-942z" />
    <glyph glyph-name="uni05DB" unicode="&#x5db;" horiz-adv-x="958" 
d="M117 4v125h303q74 0 120.5 15.5t80.5 57.5t48.5 118.5t14.5 197.5v92q0 137 -27.5 209t-83 98.5t-159.5 26.5h-174h-134v123q57 8 117 8h221q217 0 305.5 -104t88.5 -361v-92q0 -151 -26.5 -253t-82 -160.5t-129.5 -82.5t-180 -24q-211 0 -303 6z" />
    <glyph glyph-name="uni05DC" unicode="&#x5dc;" horiz-adv-x="987" 
d="M262 1436v-363q100 2 600 2v-346q0 -207 -119 -404.5t-348 -344.5l-57 102q189 141 280 307t91 340v215h-598v490z" />
    <glyph glyph-name="uni05DD" unicode="&#x5dd;" horiz-adv-x="1183" 
d="M231 1075h441q201 0 289 -107.5t88 -344.5v-623h-832v948q-70 10 -121 15v102q85 10 135 10zM369 944v-813h524l4 498q0 169 -47 242t-178 73h-303z" />
    <glyph glyph-name="uni05DE" unicode="&#x5de;" horiz-adv-x="1198" 
d="M715 1096q68 0 118.5 -13t96.5 -48.5t74.5 -96.5t45 -160t15.5 -235v-543h-430v129q136 0 274 12l2 404q1 167 -21.5 258.5t-70.5 127.5t-135 36q-131 0 -221.5 -103.5t-97.5 -308.5l2 -555h-152v938q-77 8 -106 10v129q107 3 256 0v-205l10 -2q46 99 131.5 162.5
t208.5 63.5z" />
    <glyph glyph-name="uni05DF" unicode="&#x5df;" horiz-adv-x="608" 
d="M455 1077l2 -1374h-154v1237q-105 9 -197 12v121q151 7 349 4z" />
    <glyph glyph-name="uni05E0" unicode="&#x5e0;" horiz-adv-x="669" 
d="M516 1077l2 -1077h-416v129q112 0 263 14v795q-64 7 -207 16v117q134 9 358 6z" />
    <glyph glyph-name="uni05E1" unicode="&#x5e1;" horiz-adv-x="1222" 
d="M227 1073v2h891l-6 -215q-14 -431 -164.5 -654.5t-429.5 -223.5q-106 0 -225 38l-94 922l-111 12v117q45 2 139 2zM537 115q86 0 156 37t127 115t92.5 211.5t43.5 314.5l7 151h-609l78 -819q51 -10 105 -10z" />
    <glyph glyph-name="uni05E2" unicode="&#x5e2;" horiz-adv-x="1132" 
d="M846 561v514h153v-520q0 -156 -28.5 -264.5t-86.5 -171.5t-136.5 -91t-186.5 -28h-444v127q141 0 209 2q-26 453 -66 821q-79 10 -137 15v102q132 12 280 12q52 -492 72 -948h86q57 0 98.5 10t78.5 37.5t59.5 75t35.5 124t13 183.5z" />
    <glyph glyph-name="uni05E3" unicode="&#x5e3;" horiz-adv-x="1083" 
d="M266 1075h297q207 0 292 -101.5t85 -350.5v-920h-156l4 926q0 127 -27.5 196t-80.5 94t-150 25h-223v-469q97 -10 217 -14v-121q-163 -7 -368 -4l-2 618v113q55 8 112 8z" />
    <glyph glyph-name="uni05E4" unicode="&#x5e4;" horiz-adv-x="1085" 
d="M289 1075h282q214 0 304 -105.5t90 -367.5v-115q0 -139 -27 -235t-82.5 -151.5t-130.5 -79t-180 -23.5q-264 0 -379 8v123h379q99 0 154.5 28t84.5 106.5t29 223.5v115q0 106 -14 172t-48 104t-83 52t-127 14h-236v-344q92 -8 141 -10v-127q-84 -2 -292 -2l-2 493v113
q68 8 137 8z" />
    <glyph glyph-name="uni05E5" unicode="&#x5e5;" horiz-adv-x="983" 
d="M864 1081l4 -260q1 -64 -24 -124.5t-72 -113t-94.5 -92.5t-112.5 -85v-703h-151v698q-39 85 -163 292.5t-181 318.5l131 82q46 -89 158 -282t161 -292q197 139 195 301l-2 121q-94 14 -172 23v108q115 8 323 8z" />
    <glyph glyph-name="uni05E6" unicode="&#x5e6;" horiz-adv-x="1083" 
d="M766 330q71 -88 141 -195l2 -135h-774v129q303 0 613 10l6 17q-38 42 -124 135t-144.5 158t-138 158.5t-153.5 193.5t-141 205l125 88q58 -91 133.5 -193t115 -152t143 -175t118.5 -144q100 168 100 352l-2 160q-94 14 -172 23v108q115 8 324 8l4 -299q1 -143 -42 -244.5
t-134 -207.5z" />
    <glyph glyph-name="uni05E7" unicode="&#x5e7;" horiz-adv-x="1165" 
d="M573 -18l-57 100q371 304 371 647v215h-733v131h886v-346q0 -198 -114.5 -390t-352.5 -357zM338 -297h-154v950h154v-950z" />
    <glyph glyph-name="uni05E8" unicode="&#x5e8;" horiz-adv-x="976" 
d="M840 0h-160l8 645q3 180 -52.5 250t-201.5 70q-132 0 -311 -54l-31 129q183 56 342 56q97 0 169.5 -23t127 -74t82 -139.5t27.5 -214.5v-645z" />
    <glyph glyph-name="uni05E9" unicode="&#x5e9;" horiz-adv-x="1425" 
d="M1147 793l16 282h154l-17 -282q-23 -395 -194 -602t-465 -207q-219 0 -336 55l-94 911l-115 13v106q140 10 258 10l56 -551q119 20 189 102t81 208l20 237h152l-16 -229q-12 -192 -115.5 -306t-298.5 -134l27 -265q71 -24 194 -24q224 0 354 165t150 511z" />
    <glyph glyph-name="uni05EA" unicode="&#x5ea;" horiz-adv-x="1206" 
d="M256 1075h438q206 0 292.5 -102t86.5 -350v-623h-158l7 629q0 127 -27.5 196t-80.5 94t-150 25h-234v-944h-334v129l180 21v794h-4q-111 16 -151 19v102q85 10 135 10z" />
    <glyph glyph-name="uni05F3" unicode="&#x5f3;" horiz-adv-x="401" 
d="M94 754l35 440h197l-125 -440h-107z" />
    <glyph glyph-name="uni05F4" unicode="&#x5f4;" horiz-adv-x="753" 
d="M86 754l35 440h196l-124 -440h-107zM406 754l55 440h196l-145 -440h-106z" />
    <glyph glyph-name="endash" unicode="&#x2013;" horiz-adv-x="1024" 
d="M1024 506h-1024v131h1024v-131z" />
    <glyph glyph-name="emdash" unicode="&#x2014;" horiz-adv-x="2048" 
d="M2048 526h-2048v131h2048v-131z" />
    <glyph glyph-name="dagger" unicode="&#x2020;" horiz-adv-x="952" 
d="M532 1130h332v-118h-329q3 -36 18.5 -144t15.5 -166q0 -105 -7 -221t-20 -264t-18 -221h-98q-5 81 -16.5 223t-19 260t-7.5 223q0 58 16 165.5t19 144.5h-330v118h332q-2 71 -17.5 196.5t-19.5 168.5h186q-4 -43 -19.5 -168.5t-17.5 -196.5z" />
    <glyph glyph-name="daggerdbl" unicode="&#x2021;" horiz-adv-x="952" 
d="M532 1130h332v-118h-329q4 -46 19 -140.5t15 -132.5q0 -36 -15.5 -121t-18.5 -114h329v-119h-332q2 -83 18 -217t19 -168h-188q3 38 20 170.5t19 214.5h-332v119h330q-4 30 -19.5 114t-15.5 121q0 38 15.5 132t19.5 141h-330v118h332q-2 71 -17.5 196.5t-19.5 168.5h186
q-4 -43 -19.5 -168.5t-17.5 -196.5z" />
    <glyph glyph-name="bullet" unicode="&#x2022;" horiz-adv-x="882" 
d="M428 748q92 0 157.5 -66.5t65.5 -159.5q0 -94 -65.5 -159.5t-157.5 -65.5q-94 0 -158.5 65.5t-64.5 159.5q0 93 65 159.5t158 66.5z" />
    <glyph glyph-name="uni20AA" unicode="&#x20aa;" horiz-adv-x="1579" 
d="M674 944h-305v-944h-154v948q-68 9 -119 15v102q85 10 135 10h474q202 0 287 -102t85 -350v-215h-149v221q0 127 -27.5 196t-80 94t-146.5 25zM1282 518v557h154v-557q0 -518 -426 -518h-439v666h154v-535h287q142 0 206 98t64 289z" />
    <glyph glyph-name="arrowleft" unicode="&#x2190;" horiz-adv-x="1228" 
d="M324 649h854v-155h-854l294 -295l-106 -107l-373 373l-104 106l104 107l373 373l104 -107z" />
    <glyph glyph-name="arrowup" unicode="&#x2191;" horiz-adv-x="1228" 
d="M670 1038l372 -372l-106 -105l-293 293v-854h-158v854l-295 -293l-106 105l479 477z" />
    <glyph glyph-name="arrowright" unicode="&#x2192;" horiz-adv-x="1228" 
d="M1085 678l105 -107l-477 -479l-105 107l293 295h-854v155h856l-295 295l105 107z" />
    <glyph glyph-name="arrowdown" unicode="&#x2193;" horiz-adv-x="1228" 
d="M936 528l106 -104l-374 -375h2l-107 -104l-479 479l106 102l295 -293v857h156v-859z" />
    <glyph glyph-name="minus" unicode="&#x2212;" horiz-adv-x="1126" 
d="M973 449h-819v133h819v-133z" />
    <glyph glyph-name="uniFB44" unicode="&#xfb44;" horiz-adv-x="1089" 
d="M276 1075h285q214 0 302.5 -105.5t88.5 -367.5v-115q0 -139 -27 -235t-82.5 -151.5t-130.5 -79t-180 -23.5q-253 0 -366 8v123h366q74 0 122 15t82.5 54.5t49.5 109t15 179.5v115q0 106 -14 172t-48.5 104t-83 52t-127.5 14h-223v-344q84 -8 129 -10v-127q-80 -2 -280 -2
l-2 493v111q78 10 124 10zM616 444q-35 0 -60.5 24.5t-25.5 59.5t25.5 60.5t60.5 25.5q34 0 60 -25.5t26 -60.5t-26 -59.5t-60 -24.5z" />
    <glyph glyph-name="colon.raised" horiz-adv-x="512" 
d="M256 934q46 0 78.5 -32.5t32.5 -78.5t-32.5 -78t-78.5 -32t-78.5 32t-32.5 78t32.5 78.5t78.5 32.5zM256 328q46 0 78.5 -32.5t32.5 -78.5t-32.5 -78.5t-78.5 -32.5t-78.5 32.5t-32.5 78.5t32.5 78.5t78.5 32.5z" />
    <glyph glyph-name="uni05B5.narrow" 
d="M82 -283q-34 0 -58 24t-24 58q0 35 24 58.5t58 23.5t58 -23.5t24 -58.5q0 -34 -24 -58t-58 -24zM317 -283q-34 0 -57.5 24t-23.5 58q0 35 23.5 58.5t57.5 23.5t58 -23.5t24 -58.5q0 -34 -24 -58t-58 -24z" />
    <glyph glyph-name="uni05B6.narrow" 
d="M84 -272q-34 0 -58 25t-24 59t24 58t58 24t59 -24t25 -58t-25 -59t-59 -25zM319 -272q-33 0 -57 25t-24 59t23.5 58t57.5 24t59 -24t25 -58t-25 -59t-59 -25zM199 -514q-34 0 -58 25t-24 59t24 58t58 24t59 -24t25 -58t-25 -59t-59 -25z" />
    <glyph glyph-name="uni05B7.narrow" 
d="M2 -260v117h377v-117h-377z" />
    <glyph glyph-name="uni05B8.narrow" 
d="M2 -143h377v-117h-146l19 -213h-123l18 213h-145v117z" />
  </font>
</defs>
</svg>
