<svg width="1920" height="209" viewBox="0 0 1920 209" fill="none" xmlns="http://www.w3.org/2000/svg">
<path d="M331 0H1920V209H349C339.059 209 331 200.941 331 191V0Z" fill="#00B0CD"/>
<mask id="mask0" mask-type="alpha" maskUnits="userSpaceOnUse" x="0" y="0" width="315" height="209">
<rect width="315" height="209" fill="#C4C4C4"/>
</mask>
<g mask="url(#mask0)">
<path d="M0 209L-1.30697e-05 -90L140.568 -90C151.409 -90 159.791 -80.4859 158.424 -69.7306L124.999 193.269C123.857 202.261 116.207 209 107.143 209L0 209Z" fill="#FFC400"/>
<path d="M159.452 209C148.603 209 140.22 199.475 141.598 188.714L175.276 -74.2863C176.426 -83.2701 184.073 -90 193.13 -90L297 -90C306.941 -90 315 -81.9411 315 -72L315 191C315 200.941 306.941 209 297 209L159.452 209Z" fill="#0348F4"/>
</g>
</svg>
