<svg width="1920" height="209" viewBox="0 0 1920 209" fill="none" xmlns="http://www.w3.org/2000/svg">
<path d="M0 0H159V59.721C159 70.5088 149.576 78.8738 138.864 77.5938L0 61V0Z" fill="#FFC400"/>
<path d="M331 0H1920V209H349C339.059 209 331 200.941 331 191V0Z" fill="#E73B47"/>
<path d="M0 77L299.156 113.089C308.198 114.179 315 121.852 315 130.959V191C315 200.941 306.941 209 297 209H0V77Z" fill="#00B0CD"/>
<path d="M175 0H315V78.6821C315 89.4836 305.553 97.8529 294.83 96.5508L190.83 83.9222C181.795 82.8251 175 75.1554 175 66.0535V0Z" fill="#0348F4"/>
</svg>
