<svg width="375" height="120" viewBox="0 0 375 120" fill="none" xmlns="http://www.w3.org/2000/svg">
<mask id="mask0" mask-type="alpha" maskUnits="userSpaceOnUse" x="0" y="0" width="375" height="120">
<rect width="375" height="120" fill="#C4C4C4"/>
</mask>
<g mask="url(#mask0)">
<path d="M33.1275 46L-85.1275 30.9139C-88.9216 30.9139 -92 27.8248 -92 24.0072V-19.0932C-92 -22.9062 -88.9216 -26 -85.1275 -26H33.1275C36.9216 -26 40 -22.9062 40 -19.0932V39.0932C40 42.9062 36.9216 46 33.1275 46Z" fill="#FFC400"/>
<path d="M33.1275 120H-85.1275C-88.9216 120 -92 116.948 -92 113.186V44.8142C-92 41.0523 -88.9216 38 -85.1275 38L33.1275 52.8839C36.9216 52.8839 40 55.9316 40 59.698V113.186C40 116.948 36.9216 120 33.1275 120Z" fill="#E73B47"/>
<path d="M390.24 120.098L58.6625 120C52.224 120 47 114.781 47 108.35V-16.4472C47 -22.879 52.224 -28.0977 58.6625 -28.0977L390.337 -28C396.776 -28 402 -22.7814 402 -16.3495L401.902 108.447C401.902 114.879 396.678 120.098 390.24 120.098Z" fill="#0348F4"/>
</g>
</svg>
