<svg width="375" height="120" viewBox="0 0 375 120" fill="none" xmlns="http://www.w3.org/2000/svg">
<mask id="mask0" mask-type="alpha" maskUnits="userSpaceOnUse" x="0" y="0" width="375" height="120">
<rect width="375" height="120" fill="#C4C4C4"/>
</mask>
<g mask="url(#mask0)">
<path d="M114.127 48L-4.12748 63.0861C-7.92159 63.0861 -11 66.1752 -11 69.9928V113.093C-11 116.906 -7.92159 120 -4.12748 120H114.127C117.922 120 121 116.906 121 113.093V54.9068C121 51.0938 117.922 48 114.127 48Z" fill="#FFC400"/>
<path d="M114.127 -26H-4.12748C-7.92159 -26 -11 -22.9477 -11 -19.1858V49.1858C-11 52.9477 -7.92159 56 -4.12748 56L114.127 41.1161C117.922 41.1161 121 38.0684 121 34.302V-19.1858C121 -22.9477 117.922 -26 114.127 -26Z" fill="#E73B47"/>
<path d="M390.24 120.098L142.662 120C136.224 120 131 114.781 131 108.35V-16.4472C131 -22.879 136.224 -28.0977 142.662 -28.0977L390.337 -28C396.776 -28 402 -22.7814 402 -16.3495L401.902 108.447C401.902 114.879 396.678 120.098 390.24 120.098Z" fill="#00B0CD"/>
</g>
</svg>
