<svg width="375" height="120" viewBox="0 0 375 120" fill="none" xmlns="http://www.w3.org/2000/svg">
<mask id="mask0" mask-type="alpha" maskUnits="userSpaceOnUse" x="0" y="0" width="375" height="120">
<rect width="375" height="120" fill="#C4C4C4"/>
</mask>
<g mask="url(#mask0)">
<path d="M114.127 46L-4.12748 30.9139C-7.92159 30.9139 -11 27.8248 -11 24.0072V-19.0932C-11 -22.9062 -7.92159 -26 -4.12748 -26H114.127C117.922 -26 121 -22.9062 121 -19.0932V39.0932C121 42.9062 117.922 46 114.127 46Z" fill="#FFC400"/>
<path d="M114.127 120H-4.12748C-7.92159 120 -11 116.948 -11 113.186V44.8142C-11 41.0523 -7.92159 38 -4.12748 38L114.127 52.8839C117.922 52.8839 121 55.9316 121 59.698V113.186C121 116.948 117.922 120 114.127 120Z" fill="#00B0CD"/>
<path d="M390.24 120.098L142.662 120C136.224 120 131 114.781 131 108.35V-16.4472C131 -22.879 136.224 -28.0977 142.662 -28.0977L390.337 -28C396.776 -28 402 -22.7814 402 -16.3495L401.902 108.447C401.902 114.879 396.678 120.098 390.24 120.098Z" fill="#0348F4"/>
</g>
</svg>
