<svg width="375" height="120" viewBox="0 0 375 120" fill="none" xmlns="http://www.w3.org/2000/svg">
<mask id="mask0" mask-type="alpha" maskUnits="userSpaceOnUse" x="0" y="0" width="375" height="120">
<rect width="375" height="120" fill="#C4C4C4"/>
</mask>
<g mask="url(#mask0)">
<path d="M390.24 120.098L162.662 120C156.224 120 151 114.781 151 108.35L151 -16.4472C151 -22.879 156.224 -28.0977 162.662 -28.0977L390.337 -28C396.776 -28 402 -22.7814 402 -16.3495L401.902 108.447C401.902 114.879 396.678 120.098 390.24 120.098Z" fill="#00B0CD"/>
<path d="M-30 111.363V-37.3547C-30 -42.1299 -26.4279 -46 -22.0232 -46H52.5466C56.9592 -46 59.9476 -42.1299 59.9476 -37.3547L41.3557 111.363C41.3557 116.13 37.7836 120 33.3789 120H-22.0232C-26.4279 120 -30 116.13 -30 111.363Z" fill="#FFC400"/>
<path d="M141 -37.3547V111.363C141 116.13 137.428 120 133.023 120H58.4457C54.0409 120 51.0525 116.13 51.0525 111.363L69.6444 -37.3547C69.6444 -42.1299 73.2164 -46 77.6212 -46H133.023C137.428 -46 141 -42.1299 141 -37.3547Z" fill="#0348F4"/>
</g>
</svg>
