<svg width="375" height="120" viewBox="0 0 375 120" fill="none" xmlns="http://www.w3.org/2000/svg">
<mask id="mask0" mask-type="alpha" maskUnits="userSpaceOnUse" x="0" y="0" width="375" height="120">
<rect width="375" height="120" fill="#C4C4C4"/>
</mask>
<g mask="url(#mask0)">
<path d="M72.1758 120.088H-57.4705C-61.6301 120.088 -65 116.714 -65 112.554V43.4025C-65 39.2429 -61.6301 36.4162 -57.4705 36.4162L72.1758 53.9699C76.3353 53.9699 79.7103 57.3398 79.7103 61.4994V112.554C79.7103 116.714 76.3353 120.088 72.1758 120.088Z" fill="#00B0CD"/>
<path d="M4.92831 35.4623L-57.4705 27.2337C-61.6301 27.2337 -65 23.8638 -65 19.6992V-6.46547C-65 -10.6251 -61.6301 -14 -57.4705 -14H4.92831C9.09292 -14 12.4628 -10.6251 12.4628 -6.46547V27.9278C12.4628 32.0874 9.09292 35.4623 4.92831 35.4623Z" fill="#FFC400"/>
<path d="M72.1759 44.2392L29.7753 38.7518C25.6157 38.7518 22.2407 35.3819 22.2407 31.2223V-6.46547C22.2407 -10.6251 25.6157 -14 29.7753 -14H72.1759C76.3354 -14 79.7104 -10.6251 79.7104 -6.46547V36.7047C79.7104 40.8643 76.3354 44.2392 72.1759 44.2392Z" fill="#0348F4"/>
<path d="M390.338 119.902H101.662C95.224 119.902 90 114.684 90 108.252V-16.3495C90 -22.7814 95.224 -28 101.662 -28H390.338C396.776 -28 402 -22.7814 402 -16.3495V108.252C402 114.684 396.776 119.902 390.338 119.902Z" fill="#E73B47"/>
</g>
</svg>
