<svg width="537" height="212" viewBox="0 0 537 212" fill="none" xmlns="http://www.w3.org/2000/svg">
<path d="M153.886 188.204V1.29795H100.306V102.539H70.0898L88.1574 54.2547L42.9884 36.8101L0 150.2V151.134H100.306V188.204H153.886Z" fill="#0348F4"/>
<path d="M536.764 188.204V1.29795H483.184V102.539H452.967L471.035 54.2547L425.866 36.8101L382.878 150.2V151.134H483.184V188.204H536.764Z" fill="#0348F4"/>
<path fill-rule="evenodd" clip-rule="evenodd" d="M189.785 159.68L189.861 63.8026C244.251 80.7965 298.667 80.847 353.083 63.9541L352.982 159.806C352.982 168.013 346.467 174.654 338.412 174.629L300.965 174.603C291.9 196.597 270.563 212.025 245.691 212L245.716 174.553L204.33 174.528C196.275 174.528 189.76 167.861 189.785 159.68ZM230.692 30.5978L261.321 3.83184C267.204 -1.29408 275.865 -1.26883 281.749 3.85709L312.302 30.6483C285.082 44.2332 257.887 44.2332 230.692 30.5978Z" fill="#FFC400"/>
</svg>
