<svg width="625" height="335" viewBox="0 0 625 335" fill="none" xmlns="http://www.w3.org/2000/svg">
<path d="M0.441406 249.2L3.64141 279.2H92.4414L84.0414 330.8H144.441L152.841 279.2H182.441L196.841 249.2V240H159.641L183.641 100H134.041L0.441406 249.2ZM99.2414 240H42.0414L113.241 158.4L99.2414 240Z" fill="#074D5F"/>
<path d="M428.441 249.2L431.641 279.2H520.441L512.041 330.8H572.441L580.841 279.2H610.441L624.841 249.2V240H587.641L611.641 100H562.041L428.441 249.2ZM527.241 240H470.041L541.241 158.4L527.241 240Z" fill="#074D5F"/>
<path fill-rule="evenodd" clip-rule="evenodd" d="M355.834 132.199L379.047 119.611C379.603 119.309 380.294 119.566 380.519 120.154L388.002 139.474C388.227 140.048 388.888 140.304 389.444 140.033C392.704 138.388 402.936 133.225 406.332 131.52C406.918 131.233 407.609 131.535 407.789 132.154C417.676 166.22 419.809 214.868 407.624 252.542C384.486 324.102 326.4 344.78 281.761 330.215C237.123 315.634 202.22 264.632 225.358 193.072C232.871 169.813 245.627 147.776 262.454 126.962C262.845 126.463 263.581 126.418 264.017 126.871C266.827 129.769 275.871 139.142 275.917 139.082L301.008 111.43C301.549 110.826 302.541 111.038 302.781 111.807C304.719 118.117 311.285 139.414 311.3 140.093C311.766 139.293 337.864 108.985 343.904 101.966C344.445 101.332 345.451 101.559 345.692 102.359L354.331 131.58C354.526 132.214 355.248 132.531 355.834 132.199ZM311.3 140.108V140.093C311.3 140.093 311.285 140.108 311.3 140.108Z" fill="#E1362F"/>
</svg>
