<svg width="462" height="181" viewBox="0 0 462 181" fill="none" xmlns="http://www.w3.org/2000/svg">
<path opacity="0.1" d="M281.375 156.42V172.934C295.021 179.383 316.299 181 341.592 181C377.3 181 438.311 175.755 455.176 175.755H462V156.42H281.375ZM390.556 40.8304C176.212 34.3875 48.9647 -45.0792 0 36.7277V50.4386C49.7824 -8.80222 248.459 55.2713 390.556 55.2713V40.8304ZM390.556 60.8679C230.001 56.4372 47.3714 1.26523 0 60.504V74.617C13.2459 60.906 40.1383 56.469 79.8761 56.469C130.461 56.469 200.295 66.5533 276.15 70.984C302.642 73.4025 360.039 75.3808 390.556 75.3808V60.8679ZM276.15 97.9807C315.589 98.9561 462 100.401 462 100.401V80.6536H357.232C266.124 80.6536 166.979 67.7678 79.8761 67.7678C48.9647 67.7678 13.6464 73.4025 0 84.2824V98.7953C24.083 91.1316 59.0071 91.1316 79.8761 91.1316C138.485 91.1316 216.755 97.9807 276.15 97.9807ZM462 105.644H331.138C223.577 105.644 32.1169 98.3933 0 108.063V122.159C18.0596 124.578 48.9647 124.578 79.8761 124.578C136.074 124.578 214.751 124.98 276.561 124.98H462V105.644ZM462 149.97V130.625H382.124C321.112 130.625 139.288 134.656 79.4757 134.656C34.1254 134.656 9.23317 132.643 0 130.625V145.935C14.8561 155.605 55.3885 157.624 79.8761 157.624C131.26 157.624 244.046 149.97 281.375 149.97H462Z" fill="white"/>
</svg>
