<svg width="492" height="819" viewBox="0 0 492 819" fill="none" xmlns="http://www.w3.org/2000/svg">
<mask id="mask0" mask-type="alpha" maskUnits="userSpaceOnUse" x="0" y="0" width="492" height="819">
<rect width="492" height="819" fill="#fff"/>
</mask>
<g mask="url(#mask0)">
<path d="M135.664 -175.434L218.63 4.3595C221.89 11.3931 231.771 10.6488 234.478 3.17751L250.37 -40.5998C251.491 -43.6788 255.434 -44.2625 257.152 -41.592L451.157 262.251C454.606 267.651 462.828 264.28 462.115 257.757L459.059 229.842C458.36 223.45 466.146 219.802 470.003 224.72L612.272 405.739C616.842 411.561 625.733 405.053 622.182 398.486L427.173 37.601C424.117 31.9246 415.706 34.3178 415.487 40.9281L413.727 92.7021C413.508 99.1227 405.446 101.618 402.23 96.248L260.048 -141.492C256.875 -146.789 249.046 -145.461 247.314 -139.318L232.979 -88.6088C230.724 -80.5976 220.726 -78.4525 216.054 -84.9899L146.36 -182.424C141.892 -188.669 132.419 -182.467 135.664 -175.434Z" fill="#fff"/>
<path d="M396.497 508.881C421.058 549.12 470.531 629.319 485.56 653.669C487.088 656.166 490.86 655.395 491.334 652.498L494.74 631.461C495.641 625.883 502.682 624.049 506.134 628.487L578.335 720.754C580.733 723.821 585.437 720.677 583.574 717.256L501.506 567.089C498.772 562.065 491.685 561.834 488.63 566.673L480.123 580.127C479.038 581.853 476.64 582.115 475.22 580.651L401.431 504.982C398.804 502.285 394.542 505.66 396.497 508.881Z" fill="#fff"/>
<path d="M-97.2669 78.0752C-61.3946 136.384 10.9043 252.648 32.8543 287.945C35.1047 291.542 40.6131 290.433 41.3017 286.248L46.2896 255.74C47.5995 247.672 57.8775 245.017 62.9325 251.438L168.433 385.182C171.927 389.62 178.812 385.048 176.075 380.106L56.1645 162.454C52.1507 155.159 41.8055 154.839 37.3383 161.848L24.9106 181.346C23.3319 183.851 19.822 184.204 17.7563 182.103L-90.0622 72.4276C-93.908 68.5112 -100.139 73.4024 -97.2669 78.0752Z" fill="#fff"/>
</g>
</svg>
