<svg width="698" height="260" viewBox="0 0 698 260" fill="none" xmlns="http://www.w3.org/2000/svg">
<mask id="mask0" mask-type="alpha" maskUnits="userSpaceOnUse" x="0" y="0" width="698" height="260">
<rect width="698" height="260" fill="#fff"/>
</mask>
<g mask="url(#mask0)">
<path d="M328.364 526.856C322.254 522.076 316.423 516.901 311.006 511.437C309.47 509.889 310.315 507.2 312.435 506.867L321.667 505.43C323.621 505.131 324.428 502.675 323.059 501.203L294.775 470.991C293.483 469.611 294.554 467.311 296.411 467.488L326.272 470.199C328.39 470.398 329.417 467.617 327.713 466.314L292.34 436.264C291.138 435.252 291.785 433.247 293.344 433.163L322.835 431.637C325.264 431.669 326.488 428.651 324.762 426.903L311.029 412.964C309.409 411.316 310.323 408.489 312.562 408.148L327.74 405.875C330.026 405.531 331.063 402.745 329.582 400.93C321.297 392.511 312.062 385.271 303.756 376.902C302.234 375.357 303.08 372.669 305.204 372.345L314.422 370.904C316.385 370.599 317.197 368.152 315.819 366.686L287.539 336.46C286.248 335.079 287.315 332.794 289.176 332.956L319.042 335.677C321.154 335.866 322.181 333.085 320.477 331.782L285.11 301.742C283.902 300.72 284.55 298.715 286.108 298.631L315.6 297.106C318.019 297.143 319.243 294.124 317.527 292.371L303.793 278.433C302.179 276.793 303.078 273.962 305.326 273.616L320.504 271.343C322.796 271.009 323.827 268.213 322.337 266.403L315.081 257.539C313.011 255.025 314.208 251.145 317.323 250.311C320.302 249.518 323.349 248.822 326.474 248.217C328.115 247.913 328.61 245.772 327.313 244.704C322.468 240.702 317.845 236.462 313.45 232.04C311.928 230.495 312.779 227.816 314.898 227.483L324.131 226.046C326.084 225.746 326.891 223.29 325.527 221.828L297.238 191.607C295.947 190.226 297.023 187.936 298.875 188.103L328.736 190.814C330.853 191.014 331.88 188.232 330.176 186.929L294.809 156.889C293.602 155.868 294.249 153.862 295.807 153.778L325.299 152.253C327.727 152.285 328.952 149.266 327.226 147.518L313.492 133.58C311.878 131.941 312.787 129.104 315.031 128.773L330.203 126.49C332.49 126.147 333.526 123.361 332.036 121.551C323.761 113.126 314.525 105.887 306.219 97.5172C304.697 95.973 305.543 93.2843 307.668 92.9601L316.886 91.5195C318.848 91.2147 319.661 88.7678 318.282 87.3013L290.008 57.0843C288.711 55.6945 289.778 53.4099 291.639 53.5715L321.505 56.2921C323.617 56.4819 324.645 53.7008 322.937 52.4124L287.573 22.3571C286.366 21.3361 287.013 19.3307 288.571 19.2468L318.059 17.7358C320.482 17.7582 321.707 14.7398 319.99 12.9867L306.256 -0.951667C304.633 -2.58568 305.542 -5.42202 307.795 -5.75871L322.973 -8.03187C325.259 -8.37537 326.291 -11.1711 324.801 -12.981L317.544 -21.8453C315.475 -24.359 316.677 -28.2298 319.787 -29.0736C323.602 -30.7423 328.178 -31.6885 332.801 -32.4169C337.424 -33.1452 700.601 -28.703 700.601 -28.703L695.722 530.063L328.364 526.856Z" fill="#fff"/>
</g>
</svg>
