<svg width="1920" height="164" viewBox="0 0 1920 164" fill="none" xmlns="http://www.w3.org/2000/svg">
<path d="M-229 101.897C-218.506 88.2769 -207.119 75.2831 -195.103 63.1936C-191.684 59.7573 -185.698 61.5659 -184.93 66.2682L-181.553 86.6632C-180.841 91.0038 -175.385 92.7427 -172.147 89.6682L-105.595 26.4799C-102.553 23.5862 -97.4457 25.9095 -97.7806 30.0274L-103.237 96.1929C-103.628 100.867 -97.4318 103.093 -94.5709 99.2953L-28.5356 20.4142C-26.2888 17.7431 -21.8232 19.1343 -21.6139 22.5844L-17.6646 87.8318C-17.6785 93.2018 -10.9661 95.859 -7.11456 92.0054L23.5866 61.3294C27.201 57.7262 33.5087 59.6739 34.3041 64.6405L39.6488 98.2102C40.4442 103.26 46.6682 105.486 50.6594 102.161C69.2056 83.686 85.1005 63.0963 103.521 44.5516C106.926 41.1292 112.899 42.9516 113.68 47.6539L117.044 68.035C117.769 72.3756 123.212 74.1145 126.449 71.0539L193.001 7.85168C196.043 4.97189 201.165 7.28128 200.816 11.4131L195.373 77.5647C194.983 82.2531 201.179 84.479 204.026 80.681L270.075 1.78607C272.308 -0.88504 276.773 0.506149 276.983 3.95633L280.932 69.2175C280.918 74.5736 287.644 77.2308 291.496 73.3911L322.197 42.7012C325.797 39.098 332.105 41.0457 332.901 46.0262L338.245 79.582C339.055 84.632 345.265 86.8719 349.27 83.533L368.793 67.2976C374.361 62.6789 382.985 65.2665 384.897 72.1252C386.725 78.6916 388.33 85.4528 389.712 92.3393C390.437 95.9564 395.21 97.0276 397.554 94.134C406.332 83.3382 415.668 73.0155 425.409 63.2075C428.8 59.7991 434.773 61.6494 435.54 66.3238L438.917 86.7188C439.629 91.0594 445.085 92.7984 448.323 89.7377L514.875 26.5355C517.917 23.6418 523.024 25.9651 522.689 30.083L517.233 96.2485C516.856 100.923 523.038 103.149 525.899 99.351L591.934 20.4699C594.181 17.7988 598.647 19.19 598.856 22.6402L602.805 87.8874C602.791 93.2574 609.504 95.9146 613.355 92.061L644.057 61.385C647.671 57.7818 653.979 59.7295 654.774 64.6961L660.119 98.2658C660.914 103.316 667.138 105.542 671.129 102.217C689.676 83.7417 705.57 63.1519 723.991 44.6072C727.396 41.1848 733.369 43.0073 734.15 47.7096L737.514 68.0906C738.239 72.4312 743.696 74.1702 746.919 71.1095L813.471 7.9073C816.527 5.02751 821.635 7.35081 821.286 11.4688L815.843 77.6204C815.453 82.3088 821.649 84.5347 824.496 80.7367L890.545 1.85561C892.778 -0.829407 897.243 0.561768 897.453 4.01195L901.416 69.2732C901.388 74.6293 908.114 77.2865 911.966 73.4468L942.667 42.7708C946.267 39.1537 952.575 41.1013 953.371 46.0818L958.715 79.6376C959.525 84.6876 965.735 86.9275 969.74 83.5886L989.263 67.3533C994.831 62.7346 1003.46 65.3222 1005.37 72.1808C1008.03 81.7383 1010.22 91.6854 1011.94 101.897V164H-229V101.897Z" fill="white"/>
<path d="M907.06 101.897C917.554 88.2769 928.942 75.2831 940.957 63.1936C944.376 59.7573 950.363 61.5659 951.13 66.2682L954.507 86.6632C955.219 91.0038 960.675 92.7427 963.913 89.6682L1030.46 26.4799C1033.51 23.5862 1038.61 25.9095 1038.28 30.0274L1032.82 96.1929C1032.43 100.867 1038.63 103.093 1041.49 99.2953L1107.52 20.4142C1109.77 17.7431 1114.24 19.1343 1114.45 22.5844L1118.4 87.8318C1118.38 93.2018 1125.09 95.859 1128.95 92.0054L1159.65 61.3294C1163.26 57.7262 1169.57 59.6739 1170.36 64.6405L1175.71 98.2102C1176.5 103.26 1182.73 105.486 1186.72 102.161C1205.27 83.686 1221.16 63.0963 1239.58 44.5516C1242.99 41.1292 1248.96 42.9516 1249.74 47.6539L1253.1 68.035C1253.83 72.3756 1259.27 74.1145 1262.51 71.0539L1329.06 7.85168C1332.1 4.97189 1337.22 7.28128 1336.88 11.4131L1331.43 77.5647C1331.04 82.2531 1337.24 84.479 1340.09 80.681L1406.13 1.78607C1408.37 -0.88504 1412.83 0.506149 1413.04 3.95633L1416.99 69.2175C1416.98 74.5736 1423.7 77.2308 1427.56 73.3911L1458.26 42.7012C1461.86 39.098 1468.17 41.0457 1468.96 46.0262L1474.31 79.582C1475.11 84.632 1481.32 86.8719 1485.33 83.533L1504.85 67.2976C1510.42 62.6789 1519.05 65.2665 1520.96 72.1252C1522.79 78.6916 1524.39 85.4528 1525.77 92.3393C1526.5 95.9564 1531.27 97.0276 1533.61 94.134C1542.39 83.3382 1551.73 73.0155 1561.47 63.2075C1564.86 59.7991 1570.83 61.6494 1571.6 66.3238L1574.98 86.7188C1575.69 91.0594 1581.15 92.7984 1584.38 89.7377L1650.93 26.5355C1653.98 23.6418 1659.08 25.9651 1658.75 30.083L1653.29 96.2485C1652.92 100.923 1659.1 103.149 1661.96 99.351L1727.99 20.4699C1730.24 17.7988 1734.71 19.19 1734.92 22.6402L1738.87 87.8874C1738.85 93.2574 1745.56 95.9146 1749.42 92.061L1780.12 61.385C1783.73 57.7818 1790.04 59.7295 1790.83 64.6961L1796.18 98.2658C1796.97 103.316 1803.2 105.542 1807.19 102.217C1825.74 83.7417 1841.63 63.1519 1860.05 44.6072C1863.46 41.1848 1869.43 43.0073 1870.21 47.7096L1873.57 68.0906C1874.3 72.4312 1879.76 74.1702 1882.98 71.1095L1949.53 7.9073C1952.59 5.02751 1957.69 7.35081 1957.35 11.4688L1951.9 77.6204C1951.51 82.3088 1957.71 84.5347 1960.56 80.7367L2026.6 1.85561C2028.84 -0.829407 2033.3 0.561768 2033.51 4.01195L2037.48 69.2732C2037.45 74.6293 2044.17 77.2865 2048.03 73.4468L2078.73 42.7708C2082.33 39.1537 2088.64 41.1013 2089.43 46.0818L2094.78 79.6376C2095.58 84.6876 2101.79 86.9275 2105.8 83.5886L2125.32 67.3533C2130.89 62.7346 2139.52 65.3222 2141.43 72.1808C2144.09 81.7383 2146.28 91.6854 2148 101.897V164H907.06V101.897Z" fill="white"/>
</svg>
