<svg width="0" height="0" class="hidden">

	<symbol xmlns="http://www.w3.org/2000/svg" viewBox="0 0 18 18" id="tick"><path fill-rule="evenodd" clip-rule="evenodd" d="M2 9a7 7 0 1114 0A7 7 0 012 9zm7-9a9 9 0 100 18A9 9 0 009 0zm3.92 5.65l1.44 1.4-6.51 6.3-4.21-4.07 1.44-1.4 2.77 2.67 5.07-4.9z"/></symbol>

	<symbol xmlns="http://www.w3.org/2000/svg" viewBox="0 0 16 18" id="calendar"><path fill-rule="evenodd" clip-rule="evenodd" d="M13 2h1a2 2 0 012 2v12a2 2 0 01-2 2H2a2 2 0 01-2-2L.01 4A2 2 0 012 2h1V0h2v2h6V0h2v2zM2 16h12V7H2v9zm2-5V9h2v2H4z"/></symbol>

	<symbol xmlns="http://www.w3.org/2000/svg" viewBox="0 0 20 16" id="price"><path d="M20 6V2a2 2 0 00-2-2H2A2 2 0 00.01 2v4A2 2 0 010 10v4c0 1.1.9 2 2 2h16a2 2 0 002-2v-4a2 2 0 01-2-2c0-1.1.9-2 2-2zm-2-1.46c-1.19.69-2 1.99-2 3.46s.81 2.77 2 3.46V14H2v-2.54a4.01 4.01 0 00.01-6.92L2 2h16v2.54zM12 11h2v2h-2v-2zm0-4h2v2h-2V7zm0-4h2v2h-2V3z"/></symbol>

	<symbol xmlns="http://www.w3.org/2000/svg" viewBox="0 0 18 18" id="clock"><path fill-rule="evenodd" clip-rule="evenodd" d="M2 9a7 7 0 1114 0A7 7 0 012 9zm7-9a9 9 0 100 18A9 9 0 009 0zM8 4h1.5v5.25l3.5 1.67-.75 1.23L8 10V4z"/></symbol>

	<symbol xmlns="http://www.w3.org/2000/svg" viewBox="0 0 18 18" id="age"><path d="M6.3 8.78a1.13 1.13 0 100 2.25 1.13 1.13 0 000-2.25zm5.4 0a1.13 1.13 0 100 2.25 1.13 1.13 0 000-2.25zM9 0a9 9 0 100 18A9 9 0 009 0zm0 16.2a7.21 7.21 0 01-7.16-7.97 9.06 9.06 0 004.7-4.84 8.98 8.98 0 009.36 3.58A7.17 7.17 0 019 16.2z"/></symbol>

	<symbol xmlns="http://www.w3.org/2000/svg" viewBox="0 0 10 14" id="arrow-left"><path fill-rule="evenodd" clip-rule="evenodd" d="M7 0l2.8 3-4 4 4 4L7 13.9 0 6.9 7 .2z"/></symbol>

	<symbol xmlns="http://www.w3.org/2000/svg" viewBox="0 0 24 24" id="brightness"><path d="M20.5 15.5L24 12l-3.5-3.5v-5h-5L12 0 8.5 3.5h-5v5L0 12l3.5 3.5v5h5L12 24l3.5-3.5h5v-5zM12 18.4V5.6a6.4 6.4 0 010 12.8z"/></symbol>

	<symbol xmlns="http://www.w3.org/2000/svg" viewBox="0 0 24 24" id="search"><path d="M19.06 16.77h-1.2l-.43-.41a9.91 9.91 0 10-1.07 1.07l.41.42v1.2L21.73 24 24 21.73l-4.94-4.96zm-9.15 0a6.85 6.85 0 110-13.72 6.85 6.85 0 110 13.72z"/></symbol>

	<symbol xmlns="http://www.w3.org/2000/svg" viewBox="0 0 24 24" id="cart"><path d="M7.2 19.2a2.4 2.4 0 10.02 4.8 2.4 2.4 0 00-.02-4.8zM0 0v2.4h2.4l4.32 9.1-1.62 2.95A2.4 2.4 0 007.2 18h14.4v-2.4H7.7a.3.3 0 01-.3-.3l.04-.14 1.08-1.96h8.94c.9 0 1.7-.5 2.1-1.24l4.3-7.78c.1-.17.14-.38.14-.58 0-.66-.54-1.2-1.2-1.2H5.05L3.92 0H0zm19.2 19.2a2.4 2.4 0 10.02 4.8 2.4 2.4 0 00-.02-4.8z"/></symbol>

	<symbol xmlns="http://www.w3.org/2000/svg" viewBox="0 0 24 24" id="user"><path d="M12 0a12 12 0 100 24 12 12 0 000-24zm0 3.6a3.6 3.6 0 11.01 7.19A3.6 3.6 0 0112 3.6zm0 17.04c-3 0-5.65-1.54-7.2-3.86.04-2.4 4.8-3.7 7.2-3.7 2.39 0 7.16 1.3 7.2 3.7a8.64 8.64 0 01-7.2 3.86z"/></symbol>

</svg>