<svg width="1588" height="764" viewBox="0 0 1588 764" fill="none" xmlns="http://www.w3.org/2000/svg">
<mask id="mask0" mask-type="alpha" maskUnits="userSpaceOnUse" x="-335" y="0" width="1923" height="764">
<rect x="-335" width="1923" height="764" fill="#A1D39B"/>
</mask>
<g mask="url(#mask0)">
<path d="M1025.66 -151.434L1108.63 28.3595C1111.89 35.3931 1121.77 34.6488 1124.48 27.1775L1140.37 -16.5998C1141.49 -19.6788 1145.43 -20.2625 1147.15 -17.592L1341.16 286.251C1344.61 291.651 1352.83 288.28 1352.11 281.757L1349.06 253.842C1348.36 247.45 1356.15 243.802 1360 248.72L1502.27 429.739C1506.84 435.561 1515.73 429.053 1512.18 422.486L1317.17 61.601C1314.12 55.9246 1305.71 58.3178 1305.49 64.9281L1303.73 116.702C1303.51 123.123 1295.45 125.618 1292.23 120.248L1150.05 -117.492C1146.88 -122.789 1139.05 -121.461 1137.31 -115.318L1122.98 -64.6088C1120.72 -56.5976 1110.73 -54.4525 1106.05 -60.9899L1036.36 -158.424C1031.89 -164.669 1022.42 -158.467 1025.66 -151.434Z" fill="#F9DA58"/>
<path d="M756.548 675.374C783.591 719.673 838.063 807.966 854.612 834.773C856.293 837.522 860.447 836.673 860.969 833.484L864.719 810.325C865.711 804.183 873.464 802.164 877.265 807.05L956.762 908.628C959.402 912.004 964.582 908.543 962.531 904.777L872.169 739.456C869.159 733.925 861.355 733.67 857.992 738.998L848.624 753.809C847.43 755.71 844.79 755.998 843.226 754.386L761.98 671.081C759.087 668.112 754.395 671.828 756.548 675.374Z" fill="#F9DA58"/>
<path d="M-18.2669 -125.925C17.6054 -67.6163 89.9043 48.6477 111.854 83.9455C114.105 87.5425 119.613 86.4331 120.302 82.2478L125.29 51.7405C126.6 43.6724 136.878 41.0167 141.933 47.4375L247.433 181.182C250.927 185.62 257.812 181.048 255.075 176.106L135.164 -41.5464C131.151 -48.8413 120.806 -49.1606 116.338 -42.1515L103.911 -22.6537C102.332 -20.1493 98.822 -19.7963 96.7563 -21.8973L-11.0622 -131.572C-14.908 -135.489 -21.1387 -130.598 -18.2669 -125.925Z" fill="#F9DA58"/>
</g>
</svg>
