<svg width="1692" height="260" viewBox="0 0 1692 260" fill="none" xmlns="http://www.w3.org/2000/svg">
<mask id="mask0" mask-type="alpha" maskUnits="userSpaceOnUse" x="0" y="0" width="1692" height="260">
<rect width="1692" height="260" fill="#fff"/>
</mask>
<g mask="url(#mask0)">
<path d="M1367.41 -154.031L1419.27 -41.8499C1421.31 -37.4613 1427.48 -37.9257 1429.17 -42.5874L1439.11 -69.902C1439.81 -71.8232 1442.27 -72.1874 1443.34 -70.5212L1564.6 119.061C1566.75 122.43 1571.89 120.326 1571.45 116.256L1569.54 98.8388C1569.1 94.8509 1573.97 92.5747 1576.38 95.6431L1665.29 208.589C1668.15 212.222 1673.71 208.161 1671.49 204.064L1549.61 -21.109C1547.7 -24.6508 1542.44 -23.1575 1542.3 -19.033L1541.2 13.2711C1541.07 17.2773 1536.03 18.8342 1534.02 15.4836L1445.15 -132.853C1443.17 -136.158 1438.28 -135.33 1437.2 -131.497L1428.24 -99.8571C1426.83 -94.8585 1420.58 -93.5201 1417.66 -97.5991L1374.1 -158.392C1371.31 -162.289 1365.39 -158.42 1367.41 -154.031Z" fill="#fff"/>
<path d="M1220.49 128.814C1244.79 168.499 1293.74 247.595 1308.61 271.609C1310.12 274.072 1313.85 273.312 1314.32 270.454L1317.69 249.707C1318.58 244.205 1325.55 242.397 1328.96 246.774L1400.39 337.771C1402.77 340.796 1407.42 337.695 1405.58 334.321L1324.38 186.221C1321.68 181.266 1314.67 181.038 1311.64 185.81L1303.23 199.079C1302.15 200.782 1299.78 201.04 1298.38 199.596L1225.37 124.968C1222.77 122.309 1218.56 125.637 1220.49 128.814Z" fill="#fff"/>
<path d="M378.467 98.0935L432.509 197.975C434.622 201.881 440.55 201.705 442.017 197.682L450.601 174.171C451.203 172.518 453.565 172.298 454.651 173.791L578.361 343.81C580.562 346.824 585.434 345.171 584.861 341.615L582.382 326.327C581.824 322.815 586.432 321.016 588.867 323.781L678.638 425.667C681.514 428.944 686.723 425.593 684.434 421.936L558.846 220.798C556.88 217.638 551.861 218.764 551.876 222.349L551.993 250.542C552.008 254.038 547.195 255.209 545.141 252.209L454.137 119.395C452.112 116.44 447.432 116.996 446.522 120.302L439.039 147.617C437.865 151.933 431.893 152.869 428.929 149.212L384.747 94.509C381.93 91.0124 376.354 94.1725 378.467 98.0935Z" fill="#fff"/>
<path d="M803.606 -165.156C833.238 -116.99 892.959 -20.9515 911.091 8.20589C912.95 11.1772 917.5 10.2608 918.069 6.80353L922.189 -18.3968C923.271 -25.0613 931.761 -27.2551 935.937 -21.9512L1023.08 88.5275C1025.97 92.193 1031.66 88.4164 1029.4 84.3344L930.346 -95.4556C927.031 -101.481 918.485 -101.745 914.795 -95.9554L904.529 -79.8494C903.225 -77.7806 900.326 -77.4891 898.619 -79.2246L809.557 -169.821C806.38 -173.056 801.233 -169.015 803.606 -165.156Z" fill="#fff"/>
<path d="M34.4687 -25.4767C57.4024 11.8008 103.624 86.1302 117.657 108.697C119.096 110.996 122.618 110.287 123.058 107.611L126.247 88.1074C127.084 82.9494 133.655 81.2516 136.887 85.3565L204.335 170.862C206.568 173.699 210.97 170.776 209.22 167.616L132.56 28.4677C129.994 23.804 123.38 23.5998 120.524 28.0808L112.579 40.5461C111.569 42.1472 109.325 42.3729 108.005 41.0297L39.0748 -29.0873C36.6161 -31.5911 32.6327 -28.4641 34.4687 -25.4767Z" fill="#fff"/>
</g>
</svg>
