<svg width="459" height="217" viewBox="0 0 459 217" fill="none" xmlns="http://www.w3.org/2000/svg">
<path d="M300.177 183.746C308.93 198.144 326.561 226.839 331.918 235.551C332.462 236.445 333.807 236.169 333.975 235.132L335.189 227.605C335.51 225.609 338.02 224.953 339.25 226.541L364.981 259.554C365.836 260.651 367.512 259.527 366.848 258.302L337.601 204.573C336.626 202.776 334.101 202.693 333.012 204.424L329.98 209.238C329.593 209.856 328.739 209.949 328.233 209.426L301.935 182.351C300.999 181.386 299.481 182.594 300.177 183.746Z" fill="#F9DA58"/>
<path d="M-68.7717 -1.49902L-42.367 47.5445C-41.3346 49.4625 -38.4382 49.3763 -37.7212 47.4008L-33.5272 35.8565C-33.2332 35.0448 -32.079 34.937 -31.5484 35.6697L28.8964 119.152C29.9718 120.632 32.352 119.82 32.0724 118.075L30.8608 110.568C30.5883 108.843 32.8395 107.96 34.0296 109.318L77.8917 159.345C79.2969 160.954 81.842 159.309 80.7236 157.513L19.3611 58.7512C18.4004 57.1995 15.9485 57.7526 15.9557 59.5126L16.0131 73.3557C16.0202 75.0727 13.6687 75.6474 12.665 74.1747L-31.7993 8.96053C-32.7887 7.50941 -35.0757 7.78238 -35.5202 9.40591L-39.1766 22.818C-39.7502 24.9372 -42.6681 25.397 -44.1163 23.601L-65.7032 -3.25905C-67.0797 -4.97597 -69.8041 -3.42427 -68.7717 -1.49902Z" fill="#F9DA58"/>
<path d="M377.217 -43.8044C387.824 -26.5629 409.202 7.81565 415.693 18.253C416.358 19.3166 417.987 18.9885 418.191 17.751L419.666 8.73015C420.053 6.34448 423.092 5.5592 424.587 7.45779L455.783 47.0053C456.816 48.3174 458.852 46.9656 458.042 45.5043L422.586 -18.8542C421.399 -21.0113 418.34 -21.1057 417.019 -19.0331L413.344 -13.2678C412.877 -12.5272 411.839 -12.4228 411.228 -13.0441L379.347 -45.4744C378.21 -46.6324 376.368 -45.1861 377.217 -43.8044Z" fill="#F9DA58"/>
</svg>
