<svg width="1846" height="500" viewBox="0 0 1846 500" fill="none" xmlns="http://www.w3.org/2000/svg">
<path d="M1358.66 -212.434L1441.63 -32.6405C1444.89 -25.6069 1454.77 -26.3512 1457.48 -33.8225L1473.37 -77.5998C1474.49 -80.6788 1478.43 -81.2625 1480.15 -78.592L1674.16 225.251C1677.61 230.651 1685.83 227.28 1685.11 220.757L1682.06 192.842C1681.36 186.45 1689.15 182.802 1693 187.72L1835.27 368.739C1839.84 374.561 1848.73 368.053 1845.18 361.486L1650.17 0.601028C1647.12 -5.07542 1638.71 -2.68224 1638.49 3.92813L1636.73 55.7021C1636.51 62.1227 1628.45 64.618 1625.23 59.248L1483.05 -178.492C1479.88 -183.789 1472.05 -182.461 1470.31 -176.318L1455.98 -125.609C1453.72 -117.598 1443.73 -115.453 1439.05 -121.99L1369.36 -219.424C1364.89 -225.669 1355.42 -219.467 1358.66 -212.434Z" fill="#fff"/>
<path d="M1488.7 353.851C1523.19 410.333 1592.66 522.907 1613.77 557.086C1615.91 560.59 1621.21 559.509 1621.87 555.442L1626.66 525.914C1627.92 518.083 1637.81 515.509 1642.66 521.739L1744.04 651.251C1747.41 655.556 1754.02 651.143 1751.4 646.34L1636.16 435.556C1632.32 428.504 1622.37 428.18 1618.08 434.972L1606.13 453.857C1604.61 456.28 1601.24 456.648 1599.24 454.593L1495.63 348.378C1491.94 344.593 1485.95 349.33 1488.7 353.851Z" fill="#fff"/>
<path d="M332.787 155.601L423.795 324.263C427.353 330.859 437.336 330.563 439.807 323.769L454.263 284.068C455.276 281.276 459.255 280.905 461.083 283.425L669.416 570.523C673.123 575.613 681.327 572.821 680.363 566.818L676.187 541.001C675.248 535.072 683.007 532.033 687.109 536.702L838.287 708.748C843.13 714.282 851.902 708.625 848.047 702.449L636.551 362.803C633.24 357.466 624.789 359.369 624.814 365.421L625.012 413.028C625.036 418.933 616.931 420.909 613.472 415.845L460.218 191.572C456.808 186.581 448.926 187.52 447.394 193.103L434.791 239.228C432.814 246.516 422.757 248.097 417.766 241.921L343.363 149.548C338.619 143.644 329.229 148.98 332.787 155.601Z" fill="#fff"/>
<path d="M731.733 -108.925C767.605 -50.6163 839.904 65.6477 861.854 100.945C864.105 104.542 869.613 103.433 870.302 99.2478L875.29 68.7405C876.6 60.6724 886.878 58.0167 891.933 64.4375L997.433 198.182C1000.93 202.62 1007.81 198.048 1005.07 193.106L885.164 -24.5464C881.151 -31.8413 870.806 -32.1606 866.338 -25.1515L853.911 -5.65372C852.332 -3.14926 848.822 -2.79626 846.756 -4.89732L738.938 -114.572C735.092 -118.489 728.861 -113.598 731.733 -108.925Z" fill="#fff"/>
<path d="M-144.267 48.0752C-108.395 106.384 -36.0957 222.648 -14.1457 257.945C-11.8953 261.542 -6.38686 260.433 -5.6983 256.248L-0.710434 225.74C0.599518 217.672 10.8775 215.017 15.9325 221.438L121.433 355.182C124.927 359.62 131.812 355.048 129.075 350.106L9.16449 132.454C5.15068 125.159 -5.19449 124.839 -9.66173 131.848L-22.0894 151.346C-23.6681 153.851 -27.178 154.204 -29.2437 152.103L-137.062 42.4276C-140.908 38.5112 -147.139 43.4024 -144.267 48.0752Z" fill="#fff"/>
</svg>
