<svg width="163" height="53" viewBox="0 0 163 53" fill="none" xmlns="http://www.w3.org/2000/svg">
<path fill-rule="evenodd" clip-rule="evenodd" d="M16.3176 26.2713H22.2849C22.4373 25.6416 22.4373 25.1286 22.4373 24.5954C22.4373 22.0967 21.0864 20.7458 18.5318 20.7458C15.5964 20.7458 13.9357 22.8026 13.9357 25.8549C13.9357 29.1509 15.764 30.6948 18.7197 30.6948C19.578 30.6948 20.7207 30.5627 21.772 30.1819L21.8837 28.445C20.7817 28.6938 19.8827 28.7903 19.0245 28.7903C17.4247 28.7903 16.4902 28.1403 16.3176 26.2713ZM16.3582 24.7833C16.4496 24.0418 16.6832 23.4527 16.9676 22.9956C17.4247 22.63 18.0341 22.5538 18.415 22.5538C19.5425 22.5538 20.0554 23.2597 20.1316 24.7833H16.3582ZM28.75 20.8017C26.1751 20.8017 23.7526 22.5741 23.7526 26.119C23.7526 29.0747 25.1086 30.6186 27.394 30.6186C28.3691 30.6186 29.2629 30.2936 30.0857 29.4556L30.2939 30.4663H32.239V16.9521L29.8724 17.2568V20.9185C29.4915 20.8423 29.1512 20.8017 28.75 20.8017ZM29.8724 22.823V27.9523C29.1867 28.577 28.5418 28.6735 28.1406 28.6735C26.7846 28.6735 26.1548 27.6476 26.1548 25.7584C26.1548 24.6157 26.424 23.5644 27.0334 22.9956C27.5667 22.7468 28.0999 22.6706 28.6179 22.6706C29.075 22.6706 29.4711 22.7265 29.8724 22.823ZM33.9352 22.8026L35.3065 22.8788V30.4663H37.6528V20.9947H34.0114L33.9352 22.8026ZM37.6121 17.3685C36.698 17.333 35.7635 17.3533 35.0982 17.465C35.1338 18.2471 35.1947 18.8972 35.3268 19.659H37.4446L37.6121 17.3685ZM41.3703 25.1845C40.2276 25.7178 39.6334 26.7284 39.6334 27.8152C39.6334 29.0392 40.38 30.5983 42.5536 30.5983C43.7522 30.5983 44.6866 30.1819 45.4688 29.3794L45.6414 30.4663H47.6018V24.1942C47.6018 21.7158 46.4438 20.7255 43.7928 20.7255C42.6857 20.7255 41.4465 20.954 40.38 21.3349L40.2479 23.2394C41.2941 22.9195 42.5333 22.7468 43.4119 22.7468C44.971 22.7468 45.2605 23.1632 45.2605 24.3669V24.7274C44.9558 24.6919 44.6105 24.6716 44.1737 24.6716C43.1224 24.6716 42.1118 24.8442 41.3703 25.1845ZM45.2402 26.1596L45.2199 27.9879C44.5546 28.577 43.808 28.7497 43.2596 28.7497C42.381 28.7497 41.9239 28.2571 41.9239 27.4546C41.9239 27.1499 41.9797 26.8452 42.188 26.4846C42.6857 26.1748 43.3357 26.0834 43.9807 26.0834C44.514 26.0834 44.8949 26.1037 45.2402 26.1596ZM52.8683 28.4653V22.823L54.9251 22.8433L55.0216 20.9947L52.8683 20.9743V18.5519L50.9587 18.8007L50.6743 20.954L49.359 21.0302L49.2828 22.8026H50.5423V28.2571C50.5423 29.74 50.9587 30.5627 53.0562 30.5627C53.6859 30.5627 54.2192 30.4866 54.8286 30.2733L54.8692 28.4094C54.3157 28.5008 53.9906 28.5212 53.6656 28.5212C53.4218 28.5212 53.1527 28.5212 52.8683 28.4653ZM65.0671 30.4663V23.7777C65.0671 21.7361 64.1529 20.822 62.284 20.822C61.121 20.822 60.151 21.1623 59.0642 21.8479L59.0997 16.9521L56.7585 17.2568V30.4663H59.0997V23.3562C59.958 22.955 60.6842 22.8433 61.1972 22.8433C62.2485 22.8433 62.7208 23.3003 62.7208 24.3262V30.4663H65.0671ZM69.3382 26.2713H75.3055C75.4579 25.6416 75.4579 25.1286 75.4579 24.5954C75.4579 22.0967 74.1019 20.7458 71.5474 20.7458C68.6119 20.7458 66.9563 22.8026 66.9563 25.8549C66.9563 29.1509 68.7846 30.6948 71.7404 30.6948C72.5987 30.6948 73.7413 30.5627 74.7926 30.1819L74.9043 28.445C73.7972 28.6938 72.9034 28.7903 72.0451 28.7903C70.4453 28.7903 69.5109 28.1403 69.3382 26.2713ZM69.3788 24.7833C69.4702 24.0418 69.6988 23.4527 69.9882 22.9956C70.4453 22.63 71.0548 22.5538 71.4357 22.5538C72.558 22.5538 73.076 23.2597 73.1522 24.7833H69.3788ZM85.2393 34.067L85.219 21.147C83.9239 20.822 82.5679 20.7255 81.923 20.7255C78.9469 20.7255 76.758 22.6147 76.758 26.0072C76.758 29.2068 78.2054 30.6186 80.3943 30.6186C81.3694 30.6186 82.1312 30.2936 82.8727 29.6486V34.392L85.2393 34.067ZM82.8727 22.7468V27.9676C82.2836 28.5008 81.6538 28.6583 81.1612 28.6583C79.8255 28.6583 79.1551 27.5867 79.1551 25.606C79.1551 24.8036 79.2923 23.8539 79.8814 23.0109C80.4146 22.7061 81.1612 22.5944 81.7706 22.5944C82.1667 22.5944 82.5121 22.6503 82.8727 22.7468ZM87.6212 20.9896V27.6832C87.6212 29.7248 88.5759 30.6592 90.4804 30.6592C91.6434 30.6592 92.5576 30.3139 93.6444 29.4201L93.8171 30.4663H95.818V20.9896H93.4768V27.932C92.7302 28.5415 92.0853 28.7141 91.5317 28.7141C90.4652 28.7141 89.9675 28.2926 89.9675 27.1855V20.9896H87.6212ZM100.186 26.2713H106.153C106.305 25.6416 106.305 25.1286 106.305 24.5954C106.305 22.0967 104.949 20.7458 102.395 20.7458C99.4594 20.7458 97.8038 22.8026 97.8038 25.8549C97.8038 29.1509 99.6321 30.6948 102.588 30.6948C103.446 30.6948 104.589 30.5627 105.64 30.1819L105.752 28.445C104.645 28.6938 103.751 28.7903 102.893 28.7903C101.293 28.7903 100.358 28.1403 100.186 26.2713ZM100.226 24.7833C100.318 24.0418 100.546 23.4527 100.836 22.9956C101.293 22.63 101.902 22.5538 102.283 22.5538C103.405 22.5538 103.923 23.2597 104 24.7833H100.226ZM72.2279 53H74.7469V41.2938C74.7469 39.7499 74.2848 39.369 72.5885 39.369C72.0349 39.369 71.3493 39.4046 70.7602 39.4452L70.9329 41.4868H72.2279V53ZM76.7072 41.4868H77.987V49.4704H80.501V41.2938C80.501 39.7499 80.0083 39.369 78.3476 39.369C77.8144 39.369 77.0881 39.3894 76.5346 39.4249L76.7072 41.4868ZM86.1839 49.4704L89.612 41.1618L89.4241 39.4249H84.183L84.0509 36.3574L81.7605 36.5657L81.8773 39.4249L82.1058 41.4868H87.0574L87.0778 41.5224L83.5126 49.4704H86.1839ZM90.9324 41.4868H92.2071V49.4704H94.7261V41.2938C94.7261 39.7499 94.2284 39.369 92.5677 39.369C92.0345 39.369 91.3133 39.3894 90.7597 39.4249L90.9324 41.4868ZM106.6 49.4704V42.8936C106.6 39.6941 105.95 39.3132 101.303 39.3132C99.7387 39.3132 98.0628 39.369 96.5544 39.4655L96.7474 41.5224C97.0453 41.5224 97.3649 41.51 97.6917 41.4972C97.7827 41.4937 97.8744 41.4901 97.9663 41.4868C97.8342 42.533 97.7936 43.5995 97.7936 45.2196V49.4704H100.308V41.4462C100.785 41.4259 101.242 41.4259 101.628 41.4259C102.578 41.4259 103.436 41.4462 104.045 41.5427C104.086 41.9438 104.086 42.345 104.086 42.7613V42.7616V49.4704H106.6ZM162.612 16.0024V0.604065H115.381V9.48654H120.566V49.7599H129.449V9.48654H153.729V16.0024H162.612ZM65.6714 2.9301L65.707 3.02659L62.868 11.0102H65.3667L68.1092 2.87423L67.9212 0.964676L58.8102 0.984991L58.9778 2.95041L65.6714 2.9301ZM59.2267 5.21547C59.0743 6.39878 59.0185 7.73446 59.0185 8.72478V14.5956H61.4765V5.10374C60.9636 5.10374 59.7244 5.17992 59.2267 5.21547ZM70.7246 8.78065C70.8161 9.50689 70.9125 10.1722 71.0294 10.9543C71.8673 11.0711 72.8221 11.1473 73.4874 11.1473C77.7941 11.1473 79.7798 9.10568 79.7798 4.70253C79.7798 2.11244 79.2059 0.873261 76.7479 0.873261C75.9658 0.873261 75.1075 0.964676 74.2136 1.11703L74.4219 3.29068C75.1633 3.12308 75.8337 3.02659 76.3822 3.00628C76.6514 3.00628 76.8037 3.00627 76.9205 3.06214C77.0881 3.44303 77.1846 4.0931 77.1846 4.95138C77.1846 7.83095 76.3263 8.99395 73.9242 8.99395C73.7159 8.99395 73.4112 8.99395 73.1065 8.95332L72.2685 0.873261L69.8664 1.00531L70.7246 8.78065ZM81.4354 3.02659H82.7355V7.18089H85.2698V2.79805C85.2698 1.23384 84.7365 0.908812 83.0199 0.908812C82.7206 0.908812 82.3175 0.924782 81.922 0.940452C81.6866 0.949776 81.454 0.958993 81.2475 0.964676L81.4354 3.02659ZM93.8678 3.08245L95.2187 2.90978V0.964676H86.9457L87.1184 3.02659H91.5418C91.3895 4.05247 91.3336 5.12405 91.3336 6.77968V11.0102H93.8678V3.08245ZM106.453 11.0102V4.58572C106.453 1.7671 105.594 0.873261 103.38 0.873261C102.39 0.873261 101.191 1.11703 99.6625 1.97532L99.3019 0.812318L97.0521 0.984991L97.8342 3.55984L97.0928 11.0102H99.6067L100.196 3.58016C101.054 3.17895 101.968 3.04183 102.659 3.04183C103.152 3.04183 103.573 3.08245 103.837 3.17895C103.898 3.74775 103.934 4.3775 103.934 5.06311V8.82128L101.552 8.87714L101.496 11.0102H106.453ZM3.10811 18.8363H0V30.4663H2.28537V22.0053H2.326L4.99227 26.9773H6.57679L9.28369 22.0053H9.31924V30.4663H11.6656V18.8363H8.73012L5.90642 24.118H5.87087L3.10811 18.8363Z" fill="black"/>
<path d="M162.984 24.3282V50.6563H137.909V41.8753H154.636V24.3282H162.984Z" fill="#0348F4"/>
</svg>
