<svg width="131" height="55" viewBox="0 0 131 55" fill="none" xmlns="http://www.w3.org/2000/svg">
<path fill-rule="evenodd" clip-rule="evenodd" d="M40.2021 16.0624V12.9035H38.8969V16.0624C38.8969 17.3676 37.9929 18.2411 36.642 18.2411C35.2911 18.2411 34.3871 17.3676 34.3871 16.0624V16.037H37.1854V12.9035H35.9107V14.8587H34.3871V12.9035H33.0819V16.0624C33.0819 18.1243 34.4836 19.4752 36.642 19.4752C38.8004 19.4752 40.2021 18.1243 40.2021 16.0624ZM42.9242 12.9035H41.6038V16.3468H42.9242V12.9035ZM44.2345 14.102H48.5615V19.2822H49.8819V12.9035H44.2345V14.102ZM44.3056 19.2822H45.626V15.5901H44.3056V19.2822ZM55.6563 12.9035H54.3358V20.8769H55.6563V12.9035ZM58.3936 12.9035H57.0732V19.2822H58.3936V12.9035ZM66.0014 18.5509L63.716 16.3772L66.108 13.4875L65.0669 12.68L62.7917 15.4986L59.8461 12.7003H59.8157V19.2822H61.131V15.6865L65.0974 19.526L66.0014 18.5509ZM68.2106 12.9035H66.8952V16.3468H68.2106V12.9035ZM71.8164 14.102H73.081V12.9035H69.2212V14.102H70.496V19.2822H71.8164V14.102ZM75.2851 12.9035H73.9697V19.2822H75.2851V12.9035ZM76.6461 16.0928V19.2822H77.9666V16.0928C77.9666 14.8384 78.8249 13.9446 80.0285 13.9446C81.2169 13.9446 82.0701 14.8384 82.0701 16.0928C82.0701 17.8145 80.709 18.7083 79.2718 17.9618L78.8604 19.0587C81.2524 20.1303 83.3905 18.7185 83.3905 16.0928C83.3905 14.1223 81.9736 12.7105 80.0285 12.7105C78.0631 12.7105 76.6461 14.1223 76.6461 16.0928ZM84.3504 14.102H88.6774V19.2822H89.9927V12.9035H84.3504V14.102ZM84.4215 19.2822H85.7419V15.5901H84.4215V19.2822ZM0.54834 26.9407H7.6787V35.1325H10.8325V24.1323H0.54834V26.9407ZM0.675305 35.1325H3.82913V29.1398H0.675305V35.1325ZM12.026 26.9407H17.3382V35.1325H20.4971V24.1373H12.026V26.9407ZM25.7179 24.1323H22.5641V35.1325H25.7179V24.1323ZM33.5644 32.5881C31.9494 32.5881 30.7965 31.3591 30.7965 29.6375V24.1323H27.6427V29.6375C27.6427 33.0452 30.1363 35.4829 33.5644 35.4829C36.9569 35.4829 39.4454 33.0452 39.4454 29.6375C39.4454 24.9245 35.8345 22.8321 31.8935 24.4268L32.7213 27.0118C34.5699 26.2094 36.2966 27.1591 36.2966 29.6375C36.2966 31.3591 35.1387 32.5881 33.5644 32.5881ZM44.0771 28.8097H40.9283V37.8851H44.0771V28.8097ZM47.9114 35.356L52.0911 24.1323H40.9283V26.9407H47.7438L44.976 34.2184L47.9114 35.356ZM56.3571 24.1323H53.2033V30.1504H56.3571V24.1323ZM57.9569 26.9407H63.2742V35.1325H66.428V24.1373H57.9569V26.9407ZM71.6133 28.8097H68.4594V37.8851H71.6133V28.8097ZM75.4476 35.356L79.6273 24.1323H68.4594V26.9407H75.28L72.5121 34.2184L75.4476 35.356ZM85.2493 35.4474L89.9927 24.1323H83.5073V22.4868H80.3535V26.9407H85.4829L82.3697 34.2895L85.2493 35.4474ZM21.3452 40.6834C17.9934 40.6834 15.4794 43.2329 15.4794 46.534C15.4794 49.8351 17.9934 52.3795 21.3452 52.3795C24.6819 52.3795 27.1755 49.8351 27.1755 46.534C27.1755 43.2329 24.6819 40.6834 21.3452 40.6834ZM21.3452 43.5833C22.8688 43.5833 24.0216 44.8479 24.0216 46.534C24.0216 48.2201 22.8688 49.4847 21.3452 49.4847C19.7861 49.4847 18.6333 48.2201 18.6333 46.534C18.6333 44.8479 19.7861 43.5833 21.3452 43.5833ZM31.7716 45.7062H28.6178V54.7816H31.7716V45.7062ZM35.6009 52.2525L39.7806 41.0339H28.6178V43.8372H35.4384L32.6705 51.1149L35.6009 52.2525ZM44.0466 41.0339H40.8928V47.0469H44.0466V41.0339ZM45.7733 46.534V52.0341H48.9271V46.534C48.9271 44.8123 50.1003 43.5833 51.7153 43.5833C53.2896 43.5833 54.4272 44.8123 54.4272 46.534C54.4272 49.0073 52.7056 49.962 50.8722 49.1545L50.0444 51.7396C53.9854 53.3342 57.5811 51.2419 57.5811 46.534C57.5811 43.1212 55.1078 40.6834 51.7153 40.6834C48.2872 40.6834 45.7733 43.1212 45.7733 46.534ZM62.3346 41.0339H59.1808V52.0341H62.3346V41.0339ZM67.4996 45.7062H64.3458V54.7816H67.4996V45.7062ZM71.3288 52.2525L75.5085 41.0339H64.3458V43.8372H71.1663L68.3985 51.1149L71.3288 52.2525ZM81.1306 52.3439L85.879 41.0339H79.3886V39.3833H76.2348V43.8372H81.3692L78.256 51.1911L81.1306 52.3439ZM89.9927 41.0339H86.8389V52.0341H89.9927V41.0339ZM97.8747 12.8324L97.8595 32.1158C97.8544 33.7613 99.1647 35.1021 100.785 35.1021L109.109 35.1071L109.104 42.6387C114.106 42.6438 118.397 39.5408 120.221 35.1173L127.752 35.1224C129.372 35.1274 130.682 33.7918 130.682 32.1412L130.703 12.8628C119.758 16.2604 108.814 16.2503 97.8747 12.8324ZM112.247 0.770683L106.087 6.154C111.556 8.89645 117.026 8.89645 122.501 6.16416L116.356 0.775762C115.172 -0.255195 113.43 -0.260274 112.247 0.770683ZM12.8487 12.9034H11.5283V16.3467H12.8487V12.9034ZM16.5815 19.4091L19.329 12.9034H15.1798V11.9436H13.8594V14.102H17.4347L15.3728 18.9317L16.5815 19.4091ZM26.2816 18.5508L23.9912 16.3772L26.3883 13.4875L25.3421 12.68L23.0669 15.4986L20.1213 12.7003H20.0908V19.2821H21.4112V15.6865L25.3776 19.5259L26.2816 18.5508ZM27.0282 14.102H30.4004V19.2821H31.7157V12.9034H27.0282V14.102Z" fill="black"/>
</svg>
