<svg width="371" height="168" viewBox="0 0 371 168" fill="none" xmlns="http://www.w3.org/2000/svg">
<mask id="mask0" mask-type="alpha" maskUnits="userSpaceOnUse" x="-4" y="0" width="375" height="168">
<rect x="-4" width="375" height="168" fill="#C4C4C4"/>
</mask>
<g mask="url(#mask0)">
<path d="M-161 123.079C-155.106 115.421 -148.71 108.114 -141.961 101.316C-140.041 99.384 -136.678 100.401 -136.247 103.045L-134.35 114.513C-133.951 116.954 -130.886 117.932 -129.067 116.203L-91.6872 80.672C-89.9785 79.0448 -87.1097 80.3512 -87.2979 82.6668L-90.3625 119.872C-90.582 122.5 -87.1019 123.752 -85.4951 121.616L-48.4049 77.2612C-47.143 75.7592 -44.6348 76.5415 -44.5172 78.4816L-42.299 115.17C-42.3068 118.19 -38.5367 119.684 -36.3734 117.517L-19.1294 100.268C-17.0993 98.2419 -13.5565 99.3371 -13.1097 102.13L-10.1077 121.006C-9.66095 123.846 -6.1651 125.097 -3.9234 123.228C6.49347 112.839 15.4211 101.261 25.7675 90.8337C27.68 88.9093 31.0348 89.9341 31.4737 92.5782L33.3627 104.039C33.7703 106.479 36.8271 107.457 38.6456 105.736L76.0258 70.1973C77.7345 68.578 80.6111 69.8765 80.4152 72.1999L77.3582 109.397C77.1388 112.033 80.6189 113.285 82.2179 111.149L119.316 66.7866C120.57 65.2846 123.078 66.0669 123.196 68.0069L125.414 104.703C125.406 107.715 129.184 109.209 131.347 107.05L148.591 89.7933C150.614 87.7672 154.156 88.8624 154.603 91.663L157.605 110.531C158.06 113.371 161.548 114.631 163.797 112.753L174.763 103.624C177.89 101.027 182.734 102.482 183.808 106.338C184.835 110.031 185.736 113.833 186.512 117.705C186.92 119.739 189.601 120.341 190.917 118.714C195.848 112.644 201.091 106.839 206.562 101.324C208.467 99.4075 211.822 100.448 212.253 103.076L214.15 114.545C214.549 116.985 217.614 117.963 219.433 116.242L256.813 80.7033C258.522 79.0761 261.39 80.3825 261.202 82.6981L258.137 119.903C257.926 122.532 261.398 123.783 263.005 121.648L300.095 77.2925C301.357 75.7906 303.865 76.5728 303.983 78.5129L306.201 115.202C306.193 118.221 309.963 119.715 312.127 117.548L329.371 100.299C331.401 98.2732 334.944 99.3684 335.39 102.161L338.392 121.037C338.839 123.877 342.335 125.129 344.577 123.259C354.994 112.87 363.921 101.293 374.268 90.865C376.18 88.9406 379.535 89.9654 379.974 92.6095L381.863 104.07C382.27 106.511 385.335 107.488 387.146 105.767L424.526 70.2286C426.242 68.6092 429.111 69.9156 428.915 72.2312L425.858 109.428C425.639 112.065 429.119 113.316 430.718 111.181L467.816 66.8257C469.07 65.3159 471.578 66.0982 471.696 68.0382L473.922 104.735C473.906 107.747 477.684 109.241 479.847 107.082L497.091 89.8324C499.114 87.7985 502.656 88.8937 503.103 91.6942L506.105 110.563C506.56 113.402 510.048 114.662 512.297 112.784L523.263 103.655C526.39 101.058 531.234 102.513 532.308 106.37C533.805 111.744 535.036 117.337 536 123.079V158H-161V123.079Z" fill="white"/>
</g>
</svg>
