<svg width="106" height="169" viewBox="0 0 106 169" fill="none" xmlns="http://www.w3.org/2000/svg">
<mask id="mask0" mask-type="alpha" maskUnits="userSpaceOnUse" x="0" y="0" width="106" height="169">
<rect width="106" height="169" fill="#FDC4C0"/>
</mask>
<g mask="url(#mask0)">
<path d="M81.5274 342.618C77.5543 339.51 73.7623 336.144 70.2398 332.591C69.2405 331.584 69.7905 329.836 71.1686 329.619L77.1728 328.685C78.443 328.49 78.9678 326.893 78.0776 325.936L59.6845 306.289C58.8446 305.391 59.5408 303.896 60.7485 304.01L80.1673 305.774C81.5444 305.903 82.2124 304.094 81.1042 303.247L58.1013 283.705C57.3194 283.047 57.7402 281.743 58.7538 281.689L77.9323 280.697C79.5117 280.717 80.3078 278.754 79.1854 277.618L70.2543 268.554C69.2012 267.481 69.7957 265.643 71.2515 265.421L81.1218 263.943C82.6086 263.72 83.2828 261.908 82.3199 260.727C76.9322 255.252 70.9262 250.545 65.5248 245.102C64.5351 244.097 65.0852 242.349 66.4667 242.138L72.4613 241.201C73.7376 241.003 74.2659 239.412 73.3697 238.458L54.9791 218.802C54.1392 217.904 54.8329 216.418 56.0431 216.524L75.4654 218.293C76.8389 218.416 77.507 216.608 76.3988 215.76L53.3993 196.225C52.614 195.561 53.0348 194.256 54.0483 194.202L73.2269 193.21C74.8003 193.234 75.5964 191.271 74.48 190.131L65.5489 181.067C64.4993 180.001 65.0843 178.16 66.5461 177.935L76.4164 176.456C77.9067 176.239 78.5773 174.421 77.6084 173.244L72.8895 167.479C71.5438 165.845 72.3218 163.322 74.3478 162.779C76.285 162.263 78.2665 161.811 80.2983 161.417C81.3656 161.219 81.6875 159.827 80.8442 159.133C77.6938 156.53 74.6868 153.773 71.8287 150.897C70.8389 149.893 71.3925 148.15 72.7706 147.933L78.7747 146.999C80.0449 146.804 80.5698 145.207 79.683 144.256L61.2864 124.603C60.4465 123.705 61.1463 122.216 62.3505 122.325L81.7693 124.088C83.1463 124.217 83.8144 122.409 82.7062 121.561L59.7067 102.026C58.9214 101.362 59.3421 100.058 60.3557 100.003L79.5342 99.0111C81.1137 99.0317 81.9097 97.0688 80.7873 95.9323L71.8562 86.868C70.8066 85.8019 71.3976 83.9574 72.8569 83.7419L82.7237 82.2576C84.2106 82.0342 84.8847 80.2222 83.9157 79.0452C78.5341 73.5669 72.5281 68.8589 67.1268 63.4161C66.137 62.4119 66.6871 60.6634 68.0686 60.4526L74.0633 59.5158C75.3395 59.3175 75.8678 57.7263 74.9716 56.7727L56.5844 37.1223C55.7411 36.2185 56.4348 34.7328 57.645 34.838L77.0673 36.6071C78.4409 36.7306 79.109 34.922 77.9982 34.0842L55.0012 14.539C54.2159 13.875 54.6367 12.5709 55.6502 12.5163L74.8263 11.5337C76.4022 11.5483 77.1983 9.58544 76.0819 8.44538L67.1508 -0.618856C66.0951 -1.68147 66.6862 -3.52597 68.1515 -3.74491L78.0218 -5.22318C79.5086 -5.44653 80.1792 -7.26464 79.2103 -8.44162L74.4915 -14.2061C73.1457 -15.8409 73.9272 -18.358 75.9497 -18.9067C78.4306 -19.9919 81.4067 -20.6073 84.4131 -21.0809C87.4195 -21.5545 323.596 -18.6657 323.596 -18.6657L320.423 344.703L81.5274 342.618Z" fill="#3A59B6"/>
</g>
</svg>
