<svg width="375" height="169" viewBox="0 0 375 169" fill="none" xmlns="http://www.w3.org/2000/svg">
<mask id="mask0" mask-type="alpha" maskUnits="userSpaceOnUse" x="0" y="0" width="375" height="169">
<rect width="375" height="169" fill="#AFDFDB"/>
</mask>
<g mask="url(#mask0)">
<mask id="mask1" mask-type="alpha" maskUnits="userSpaceOnUse" x="0" y="-116" width="375" height="400">
<rect y="-116" width="375" height="400" fill="#A1D39B"/>
</mask>
<g mask="url(#mask1)">
<path fill-rule="evenodd" clip-rule="evenodd" d="M188.412 -72.8234L137.408 -183.495C135.413 -187.824 141.237 -191.642 143.984 -187.797L186.828 -127.822C189.7 -123.798 195.846 -125.118 197.233 -130.05L206.045 -161.263C207.11 -165.045 211.923 -165.862 213.873 -162.602L301.28 -16.2617C303.258 -12.9562 308.214 -14.4921 308.348 -18.4444L309.431 -50.3136C309.565 -54.3826 314.736 -55.8558 316.615 -52.3616L436.497 169.78C438.68 173.822 433.214 177.828 430.405 174.244L342.944 62.8188C340.573 59.7917 335.787 62.0373 336.216 65.9716L338.095 83.1547C338.534 87.1698 333.479 89.2448 331.358 85.9213L212.093 -101.109C211.037 -102.752 208.613 -102.393 207.924 -100.498L198.155 -73.5509C196.491 -68.952 190.416 -68.4939 188.412 -72.8234ZM268.8 222.791C259.996 208.599 231.019 161.855 216.633 138.402C215.488 136.524 217.984 134.557 219.523 136.129L262.743 180.232C263.575 181.086 264.98 180.933 265.615 179.927L270.598 172.085C272.387 169.265 276.539 169.4 278.14 172.328L296.209 209.852C297.301 211.846 294.545 213.678 293.141 211.891L280.851 208.113C278.829 205.527 274.704 206.595 274.177 209.847L272.182 222.108C271.904 223.797 269.694 224.246 268.8 222.791ZM-131.696 -26.3739L-170.716 -98.765C-172.241 -101.607 -168.215 -103.897 -166.181 -101.363L-134.281 -61.7158C-132.141 -59.0649 -127.829 -59.7435 -126.981 -62.8716L-121.578 -82.6686C-120.921 -85.0651 -117.541 -85.468 -116.079 -83.326L-50.3714 12.9338C-48.8882 15.1076 -45.4131 14.2593 -45.4237 11.725L-45.5085 -8.70822C-45.5191 -11.3061 -41.8957 -12.1226 -40.4761 -9.83221L50.2034 135.947C51.8561 138.598 48.095 141.026 46.0185 138.651L-18.7995 64.8068C-20.5582 62.8027 -23.8849 64.107 -23.4823 66.6519L-21.6918 77.7327C-21.2786 80.3094 -24.796 81.5075 -26.3852 79.3232L-115.709 -43.9017C-116.493 -44.9833 -118.198 -44.8242 -118.633 -43.626L-124.83 -26.586C-125.89 -23.67 -130.17 -23.5427 -131.696 -26.3739ZM17.5496 -21.1396C3.70242 -43.4072 -41.9075 -116.753 -64.5376 -153.537C-66.3493 -156.484 -62.4186 -159.57 -59.9925 -157.099L8.02502 -87.9107C9.32817 -86.5853 11.5424 -86.8079 12.5383 -88.3879L20.3784 -100.688C23.1965 -105.11 29.7228 -104.908 32.2549 -100.306L107.901 37.0002C109.628 40.1177 105.284 43.0019 103.08 40.2025L36.5245 -44.1707C33.3356 -48.2213 26.8517 -46.5459 26.0253 -41.4562L22.8787 -22.2106C22.4443 -19.5703 18.9693 -18.8704 17.5496 -21.1396Z" fill="#F9DA58"/>
</g>
</g>
</svg>
