<svg width="375" height="168" viewBox="0 0 375 168" fill="none" xmlns="http://www.w3.org/2000/svg">
<mask id="mask0" mask-type="alpha" maskUnits="userSpaceOnUse" x="0" y="0" width="375" height="168">
<rect x="375" y="168" width="375" height="168" transform="rotate(-180 375 168)" fill="#C4C4C4"/>
</mask>
<g mask="url(#mask0)">
<path d="M532 44.9208C526.106 52.5793 519.71 59.8858 512.961 66.6838C511.041 68.616 507.678 67.599 507.247 64.9549L505.35 53.4867C504.951 51.046 501.886 50.0682 500.067 51.797L462.687 87.328C460.978 88.9552 458.11 87.6488 458.298 85.3332L461.363 48.1282C461.582 45.4997 458.102 44.2481 456.495 46.3837L419.405 90.7388C418.143 92.2408 415.635 91.4585 415.517 89.5184L413.299 52.8296C413.307 49.8101 409.537 48.3159 407.373 50.4828L390.129 67.732C388.099 69.7581 384.556 68.6629 384.11 65.8702L381.108 46.9938C380.661 44.1542 377.165 42.9026 374.923 44.7722C364.507 55.1608 355.579 66.7385 345.232 77.1663C343.32 79.0907 339.965 78.0659 339.526 75.4218L337.637 63.9614C337.23 61.5207 334.173 60.5429 332.354 62.2639L294.974 97.8027C293.266 99.422 290.389 98.1235 290.585 95.8001L293.642 58.6028C293.861 55.9666 290.381 54.7149 288.782 56.8506L251.684 101.213C250.43 102.715 247.922 101.933 247.804 99.9931L245.586 63.2965C245.594 60.2847 241.816 58.7906 239.653 60.9497L222.409 78.2067C220.386 80.2328 216.844 79.1376 216.397 76.337L213.395 57.4685C212.94 54.6289 209.452 53.3694 207.203 55.2468L196.237 64.3761C193.11 66.9732 188.266 65.5182 187.192 61.6615C186.165 57.9692 185.264 54.1673 184.488 50.2951C184.08 48.2612 181.399 47.6588 180.083 49.2859C175.152 55.3564 169.909 61.1609 164.438 66.6759C162.533 68.5925 159.178 67.5521 158.747 64.9237L156.85 53.4555C156.451 51.0148 153.386 50.0369 151.567 51.7579L114.187 87.2967C112.478 88.9239 109.61 87.6175 109.798 85.3019L112.863 48.0969C113.074 45.4684 109.602 44.2168 107.995 46.3524L70.9049 90.7075C69.643 92.2094 67.1348 91.4272 67.0172 89.4871L64.799 52.7984C64.8069 49.7788 61.0367 48.2846 58.8734 50.4515L41.6294 67.7007C39.5993 69.7268 36.0565 68.6316 35.6097 65.8389L32.6077 46.9626C32.1609 44.1229 28.6651 42.8712 26.4234 44.7409C16.0065 55.1295 7.07883 66.7072 -3.26753 77.135C-5.18005 79.0594 -8.53477 78.0346 -8.97371 75.3905L-10.8627 63.9301C-11.2703 61.4894 -14.335 60.5116 -16.1456 62.2326L-53.5258 97.7714C-55.2423 99.3908 -58.1111 98.0844 -57.9151 95.7688L-54.8583 58.5715C-54.6388 55.9353 -58.1189 54.6836 -59.7179 56.8192L-96.8159 101.174C-98.07 102.684 -100.578 101.902 -100.696 99.9618L-102.922 63.2652C-102.906 60.2534 -106.684 58.7593 -108.847 60.9184L-126.091 78.1676C-128.114 80.2015 -131.656 79.1063 -132.103 76.3058L-135.105 57.4373C-135.56 54.5976 -139.048 53.3381 -141.297 55.2156L-152.263 64.3447C-155.39 66.9419 -160.234 65.4869 -161.308 61.6303C-162.805 56.256 -164.036 50.6627 -165 44.9208V10H532V44.9208Z" fill="white"/>
</g>
</svg>
