<svg width="1920" height="500" viewBox="0 0 1920 500" fill="none" xmlns="http://www.w3.org/2000/svg">
<path d="M117.458 210.365L0 272.262V500H599V384.079C599 380.257 594.885 377.848 591.552 379.719L433.791 468.279C430.458 470.15 426.344 467.741 426.344 463.919V383.339C426.344 379.694 422.569 377.274 419.256 378.796L271.6 446.651C267.889 448.356 263.81 445.135 264.609 441.13L295.58 285.803C296.405 281.664 292.047 278.427 288.323 280.414L86.4892 388.091C82.621 390.155 78.159 386.595 79.3116 382.365L124.613 216.103C125.763 211.884 121.326 208.326 117.458 210.365Z" fill="#fff"/>
<path d="M1802.54 289.635L1920 227.738V0H1321V115.921C1321 119.743 1325.11 122.152 1328.45 120.281L1486.21 31.7211C1489.54 29.8501 1493.66 32.2589 1493.66 36.0811V116.661C1493.66 120.306 1497.43 122.726 1500.74 121.204L1648.4 53.3488C1652.11 51.6436 1656.19 54.865 1655.39 58.8698L1624.42 214.197C1623.59 218.336 1627.95 221.573 1631.68 219.586L1833.51 111.909C1837.38 109.845 1841.84 113.405 1840.69 117.635L1795.39 283.897C1794.24 288.116 1798.67 291.674 1802.54 289.635Z" fill="#fff"/>
</svg>
