<svg width="44" height="44" viewBox="0 0 44 44" fill="none" xmlns="http://www.w3.org/2000/svg">
<g filter="url(#filter0_b)">
<rect width="44" height="44" rx="8" fill="#32CCFE"/>
</g>
<path d="M20.6671 31.0497C21.5599 31.0497 22.4528 31.0899 23.3457 31.0306C24.1582 30.9904 25.013 30.9121 25.8064 30.7133C32.1158 29.1666 35.4885 22.2013 32.7294 16.3108C31.0621 12.7583 28.2058 10.7335 24.2978 10.3166C21.3018 9.99926 18.6232 10.8921 16.3613 12.9149C14.1397 14.9186 12.9887 17.4174 12.9104 20.4134C12.8914 21.1074 12.9104 21.8225 12.9104 22.5165C12.8893 24.0272 12.0366 25.1973 10.5872 25.6522C10.5682 25.6522 10.528 25.6924 10.5068 25.6924C11.0633 27.1608 13.323 29.3232 14.7322 29.8585C16.501 27.4379 20.0704 28.2927 20.6671 31.0497Z" fill="white"/>
<path d="M20.6268 32.3784C20.4089 33.3707 19.8736 34.1049 18.9998 34.5598C17.889 35.1353 16.757 35.1163 15.7054 34.4413C14.6137 33.7473 14.1376 32.6958 14.218 31.4051C14.237 31.1872 14.1778 31.1068 14.0001 31.0073C12.0747 29.996 10.5491 28.5868 9.49757 26.6826C9.29869 26.3059 9.14 25.9082 9.04055 25.4914C8.90091 24.9158 9.12096 24.6387 9.7155 24.5794C10.4307 24.499 11.0654 24.2219 11.3828 23.5469C11.5224 23.2486 11.6007 22.8931 11.6007 22.5546C11.6409 21.7019 11.6007 20.8492 11.6409 19.9944C11.8588 16.7001 13.2278 13.9643 15.7287 11.821C18.0286 9.84054 20.7263 8.90958 23.7604 9.00691C29.0584 9.2058 33.6011 12.936 34.6717 18.1536C35.6429 22.8762 34.1766 26.8243 30.4253 29.8986C30.2073 30.0764 29.9682 30.2562 29.7101 30.4149C29.5705 30.5143 29.5324 30.5926 29.5916 30.7513C30.0867 32.2599 29.3927 33.9251 28.0048 34.6402C26.1195 35.5733 23.9381 34.6212 23.3626 32.5963C23.3436 32.5159 23.2441 32.4186 23.1849 32.4186C22.3534 32.3593 21.4986 32.3784 20.6268 32.3784ZM20.667 31.0496C21.5599 31.0496 22.4528 31.0898 23.3457 31.0306C24.1582 30.9904 25.013 30.9121 25.8064 30.7132C32.1158 29.1666 35.4885 22.2012 32.7294 16.3108C31.0621 12.7583 28.2058 10.7334 24.2978 10.3166C21.3018 9.99923 18.6232 10.8921 16.3613 12.9148C14.1397 14.9185 12.9887 17.4173 12.9104 20.4134C12.8914 21.1073 12.9104 21.8225 12.9104 22.5165C12.8893 24.0272 12.0366 25.1973 10.5872 25.6522C10.5682 25.6522 10.528 25.6924 10.5068 25.6924C11.0633 27.1607 13.323 29.3231 14.7321 29.8584C16.501 27.4379 20.0704 28.2927 20.667 31.0496Z" fill="black"/>
<path d="M24.852 25.8722C22.5098 25.7537 20.9631 24.8206 19.9708 22.9566C19.7317 22.4996 19.9518 22.0447 20.4067 21.9452C20.6839 21.886 20.942 22.0849 21.1409 22.4023C21.399 22.8 21.6571 23.1957 21.9936 23.5131C23.8576 25.2777 26.9129 24.7233 28.085 22.4425C28.2247 22.1653 28.4024 21.9473 28.7388 21.9473C29.2339 21.9664 29.5132 22.4636 29.2953 22.9185C28.6796 24.169 27.7084 25.0809 26.3987 25.5168C25.8232 25.7135 25.2287 25.7918 24.852 25.8722Z" fill="black"/>
<path d="M20.705 19.3639C19.9899 19.3639 19.4165 18.7884 19.4165 18.0754C19.4165 17.3624 19.992 16.7869 20.705 16.7869C21.4181 16.7869 21.9936 17.3624 21.9936 18.0754C21.9957 18.7694 21.4202 19.3639 20.705 19.3639Z" fill="black"/>
<path d="M29.7924 18.0542C29.7924 18.7693 29.2169 19.3427 28.5229 19.3639C27.8078 19.3639 27.2344 18.8074 27.2344 18.0753C27.2344 17.3602 27.7908 16.7868 28.5039 16.7656C29.1979 16.7656 29.7713 17.3411 29.7924 18.0542Z" fill="black"/>
<defs>
<filter id="filter0_b" x="-4" y="-4" width="52" height="52" filterUnits="userSpaceOnUse" color-interpolation-filters="sRGB">
<feFlood flood-opacity="0" result="BackgroundImageFix"/>
<feGaussianBlur in="BackgroundImage" stdDeviation="2"/>
<feComposite in2="SourceAlpha" operator="in" result="effect1_backgroundBlur"/>
<feBlend mode="normal" in="SourceGraphic" in2="effect1_backgroundBlur" result="shape"/>
</filter>
</defs>
</svg>
