<?xml version="1.0" standalone="no"?>
<!DOCTYPE svg PUBLIC "-//W3C//DTD SVG 1.1//EN" "http://www.w3.org/Graphics/SVG/1.1/DTD/svg11.dtd" >
<svg>
<metadata>
Created by FontForge 20090914 at Fri Aug 18 15:05:20 2017
 By www-data
Copyright 2010 The Amirim Project Authors, with Reserved Font Name 'Source'. Source is a trademark of Adobe Systems Incorporated in the United States and/or other countries.
</metadata>
<defs>
<font id="Assistant-Bold" horiz-adv-x="523" >
  <font-face 
    font-family="Assistant"
    font-weight="700"
    font-stretch="normal"
    units-per-em="1000"
    panose-1="0 0 8 0 0 0 0 0 0 0"
    ascent="800"
    descent="-200"
    x-height="495"
    cap-height="653"
    bbox="-457 -277 1191 1021"
    underline-thickness="50"
    underline-position="-50"
    unicode-range="U+0020-U+FB4B"
  />
<missing-glyph horiz-adv-x="684" 
d="M81 660h522v-660h-522v660zM344 410l44 95l37 69h-166l37 -69l44 -95h4zM275 340l-100 194v-386zM509 534l-99 -194l99 -192v386zM431 86l-44 86l-43 99h-4l-43 -99l-45 -86h179z" />
    <glyph glyph-name="fi" unicode="fi" horiz-adv-x="605" 
d="M228 532v-37h91v-108h-91v-387h-137v387h-66v102l66 5v35c0 56 14.167 101 42.5 135s72.833 51 133.5 51c34.667 0 66.667 -6 96 -18l-25 -101c-18 7.33301 -35.333 11 -52 11c-38.667 0 -58 -25 -58 -75zM401 495h136v-495h-136v495zM413.5 592.5
c-14.333 13.667 -21.5 31.167 -21.5 52.5s7.16699 38.833 21.5 52.5s32.833 20.5 55.5 20.5s41.167 -6.83301 55.5 -20.5s21.5 -31.167 21.5 -52.5s-7.16699 -38.833 -21.5 -52.5s-32.833 -20.5 -55.5 -20.5s-41.167 6.83301 -55.5 20.5z" />
    <glyph glyph-name="fl" unicode="fl" horiz-adv-x="614" 
d="M228 532v-37h91v-108h-91v-387h-137v387h-66v102l66 5v35c0 56 14.167 101 42.5 135s72.833 51 133.5 51c34.667 0 66.667 -6 96 -18l-25 -101c-18 7.33301 -35.333 11 -52 11c-38.667 0 -58 -25 -58 -75zM431 29c-20 27.333 -30.001 66 -30.001 116v558h136v-564
c0 -14 2.66699 -24.167 8 -30.5s11.333 -9.5 18 -9.5s12.667 0.666992 18 2l17 -102c-19.333 -7.33301 -42.666 -11 -69.999 -11c-44.667 0 -77 13.667 -97 41z" />
    <glyph glyph-name=".notdef" horiz-adv-x="684" 
d="M81 660h522v-660h-522v660zM344 410l44 95l37 69h-166l37 -69l44 -95h4zM275 340l-100 194v-386zM509 534l-99 -194l99 -192v386zM431 86l-44 86l-43 99h-4l-43 -99l-45 -86h179z" />
    <glyph glyph-name="space" unicode=" " horiz-adv-x="200" 
 />
    <glyph glyph-name="exclam" unicode="!" horiz-adv-x="332" 
d="M102 544l-4 126h137l-5 -126l-19 -318h-90zM106 13c-16 16.667 -24 37.667 -24 63s8 46.333 24 63s36 25 60 25s44 -8.33301 60 -25s24 -37.667 24 -63s-8 -46.333 -24 -63s-36 -25 -60 -25s-44 8.33301 -60 25z" />
    <glyph glyph-name="quotedbl" unicode="&#x22;" horiz-adv-x="519" 
d="M81 561l-4 126h138l-4 -126l-27 -194h-76zM308 561l-4 126h138l-4 -126l-27 -194h-76z" />
    <glyph glyph-name="numbersign" unicode="#" 
d="M110 190h-75v88h85l14 116h-79v88h90l22 168h79l-20 -168h108l21 168h79l-20 -168h79v-88h-90l-14 -116h84v-88h-94l-23 -190h-81l23 190h-108l-23 -190h-80zM308 278l15 116h-108l-15 -116h108z" />
    <glyph glyph-name="dollar" unicode="$" 
d="M422.5 59.5c-27 -33.667 -65.1699 -55.4961 -114.503 -65.4961v-104h-92v100c-31.333 4 -62.666 12.5 -93.999 25.5s-58.333 29.833 -81 50.5l60 93c26 -20 50.667 -35 74 -45s47 -15 71 -15c57.333 0 86 24.667 86 74c0 22 -8.83301 40.167 -26.5 54.5
s-45.167 31.166 -82.5 50.499c-33.333 17.333 -60.5 33 -81.5 47s-38.833 32.333 -53.5 55s-22 49.667 -22 81c0 48 13.333 88 40 120s63.334 52.667 110.001 62v103h92v-101c55.333 -8 104.333 -35 147 -81l-69 -78c-19.333 17.333 -37.5 30.166 -54.5 38.499
s-35.833 12.5 -56.5 12.5c-52 0 -78 -23 -78 -69c0 -20 8.33301 -36.333 25 -49s42.334 -27.334 77.001 -44.001c34 -16.667 62 -32.167 84 -46.5s40.833 -33.5 56.5 -57.5s23.5 -53.333 23.5 -88c0 -48.667 -13.5 -89.834 -40.5 -123.501z" />
    <glyph glyph-name="percent" unicode="%" horiz-adv-x="845" 
d="M71.5 321.5c-29.667 37 -44.5 87.833 -44.5 152.5c0 64 14.833 114.333 44.5 151s68.5 55 116.5 55c47.333 0 85.833 -18.333 115.5 -55s44.5 -87 44.5 -151s-14.833 -114.667 -44.5 -152s-68.167 -56 -115.5 -56c-48 0 -86.833 18.5 -116.5 55.5zM559 665h80l-354 -677
h-80zM234.5 374.5c11.667 21 17.5 54.167 17.5 99.5c0 44.667 -5.83301 77.334 -17.5 98.001s-27.167 31 -46.5 31s-35 -10.333 -47 -31s-18 -53.334 -18 -98.001s6 -77.667 18 -99s27.667 -32 47 -32s34.833 10.5 46.5 31.5zM541.5 44c-29.667 37.333 -44.5 88 -44.5 152
s14.833 114.333 44.5 151s68.167 55 115.5 55c48 0 86.833 -18.333 116.5 -55s44.5 -87 44.5 -151c0 -64.667 -14.833 -115.5 -44.5 -152.5s-68.5 -55.5 -116.5 -55.5c-47.333 0 -85.833 18.667 -115.5 56zM704 97c12 21.333 18 54.333 18 99s-6 77.334 -18 98.001
s-27.667 31 -47 31s-34.833 -10.333 -46.5 -31s-17.5 -53.334 -17.5 -98.001s5.83301 -77.667 17.5 -99s27.167 -32 46.5 -32s35 10.667 47 32z" />
    <glyph glyph-name="ampersand" unicode="&#x26;" horiz-adv-x="658" 
d="M607 -12c-54.667 11.333 -109.332 33.999 -163.999 67.999c-59.333 -45.333 -126.666 -68 -201.999 -68c-44.667 0 -83.334 8.33301 -116.001 25s-57.334 39.167 -74.001 67.5s-25 59.5 -25 93.5c0 41.333 10.667 76.333 32 105s51 55 89 79
c-27.333 51.333 -41 97.666 -41 138.999c0 30.667 7.16699 58.834 21.5 84.501s34.666 46 60.999 61s56.833 22.5 91.5 22.5c47.333 0 85 -13.167 113 -39.5s42 -61.5 42 -105.5c0 -38.667 -12.167 -72.167 -36.5 -100.5s-58.5 -57.166 -102.5 -86.499
c36.667 -45.333 82.334 -88.333 137.001 -129c35.333 47.333 61.333 101.333 78 162h125c-26 -83.333 -62.667 -157.666 -110 -222.999c44 -24.667 82 -39.334 114 -44.001zM242.002 413.999c28.667 16.667 50.5 33.167 65.5 49.5s22.5 35.166 22.5 56.499
c0 16.667 -4 29.834 -12 39.501s-20 14.5 -36 14.5c-18 0 -33 -7 -45 -21s-18 -32.667 -18 -56c0 -26 7.66699 -53.667 23 -83zM184.502 117.499c19 -16.333 43.5 -24.5 73.5 -24.5c29.333 0 59.333 10 90 30c-54 44 -101.333 92.333 -142 145c-16 -14 -28.333 -28 -37 -42
s-13 -28.667 -13 -44c0 -26.667 9.5 -48.167 28.5 -64.5z" />
    <glyph glyph-name="quotesingle" unicode="'" horiz-adv-x="292" 
d="M81 561l-4 126h138l-4 -126l-27 -194h-76z" />
    <glyph glyph-name="parenleft" unicode="(" horiz-adv-x="338" 
d="M107.5 39c-22.333 74 -33.5 153.667 -33.5 239s11.167 165 33.5 239s55.166 146.667 98.499 218l85 -36c-36 -62.667 -62.833 -130 -80.5 -202s-26.5 -145 -26.5 -219s8.83301 -147 26.5 -219s44.5 -139.333 80.5 -202l-85 -36c-43.333 71.333 -76.166 144 -98.499 218z
" />
    <glyph glyph-name="parenright" unicode=")" horiz-adv-x="338" 
d="M47 -143c36 62.667 62.833 130 80.5 202s26.5 145 26.5 219s-8.83301 147 -26.5 219s-44.5 139.333 -80.5 202l85 36c43.333 -71.333 76.166 -144 98.499 -218s33.5 -153.667 33.5 -239s-11.167 -165 -33.5 -239s-55.166 -146.667 -98.499 -218z" />
    <glyph glyph-name="asterisk" unicode="*" horiz-adv-x="451" 
d="M89 403l58 101l-106 48l22 68l114 -24l12 116h73l12 -117l113 25l23 -68l-107 -48l59 -101l-58 -43l-78 89l-79 -89z" />
    <glyph glyph-name="plus" unicode="+" 
d="M211 282h-177v97h177v186h101v-186h177v-97h-177v-186h-101v186z" />
    <glyph glyph-name="comma" unicode="," horiz-adv-x="292" 
d="M221.5 129c17 -23.333 25.4971 -56 25.4971 -98c0 -53.333 -14.833 -99.333 -44.5 -138s-72.167 -66.667 -127.5 -84l-28 74c34.667 12 61.334 28.833 80.001 50.5s28 45.5 28 71.5h-8c-23.333 0 -43.166 7 -59.499 21s-24.5 33.333 -24.5 58
c0 23.333 8.33301 42.5 25 57.5s37.334 22.5 62.001 22.5c30.667 0 54.5 -11.667 71.5 -35z" />
    <glyph glyph-name="hyphen" unicode="-" horiz-adv-x="329" 
d="M43 302h243v-98h-243v98z" />
    <glyph glyph-name="period" unicode="." horiz-adv-x="292" 
d="M86 13c-16 16.667 -24 37.667 -24 63s8 46.333 24 63s36 25 60 25s44 -8.33301 60 -25s24 -37.667 24 -63s-8 -46.333 -24 -63s-36 -25 -60 -25s-44 8.33301 -60 25z" />
    <glyph glyph-name="slash" unicode="/" horiz-adv-x="341" 
d="M225 710h90l-212 -870h-90z" />
    <glyph glyph-name="zero" unicode="0" 
d="M143.5 26.5c-33.667 25.667 -59.6689 63.5 -78.002 113.5s-27.5 110.333 -27.5 181c0 105.333 20 186.166 60 242.499s94.667 84.5 164 84.5c68.667 0 123 -28.167 163 -84.5s60 -137.166 60 -242.499c0 -70.667 -9.16699 -131 -27.5 -181
s-44.166 -87.833 -77.499 -113.5s-72.666 -38.5 -117.999 -38.5s-84.833 12.833 -118.5 38.5zM330.998 145.5c16.667 34.333 25 92.833 25 175.5c0 81.333 -8.33301 138.5 -25 171.5s-39.667 49.5 -69 49.5c-30 0 -53.167 -16.333 -69.5 -49s-24.5 -90 -24.5 -172
c0 -82.667 8.33301 -141.167 25 -175.5s39.667 -51.5 69 -51.5s52.333 17.167 69 51.5z" />
    <glyph glyph-name="one" unicode="1" horiz-adv-x="478" 
d="M40 111h140v384h-118v85c32.667 6 61 13.333 85 22s47 20 69 34h101v-525h121v-111h-398v111z" />
    <glyph glyph-name="two" unicode="2" 
d="M38 79c69.333 66 122.169 118 158.502 156s65.5 74.333 87.5 109s33 66.667 33 96c0 31.333 -8.33301 55.833 -25 73.5s-40 26.5 -70 26.5c-21.333 0 -41.333 -6 -60 -18s-37.334 -28 -56.001 -48l-75 74c32 34 64.167 59.167 96.5 75.5s70.166 24.5 113.499 24.5
c62 0 112 -18.167 150 -54.5s57 -84.833 57 -145.5c0 -49.333 -18.333 -100.5 -55 -153.5s-89.334 -115.167 -158.001 -186.5c38.667 4.66699 74.334 7 107.001 7h137v-115h-441v79z" />
    <glyph glyph-name="three" unicode="3" 
d="M23 78l62.998 86.9961c45.333 -44 93 -66 143 -66c32.667 0 58.834 7.16699 78.501 21.5s29.5 34.5 29.5 60.5c0 32 -12.833 56 -38.5 72s-71.5 24 -137.5 24v98c56 0 95.833 7.83301 119.5 23.5s35.5 37.834 35.5 66.501c0 24 -7.33301 42.5 -22 55.5s-35 19.5 -61 19.5
c-22.667 0 -43.5 -4.66699 -62.5 -14s-38.833 -23.666 -59.5 -42.999l-69 84c62.667 54 128.334 81 197.001 81c65.333 0 117.333 -15.167 156 -45.5s58 -72.833 58 -127.5c0 -65.333 -35.667 -112.666 -107 -141.999v-4c38.667 -11.333 69.667 -30.166 93 -56.499
s35 -59.5 35 -99.5c0 -38 -10.333 -71 -31 -99s-48.667 -49.333 -84 -64s-74.333 -22 -117 -22c-92.667 0 -165.667 30 -219 90z" />
    <glyph glyph-name="four" unicode="4" 
d="M499 156h-76v-156h-127v156h-277v94l239 386h165v-376h76v-104zM296 260v117c0 28 1.66699 74.333 5 139h-4l-43 -86l-9 -18l-94 -152h145z" />
    <glyph glyph-name="five" unicode="5" 
d="M23 77l61.999 86.999c46 -43.333 93 -65 141 -65c34 0 61.167 9.33301 81.5 28s30.5 45 30.5 79c0 32.667 -9.66699 58.334 -29 77.001s-44.666 28 -75.999 28c-18.667 0 -34.5 -2.33301 -47.5 -7s-29.5 -13.667 -49.5 -27l-62 40l18 319h354v-115h-236l-11 -131
c26 11.333 51 17 75 17c58 0 106 -16.833 144 -50.5s57 -82.834 57 -147.501c0 -45.333 -10.5 -84.666 -31.5 -117.999s-49 -58.833 -84 -76.5s-73.167 -26.5 -114.5 -26.5c-88.667 0 -162.667 29.667 -222 89z" />
    <glyph glyph-name="six" unicode="6" 
d="M435.5 346.5c34.333 -33 51.501 -81.833 51.501 -146.5c0 -42.667 -9.33301 -80 -28 -112s-43.834 -56.667 -75.501 -74s-66.5 -26 -104.5 -26c-42.667 0 -82 11.333 -118 34s-64.833 57.5 -86.5 104.5s-32.5 105.5 -32.5 175.5c0 76.667 11.667 141 35 193
s54.333 90.5 93 115.5s81 37.5 127 37.5c38 0 72 -7 102 -21s56 -32 78 -54l-72 -82c-12 13.333 -27.167 24.333 -45.5 33s-36.5 13 -54.5 13c-40 0 -72.333 -16.667 -97 -50s-38.334 -87.333 -41.001 -162c16.667 22 37.334 39.333 62.001 52s48 19 70 19
c56.667 0 102.167 -16.5 136.5 -49.5zM338.001 119c16 18.667 24.001 45.667 24.001 81c0 33.333 -8 58.166 -24 74.499s-37.667 24.5 -65 24.5c-18.667 0 -36.834 -5.33301 -54.501 -16s-33.5 -27.667 -47.5 -51c6 -49.333 18.333 -85.166 37 -107.499
s41.667 -33.5 69 -33.5c24.667 0 45 9.33301 61 28z" />
    <glyph glyph-name="seven" unicode="7" 
d="M208 282.5c24.667 77 66.667 156.5 126 238.5h-290v115h437v-84c-48.667 -58.667 -85.167 -114 -109.5 -166s-41.333 -106.5 -51 -163.5s-16.5 -131.167 -20.5 -222.5h-138c6 111.333 21.333 205.5 46 282.5z" />
    <glyph glyph-name="eight" unicode="8" 
d="M149 10.5c-33.333 15 -59.5 35.668 -78.5 62.001s-28.5 56.5 -28.5 90.5c0 66 36.667 118.667 110 158v4c-57.333 42 -86 91.667 -86 149c0 52.667 18.667 94.834 56 126.501s85.333 47.5 144 47.5c57.333 0 103.5 -15.833 138.5 -47.5s52.5 -73.834 52.5 -126.501
c0 -28.667 -8 -55.334 -24 -80.001s-36 -45 -60 -61v-4c34 -18.667 60.833 -41.167 80.5 -67.5s29.5 -59.166 29.5 -98.499c0 -32.667 -9.33301 -62.334 -28 -89.001s-44.834 -47.667 -78.501 -63s-72.167 -23 -115.5 -23c-41.333 0 -78.666 7.5 -111.999 22.5zM345 465.001
c0 26.667 -7.33301 47.834 -22 63.501s-34.667 23.5 -60 23.5c-22 0 -40.167 -6.83301 -54.5 -20.5s-21.5 -32.834 -21.5 -57.501c0 -25.333 9.5 -45.833 28.5 -61.5s47.833 -31.167 86.5 -46.5c28.667 32 43 65 43 99zM330 106.001c16.667 14.667 25 35.333 25 62
c0 18.667 -5.66699 34.667 -17 48s-25.833 24.5 -43.5 33.5s-44.167 20.833 -79.5 35.5c-16.667 -14 -30 -30.333 -40 -49s-15 -38 -15 -58c0 -28 10 -50.667 30 -68s44.667 -26 74 -26c27.333 0 49.333 7.33301 66 22z" />
    <glyph glyph-name="nine" unicode="9" 
d="M361 614c36 -22.667 64.833 -57.5 86.5 -104.5s32.5 -105.5 32.5 -175.5c0 -76.667 -11.667 -141 -35 -193s-54.333 -90.5 -93 -115.5s-81 -37.5 -127 -37.5c-38 0 -72 7 -102 21s-56 32 -78 54l72 82c11.333 -13.333 26.166 -24.333 44.499 -33s36.833 -13 55.5 -13
c40 0 72.333 16.667 97 50s38.334 87.333 41.001 162c-16.667 -22 -37.334 -39.333 -62.001 -52s-48 -19 -70 -19c-56.667 0 -102.167 16.5 -136.5 49.5s-51.5 81.833 -51.5 146.5c0 42.667 9.33301 80 28 112s43.834 56.667 75.501 74s66.5 26 104.5 26
c42.667 0 82 -11.333 118 -34zM303.5 353c17.667 10.667 33.499 27.668 47.499 51.001c-6 49.333 -18.333 85.166 -37 107.499s-41.667 33.5 -69 33.5c-24.667 0 -45 -9.33301 -61 -28s-24 -45.667 -24 -81c0 -34 7.83301 -59 23.5 -75s37.5 -24 65.5 -24
c18.667 0 36.834 5.33301 54.501 16z" />
    <glyph glyph-name="colon" unicode=":" horiz-adv-x="292" 
d="M86 343c-16 16.667 -24 37.667 -24 63s8 46.333 24 63s36 25 60 25s44 -8.33301 60 -25s24 -37.667 24 -63s-8 -46.333 -24 -63s-36 -25 -60 -25s-44 8.33301 -60 25zM86 13c-16 16.667 -24 37.667 -24 63s8 46.333 24 63s36 25 60 25s44 -8.33301 60 -25
s24 -37.667 24 -63s-8 -46.333 -24 -63s-36 -25 -60 -25s-44 8.33301 -60 25z" />
    <glyph glyph-name="semicolon" unicode=";" horiz-adv-x="292" 
d="M86 343c-16 16.667 -24 37.667 -24 63s8 46.333 24 63s36 25 60 25s44 -8.33301 60 -25s24 -37.667 24 -63s-8 -46.333 -24 -63s-36 -25 -60 -25s-44 8.33301 -60 25zM221.5 129c17 -23.333 25.4971 -56 25.4971 -98c0 -53.333 -14.833 -99.333 -44.5 -138
s-72.167 -66.667 -127.5 -84l-28 74c34.667 12 61.334 28.833 80.001 50.5s28 45.5 28 71.5h-8c-23.333 0 -43.166 7 -59.499 21s-24.5 33.333 -24.5 58c0 23.333 8.33301 42.5 25 57.5s37.334 22.5 62.001 22.5c30.667 0 54.5 -11.667 71.5 -35z" />
    <glyph glyph-name="less" unicode="&#x3c;" 
d="M34 284v96l455 176v-113l-181 -61l-135 -48v-4l135 -47l181 -61v-113z" />
    <glyph glyph-name="equal" unicode="=" 
d="M34 494h455v-97h-455v97zM34 264h455v-97h-455v97z" />
    <glyph glyph-name="greater" unicode="&#x3e;" 
d="M34 222l182 61l135 47v4l-135 48l-182 61v113l455 -176v-96l-455 -175v113z" />
    <glyph glyph-name="question" unicode="?" horiz-adv-x="457" 
d="M153 252c0 30 6.66699 56.498 20 79.498s32.333 48.5 57 76.5c18.667 21.333 32.167 38.833 40.5 52.5s12.5 27.834 12.5 42.501c0 21.333 -6.5 38.166 -19.5 50.499s-30.5 18.5 -52.5 18.5c-18 0 -34.5 -4.16699 -49.5 -12.5s-30.167 -20.166 -45.5 -35.499l-75 69
c24 27.333 52 49 84 65s66.333 24 103 24c56 0 101 -14.333 135 -43s51 -70.667 51 -126c0 -26.667 -6 -50.167 -18 -70.5s-30 -44.166 -54 -71.499c-22.667 -25.333 -39.667 -47.333 -51 -66s-17 -40 -17 -64c0 -6.66699 0.333008 -11.667 1 -15h-120
c-1.33301 12 -2 20.667 -2 26zM155 12.998c-16 16.667 -24 37.667 -24 63s8 46.333 24 63s36 25 60 25s44 -8.33301 60 -25s24 -37.667 24 -63s-8 -46.333 -24 -63s-36 -25 -60 -25s-44 8.33301 -60 25z" />
    <glyph glyph-name="at" unicode="@" horiz-adv-x="894" 
d="M236 -127c-56.667 28 -102 70.165 -136 126.498s-51 124.833 -51 205.5c0 90 20.167 170 60.5 240s94.5 124.333 162.5 163s142.333 58 223 58c70 0 131.5 -14.833 184.5 -44.5s93.833 -71.167 122.5 -124.5s43 -114.666 43 -183.999
c0 -57.333 -11 -106.666 -33 -147.999s-50.167 -72.5 -84.5 -93.5s-69.5 -31.5 -105.5 -31.5c-30 0 -55.333 6.66699 -76 20s-33.334 32 -38.001 56h-2c-14 -19.333 -32.333 -35.333 -55 -48s-44.334 -19 -65.001 -19c-38.667 0 -70 13.5 -94 40.5s-36 63.167 -36 108.5
c0 40 8.83301 78.833 26.5 116.5s41.834 68.167 72.501 91.5s64.334 35 101.001 35c35.333 0 61 -16.333 77 -49h2l14 41h84l-44 -217c-3.33301 -12.667 -5 -25.667 -5 -39c0 -34.667 17.333 -52 52 -52c20.667 0 40.334 7.66699 59.001 23s33.834 37.166 45.501 65.499
s17.5 60.5 17.5 96.5c0 50.667 -9.66699 96.5 -29 137.5s-49.5 73.667 -90.5 98s-92.5 36.5 -154.5 36.5c-58 0 -113.333 -15.667 -166 -47s-95.167 -75.333 -127.5 -132s-48.5 -121.334 -48.5 -194.001c0 -63.333 13.167 -117.166 39.5 -161.499
s61.666 -77.666 105.999 -99.999s93.5 -33.5 147.5 -33.5c26 0 52.667 3.66699 80 11s52 17 74 29l30 -75c-58 -32 -123 -48 -195 -48c-68.667 0 -131.334 14 -188.001 42zM448.5 146.998c11 7.33301 23.167 19.333 36.5 36l25 139c-12 20.667 -28.667 31 -50 31
c-19.333 0 -36.833 -7.66699 -52.5 -23s-27.667 -34.333 -36 -57s-12.5 -45 -12.5 -67c0 -23.333 5 -40.833 15 -52.5s23.667 -17.5 41 -17.5c11.333 0 22.5 3.66699 33.5 11z" />
    <glyph glyph-name="A" unicode="A" horiz-adv-x="568" 
d="M384 163h-205l-44 -163h-140l208 653h163l207 -653h-145zM356 269l-18 67l-36 138l-19 74h-4c-20 -86 -37.667 -156.667 -53 -212l-18 -67h148z" />
    <glyph glyph-name="B" unicode="B" horiz-adv-x="603" 
d="M79 653h219c158.667 0 238 -54 238 -162c0 -30.667 -8 -59.334 -24 -86.001s-37.333 -45 -64 -55v-4c36.667 -9.33301 66 -26.833 88 -52.5s33 -59.5 33 -101.5c0 -63.333 -23.333 -111.166 -70 -143.499s-107.667 -48.5 -183 -48.5h-237v653zM290 389
c38 0 66.167 7.16699 84.5 21.5s27.5 34.5 27.5 60.5c0 26.667 -9 46 -27 58s-46 18 -84 18h-75v-158h74zM304 106c87.333 0 131 31.667 131 95c0 30 -10.833 51.833 -32.5 65.5s-54.5 20.5 -98.5 20.5h-88v-181h88z" />
    <glyph glyph-name="C" unicode="C" horiz-adv-x="580" 
d="M195.5 27c-45.667 26 -81.834 64.168 -108.501 114.501s-40 110.833 -40 181.5c0 70 13.667 130.833 41 182.5s64.333 91.167 111 118.5s97.667 41 153 41c39.333 0 75.5 -7.83301 108.5 -23.5s61.5 -35.834 85.5 -60.501l-73 -88c-18 17.333 -36.5 30.5 -55.5 39.5
s-39.833 13.5 -62.5 13.5c-32 0 -60.667 -8.83301 -86 -26.5s-45.166 -43 -59.499 -76s-21.5 -71.5 -21.5 -115.5c0 -68.667 14.833 -122.667 44.5 -162s69.834 -59 120.501 -59c50 0 93.667 21 131 63l73 -86c-54.667 -64 -124.334 -96 -209.001 -96
c-56 0 -106.833 13 -152.5 39z" />
    <glyph glyph-name="D" unicode="D" horiz-adv-x="632" 
d="M79 653h181c102.667 0 182.5 -27 239.5 -81s85.5 -135 85.5 -243s-28.167 -189.833 -84.5 -245.5s-133.833 -83.5 -232.5 -83.5h-189v653zM252 111c128 0 192 72.668 192 218.001c0 75.333 -16.5 129.666 -49.5 162.999s-80.5 50 -142.5 50h-36v-431h36z" />
    <glyph glyph-name="E" unicode="E" horiz-adv-x="545" 
d="M79 653h404v-115h-267v-143h227v-115h-227v-165h277v-115h-414v653z" />
    <glyph glyph-name="F" unicode="F" horiz-adv-x="520" 
d="M79 653h406v-115h-269v-163h230v-115h-230v-260h-137v653z" />
    <glyph glyph-name="G" unicode="G" horiz-adv-x="635" 
d="M200.5 27c-47.667 26 -85.167 64.167 -112.5 114.5s-41 110.833 -41 181.5c0 70 14 130.833 42 182.5s65.833 91.167 113.5 118.5s100.834 41 159.501 41c79.333 0 147 -28 203 -84l-72 -88c-18.667 17.333 -37.834 30.5 -57.501 39.5s-42.5 13.5 -68.5 13.5
c-54 0 -97.333 -19.5 -130 -58.5s-49 -92.167 -49 -159.5c0 -70.667 16 -125.167 48 -163.5s79 -57.5 141 -57.5c14.667 0 29 2 43 6s25.333 9.33301 34 16v122h-113v112h235v-296c-24 -23.333 -54.667 -42.333 -92 -57s-77.666 -22 -120.999 -22
c-60.667 0 -114.834 13 -162.501 39z" />
    <glyph glyph-name="H" unicode="H" horiz-adv-x="670" 
d="M79 653h137v-255h238v255h137v-653h-137v278h-238v-278h-137v653z" />
    <glyph glyph-name="I" unicode="I" horiz-adv-x="295" 
d="M79 653h137v-653h-137v653z" />
    <glyph glyph-name="J" unicode="J" horiz-adv-x="504" 
d="M102 16.5c-33.333 19 -61 48.167 -83 87.5l93 69c24 -44 55.667 -66 95 -66c28.667 0 50 9 64 27s21 48.333 21 91v428h137v-440c0 -66 -17.333 -120 -52 -162s-85.667 -63 -153 -63c-48 0 -88.667 9.5 -122 28.5z" />
    <glyph glyph-name="K" unicode="K" horiz-adv-x="609" 
d="M79 653h137v-277h4l207 277h151l-199 -259l234 -394h-150l-165 286l-82 -106v-180h-137v653z" />
    <glyph glyph-name="L" unicode="L" horiz-adv-x="513" 
d="M79 653h137v-538h262v-115h-399v653z" />
    <glyph glyph-name="M" unicode="M" horiz-adv-x="757" 
d="M79 653h151l109 -300c10 -28.667 18.667 -56 26 -82l13 -41h4l18 57c10.667 36 17.667 58 21 66l106 300h151v-653h-125v259c0 36.667 4.33301 96 13 178l4 39h-4l-53 -153l-97 -265h-78l-97 265l-52 153h-4l4 -39c8.66699 -82 13 -141.333 13 -178v-259h-123v653z" />
    <glyph glyph-name="N" unicode="N" horiz-adv-x="662" 
d="M79 653l141 0.000976562l181 -339l65 -142h4c-0.666992 11.333 -2.33398 29 -5.00098 53c-8 77.333 -12 137.333 -12 180v248h130v-653h-140l-181 339l-66 142h-4c0.666992 -8 2.33398 -23 5.00098 -45c3.33301 -30.667 6.33301 -62.834 9 -96.501s4 -63.5 4 -89.5v-250
h-131v653z" />
    <glyph glyph-name="O" unicode="O" horiz-adv-x="681" 
d="M187.5 29c-44.333 27.333 -78.833 66.834 -103.5 118.501s-37 112.167 -37 181.5c0 70 12.333 130.167 37 180.5s59.167 88.833 103.5 115.5s95.5 40 153.5 40s109.167 -13.333 153.5 -40s78.666 -65.334 102.999 -116.001s36.5 -110.667 36.5 -180
s-12.167 -129.833 -36.5 -181.5s-58.666 -91.167 -102.999 -118.5s-95.5 -41 -153.5 -41s-109.167 13.667 -153.5 41zM452.5 167.001c27.667 40 41.498 94 41.498 162c0 67.333 -13.833 120.333 -41.5 159s-64.834 58 -111.501 58c-47.333 0 -84.666 -19.167 -111.999 -57.5
s-41 -91.5 -41 -159.5s13.833 -122 41.5 -162s64.834 -60 111.501 -60s83.834 20 111.501 60z" />
    <glyph glyph-name="P" unicode="P" horiz-adv-x="592" 
d="M79 653l218 -0.000976562c78.667 0 141.167 -16.167 187.5 -48.5s69.5 -85.166 69.5 -158.499c0 -72 -23.667 -126.333 -71 -163s-108 -55 -182 -55h-85v-228h-137v653zM292 336.999c85.333 0 128.001 36.333 128.001 109c0 34.667 -10.833 59.667 -32.5 75
s-54.834 23 -99.501 23h-72v-207h76z" />
    <glyph glyph-name="Q" unicode="Q" horiz-adv-x="681" 
d="M665 -159c-12 -6 -27.833 -10.832 -47.5 -14.499s-41.167 -5.5 -64.5 -5.5c-65.333 0 -121.666 15.667 -168.999 47s-82.666 73.333 -105.999 126c-70.667 14 -126.834 50.5 -168.501 109.5s-62.5 134.167 -62.5 225.5c0 70 12.333 130.167 37 180.5
s59.167 88.833 103.5 115.5s95.5 40 153.5 40s109.167 -13.333 153.5 -40s78.666 -65.334 102.999 -116.001s36.5 -110.667 36.5 -180c0 -87.333 -18.833 -159.833 -56.5 -217.5s-89.167 -95.5 -154.5 -113.5c14 -22.667 34 -39.5 60 -50.5s54.667 -16.5 86 -16.5
c24.667 0 48.667 3.66699 72 11zM229 161.001c27.333 -40.667 64.666 -61 111.999 -61c46.667 0 83.834 20.333 111.501 61s41.5 96.667 41.5 168c0 67.333 -13.833 120.333 -41.5 159s-64.834 58 -111.501 58c-47.333 0 -84.666 -19.167 -111.999 -57.5
s-41 -91.5 -41 -159.5c0 -71.333 13.667 -127.333 41 -168z" />
    <glyph glyph-name="R" unicode="R" horiz-adv-x="606" 
d="M433 0l-130 242.001h-87v-242h-137v653h230c76 0 136.333 -15.5 181 -46.5s67 -82.167 67 -153.5c0 -46.667 -10.667 -85.834 -32 -117.501s-51 -55.167 -89 -70.5l151 -265h-154zM216 351.001h81.002c41.333 0 72.666 8.5 93.999 25.5s32 42.5 32 76.5
c0 32.667 -10.333 56 -31 70s-52.334 21 -95.001 21h-81v-193z" />
    <glyph glyph-name="S" unicode="S" horiz-adv-x="552" 
d="M147 12.5c-42 16.333 -78.999 39.832 -110.999 70.499l79 94c24 -21.333 50.5 -38.333 79.5 -51s57.167 -19 84.5 -19c32 0 56.5 6.16699 73.5 18.5s25.5 29.5 25.5 51.5c0 14 -3.83301 25.667 -11.5 35s-17.334 17 -29.001 23s-30.5 14.333 -56.5 25l-86 37
c-38.667 16 -70.334 38.5 -95.001 67.5s-37 65.5 -37 109.5c0 35.333 9.83301 67.5 29.5 96.5s46.834 52 81.501 69s73.667 25.5 117 25.5c38 0 75.333 -7.5 112 -22.5s68.334 -35.833 95.001 -62.5l-69 -87c-22.667 18 -45 31.333 -67 40s-45.667 13 -71 13
c-27.333 0 -49 -5.66699 -65 -17s-24 -27 -24 -47c0 -14 4.16699 -25.667 12.5 -35s18.666 -17 30.999 -23s31.5 -14.333 57.5 -25l84 -34c42 -17.333 74.333 -40.166 97 -68.499s34 -64.5 34 -108.5c0 -36.667 -9.66699 -70.167 -29 -100.5s-47.333 -54.5 -84 -72.5
s-79.667 -27 -129 -27c-44 0 -87 8.16699 -129 24.5z" />
    <glyph glyph-name="T" unicode="T" horiz-adv-x="553" 
d="M208 538h-182v115h502v-115h-183v-538h-137v538z" />
    <glyph glyph-name="U" unicode="U" horiz-adv-x="662" 
d="M141.5 63c-43.667 50 -65.5 128 -65.5 234v356h137v-369c0 -63.333 10 -108.666 30 -135.999s49.667 -41 89 -41c40 0 70.333 13.667 91 41s31 72.666 31 135.999v369h132v-356c0 -106 -21.5 -184 -64.5 -234s-106.167 -75 -189.5 -75s-146.833 25 -190.5 75z" />
    <glyph glyph-name="V" unicode="V" horiz-adv-x="550" 
d="M-6 653h145.001l83 -312c10 -36 19 -71 27 -105c21.333 -84 30.333 -119.333 27 -106h4c3.33301 12 14.666 55.667 33.999 131l20 80l82 312h140l-199 -653h-164z" />
    <glyph glyph-name="W" unicode="W" horiz-adv-x="809" 
d="M15 653h141l49 -313l28 -207h4l40 207l74 313h117l73 -313l23 -116l18 -91h4c12.667 98 22 167 28 207l49 313h131l-119 -653h-172l-69 312c-10.667 50 -19.667 100.333 -27 151h-4l-8 -46c-8 -46.667 -14.667 -81.667 -20 -105l-67 -312h-169z" />
    <glyph glyph-name="X" unicode="X" horiz-adv-x="559" 
d="M194 336l-170.999 316.999h153l62 -131c6 -12 16.333 -34 31 -66l17 -37h4c9.33301 26 23.333 60.333 42 103l58 131h146l-171 -323l182 -330h-153l-69 140c-12.667 24.667 -29.334 60.334 -50.001 107.001h-4l-46 -107l-67 -140h-146z" />
    <glyph glyph-name="Y" unicode="Y" horiz-adv-x="517" 
d="M190 236l-197.001 417h147l63 -156l54 -144h4c2.66699 6 5.33398 12.333 8.00098 19l9 22l40 103l63 156h143l-197 -417v-236h-137v236z" />
    <glyph glyph-name="Z" unicode="Z" horiz-adv-x="541" 
d="M37 83l298 455h-270v115h439v-83l-298 -455h300v-115h-469v83z" />
    <glyph glyph-name="bracketleft" unicode="[" horiz-adv-x="338" 
d="M88 708h206v-73h-104v-714h104v-73h-206v860z" />
    <glyph glyph-name="backslash" unicode="\" horiz-adv-x="341" 
d="M26 710h90l212 -870h-90z" />
    <glyph glyph-name="bracketright" unicode="]" horiz-adv-x="338" 
d="M44 -79h104v714h-104v73h206v-860h-206v73z" />
    <glyph glyph-name="asciicircum" unicode="^" 
d="M206 670h111l155 -394h-113l-49 136l-46 135h-4l-46 -135l-49 -136h-113z" />
    <glyph glyph-name="underscore" unicode="_" horiz-adv-x="500" 
d="M12 -60h476v-78h-476v78z" />
    <glyph glyph-name="grave" unicode="`" horiz-adv-x="553" 
d="M93 729l93 90l152 -179l-68 -67z" />
    <glyph glyph-name="a" unicode="a" horiz-adv-x="524" 
d="M84.5 30c-27 28 -40.502 63.333 -40.502 106c0 52.667 22.333 93.5 67 122.5s116.334 48.833 215.001 59.5c-2 53.333 -29.333 80 -82 80c-20.667 0 -41.667 -4 -63 -12s-44.666 -19.333 -69.999 -34l-49 90c70 43.333 139.333 65 208 65
c63.333 0 111.333 -18.5 144 -55.5s49 -92.167 49 -165.5v-286h-112l-10 52h-3c-49.333 -42.667 -98.333 -64 -147 -64c-44 0 -79.5 14 -106.5 42zM281.498 105.5c13.667 7.66699 28.499 19.167 44.499 34.5v95c-54 -7.33301 -92.667 -18.333 -116 -33s-35 -33 -35 -55
c0 -17.333 5.33301 -30.5 16 -39.5s25.667 -13.5 45 -13.5c16.667 0 31.834 3.83301 45.501 11.5z" />
    <glyph glyph-name="b" unicode="b" horiz-adv-x="570" 
d="M253.5 4.5c-22.333 11 -43.5 27.1689 -63.5 48.502h-4l-11 -53h-107v703h136v-175l-3 -78c20 17.333 41.5 31.166 64.5 41.499s46.167 15.5 69.5 15.5c60 0 107.5 -22.667 142.5 -68s52.5 -106.333 52.5 -183c0 -54.667 -9.66699 -102.334 -29 -143.001
s-45 -71.667 -77 -93s-66.333 -32 -103 -32c-22.667 0 -45.167 5.5 -67.5 16.5zM362 139.002c18.667 26 28 64.333 28 115c0 94 -31 141 -93 141c-30.667 0 -61.667 -16 -93 -48v-212c26 -23.333 54.667 -35 86 -35c29.333 0 53.333 13 72 39z" />
    <glyph glyph-name="c" unicode="c" horiz-adv-x="466" 
d="M156 19c-36.667 20.667 -65.502 50.501 -86.502 89.501s-31.5 85.167 -31.5 138.5s11.5 99.666 34.5 138.999s53.833 69.333 92.5 90s81 31 127 31c54 0 102.333 -18 145 -54l-65 -88c-12.667 10.667 -24.667 18.5 -36 23.5s-23.333 7.5 -36 7.5
c-36.667 0 -66.167 -13.5 -88.5 -40.5s-33.5 -63.167 -33.5 -108.5c0 -44.667 10.833 -80.5 32.5 -107.5s49.834 -40.5 84.501 -40.5c30 0 61.333 12.667 94 38l54 -89c-23.333 -20 -49.166 -35 -77.499 -45s-56.833 -15 -85.5 -15c-46 0 -87.333 10.333 -124 31z" />
    <glyph glyph-name="d" unicode="d" horiz-adv-x="570" 
d="M95.5 57c-36.333 46 -54.499 109.335 -54.499 190.002c0 52 9.66699 97.667 29 137s44.833 69.666 76.5 90.999s65.167 32 100.5 32c26 0 48.333 -4.33301 67 -13s37.667 -22 57 -40l-5 77v172h137v-703h-112l-10 51h-3c-18.667 -18.667 -39.834 -33.834 -63.501 -45.501
s-47.5 -17.5 -71.5 -17.5c-62 0 -111.167 23 -147.5 69zM325.001 111.502c14 7.66699 27.666 19.833 40.999 36.5v212c-25.333 23.333 -54.666 35 -87.999 35c-27.333 0 -50.333 -12.667 -69 -38s-28 -61.333 -28 -108c0 -49.333 8.33301 -86.5 25 -111.5
s40.667 -37.5 72 -37.5c17.333 0 33 3.83301 47 11.5z" />
    <glyph glyph-name="e" unicode="e" horiz-adv-x="514" 
d="M472 208l-305.999 0.00195312c6.66699 -39.333 22.834 -68.333 48.501 -87s55.5 -28 89.5 -28c35.333 0 72 11 110 33l45 -83c-24.667 -17.333 -52.167 -30.833 -82.5 -40.5s-60.5 -14.5 -90.5 -14.5c-46.667 0 -88.834 10.333 -126.501 31s-67.334 50.667 -89.001 90
s-32.5 85.333 -32.5 138c0 52 10.833 97.667 32.5 137s50.167 69.666 85.5 90.999s73 32 113 32c67.333 0 119 -21.833 155 -65.5s54 -100.834 54 -171.501c0 -25.333 -2 -46 -6 -62zM361.001 299.002c0 32 -7.33301 57.167 -22 75.5s-37 27.5 -67 27.5
c-24.667 0 -46.5 -8.5 -65.5 -25.5s-31.833 -42.833 -38.5 -77.5h193z" />
    <glyph glyph-name="f" unicode="f" horiz-adv-x="333" 
d="M228 532v-37h91v-108h-91v-387h-137v387h-66v102l66 5v35c0 56 14.167 101 42.5 135s72.833 51 133.5 51c34.667 0 66.667 -6 96 -18l-25 -101c-18 7.33301 -35.333 11 -52 11c-38.667 0 -58 -25 -58 -75z" />
    <glyph glyph-name="g" unicode="g" horiz-adv-x="530" 
d="M93.5 -181c-38.333 21.333 -57.499 52.667 -57.499 94s23.667 75.333 71 102v4c-30 19.333 -45 47.333 -45 84c0 17.333 5.16699 34.333 15.5 51s23.5 30.334 39.5 41.001v4c-19.333 13.333 -35.166 31.333 -47.499 54s-18.5 47.667 -18.5 75
c0 37.333 9.16699 69.5 27.5 96.5s42.833 47.5 73.5 61.5s64 21 100 21c25.333 0 50.666 -4 75.999 -12h179v-100h-83c6 -8 11 -18.5 15 -31.5s6 -26.167 6 -39.5c0 -54 -18 -95.333 -54 -124s-82.333 -43 -139 -43c-20.667 0 -41.334 3.33301 -62.001 10
c-6.66699 -6 -11.667 -11.833 -15 -17.5s-5 -13.167 -5 -22.5c0 -12.667 5.83301 -22.334 17.5 -29.001s31.167 -10 58.5 -10h83c61.333 0 107.666 -10 138.999 -30s47 -51.667 47 -95c0 -33.333 -11.167 -63.5 -33.5 -90.5s-54 -48 -95 -63s-88.833 -22.5 -143.5 -22.5
c-61.333 0 -111.166 10.667 -149.499 32zM305.501 263.001c13.667 15.333 20.5 37 20.5 65c0 27.333 -6.83301 48.5 -20.5 63.5s-31.5 22.5 -53.5 22.5s-39.667 -7.5 -53 -22.5s-20 -36.167 -20 -63.5s6.83301 -48.833 20.5 -64.5s31.167 -23.5 52.5 -23.5
c22 0 39.833 7.66699 53.5 23zM350.001 -107.499c22.667 13 33.999 28.833 33.999 47.5c0 16 -6.33301 27 -19 33s-32.667 9 -60 9h-57c-29.333 0 -52 2.33301 -68 7c-20.667 -16.667 -31 -34.667 -31 -54c0 -20 10.333 -35.333 31 -46s48.667 -16 84 -16
c34.667 0 63.334 6.5 86.001 19.5z" />
    <glyph glyph-name="h" unicode="h" horiz-adv-x="567" 
d="M68 703l135.998 -0.000976562v-175l-6 -92c23.333 22 47.333 39.333 72 52s52.334 19 83.001 19c52 0 90.5 -17.167 115.5 -51.5s37.5 -83.5 37.5 -147.5v-308h-137v291c0 36.667 -5.16699 62.334 -15.5 77.001s-27.166 22 -50.499 22c-18.667 0 -35 -4 -49 -12
s-30.667 -21.333 -50 -40v-338h-136v703z" />
    <glyph glyph-name="i" unicode="i" horiz-adv-x="272" 
d="M68 495h136v-495h-136v495zM80.5 592.5c-14.333 13.667 -21.5 31.167 -21.5 52.5s7.16699 38.833 21.5 52.5s32.833 20.5 55.5 20.5s41.167 -6.83301 55.5 -20.5s21.5 -31.167 21.5 -52.5s-7.16699 -38.833 -21.5 -52.5s-32.833 -20.5 -55.5 -20.5
s-41.167 6.83301 -55.5 20.5z" />
    <glyph glyph-name="j" unicode="j" horiz-adv-x="273" 
d="M82.5 592.5c-14.333 13.667 -21.5 31.167 -21.5 52.5s7.16699 38.833 21.5 52.5s32.833 20.5 55.5 20.5s41.167 -6.83301 55.5 -20.5s21.5 -31.167 21.5 -52.5s-7.16699 -38.833 -21.5 -52.5s-32.833 -20.5 -55.5 -20.5s-41.167 6.83301 -55.5 20.5zM75 495h136.998
l-2 -501c0 -58.667 -13.167 -105.667 -39.5 -141s-69.833 -53 -130.5 -53c-33.333 0 -61.666 4.66699 -84.999 14l24 101c16.667 -4.66699 30.334 -7 41.001 -7c20 0 34 6.5 42 19.5s12 33.833 12 62.5z" />
    <glyph glyph-name="k" unicode="k" horiz-adv-x="539" 
d="M68 703h133v-415h4l165 207h149l-172 -203l186 -292h-148l-116 200l-68 -77v-123h-133v703z" />
    <glyph glyph-name="l" unicode="l" horiz-adv-x="281" 
d="M98 29c-20 27.333 -30.001 66 -30.001 116v558h136v-564c0 -14 2.66699 -24.167 8 -30.5s11.333 -9.5 18 -9.5s12.667 0.666992 18 2l17 -102c-19.333 -7.33301 -42.666 -11 -69.999 -11c-44.667 0 -77 13.667 -97 41z" />
    <glyph glyph-name="m" unicode="m" horiz-adv-x="853" 
d="M68 495h110.999l10 -65h4c24 24.667 47.667 43.667 71 57s49.666 20 78.999 20c34.667 0 63 -7.16699 85 -21.5s39.333 -35.5 52 -63.5c25.333 26.667 50.333 47.5 75 62.5s51.667 22.5 81 22.5c52 0 90.667 -17.333 116 -52s38 -83.667 38 -147v-308h-136v291
c0 36 -5.16699 61.5 -15.5 76.5s-27.166 22.5 -50.499 22.5c-26.667 0 -57 -17.333 -91 -52v-338h-136v291c0 36 -5.16699 61.5 -15.5 76.5s-27.166 22.5 -50.499 22.5c-26.667 0 -57 -17.333 -91 -52v-338h-136v495z" />
    <glyph glyph-name="n" unicode="n" horiz-adv-x="568" 
d="M68 495l110.999 -0.000976562l10 -64h4c24 23.333 48.833 41.833 74.5 55.5s54.167 20.5 85.5 20.5c52 0 90.5 -17.167 115.5 -51.5s37.5 -83.5 37.5 -147.5v-308h-137v291c0 36.667 -5.16699 62.334 -15.5 77.001s-27.166 22 -50.499 22c-18.667 0 -35 -4 -49 -12
s-30.667 -21.333 -50 -40v-338h-136v495z" />
    <glyph glyph-name="o" unicode="o" horiz-adv-x="553" 
d="M158.5 19c-36.333 20.667 -65.5 50.6699 -87.5 90.0029s-33 85.333 -33 138c0 53.333 11 99.666 33 138.999s51.167 69.333 87.5 90s75.833 31 118.5 31c42 0 81.333 -10.333 118 -31s66 -50.834 88 -90.501s33 -85.834 33 -138.501s-11 -98.667 -33 -138
s-51.333 -69.333 -88 -90s-76 -31 -118 -31c-42.667 0 -82.167 10.333 -118.5 31zM350 138.503c17.333 26.333 26 62.5 26 108.5s-8.66699 82.333 -26 109s-41.666 40 -72.999 40c-32 0 -56.5 -13.333 -73.5 -40s-25.5 -63 -25.5 -109s8.5 -82.167 25.5 -108.5
s41.5 -39.5 73.5 -39.5c31.333 0 55.666 13.167 72.999 39.5z" />
    <glyph glyph-name="p" unicode="p" horiz-adv-x="570" 
d="M68 495l111 -0.000976562l10 -50h4c20.667 18.667 43.5 33.667 68.5 45s49.833 17 74.5 17c60 0 107.333 -22.667 142 -68s52 -106.666 52 -183.999c0 -54 -9.66699 -101.333 -29 -142s-45 -71.667 -77 -93s-66.333 -32 -103 -32c-42 0 -82.333 17.667 -121 53l4 -80
v-149h-136v683zM362 138.999c18.667 26 27.999 64.333 27.999 115c0 94 -31 141 -93 141c-30.667 0 -61.667 -16 -93 -48v-212c26.667 -23.333 55.334 -35 86.001 -35c29.333 0 53.333 13 72 39z" />
    <glyph glyph-name="q" unicode="q" horiz-adv-x="570" 
d="M366 -33l5.00098 78c-17.333 -17.333 -37.333 -31.166 -60 -41.499s-45.334 -15.5 -68.001 -15.5c-62 0 -111.167 23 -147.5 69s-54.5 109.333 -54.5 190c0 52 9.66699 97.667 29 137s44.833 69.666 76.5 90.999s65.167 32 100.5 32c26.667 0 50.667 -4.83301 72 -14.5
s42 -25.167 62 -46.5h3l12 49h107v-683h-137v155zM325.001 111.5c14 7.66699 27.666 19.833 40.999 36.5v212c-25.333 23.333 -54.666 35 -87.999 35c-27.333 0 -50.333 -12.667 -69 -38s-28 -61.333 -28 -108c0 -49.333 8.33301 -86.5 25 -111.5s40.667 -37.5 72 -37.5
c17.333 0 33 3.83301 47 11.5z" />
    <glyph glyph-name="r" unicode="r" horiz-adv-x="390" 
d="M68 495h111.001l10 -87h4c17.333 32 38.5 56.5 63.5 73.5s50.5 25.5 76.5 25.5c23.333 0 42.666 -3.33301 57.999 -10l-23 -118c-2 0.666992 -8 2.16699 -18 4.5s-21.333 3.5 -34 3.5c-21.333 0 -42 -7.66699 -62 -23s-36.667 -39.333 -50 -72v-292h-136v495z" />
    <glyph glyph-name="s" unicode="s" horiz-adv-x="439" 
d="M111.5 7c-34.333 12.667 -64.166 29.3359 -89.499 50.0029l62 86c23.333 -18 45.5 -31.333 66.5 -40s42.5 -13 64.5 -13c22.667 0 39.667 4.16699 51 12.5s17 20.166 17 35.499c0 10.667 -4.5 20 -13.5 28s-21.833 15.5 -38.5 22.5l-50 20.5
c-39.333 15.333 -71.5 34.166 -96.5 56.499s-37.5 51.833 -37.5 88.5c0 45.333 17 82.166 51 110.499s79 42.5 135 42.5c61.333 0 118.333 -20.667 171 -62l-61 -82c-39.333 28 -74.666 42 -105.999 42c-20.667 0 -36.167 -4 -46.5 -12s-15.5 -18.667 -15.5 -32
s6.66699 -24.166 20 -32.499s28.666 -15.5 45.999 -21.5s28.666 -10 33.999 -12c42 -15.333 75.167 -33.833 99.5 -55.5s36.5 -52.834 36.5 -93.501c0 -30 -7.83301 -56.833 -23.5 -80.5s-38.5 -42.5 -68.5 -56.5s-66 -21 -108 -21c-32 0 -65.167 6.33301 -99.5 19z" />
    <glyph glyph-name="t" unicode="t" horiz-adv-x="376" 
d="M127 37.5c-26.667 33 -40 79.167 -40 138.5v211h-69v102l76 6l16 132h113v-132h121v-108h-121v-210c0 -54 22 -81 66 -81c14 0 30.333 3.33301 49 10l22 -100c-36 -12 -71.667 -18 -107 -18c-57.333 0 -99.333 16.5 -126 49.5z" />
    <glyph glyph-name="u" unicode="u" horiz-adv-x="565" 
d="M100.5 39.5c-25 34.333 -37.5 83.5 -37.5 147.5v308h136v-291c0 -36 5.33301 -61.5 16 -76.5s27.667 -22.5 51 -22.5c19.333 0 35.833 4.5 49.5 13.5s28.834 24.167 45.501 45.5v331h136v-495h-111l-10 70h-4c-22.667 -26.667 -46.334 -47 -71.001 -61s-53 -21 -85 -21
c-52 0 -90.5 17.167 -115.5 51.5z" />
    <glyph glyph-name="v" unicode="v" horiz-adv-x="514" 
d="M12 495h138l69 -241l39 -151h4l40 151l69 241h131l-164 -495h-157z" />
    <glyph glyph-name="w" unicode="w" horiz-adv-x="767" 
d="M24 495l136 -0.00292969l52 -238c0.666992 -3.33301 5.66699 -34 15 -92c1.33301 -12 4 -30 8 -54h4c11.333 64.667 21.333 113.334 30 146.001l58 238h120l59 -238c10.667 -45.333 19.667 -87.333 27 -126l4 -20h4l12 71c1.33301 8 2.83301 18.333 4.5 31
s4.16699 27.334 7.5 44.001l51 238h127l-121 -495h-160l-50 209c-12.667 66 -21.667 114 -27 144h-4c-10.667 -63.333 -19.667 -111.666 -27 -144.999l-47 -208h-157z" />
    <glyph glyph-name="x" unicode="x" horiz-adv-x="503" 
d="M168 258l-144 237h146l48 -85c12 -24.667 26.333 -52.667 43 -84h4l20 49l15 35l38 85h142l-144 -253l153 -242h-146l-53 87l-20 37l-27 50h-4c-6.66699 -12.667 -20 -41.667 -40 -87l-43 -87h-142z" />
    <glyph glyph-name="y" unicode="y" horiz-adv-x="513" 
d="M47 -187l24.999 105c14 -4.66699 25.333 -7 34 -7c44 0 74 24 90 72l8 28l-192 484h138l75 -223c8 -23.333 17.333 -54.333 28 -93c4.66699 -18 9 -33.667 13 -47h4c8.66699 38 20.334 84.667 35.001 140l65 223h131l-174 -506c-24 -64 -51.667 -111 -83 -141
s-74 -45 -128 -45c-24 0 -47 3.33301 -69 10z" />
    <glyph glyph-name="z" unicode="z" horiz-adv-x="455" 
d="M37 73l216 314h-192v108h362v-73l-216 -314h223v-108h-393v73z" />
    <glyph glyph-name="braceleft" unicode="{" horiz-adv-x="338" 
d="M137.5 -121c-19.667 20.667 -29.5 57.332 -29.5 109.999c0 18.667 0.666992 37.167 2 55.5s2.33301 30.5 3 36.5c3.33301 28.667 5 56 5 82c0 20.667 -6.83301 38.167 -20.5 52.5s-35.5 21.833 -65.5 22.5v81c30 0.666992 51.833 8 65.5 22s20.5 31.333 20.5 52
c0 26 -1.66699 53.333 -5 82c-0.666992 6 -1.66699 18.167 -3 36.5s-2 36.833 -2 55.5c0 52.667 9.83301 89.334 29.5 110.001s51.834 31 96.501 31h60v-73h-20c-22 0 -36.833 -5 -44.5 -15s-11.5 -29.333 -11.5 -58c0 -17.333 0.666992 -43.333 2 -78
c2 -28 3 -57.333 3 -88c0 -36 -5.66699 -62.833 -17 -80.5s-29.666 -29.5 -54.999 -35.5v-4c25.333 -6 43.666 -17.833 54.999 -35.5s17 -44.167 17 -79.5c0 -31.333 -1 -61 -3 -89c-1.33301 -34.667 -2 -60.667 -2 -78c0 -28.667 3.83301 -48 11.5 -58s22.5 -15 44.5 -15
h20v-73h-60c-44.667 0 -76.834 10.333 -96.501 31z" />
    <glyph glyph-name="bar" unicode="|" horiz-adv-x="264" 
d="M87 750h90v-1000h-90v1000z" />
    <glyph glyph-name="braceright" unicode="}" horiz-adv-x="338" 
d="M44 -79l20 0.00195312c21.333 0 36 5 44 15s12 29.333 12 58c0 17.333 -0.666992 43.333 -2 78c-2 28 -3 57.667 -3 89c0 35.333 5.66699 61.833 17 79.5s29.666 29.5 54.999 35.5v4c-25.333 6 -43.666 17.833 -54.999 35.5s-17 44.5 -17 80.5c0 30.667 1 60 3 88
c1.33301 34.667 2 60.667 2 78c0 28.667 -4 48 -12 58s-22.667 15 -44 15h-20v73h60c44.667 0 76.834 -10.333 96.501 -31s29.5 -57.334 29.5 -110.001c0 -18.667 -0.666992 -37.167 -2 -55.5s-2.33301 -30.5 -3 -36.5c-3.33301 -28.667 -5 -56 -5 -82
c0 -20.667 6.83301 -38 20.5 -52s35.5 -21.333 65.5 -22v-81c-30 -0.666992 -51.833 -8.16699 -65.5 -22.5s-20.5 -31.833 -20.5 -52.5c0 -26 1.66699 -53.333 5 -82c0.666992 -6 1.66699 -18.167 3 -36.5s2 -36.833 2 -55.5c0 -52.667 -9.83301 -89.334 -29.5 -110.001
s-51.834 -31 -96.501 -31h-60v73z" />
    <glyph glyph-name="asciitilde" unicode="~" 
d="M294.5 254.5c-15 7.66699 -32.168 18.5 -51.501 32.5c-15.333 11.333 -27.833 19.666 -37.5 24.999s-20.167 8 -31.5 8c-26.667 0 -50.667 -19.333 -72 -58l-72 54c42.667 67.333 91.334 101 146.001 101c20 0 37.5 -3.83301 52.5 -11.5s32.167 -18.5 51.5 -32.5
c15.333 -11.333 27.833 -19.666 37.5 -24.999s20.167 -8 31.5 -8c26.667 0 51 19.333 73 58l71 -54c-43.333 -67.333 -92 -101 -146 -101c-20 0 -37.5 3.83301 -52.5 11.5z" />
    <glyph glyph-name="uni00A0" unicode="&#xa0;" horiz-adv-x="207" 
 />
    <glyph glyph-name="exclamdown" unicode="&#xa1;" horiz-adv-x="332" 
d="M106 356c-16 16.667 -24 37.667 -24 63s8 46.333 24 63s36 25 60 25s44 -8.33301 60 -25s24 -37.667 24 -63s-8 -46.333 -24 -63s-36 -25 -60 -25s-44 8.33301 -60 25zM102 -49l19 318h90l19 -318l5 -127h-137z" />
    <glyph glyph-name="cent" unicode="&#xa2;" 
d="M419 76.5c-23.333 -10.333 -46.667 -17.167 -70 -20.5v-96h-76v97c-65.333 8.66699 -117 34.834 -155 78.501s-57 101.167 -57 172.5c0 68 19.5 123.667 58.5 167s90.167 70.333 153.5 81v99h76v-95c50.667 -4 92.667 -22.667 126 -56l-63 -84
c-21.333 18 -42.333 28 -63 30v-284c25.333 3.33301 51.333 15.666 78 36.999l55 -86c-18.667 -16.667 -39.667 -30.167 -63 -40.5zM213.499 224.499c13.667 -23 33.5 -39.499 59.5 -49.499v265c-26 -10 -45.833 -26.333 -59.5 -49s-20.5 -50.334 -20.5 -83.001
s6.83301 -60.5 20.5 -83.5z" />
    <glyph glyph-name="sterling" unicode="&#xa3;" 
d="M228 115l261.998 -0.000976562v-115h-441v84c32 15.333 57.667 36.833 77 64.5s29 58.834 29 93.501c0 10.667 -1 21.334 -3 32.001h-99v80l67 5h9c-12 36 -18 65 -18 87c0 40.667 8.83301 76.334 26.5 107.001s42.334 54.167 74.001 70.5s67.834 24.5 108.501 24.5
c36 0 67.667 -6.83301 95 -20.5s52.333 -33.834 75 -60.501l-75 -74c-24 29.333 -51.333 44 -82 44c-28.667 0 -51 -8.33301 -67 -25s-24 -41 -24 -73c0 -20 4.33301 -46.667 13 -80h150v-85h-132c1.33301 -14.667 2 -25.667 2 -33c0 -25.333 -3.66699 -47.333 -11 -66
s-19.333 -37.334 -36 -56.001v-4z" />
    <glyph glyph-name="currency" unicode="&#xa4;" 
d="M21 156l61 62c-22.667 32.667 -34 70 -34 112c0 41.333 11.333 78.333 34 111l-61 62l69 69l69 -70c30.667 18 65 27 103 27c36.667 0 71 -9 103 -27l69 70l68 -69l-61 -62c22.667 -32.667 34 -69.667 34 -111c0 -42.667 -11.667 -80 -35 -112l62 -62l-68 -69l-70 70
c-30 -17.333 -64 -26 -102 -26c-38.667 0 -73 8.66699 -103 26l-69 -70zM327 255c17.333 19.333 26 44.333 26 75s-8.66699 55.667 -26 75s-39 29 -65 29s-47.833 -9.66699 -65.5 -29s-26.5 -44.333 -26.5 -75s8.83301 -55.667 26.5 -75s39.5 -29 65.5 -29
s47.667 9.66699 65 29z" />
    <glyph glyph-name="yen" unicode="&#xa5;" 
d="M193 149h-154v67h154v56h-154v67h124l-149 297h141l55 -139c16 -44 33 -88 51 -132h4l52 132l55 139h137l-149 -297h125v-67h-155v-56h155v-67h-155v-149h-137v149z" />
    <glyph glyph-name="brokenbar" unicode="&#xa6;" horiz-adv-x="264" 
d="M177 618v-440v-297h-90v457v280h90z" />
    <glyph glyph-name="section" unicode="&#xa7;" 
d="M403 152c16 -22.667 24 -48.6699 24 -78.0029c0 -46 -16.5 -83.333 -49.5 -112s-78.833 -43 -137.5 -43c-38 0 -74 7 -108 21s-61.667 34.667 -83 62l79 70c33.333 -34 70.666 -51 111.999 -51c20.667 0 36.5 4.16699 47.5 12.5s16.5 19.5 16.5 33.5
c0 15.333 -7.33301 28 -22 38s-38.667 22 -72 36c-36 16 -65.167 30.833 -87.5 44.5s-41.833 32.334 -58.5 56.001s-25 52.834 -25 87.501c0 25.333 7.16699 49.333 21.5 72s33.833 41.334 58.5 56.001c-19.333 23.333 -29 51 -29 83c0 44 15.5 79.833 46.5 107.5
s73.5 41.5 127.5 41.5c34 0 65.833 -6 95.5 -18s56.5 -27.333 80.5 -46l-63 -85c-38 32 -73.333 48 -106 48c-19.333 0 -33.833 -3.83301 -43.5 -11.5s-14.5 -18.167 -14.5 -31.5s7.33301 -25 22 -35s38.334 -22.333 71.001 -37c36.667 -16 67 -31.167 91 -45.5
s44.667 -33.333 62 -57s26 -52.5 26 -86.5c0 -55.333 -27.333 -99.333 -82 -132zM169 298.997c10 -11.333 22.168 -21.001 36.501 -29.001s35.166 -18 62.499 -30c21.333 -9.33301 42.333 -19.333 63 -30c13.333 7.33301 23 16 29 26s9 22.333 9 37
c0 22.667 -9.5 41 -28.5 55s-48.833 29.667 -89.5 47c-22.667 9.33301 -42 18.333 -58 27c-26 -16 -39 -37 -39 -63c0 -15.333 5 -28.666 15 -39.999z" />
    <glyph glyph-name="dieresis" unicode="&#xa8;" horiz-adv-x="553" 
d="M121 591.5c-12.667 13 -19 29.167 -19 48.5s6.33301 35.5 19 48.5s29 19.5 49 19.5s36.333 -6.5 49 -19.5s19 -29.167 19 -48.5s-6.33301 -35.5 -19 -48.5s-29 -19.5 -49 -19.5s-36.333 6.5 -49 19.5zM335 591.5c-12.667 13 -19 29.167 -19 48.5s6.33301 35.5 19 48.5
s29 19.5 49 19.5s36.333 -6.5 49 -19.5s19 -29.167 19 -48.5s-6.33301 -35.5 -19 -48.5s-29 -19.5 -49 -19.5s-36.333 6.5 -49 19.5z" />
    <glyph glyph-name="copyright" unicode="&#xa9;" horiz-adv-x="749" 
d="M210.5 32c-50.333 27.333 -90.333 66.333 -120 117s-44.5 109.334 -44.5 176.001s14.833 125 44.5 175s69.667 88.333 120 115s105.166 40 164.499 40s114 -13.5 164 -40.5s89.833 -65.5 119.5 -115.5s44.5 -108 44.5 -174c0 -66.667 -14.833 -125.334 -44.5 -176.001
s-69.5 -89.667 -119.5 -117s-104.667 -41 -164 -41s-114.166 13.667 -164.499 41zM509 83.5c40 23 71.667 55.5 95 97.5s35 90 35 144s-11.667 101.667 -35 143s-55 73.333 -95 96s-84.667 34 -134 34s-94 -11.333 -134 -34s-71.667 -54.667 -95 -96s-35 -89 -35 -143
s11.667 -102 35 -144s55 -74.5 95 -97.5s84.667 -34.5 134 -34.5s94 11.5 134 34.5zM287.5 151c-29 16 -51.667 38.833 -68 68.5s-24.5 64.5 -24.5 104.5c0 38 8.83301 71.5 26.5 100.5s41.167 51.5 70.5 67.5s60.666 24 93.999 24c28 0 52.333 -5.16699 73 -15.5
s40.334 -24.833 59.001 -43.5l-52 -58c-11.333 12 -22.666 21 -33.999 27s-23.666 9 -36.999 9c-31.333 0 -56 -10.5 -74 -31.5s-27 -47.5 -27 -79.5c0 -35.333 8.66699 -63.5 26 -84.5s40.666 -31.5 69.999 -31.5c16 0 30.167 3 42.5 9s26.166 15 41.499 27l44 -64
c-42 -35.333 -86 -53 -132 -53c-36.667 0 -69.5 8 -98.5 24z" />
    <glyph glyph-name="ordfeminine" unicode="&#xaa;" horiz-adv-x="357" 
d="M58.5 399.5c-18.333 19 -27.499 42.5 -27.499 70.5c0 35.333 15 62.5 45 81.5s77.667 31.5 143 37.5c-1.33301 16 -6 28.167 -14 36.5s-20.333 12.5 -37 12.5c-24.667 0 -55.334 -10.333 -92.001 -31l-34 64c49.333 29.333 97 44 143 44
c42.667 0 75.167 -12.333 97.5 -37s33.5 -61 33.5 -109v-190h-77l-9 34h-4c-29.333 -28 -61 -42 -95 -42c-30 0 -54.167 9.5 -72.5 28.5zM219.001 473l-0.000976562 59.999c-63.333 -7.33301 -95 -25.666 -95 -54.999c0 -22 13 -33 39 -33
c18.667 0 37.334 9.33301 56.001 28z" />
    <glyph glyph-name="guillemotleft" unicode="&#xab;" horiz-adv-x="472" 
d="M48 204v97l135 146l52 -42l-112 -153l112 -153l-52 -41zM232 204v97l135 146l52 -42l-112 -153l112 -153l-52 -41z" />
    <glyph glyph-name="logicalnot" unicode="&#xac;" 
d="M388 282h-354v97h455v-283h-101v186z" />
    <glyph glyph-name="uni00AD" unicode="&#xad;" horiz-adv-x="329" 
d="M43 302h243v-98h-243v98z" />
    <glyph glyph-name="registered" unicode="&#xae;" horiz-adv-x="456" 
d="M129 339c-30 17.333 -53.833 41.166 -71.5 71.499s-26.5 64.833 -26.5 103.5c0 38 8.83301 72.333 26.5 103s41.5 54.667 71.5 72s63 26 99 26s68.833 -8.66699 98.5 -26s53.334 -41.333 71.001 -72s26.5 -65 26.5 -103c0 -38.667 -8.83301 -73.167 -26.5 -103.5
s-41.334 -54.166 -71.001 -71.499s-62.5 -26 -98.5 -26s-69 8.66699 -99 26zM332 402.5c26.667 28.333 40 65.5 40 111.5s-13.333 83.167 -40 111.5s-61.334 42.5 -104.001 42.5s-77.5 -14.167 -104.5 -42.5s-40.5 -65.5 -40.5 -111.5s13.5 -83.167 40.5 -111.5
s61.833 -42.5 104.5 -42.5s77.334 14.167 104.001 42.5zM148 614h87c24 0 43.5 -5.5 58.5 -16.5s22.5 -27.167 22.5 -48.5c0 -12 -3 -22.833 -9 -32.5s-15 -17.167 -27 -22.5l43 -77h-58l-31 61h-31v-61h-55v197zM224 517c10.667 0 18.833 2.66699 24.5 8s8.5 12 8.5 20
s-2.66699 14.5 -8 19.5s-13.333 7.5 -24 7.5h-22v-55h21z" />
    <glyph glyph-name="macron" unicode="&#xaf;" horiz-adv-x="553" 
d="M131 681h292v-88h-292v88z" />
    <glyph glyph-name="degree" unicode="&#xb0;" horiz-adv-x="360" 
d="M109.5 421c-21.667 12 -38.834 28.833 -51.501 50.5s-19 45.834 -19 72.501c0 27.333 6.33301 51.666 19 72.999s29.834 38.166 51.501 50.499s45.5 18.5 71.5 18.5s49.667 -6.16699 71 -18.5s38.333 -29.166 51 -50.499s19 -45.666 19 -72.999
c0 -26.667 -6.33301 -50.834 -19 -72.501s-29.667 -38.5 -51 -50.5s-45 -18 -71 -18s-49.833 6 -71.5 18zM230 490.5c12.667 13.667 19 31.5 19 53.5c0 22.667 -6.33301 40.834 -19 54.501s-29 20.5 -49 20.5c-20.667 0 -37.334 -6.83301 -50.001 -20.5
s-19 -31.834 -19 -54.501c0 -22 6.33301 -39.833 19 -53.5s29.334 -20.5 50.001 -20.5c20 0 36.333 6.83301 49 20.5z" />
    <glyph glyph-name="plusminus" unicode="&#xb1;" 
d="M211 296h-177v97h177v172h101v-172h177v-97h-177v-143h-101v143zM34 97h455v-97h-455v97z" />
    <glyph glyph-name="acute" unicode="&#xb4;" horiz-adv-x="553" 
d="M216 640l152 179l93 -90l-177 -156z" />
    <glyph glyph-name="paragraph" unicode="&#xb6;" horiz-adv-x="624" 
d="M165 228c-38.667 17.333 -69.332 43.333 -91.999 78s-34 76.667 -34 126c0 78 23.167 134.333 69.5 169s107.5 52 183.5 52h44v-451h-40c-48.667 0 -92.334 8.66699 -131.001 26zM391.002 653h137v-733h-137v733z" />
    <glyph glyph-name="periodcentered" unicode="&#xb7;" horiz-adv-x="292" 
d="M86 258c-16 16.667 -24 37.667 -24 63s8 46.333 24 63s36 25 60 25s44 -8.33301 60 -25s24 -37.667 24 -63s-8 -46.333 -24 -63s-36 -25 -60 -25s-44 8.33301 -60 25z" />
    <glyph glyph-name="cedilla" unicode="&#xb8;" horiz-adv-x="553" 
d="M167 -181c38.667 2 65.5 6.33203 80.5 12.999s22.5 17.334 22.5 32.001c0 11.333 -5.5 20.333 -16.5 27s-30.833 12 -59.5 16l47 97h81l-28 -66c25.333 -6 44.333 -14.667 57 -26s19 -27.333 19 -48c0 -63.333 -64.333 -97 -193 -101z" />
    <glyph glyph-name="ordmasculine" unicode="&#xba;" horiz-adv-x="372" 
d="M106 391.5c-24.667 13.667 -44.334 33.5 -59.001 59.5s-22 56.333 -22 91c0 35.333 7.33301 66 22 92s34.334 46 59.001 60s51.334 21 80.001 21s55.167 -7 79.5 -21s43.833 -34 58.5 -60s22 -56.667 22 -92c0 -34.667 -7.33301 -65 -22 -91s-34.167 -45.833 -58.5 -59.5
s-50.833 -20.5 -79.5 -20.5s-55.334 6.83301 -80.001 20.5zM231.5 473c10.333 16.667 15.5 39.667 15.5 69c0 30 -5.16699 53.5 -15.5 70.5s-25.5 25.5 -45.5 25.5c-20.667 0 -36.167 -8.5 -46.5 -25.5s-15.5 -40.5 -15.5 -70.5c0 -29.333 5.16699 -52.333 15.5 -69
s25.833 -25 46.5 -25c20 0 35.167 8.33301 45.5 25z" />
    <glyph glyph-name="guillemotright" unicode="&#xbb;" horiz-adv-x="472" 
d="M54 99l112 153l-112 153l52 42l135 -146v-97l-135 -146zM238 99l112 153l-112 153l52 42l135 -146v-97l-135 -146z" />
    <glyph glyph-name="onequarter" unicode="&#xbc;" horiz-adv-x="835" 
d="M161 293v285h-88v62c25.333 4 45.5 9 60.5 15s31.5 15.333 49.5 28h80v-390h-102zM634 665l-354 -677h-80l354 677h80zM822 90h-58v-90h-89v90h-179v50l144 250h124v-234h58v-66zM675 156v46l5 116h-4l-41 -78l-45 -84h85z" />
    <glyph glyph-name="onehalf" unicode="&#xbd;" horiz-adv-x="840" 
d="M161 578h-88v62c25.333 4 45.5 9 60.5 15s31.5 15.333 49.5 28h80v-390h-102v285zM548 665h80l-354 -677h-80zM511 55c60 50 103.834 90 131.501 120s41.5 56.333 41.5 79c0 20.667 -5.33301 36.667 -16 48s-25.334 17 -44.001 17c-24.667 0 -49 -16.333 -73 -49l-57 53
c39.333 52.667 88 79 146 79c43.333 0 77.833 -11.5 103.5 -34.5s38.5 -55.167 38.5 -96.5c0 -29.333 -9 -57.333 -27 -84s-46 -60.667 -84 -102h126v-85h-286v55z" />
    <glyph glyph-name="threequarters" unicode="&#xbe;" horiz-adv-x="840" 
d="M290.5 314.5c-29 -22.333 -64.166 -33.502 -105.499 -33.502c-33.333 0 -63.5 6.83301 -90.5 20.5s-48.833 32.834 -65.5 57.501l61 48c24 -32.667 52.333 -49 85 -49c17.333 0 31.666 4.5 42.999 13.5s17 21.167 17 36.5c0 36 -32.333 54 -97 54v59
c26 0 46.333 4.5 61 13.5s22 21.833 22 38.5c0 14 -4.83301 25 -14.5 33s-22.167 12 -37.5 12c-22 0 -44.333 -13.667 -67 -41l-57 51c21.333 23.333 42.833 40.333 64.5 51s47.167 16 76.5 16c36.667 0 68.167 -9.83301 94.5 -29.5s39.5 -45.834 39.5 -78.501
c0 -39.333 -19.667 -69.666 -59 -90.999c22 -8.66699 39.667 -21 53 -37s20 -35.333 20 -58c0 -35.333 -14.5 -64.166 -43.5 -86.499zM646.001 664.998l-353 -677h-80l353 677h80zM827.001 89.998h-58v-90h-89v90h-179v50l144 250h124v-234h58v-66zM680.001 155.998v46
l5 116h-4l-41 -78l-45 -84h85z" />
    <glyph glyph-name="questiondown" unicode="&#xbf;" horiz-adv-x="457" 
d="M182 356c-16 16.667 -24 37.667 -24 63s8 46.333 24 63s36 25 60 25s44 -8.33301 60 -25s24 -37.667 24 -63s-8 -46.333 -24 -63s-36 -25 -60 -25s-44 8.33301 -60 25zM94.5 -144.5c-34.333 29 -51.5 71.1689 -51.5 126.502c0 27.333 6.16699 51.166 18.5 71.499
s30.5 43.833 54.5 70.5c22.667 26.667 39.667 49.167 51 67.5s17 39.5 17 63.5l-1 14h119c1.33301 -12 2 -21 2 -27c0 -30 -6.5 -56.333 -19.5 -79s-31.833 -48 -56.5 -76c-18.667 -21.333 -32.334 -38.833 -41.001 -52.5s-13 -28.167 -13 -43.5c0 -21.333 6.5 -38 19.5 -50
s30.5 -18 52.5 -18c18 0 34.5 4.16699 49.5 12.5s30.167 20.166 45.5 35.499l76 -69c-24.667 -28 -53 -50 -85 -66s-66.333 -24 -103 -24c-55.333 0 -100.166 14.5 -134.499 43.5z" />
    <glyph glyph-name="Agrave" unicode="&#xc0;" horiz-adv-x="568" 
d="M384 163h-205l-44 -163h-140l208 653h163l207 -653h-145zM356 269l-18 67l-36 138l-19 74h-4c-20 -86 -37.667 -156.667 -53 -212l-18 -67h148zM114 801l73 89l166 -138l-60 -69z" />
    <glyph glyph-name="Aacute" unicode="&#xc1;" horiz-adv-x="568" 
d="M384 163h-205l-44 -163h-140l208 653h163l207 -653h-145zM356 269l-18 67l-36 138l-19 74h-4c-20 -86 -37.667 -156.667 -53 -212l-18 -67h148zM209 752l166 138l73 -89l-179 -118z" />
    <glyph glyph-name="Acircumflex" unicode="&#xc2;" horiz-adv-x="568" 
d="M384 163h-205l-44 -163h-140l208 653h163l207 -653h-145zM356 269l-18 67l-36 138l-19 74h-4c-20 -86 -37.667 -156.667 -53 -212l-18 -67h148zM115 725l92 111h148l92 -111l-59 -37l-105 85h-4l-105 -85z" />
    <glyph glyph-name="Atilde" unicode="&#xc3;" horiz-adv-x="568" 
d="M384 163h-205l-44 -163h-140l208 653h163l207 -653h-145zM356 269l-18 67l-36 138l-19 74h-4c-20 -86 -37.667 -156.667 -53 -212l-18 -67h148zM304 705c-14 6.66699 -28.999 16.001 -44.999 28.001c-10.667 8 -19.334 13.667 -26.001 17s-13.334 5 -20.001 5
c-22 0 -34.667 -17.333 -38 -52l-89 7c2.66699 46.667 15 81.667 37 105s50.667 35 86 35c18.667 0 35.167 -3.33301 49.5 -10s29.166 -15.667 44.499 -27c10.667 -8 19.334 -13.667 26.001 -17s13.334 -5 20.001 -5c21.333 0 34 17 38 51l89 -6
c-2.66699 -46.667 -15 -81.834 -37 -105.501s-50.667 -35.5 -86 -35.5c-18.667 0 -35 3.33301 -49 10z" />
    <glyph glyph-name="Adieresis" unicode="&#xc4;" horiz-adv-x="568" 
d="M384 163h-205l-44 -163h-140l208 653h163l207 -653h-145zM356 269l-18 67l-36 138l-19 74h-4c-20 -86 -37.667 -156.667 -53 -212l-18 -67h148zM123.5 721.5c-12.333 12.333 -18.5 28.166 -18.5 47.499s6.16699 35.333 18.5 48s28.166 19 47.499 19
s35.333 -6.33301 48 -19s19 -28.667 19 -48s-6.33301 -35.166 -19 -47.499s-28.667 -18.5 -48 -18.5s-35.166 6.16699 -47.499 18.5zM343 721.5c-12.667 12.333 -19 28.166 -19 47.499s6.33301 35.333 19 48s28.667 19 48 19s35.166 -6.33301 47.499 -19
s18.5 -28.667 18.5 -48s-6.16699 -35.166 -18.5 -47.499s-28.166 -18.5 -47.499 -18.5s-35.333 6.16699 -48 18.5z" />
    <glyph glyph-name="Aring" unicode="&#xc5;" horiz-adv-x="568" 
d="M384 163h-205l-44 -163h-140l208 653h163l207 -653h-145zM356 269l-18 67l-36 138l-19 74h-4c-20 -86 -37.667 -156.667 -53 -212l-18 -67h148zM200.5 724c-20.333 18 -30.5 41.667 -30.5 71s10.167 52.833 30.5 70.5s47.166 26.5 80.499 26.5
c32.667 0 59.334 -8.83301 80.001 -26.5s31 -41.167 31 -70.5s-10.333 -53 -31 -71s-47.334 -27 -80.001 -27c-33.333 0 -60.166 9 -80.499 27zM312 761.5c8 8.33301 12 19.5 12 33.5c0 13.333 -4.16699 24.166 -12.5 32.499s-18.5 12.5 -30.5 12.5
s-22.333 -4.16699 -31 -12.5s-13 -19.166 -13 -32.499c0 -14 4.16699 -25.167 12.5 -33.5s18.833 -12.5 31.5 -12.5s23 4.16699 31 12.5z" />
    <glyph glyph-name="AE" unicode="&#xc6;" horiz-adv-x="842" 
d="M790 115v-115h-401v156h-182l-73 -156h-144l315 653h475v-115h-254v-143h214v-115h-214v-165h264zM389 262v287h-4l-33 -75l-51 -115l-45 -97h133z" />
    <glyph glyph-name="Ccedilla" unicode="&#xc7;" horiz-adv-x="580" 
d="M195.5 27c-45.667 26 -81.834 64.168 -108.501 114.501s-40 110.833 -40 181.5c0 70 13.667 130.833 41 182.5s64.333 91.167 111 118.5s97.667 41 153 41c39.333 0 75.5 -7.83301 108.5 -23.5s61.5 -35.834 85.5 -60.501l-73 -88c-18 17.333 -36.5 30.5 -55.5 39.5
s-39.833 13.5 -62.5 13.5c-32 0 -60.667 -8.83301 -86 -26.5s-45.166 -43 -59.499 -76s-21.5 -71.5 -21.5 -115.5c0 -68.667 14.833 -122.667 44.5 -162s69.834 -59 120.501 -59c50 0 93.667 21 131 63l73 -86c-54.667 -64 -124.334 -96 -209.001 -96
c-56 0 -106.833 13 -152.5 39z" />
    <glyph glyph-name="Egrave" unicode="&#xc8;" horiz-adv-x="545" 
d="M79 653h404v-115h-267v-143h227v-115h-227v-165h277v-115h-414v653zM121 801l73 89l166 -138l-60 -69z" />
    <glyph glyph-name="Eacute" unicode="&#xc9;" horiz-adv-x="545" 
d="M79 653h404v-115h-267v-143h227v-115h-227v-165h277v-115h-414v653zM216 752l166 138l73 -89l-179 -118z" />
    <glyph glyph-name="Ecircumflex" unicode="&#xca;" horiz-adv-x="545" 
d="M79 653h404v-115h-267v-143h227v-115h-227v-165h277v-115h-414v653zM122 725l92 111h148l92 -111l-59 -37l-105 85h-4l-105 -85z" />
    <glyph glyph-name="Edieresis" unicode="&#xcb;" horiz-adv-x="545" 
d="M79 653h404v-115h-267v-143h227v-115h-227v-165h277v-115h-414v653zM130.5 721.5c-12.333 12.333 -18.5 28.166 -18.5 47.499s6.16699 35.333 18.5 48s28.166 19 47.499 19s35.333 -6.33301 48 -19s19 -28.667 19 -48s-6.33301 -35.166 -19 -47.499
s-28.667 -18.5 -48 -18.5s-35.166 6.16699 -47.499 18.5zM350 721.5c-12.667 12.333 -19 28.166 -19 47.499s6.33301 35.333 19 48s28.667 19 48 19s35.166 -6.33301 47.499 -19s18.5 -28.667 18.5 -48s-6.16699 -35.166 -18.5 -47.499s-28.166 -18.5 -47.499 -18.5
s-35.333 6.16699 -48 18.5z" />
    <glyph glyph-name="Igrave" unicode="&#xcc;" horiz-adv-x="295" 
d="M79 653h137v-653h-137v653zM-19 801l73 89l166 -138l-60 -69z" />
    <glyph glyph-name="Iacute" unicode="&#xcd;" horiz-adv-x="295" 
d="M79 653h137v-653h-137v653zM76 752l166 138l73 -89l-179 -118z" />
    <glyph glyph-name="Icircumflex" unicode="&#xce;" horiz-adv-x="295" 
d="M79 653h137v-653h-137v653zM-18 725l92 111h148l92 -111l-59 -37l-105 85h-4l-105 -85z" />
    <glyph glyph-name="Idieresis" unicode="&#xcf;" horiz-adv-x="295" 
d="M79 653h137v-653h-137v653zM-9.5 721.5c-12.333 12.333 -18.5 28.166 -18.5 47.499s6.16699 35.333 18.5 48s28.166 19 47.499 19s35.333 -6.33301 48 -19s19 -28.667 19 -48s-6.33301 -35.166 -19 -47.499s-28.667 -18.5 -48 -18.5s-35.166 6.16699 -47.499 18.5z
M210 721.5c-12.667 12.333 -19 28.166 -19 47.499s6.33301 35.333 19 48s28.667 19 48 19s35.166 -6.33301 47.499 -19s18.5 -28.667 18.5 -48s-6.16699 -35.166 -18.5 -47.499s-28.166 -18.5 -47.499 -18.5s-35.333 6.16699 -48 18.5z" />
    <glyph glyph-name="Eth" unicode="&#xd0;" horiz-adv-x="656" 
d="M524.5 572c57 -54 85.5 -135 85.5 -243s-28.167 -189.833 -84.5 -245.5s-133.833 -83.5 -232.5 -83.5h-189v305h-76v62l76 5v281h181c102.667 0 182.5 -27 239.5 -81zM469 329c0 75.333 -16.5 129.667 -49.5 163s-80.5 50 -142.5 50h-36v-170h129v-67h-129v-194h36
c128 0 192 72.667 192 218z" />
    <glyph glyph-name="Ntilde" unicode="&#xd1;" horiz-adv-x="662" 
d="M79 653l141 0.000976562l181 -339l65 -142h4c-0.666992 11.333 -2.33398 29 -5.00098 53c-8 77.333 -12 137.333 -12 180v248h130v-653h-140l-181 339l-66 142h-4c0.666992 -8 2.33398 -23 5.00098 -45c3.33301 -30.667 6.33301 -62.834 9 -96.501s4 -63.5 4 -89.5v-250
h-131v653zM356 705.001c-14 6.66699 -28.999 16.001 -44.999 28.001c-10.667 8 -19.334 13.667 -26.001 17s-13.334 5 -20.001 5c-22 0 -34.667 -17.333 -38 -52l-89 7c2.66699 46.667 15 81.667 37 105s50.667 35 86 35c18.667 0 35.167 -3.33301 49.5 -10
s29.166 -15.667 44.499 -27c10.667 -8 19.334 -13.667 26.001 -17s13.334 -5 20.001 -5c21.333 0 34 17 38 51l89 -6c-2.66699 -46.667 -15 -81.834 -37 -105.501s-50.667 -35.5 -86 -35.5c-18.667 0 -35 3.33301 -49 10z" />
    <glyph glyph-name="Ograve" unicode="&#xd2;" horiz-adv-x="681" 
d="M187.5 29c-44.333 27.333 -78.833 66.834 -103.5 118.501s-37 112.167 -37 181.5c0 70 12.333 130.167 37 180.5s59.167 88.833 103.5 115.5s95.5 40 153.5 40s109.167 -13.333 153.5 -40s78.666 -65.334 102.999 -116.001s36.5 -110.667 36.5 -180
s-12.167 -129.833 -36.5 -181.5s-58.666 -91.167 -102.999 -118.5s-95.5 -41 -153.5 -41s-109.167 13.667 -153.5 41zM452.5 167.001c27.667 40 41.498 94 41.498 162c0 67.333 -13.833 120.333 -41.5 159s-64.834 58 -111.501 58c-47.333 0 -84.666 -19.167 -111.999 -57.5
s-41 -91.5 -41 -159.5s13.833 -122 41.5 -162s64.834 -60 111.501 -60s83.834 20 111.501 60zM173.998 801.001l73 89l166 -138l-60 -69z" />
    <glyph glyph-name="Oacute" unicode="&#xd3;" horiz-adv-x="681" 
d="M187.5 29c-44.333 27.333 -78.833 66.834 -103.5 118.501s-37 112.167 -37 181.5c0 70 12.333 130.167 37 180.5s59.167 88.833 103.5 115.5s95.5 40 153.5 40s109.167 -13.333 153.5 -40s78.666 -65.334 102.999 -116.001s36.5 -110.667 36.5 -180
s-12.167 -129.833 -36.5 -181.5s-58.666 -91.167 -102.999 -118.5s-95.5 -41 -153.5 -41s-109.167 13.667 -153.5 41zM452.5 167.001c27.667 40 41.498 94 41.498 162c0 67.333 -13.833 120.333 -41.5 159s-64.834 58 -111.501 58c-47.333 0 -84.666 -19.167 -111.999 -57.5
s-41 -91.5 -41 -159.5s13.833 -122 41.5 -162s64.834 -60 111.501 -60s83.834 20 111.501 60zM268.998 752.001l166 138l73 -89l-179 -118z" />
    <glyph glyph-name="Ocircumflex" unicode="&#xd4;" horiz-adv-x="681" 
d="M187.5 29c-44.333 27.333 -78.833 66.834 -103.5 118.501s-37 112.167 -37 181.5c0 70 12.333 130.167 37 180.5s59.167 88.833 103.5 115.5s95.5 40 153.5 40s109.167 -13.333 153.5 -40s78.666 -65.334 102.999 -116.001s36.5 -110.667 36.5 -180
s-12.167 -129.833 -36.5 -181.5s-58.666 -91.167 -102.999 -118.5s-95.5 -41 -153.5 -41s-109.167 13.667 -153.5 41zM452.5 167.001c27.667 40 41.498 94 41.498 162c0 67.333 -13.833 120.333 -41.5 159s-64.834 58 -111.501 58c-47.333 0 -84.666 -19.167 -111.999 -57.5
s-41 -91.5 -41 -159.5s13.833 -122 41.5 -162s64.834 -60 111.501 -60s83.834 20 111.501 60zM174.998 725.001l92 111h148l92 -111l-59 -37l-105 85h-4l-105 -85z" />
    <glyph glyph-name="Otilde" unicode="&#xd5;" horiz-adv-x="681" 
d="M187.5 29c-44.333 27.333 -78.833 66.834 -103.5 118.501s-37 112.167 -37 181.5c0 70 12.333 130.167 37 180.5s59.167 88.833 103.5 115.5s95.5 40 153.5 40s109.167 -13.333 153.5 -40s78.666 -65.334 102.999 -116.001s36.5 -110.667 36.5 -180
s-12.167 -129.833 -36.5 -181.5s-58.666 -91.167 -102.999 -118.5s-95.5 -41 -153.5 -41s-109.167 13.667 -153.5 41zM452.5 167.001c27.667 40 41.498 94 41.498 162c0 67.333 -13.833 120.333 -41.5 159s-64.834 58 -111.501 58c-47.333 0 -84.666 -19.167 -111.999 -57.5
s-41 -91.5 -41 -159.5s13.833 -122 41.5 -162s64.834 -60 111.501 -60s83.834 20 111.501 60zM363.998 705.001c-14 6.66699 -28.999 16.001 -44.999 28.001c-10.667 8 -19.334 13.667 -26.001 17s-13.334 5 -20.001 5c-22 0 -34.667 -17.333 -38 -52l-89 7
c2.66699 46.667 15 81.667 37 105s50.667 35 86 35c18.667 0 35.167 -3.33301 49.5 -10s29.166 -15.667 44.499 -27c10.667 -8 19.334 -13.667 26.001 -17s13.334 -5 20.001 -5c21.333 0 34 17 38 51l89 -6c-2.66699 -46.667 -15 -81.834 -37 -105.501
s-50.667 -35.5 -86 -35.5c-18.667 0 -35 3.33301 -49 10z" />
    <glyph glyph-name="Odieresis" unicode="&#xd6;" horiz-adv-x="681" 
d="M187.5 29c-44.333 27.333 -78.833 66.834 -103.5 118.501s-37 112.167 -37 181.5c0 70 12.333 130.167 37 180.5s59.167 88.833 103.5 115.5s95.5 40 153.5 40s109.167 -13.333 153.5 -40s78.666 -65.334 102.999 -116.001s36.5 -110.667 36.5 -180
s-12.167 -129.833 -36.5 -181.5s-58.666 -91.167 -102.999 -118.5s-95.5 -41 -153.5 -41s-109.167 13.667 -153.5 41zM452.5 167.001c27.667 40 41.498 94 41.498 162c0 67.333 -13.833 120.333 -41.5 159s-64.834 58 -111.501 58c-47.333 0 -84.666 -19.167 -111.999 -57.5
s-41 -91.5 -41 -159.5s13.833 -122 41.5 -162s64.834 -60 111.501 -60s83.834 20 111.501 60zM183.498 721.501c-12.333 12.333 -18.5 28.166 -18.5 47.499s6.16699 35.333 18.5 48s28.166 19 47.499 19s35.333 -6.33301 48 -19s19 -28.667 19 -48
s-6.33301 -35.166 -19 -47.499s-28.667 -18.5 -48 -18.5s-35.166 6.16699 -47.499 18.5zM402.998 721.501c-12.667 12.333 -19 28.166 -19 47.499s6.33301 35.333 19 48s28.667 19 48 19s35.166 -6.33301 47.499 -19s18.5 -28.667 18.5 -48s-6.16699 -35.166 -18.5 -47.499
s-28.166 -18.5 -47.499 -18.5s-35.333 6.16699 -48 18.5z" />
    <glyph glyph-name="multiply" unicode="&#xd7;" 
d="M48 183l145 146l-145 146l69 70l145 -147l144 147l69 -70l-145 -146l145 -146l-69 -69l-144 147l-145 -147z" />
    <glyph glyph-name="Oslash" unicode="&#xd8;" horiz-adv-x="681" 
d="M579 543c37.333 -57.333 56 -128.667 56 -214c0 -69.333 -12.167 -129.833 -36.5 -181.5s-58.666 -91.167 -102.999 -118.5s-95.5 -41 -153.5 -41c-64.667 0 -120.334 16.667 -167.001 50l-62 -78l-71 56l69 87c-42 60 -63 135.333 -63 226c0 70 12.333 130.167 37 180.5
s59.167 88.833 103.5 115.5s95.5 40 153.5 40c68 0 126.333 -18.333 175 -55l65 82l72 -55zM205 219.999l230.999 289c-26 24.667 -57.333 37 -94 37c-47.333 0 -84.666 -19.167 -111.999 -57.5s-41 -91.5 -41 -159.5c0 -42.667 5.33301 -79 16 -109zM482.999 422.999
l-227.001 -285c24 -20.667 52.667 -31 86 -31c46.667 0 83.834 20 111.501 60s41.5 94 41.5 162c0 36 -4 67.333 -12 94z" />
    <glyph glyph-name="Ugrave" unicode="&#xd9;" horiz-adv-x="662" 
d="M141.5 63c-43.667 50 -65.5 128 -65.5 234v356h137v-369c0 -63.333 10 -108.666 30 -135.999s49.667 -41 89 -41c40 0 70.333 13.667 91 41s31 72.666 31 135.999v369h132v-356c0 -106 -21.5 -184 -64.5 -234s-106.167 -75 -189.5 -75s-146.833 25 -190.5 75zM164 801
l73 89l166 -138l-60 -69z" />
    <glyph glyph-name="Uacute" unicode="&#xda;" horiz-adv-x="662" 
d="M141.5 63c-43.667 50 -65.5 128 -65.5 234v356h137v-369c0 -63.333 10 -108.666 30 -135.999s49.667 -41 89 -41c40 0 70.333 13.667 91 41s31 72.666 31 135.999v369h132v-356c0 -106 -21.5 -184 -64.5 -234s-106.167 -75 -189.5 -75s-146.833 25 -190.5 75zM259 752
l166 138l73 -89l-179 -118z" />
    <glyph glyph-name="Ucircumflex" unicode="&#xdb;" horiz-adv-x="662" 
d="M141.5 63c-43.667 50 -65.5 128 -65.5 234v356h137v-369c0 -63.333 10 -108.666 30 -135.999s49.667 -41 89 -41c40 0 70.333 13.667 91 41s31 72.666 31 135.999v369h132v-356c0 -106 -21.5 -184 -64.5 -234s-106.167 -75 -189.5 -75s-146.833 25 -190.5 75zM165 725
l92 111h148l92 -111l-59 -37l-105 85h-4l-105 -85z" />
    <glyph glyph-name="Udieresis" unicode="&#xdc;" horiz-adv-x="662" 
d="M141.5 63c-43.667 50 -65.5 128 -65.5 234v356h137v-369c0 -63.333 10 -108.666 30 -135.999s49.667 -41 89 -41c40 0 70.333 13.667 91 41s31 72.666 31 135.999v369h132v-356c0 -106 -21.5 -184 -64.5 -234s-106.167 -75 -189.5 -75s-146.833 25 -190.5 75z
M173.5 721.5c-12.333 12.333 -18.5 28.166 -18.5 47.499s6.16699 35.333 18.5 48s28.166 19 47.499 19s35.333 -6.33301 48 -19s19 -28.667 19 -48s-6.33301 -35.166 -19 -47.499s-28.667 -18.5 -48 -18.5s-35.166 6.16699 -47.499 18.5zM393 721.5
c-12.667 12.333 -19 28.166 -19 47.499s6.33301 35.333 19 48s28.667 19 48 19s35.166 -6.33301 47.499 -19s18.5 -28.667 18.5 -48s-6.16699 -35.166 -18.5 -47.499s-28.166 -18.5 -47.499 -18.5s-35.333 6.16699 -48 18.5z" />
    <glyph glyph-name="Yacute" unicode="&#xdd;" horiz-adv-x="517" 
d="M190 236l-197.001 417h147l63 -156l54 -144h4c2.66699 6 5.33398 12.333 8.00098 19l9 22l40 103l63 156h143l-197 -417v-236h-137v236zM186.999 752l166 138l73 -89l-179 -118z" />
    <glyph glyph-name="Thorn" unicode="&#xde;" horiz-adv-x="612" 
d="M79 653l137 -0.000976562v-101h95c77.333 0 138.833 -16.167 184.5 -48.5s68.5 -85.166 68.5 -158.499c0 -72 -23.667 -126.333 -71 -163s-108 -55 -182 -55h-95v-127h-137v653zM302 235.999c85.333 0 128 36.333 128 109c0 35.333 -10.5 60.5 -31.5 75.5
s-53.167 22.5 -96.5 22.5h-86v-207h86z" />
    <glyph glyph-name="germandbls" unicode="&#xdf;" horiz-adv-x="623" 
d="M338.5 -0.5c-23.667 7.66699 -47.5 19.168 -71.5 34.501l48 93c31.333 -24.667 63.333 -37 96 -37c18.667 0 33.334 5 44.001 15s16 22.667 16 38c0 16 -5.83301 29.167 -17.5 39.5s-30.5 22.833 -56.5 37.5c-22 12 -40 23.167 -54 33.5s-26 23.666 -36 39.999
s-15 35.833 -15 58.5c0 17.333 3 32.666 9 45.999s15.333 29.333 28 48c12 16.667 21 31.334 27 44.001s9 27.334 9 44.001c0 21.333 -5.83301 38.5 -17.5 51.5s-28.167 19.5 -49.5 19.5c-30.667 0 -54.167 -11.333 -70.5 -34s-24.5 -54.667 -24.5 -96v-475h-135v492
c0 66.667 19.667 120.167 59 160.5s96.666 60.5 171.999 60.5c42 0 77.833 -7.5 107.5 -22.5s52 -35 67 -60s22.5 -51.833 22.5 -80.5c0 -24.667 -4.16699 -45.334 -12.5 -62.001s-20.166 -35.334 -35.499 -56.001c-10.667 -12.667 -18.5 -23.667 -23.5 -33
s-7.5 -19.333 -7.5 -30c0 -13.333 5.16699 -24.333 15.5 -33s26.5 -19 48.5 -31c24 -13.333 43.5 -25.666 58.5 -36.999s28.167 -26.666 39.5 -45.999s17 -43.333 17 -72c0 -46.667 -15.833 -85.334 -47.5 -116.001s-75.834 -46 -132.501 -46
c-28 0 -53.833 3.83301 -77.5 11.5z" />
    <glyph glyph-name="agrave" unicode="&#xe0;" horiz-adv-x="524" 
d="M84.5 30c-27 28 -40.502 63.333 -40.502 106c0 52.667 22.333 93.5 67 122.5s116.334 48.833 215.001 59.5c-2 53.333 -29.333 80 -82 80c-20.667 0 -41.667 -4 -63 -12s-44.666 -19.333 -69.999 -34l-49 90c70 43.333 139.333 65 208 65
c63.333 0 111.333 -18.5 144 -55.5s49 -92.167 49 -165.5v-286h-112l-10 52h-3c-49.333 -42.667 -98.333 -64 -147 -64c-44 0 -79.5 14 -106.5 42zM281.498 105.5c13.667 7.66699 28.499 19.167 44.499 34.5v95c-54 -7.33301 -92.667 -18.333 -116 -33s-35 -33 -35 -55
c0 -17.333 5.33301 -30.5 16 -39.5s25.667 -13.5 45 -13.5c16.667 0 31.834 3.83301 45.501 11.5zM98.9971 729l93 90l152 -179l-68 -67z" />
    <glyph glyph-name="aacute" unicode="&#xe1;" horiz-adv-x="524" 
d="M84.5 30c-27 28 -40.502 63.333 -40.502 106c0 52.667 22.333 93.5 67 122.5s116.334 48.833 215.001 59.5c-2 53.333 -29.333 80 -82 80c-20.667 0 -41.667 -4 -63 -12s-44.666 -19.333 -69.999 -34l-49 90c70 43.333 139.333 65 208 65
c63.333 0 111.333 -18.5 144 -55.5s49 -92.167 49 -165.5v-286h-112l-10 52h-3c-49.333 -42.667 -98.333 -64 -147 -64c-44 0 -79.5 14 -106.5 42zM281.498 105.5c13.667 7.66699 28.499 19.167 44.499 34.5v95c-54 -7.33301 -92.667 -18.333 -116 -33s-35 -33 -35 -55
c0 -17.333 5.33301 -30.5 16 -39.5s25.667 -13.5 45 -13.5c16.667 0 31.834 3.83301 45.501 11.5zM221.997 640l152 179l93 -90l-177 -156z" />
    <glyph glyph-name="acircumflex" unicode="&#xe2;" horiz-adv-x="524" 
d="M84.5 30c-27 28 -40.502 63.333 -40.502 106c0 52.667 22.333 93.5 67 122.5s116.334 48.833 215.001 59.5c-2 53.333 -29.333 80 -82 80c-20.667 0 -41.667 -4 -63 -12s-44.666 -19.333 -69.999 -34l-49 90c70 43.333 139.333 65 208 65
c63.333 0 111.333 -18.5 144 -55.5s49 -92.167 49 -165.5v-286h-112l-10 52h-3c-49.333 -42.667 -98.333 -64 -147 -64c-44 0 -79.5 14 -106.5 42zM281.498 105.5c13.667 7.66699 28.499 19.167 44.499 34.5v95c-54 -7.33301 -92.667 -18.333 -116 -33s-35 -33 -35 -55
c0 -17.333 5.33301 -30.5 16 -39.5s25.667 -13.5 45 -13.5c16.667 0 31.834 3.83301 45.501 11.5zM103.997 611l109 133h140l109 -133l-53 -49l-124 96h-4l-124 -96z" />
    <glyph glyph-name="atilde" unicode="&#xe3;" horiz-adv-x="524" 
d="M84.5 30c-27 28 -40.502 63.333 -40.502 106c0 52.667 22.333 93.5 67 122.5s116.334 48.833 215.001 59.5c-2 53.333 -29.333 80 -82 80c-20.667 0 -41.667 -4 -63 -12s-44.666 -19.333 -69.999 -34l-49 90c70 43.333 139.333 65 208 65
c63.333 0 111.333 -18.5 144 -55.5s49 -92.167 49 -165.5v-286h-112l-10 52h-3c-49.333 -42.667 -98.333 -64 -147 -64c-44 0 -79.5 14 -106.5 42zM281.498 105.5c13.667 7.66699 28.499 19.167 44.499 34.5v95c-54 -7.33301 -92.667 -18.333 -116 -33s-35 -33 -35 -55
c0 -17.333 5.33301 -30.5 16 -39.5s25.667 -13.5 45 -13.5c16.667 0 31.834 3.83301 45.501 11.5zM305.997 584.5c-12.667 7 -27 17.167 -43 30.5c-10 8.66699 -18.333 15.167 -25 19.5s-13.334 6.5 -20.001 6.5c-21.333 0 -33.333 -19.667 -36 -59l-86 5
c0.666992 49.333 11.334 86.5 32.001 111.5s50 37.5 88 37.5c16.667 0 31.334 -3.5 44.001 -10.5s27 -17.167 43 -30.5c10 -8.66699 18.333 -15.167 25 -19.5s13.334 -6.5 20.001 -6.5c21.333 0 33.333 19.667 36 59l86 -5c-0.666992 -49.333 -11.334 -86.5 -32.001 -111.5
s-50 -37.5 -88 -37.5c-16.667 0 -31.334 3.5 -44.001 10.5z" />
    <glyph glyph-name="adieresis" unicode="&#xe4;" horiz-adv-x="524" 
d="M84.5 30c-27 28 -40.502 63.333 -40.502 106c0 52.667 22.333 93.5 67 122.5s116.334 48.833 215.001 59.5c-2 53.333 -29.333 80 -82 80c-20.667 0 -41.667 -4 -63 -12s-44.666 -19.333 -69.999 -34l-49 90c70 43.333 139.333 65 208 65
c63.333 0 111.333 -18.5 144 -55.5s49 -92.167 49 -165.5v-286h-112l-10 52h-3c-49.333 -42.667 -98.333 -64 -147 -64c-44 0 -79.5 14 -106.5 42zM281.498 105.5c13.667 7.66699 28.499 19.167 44.499 34.5v95c-54 -7.33301 -92.667 -18.333 -116 -33s-35 -33 -35 -55
c0 -17.333 5.33301 -30.5 16 -39.5s25.667 -13.5 45 -13.5c16.667 0 31.834 3.83301 45.501 11.5zM126.997 591.5c-12.667 13 -19 29.167 -19 48.5s6.33301 35.5 19 48.5s29 19.5 49 19.5s36.333 -6.5 49 -19.5s19 -29.167 19 -48.5s-6.33301 -35.5 -19 -48.5
s-29 -19.5 -49 -19.5s-36.333 6.5 -49 19.5zM340.997 591.5c-12.667 13 -19 29.167 -19 48.5s6.33301 35.5 19 48.5s29 19.5 49 19.5s36.333 -6.5 49 -19.5s19 -29.167 19 -48.5s-6.33301 -35.5 -19 -48.5s-29 -19.5 -49 -19.5s-36.333 6.5 -49 19.5z" />
    <glyph glyph-name="aring" unicode="&#xe5;" horiz-adv-x="524" 
d="M84.5 30c-27 28 -40.502 63.333 -40.502 106c0 52.667 22.333 93.5 67 122.5s116.334 48.833 215.001 59.5c-2 53.333 -29.333 80 -82 80c-20.667 0 -41.667 -4 -63 -12s-44.666 -19.333 -69.999 -34l-49 90c70 43.333 139.333 65 208 65
c63.333 0 111.333 -18.5 144 -55.5s49 -92.167 49 -165.5v-286h-112l-10 52h-3c-49.333 -42.667 -98.333 -64 -147 -64c-44 0 -79.5 14 -106.5 42zM281.498 105.5c13.667 7.66699 28.499 19.167 44.499 34.5v95c-54 -7.33301 -92.667 -18.333 -116 -33s-35 -33 -35 -55
c0 -17.333 5.33301 -30.5 16 -39.5s25.667 -13.5 45 -13.5c16.667 0 31.834 3.83301 45.501 11.5zM188.497 592c-22.333 19.333 -33.5 44 -33.5 74s11.167 54.667 33.5 74s53.833 29 94.5 29s72.167 -9.66699 94.5 -29s33.5 -44 33.5 -74s-11.167 -54.667 -33.5 -74
s-53.833 -29 -94.5 -29s-72.167 9.66699 -94.5 29zM315.497 629c9 9.33301 13.5 21.666 13.5 36.999c0 14.667 -4.5 26.834 -13.5 36.501s-19.833 14.5 -32.5 14.5s-23.5 -4.83301 -32.5 -14.5s-13.5 -21.834 -13.5 -36.501c0 -15.333 4.5 -27.666 13.5 -36.999
s19.833 -14 32.5 -14s23.5 4.66699 32.5 14z" />
    <glyph glyph-name="ae" unicode="&#xe6;" horiz-adv-x="786" 
d="M89.5 30c-27 28 -40.5049 63.334 -40.5049 106.001c0 52.667 22.167 93.5 66.5 122.5s115.166 48.833 212.499 59.5c-2 53.333 -28.667 80 -80 80c-20 0 -40.667 -4 -62 -12s-44.666 -19.333 -69.999 -34l-49 90c70 43.333 136.333 65 199 65
c31.333 0 58.666 -7 81.999 -21s42.333 -33.667 57 -59c42.667 53.333 92.334 80 149.001 80c62.667 0 110.834 -22.333 144.501 -67s50.5 -102.334 50.5 -173.001c0 -23.333 -2 -43 -6 -59h-290c4.66699 -36 18.334 -63.667 41.001 -83s50.334 -29 83.001 -29
c18 0 35.167 3 51.5 9s34.833 15 55.5 27l47 -89c-25.333 -17.333 -53.166 -30.833 -83.499 -40.5s-60.166 -14.5 -89.499 -14.5c-68 0 -124.667 26.667 -170 80c-34.667 -28 -67.167 -48.333 -97.5 -61s-61.833 -19 -94.5 -19c-44 0 -79.5 14 -106.5 42zM631.995 293.001
c0 34 -6.83398 60.667 -20.501 80s-34.5 29 -62.5 29c-25.333 0 -46.666 -9.33301 -63.999 -28s-28 -45.667 -32 -81h179zM293.494 106.501c17.667 8.33301 34.166 20.166 49.499 35.499c-8 20.667 -13 44.334 -15 71.001l-1 22
c-51.333 -7.33301 -88.666 -18.333 -111.999 -33s-35 -33 -35 -55c0 -17.333 5.33301 -30.5 16 -39.5s25.667 -13.5 45 -13.5c17.333 0 34.833 4.16699 52.5 12.5z" />
    <glyph glyph-name="ccedilla" unicode="&#xe7;" horiz-adv-x="466" 
d="M351 -88c12.667 -11.333 18.999 -27.333 18.999 -48c0 -63.333 -64.333 -97 -193 -101l-10 56c38.667 2 65.5 6.33301 80.5 13s22.5 17.334 22.5 32.001c0 11.333 -5.5 20.333 -16.5 27s-30.833 12 -59.5 16l41 85c-58.667 9.33301 -106.167 36.333 -142.5 81
s-54.5 102.667 -54.5 174c0 53.333 11.5 99.666 34.5 138.999s53.833 69.333 92.5 90s81 31 127 31c54 0 102.333 -18 145 -54l-65 -88c-12.667 10.667 -24.667 18.5 -36 23.5s-23.333 7.5 -36 7.5c-36.667 0 -66.167 -13.5 -88.5 -40.5s-33.5 -63.167 -33.5 -108.5
c0 -44.667 10.833 -80.5 32.5 -107.5s49.834 -40.5 84.501 -40.5c30 0 61.333 12.667 94 38l54 -89c-36 -31.333 -78.333 -50.333 -127 -57l-22 -53c25.333 -6 44.333 -14.667 57 -26z" />
    <glyph glyph-name="egrave" unicode="&#xe8;" horiz-adv-x="514" 
d="M472 208l-305.999 0.00195312c6.66699 -39.333 22.834 -68.333 48.501 -87s55.5 -28 89.5 -28c35.333 0 72 11 110 33l45 -83c-24.667 -17.333 -52.167 -30.833 -82.5 -40.5s-60.5 -14.5 -90.5 -14.5c-46.667 0 -88.834 10.333 -126.501 31s-67.334 50.667 -89.001 90
s-32.5 85.333 -32.5 138c0 52 10.833 97.667 32.5 137s50.167 69.666 85.5 90.999s73 32 113 32c67.333 0 119 -21.833 155 -65.5s54 -100.834 54 -171.501c0 -25.333 -2 -46 -6 -62zM361.001 299.002c0 32 -7.33301 57.167 -22 75.5s-37 27.5 -67 27.5
c-24.667 0 -46.5 -8.5 -65.5 -25.5s-31.833 -42.833 -38.5 -77.5h193zM91.001 729.002l93 90l152 -179l-68 -67z" />
    <glyph glyph-name="eacute" unicode="&#xe9;" horiz-adv-x="514" 
d="M472 208l-305.999 0.00195312c6.66699 -39.333 22.834 -68.333 48.501 -87s55.5 -28 89.5 -28c35.333 0 72 11 110 33l45 -83c-24.667 -17.333 -52.167 -30.833 -82.5 -40.5s-60.5 -14.5 -90.5 -14.5c-46.667 0 -88.834 10.333 -126.501 31s-67.334 50.667 -89.001 90
s-32.5 85.333 -32.5 138c0 52 10.833 97.667 32.5 137s50.167 69.666 85.5 90.999s73 32 113 32c67.333 0 119 -21.833 155 -65.5s54 -100.834 54 -171.501c0 -25.333 -2 -46 -6 -62zM361.001 299.002c0 32 -7.33301 57.167 -22 75.5s-37 27.5 -67 27.5
c-24.667 0 -46.5 -8.5 -65.5 -25.5s-31.833 -42.833 -38.5 -77.5h193zM214.001 640.002l152 179l93 -90l-177 -156z" />
    <glyph glyph-name="ecircumflex" unicode="&#xea;" horiz-adv-x="514" 
d="M472 208l-305.999 0.00195312c6.66699 -39.333 22.834 -68.333 48.501 -87s55.5 -28 89.5 -28c35.333 0 72 11 110 33l45 -83c-24.667 -17.333 -52.167 -30.833 -82.5 -40.5s-60.5 -14.5 -90.5 -14.5c-46.667 0 -88.834 10.333 -126.501 31s-67.334 50.667 -89.001 90
s-32.5 85.333 -32.5 138c0 52 10.833 97.667 32.5 137s50.167 69.666 85.5 90.999s73 32 113 32c67.333 0 119 -21.833 155 -65.5s54 -100.834 54 -171.501c0 -25.333 -2 -46 -6 -62zM361.001 299.002c0 32 -7.33301 57.167 -22 75.5s-37 27.5 -67 27.5
c-24.667 0 -46.5 -8.5 -65.5 -25.5s-31.833 -42.833 -38.5 -77.5h193zM96.001 611.002l109 133h140l109 -133l-53 -49l-124 96h-4l-124 -96z" />
    <glyph glyph-name="edieresis" unicode="&#xeb;" horiz-adv-x="514" 
d="M472 208l-305.999 0.00195312c6.66699 -39.333 22.834 -68.333 48.501 -87s55.5 -28 89.5 -28c35.333 0 72 11 110 33l45 -83c-24.667 -17.333 -52.167 -30.833 -82.5 -40.5s-60.5 -14.5 -90.5 -14.5c-46.667 0 -88.834 10.333 -126.501 31s-67.334 50.667 -89.001 90
s-32.5 85.333 -32.5 138c0 52 10.833 97.667 32.5 137s50.167 69.666 85.5 90.999s73 32 113 32c67.333 0 119 -21.833 155 -65.5s54 -100.834 54 -171.501c0 -25.333 -2 -46 -6 -62zM361.001 299.002c0 32 -7.33301 57.167 -22 75.5s-37 27.5 -67 27.5
c-24.667 0 -46.5 -8.5 -65.5 -25.5s-31.833 -42.833 -38.5 -77.5h193zM119.001 591.502c-12.667 13 -19 29.167 -19 48.5s6.33301 35.5 19 48.5s29 19.5 49 19.5s36.333 -6.5 49 -19.5s19 -29.167 19 -48.5s-6.33301 -35.5 -19 -48.5s-29 -19.5 -49 -19.5
s-36.333 6.5 -49 19.5zM333.001 591.502c-12.667 13 -19 29.167 -19 48.5s6.33301 35.5 19 48.5s29 19.5 49 19.5s36.333 -6.5 49 -19.5s19 -29.167 19 -48.5s-6.33301 -35.5 -19 -48.5s-29 -19.5 -49 -19.5s-36.333 6.5 -49 19.5z" />
    <glyph glyph-name="igrave" unicode="&#xec;" horiz-adv-x="272" 
d="M68 495h136v-495h-136v495zM-48 729l93 90l152 -179l-68 -67z" />
    <glyph glyph-name="iacute" unicode="&#xed;" horiz-adv-x="272" 
d="M68 495h136v-495h-136v495zM75 640l152 179l93 -90l-177 -156z" />
    <glyph glyph-name="icircumflex" unicode="&#xee;" horiz-adv-x="272" 
d="M68 495h136v-495h-136v495zM-43 611l109 133h140l109 -133l-53 -49l-124 96h-4l-124 -96z" />
    <glyph glyph-name="idieresis" unicode="&#xef;" horiz-adv-x="272" 
d="M68 495h136v-495h-136v495zM-20 591.5c-12.667 13 -19 29.167 -19 48.5s6.33301 35.5 19 48.5s29 19.5 49 19.5s36.333 -6.5 49 -19.5s19 -29.167 19 -48.5s-6.33301 -35.5 -19 -48.5s-29 -19.5 -49 -19.5s-36.333 6.5 -49 19.5zM194 591.5
c-12.667 13 -19 29.167 -19 48.5s6.33301 35.5 19 48.5s29 19.5 49 19.5s36.333 -6.5 49 -19.5s19 -29.167 19 -48.5s-6.33301 -35.5 -19 -48.5s-29 -19.5 -49 -19.5s-36.333 6.5 -49 19.5z" />
    <glyph glyph-name="eth" unicode="&#xf0;" horiz-adv-x="558" 
d="M506 265c0 -53.333 -9.5 -100.997 -28.5 -142.997s-46.167 -74.833 -81.5 -98.5s-76.666 -35.5 -123.999 -35.5c-40.667 0 -78.5 9.83301 -113.5 29.5s-62.833 47.667 -83.5 84s-31 78.166 -31 125.499c0 46 9.33301 86.167 28 120.5s43.667 60.666 75 78.999
s65 27.5 101 27.5c45.333 0 81.666 -15 108.999 -45c-18 55.333 -47.333 102.333 -88 141l-141 -71l-36 61l117 60c-22 15.333 -53 33.666 -93 54.999l60 84c54 -28 100 -56.667 138 -86l143 72l36 -62l-121 -61c89.333 -90.667 134 -203 134 -337zM351.5 139.503
c17.667 27 26.5 66.5 26.5 118.5c0 10.667 -0.666992 26 -2 46c-26.667 32 -60.334 48 -101.001 48c-32 0 -57.667 -10.833 -77 -32.5s-29 -52.5 -29 -92.5c0 -39.333 10.333 -70.5 31 -93.5s46.334 -34.5 77.001 -34.5c32 0 56.833 13.5 74.5 40.5z" />
    <glyph glyph-name="ntilde" unicode="&#xf1;" horiz-adv-x="568" 
d="M68 495l110.999 -0.000976562l10 -64h4c24 23.333 48.833 41.833 74.5 55.5s54.167 20.5 85.5 20.5c52 0 90.5 -17.167 115.5 -51.5s37.5 -83.5 37.5 -147.5v-308h-137v291c0 36.667 -5.16699 62.334 -15.5 77.001s-27.166 22 -50.499 22c-18.667 0 -35 -4 -49 -12
s-30.667 -21.333 -50 -40v-338h-136v495zM332.999 584.499c-12.667 7 -27 17.167 -43 30.5c-10 8.66699 -18.333 15.167 -25 19.5s-13.334 6.5 -20.001 6.5c-21.333 0 -33.333 -19.667 -36 -59l-86 5c0.666992 49.333 11.334 86.5 32.001 111.5s50 37.5 88 37.5
c16.667 0 31.334 -3.5 44.001 -10.5s27 -17.167 43 -30.5c10 -8.66699 18.333 -15.167 25 -19.5s13.334 -6.5 20.001 -6.5c21.333 0 33.333 19.667 36 59l86 -5c-0.666992 -49.333 -11.334 -86.5 -32.001 -111.5s-50 -37.5 -88 -37.5c-16.667 0 -31.334 3.5 -44.001 10.5z
" />
    <glyph glyph-name="ograve" unicode="&#xf2;" horiz-adv-x="553" 
d="M158.5 19c-36.333 20.667 -65.5 50.6699 -87.5 90.0029s-33 85.333 -33 138c0 53.333 11 99.666 33 138.999s51.167 69.333 87.5 90s75.833 31 118.5 31c42 0 81.333 -10.333 118 -31s66 -50.834 88 -90.501s33 -85.834 33 -138.501s-11 -98.667 -33 -138
s-51.333 -69.333 -88 -90s-76 -31 -118 -31c-42.667 0 -82.167 10.333 -118.5 31zM350 138.503c17.333 26.333 26 62.5 26 108.5s-8.66699 82.333 -26 109s-41.666 40 -72.999 40c-32 0 -56.5 -13.333 -73.5 -40s-25.5 -63 -25.5 -109s8.5 -82.167 25.5 -108.5
s41.5 -39.5 73.5 -39.5c31.333 0 55.666 13.167 72.999 39.5zM93 729.003l93 90l152 -179l-68 -67z" />
    <glyph glyph-name="oacute" unicode="&#xf3;" horiz-adv-x="553" 
d="M158.5 19c-36.333 20.667 -65.5 50.6699 -87.5 90.0029s-33 85.333 -33 138c0 53.333 11 99.666 33 138.999s51.167 69.333 87.5 90s75.833 31 118.5 31c42 0 81.333 -10.333 118 -31s66 -50.834 88 -90.501s33 -85.834 33 -138.501s-11 -98.667 -33 -138
s-51.333 -69.333 -88 -90s-76 -31 -118 -31c-42.667 0 -82.167 10.333 -118.5 31zM350 138.503c17.333 26.333 26 62.5 26 108.5s-8.66699 82.333 -26 109s-41.666 40 -72.999 40c-32 0 -56.5 -13.333 -73.5 -40s-25.5 -63 -25.5 -109s8.5 -82.167 25.5 -108.5
s41.5 -39.5 73.5 -39.5c31.333 0 55.666 13.167 72.999 39.5zM216 640.003l152 179l93 -90l-177 -156z" />
    <glyph glyph-name="ocircumflex" unicode="&#xf4;" horiz-adv-x="553" 
d="M158.5 19c-36.333 20.667 -65.5 50.6699 -87.5 90.0029s-33 85.333 -33 138c0 53.333 11 99.666 33 138.999s51.167 69.333 87.5 90s75.833 31 118.5 31c42 0 81.333 -10.333 118 -31s66 -50.834 88 -90.501s33 -85.834 33 -138.501s-11 -98.667 -33 -138
s-51.333 -69.333 -88 -90s-76 -31 -118 -31c-42.667 0 -82.167 10.333 -118.5 31zM350 138.503c17.333 26.333 26 62.5 26 108.5s-8.66699 82.333 -26 109s-41.666 40 -72.999 40c-32 0 -56.5 -13.333 -73.5 -40s-25.5 -63 -25.5 -109s8.5 -82.167 25.5 -108.5
s41.5 -39.5 73.5 -39.5c31.333 0 55.666 13.167 72.999 39.5zM98 611.003l109 133h140l109 -133l-53 -49l-124 96h-4l-124 -96z" />
    <glyph glyph-name="otilde" unicode="&#xf5;" horiz-adv-x="553" 
d="M158.5 19c-36.333 20.667 -65.5 50.6699 -87.5 90.0029s-33 85.333 -33 138c0 53.333 11 99.666 33 138.999s51.167 69.333 87.5 90s75.833 31 118.5 31c42 0 81.333 -10.333 118 -31s66 -50.834 88 -90.501s33 -85.834 33 -138.501s-11 -98.667 -33 -138
s-51.333 -69.333 -88 -90s-76 -31 -118 -31c-42.667 0 -82.167 10.333 -118.5 31zM350 138.503c17.333 26.333 26 62.5 26 108.5s-8.66699 82.333 -26 109s-41.666 40 -72.999 40c-32 0 -56.5 -13.333 -73.5 -40s-25.5 -63 -25.5 -109s8.5 -82.167 25.5 -108.5
s41.5 -39.5 73.5 -39.5c31.333 0 55.666 13.167 72.999 39.5zM300 584.503c-12.667 7 -27 17.167 -43 30.5c-10 8.66699 -18.333 15.167 -25 19.5s-13.334 6.5 -20.001 6.5c-21.333 0 -33.333 -19.667 -36 -59l-86 5c0.666992 49.333 11.334 86.5 32.001 111.5
s50 37.5 88 37.5c16.667 0 31.334 -3.5 44.001 -10.5s27 -17.167 43 -30.5c10 -8.66699 18.333 -15.167 25 -19.5s13.334 -6.5 20.001 -6.5c21.333 0 33.333 19.667 36 59l86 -5c-0.666992 -49.333 -11.334 -86.5 -32.001 -111.5s-50 -37.5 -88 -37.5
c-16.667 0 -31.334 3.5 -44.001 10.5z" />
    <glyph glyph-name="odieresis" unicode="&#xf6;" horiz-adv-x="553" 
d="M158.5 19c-36.333 20.667 -65.5 50.6699 -87.5 90.0029s-33 85.333 -33 138c0 53.333 11 99.666 33 138.999s51.167 69.333 87.5 90s75.833 31 118.5 31c42 0 81.333 -10.333 118 -31s66 -50.834 88 -90.501s33 -85.834 33 -138.501s-11 -98.667 -33 -138
s-51.333 -69.333 -88 -90s-76 -31 -118 -31c-42.667 0 -82.167 10.333 -118.5 31zM350 138.503c17.333 26.333 26 62.5 26 108.5s-8.66699 82.333 -26 109s-41.666 40 -72.999 40c-32 0 -56.5 -13.333 -73.5 -40s-25.5 -63 -25.5 -109s8.5 -82.167 25.5 -108.5
s41.5 -39.5 73.5 -39.5c31.333 0 55.666 13.167 72.999 39.5zM121 591.503c-12.667 13 -19 29.167 -19 48.5s6.33301 35.5 19 48.5s29 19.5 49 19.5s36.333 -6.5 49 -19.5s19 -29.167 19 -48.5s-6.33301 -35.5 -19 -48.5s-29 -19.5 -49 -19.5s-36.333 6.5 -49 19.5z
M335 591.503c-12.667 13 -19 29.167 -19 48.5s6.33301 35.5 19 48.5s29 19.5 49 19.5s36.333 -6.5 49 -19.5s19 -29.167 19 -48.5s-6.33301 -35.5 -19 -48.5s-29 -19.5 -49 -19.5s-36.333 6.5 -49 19.5z" />
    <glyph glyph-name="divide" unicode="&#xf7;" 
d="M207 457.5c-14.667 13.667 -22 31.167 -22 52.5s7.33301 38.833 22 52.5s33 20.5 55 20.5s40.333 -6.83301 55 -20.5s22 -31.167 22 -52.5s-7.33301 -38.833 -22 -52.5s-33 -20.5 -55 -20.5s-40.333 6.83301 -55 20.5zM34 379h455v-97h-455v97zM207 97.5
c-14.667 13.667 -22 31.167 -22 52.5s7.33301 38.833 22 52.5s33 20.5 55 20.5s40.333 -6.83301 55 -20.5s22 -31.167 22 -52.5s-7.33301 -38.833 -22 -52.5s-33 -20.5 -55 -20.5s-40.333 6.83301 -55 20.5z" />
    <glyph glyph-name="oslash" unicode="&#xf8;" horiz-adv-x="553" 
d="M516 247c0 -52.667 -10.999 -98.666 -32.999 -137.999s-51.333 -69.333 -88 -90s-76 -31 -118 -31c-50.667 0 -95.667 14 -135 42l-44 -55l-52 41l48 59c-37.333 46 -56 103.333 -56 172c0 53.333 11 99.666 33 138.999s51.167 69.333 87.5 90s75.833 31 118.5 31
c49.333 0 93.666 -13.667 132.999 -41l45 55l52 -41l-48 -59c38 -46.667 57 -104.667 57 -174zM179.001 180.001l160.001 198c-16.667 15.333 -37.334 23 -62.001 23c-32.667 0 -58.667 -13.333 -78 -40s-29 -62 -29 -106c0 -28.667 3 -53.667 9 -75zM354.002 134.501
c19.333 27 29.001 62.167 29.001 105.5c0 30 -3 55.333 -9 76l-161 -199c17.333 -15.333 38.666 -23 63.999 -23c32 0 57.667 13.5 77 40.5z" />
    <glyph glyph-name="ugrave" unicode="&#xf9;" horiz-adv-x="565" 
d="M100.5 39.5c-25 34.333 -37.5 83.5 -37.5 147.5v308h136v-291c0 -36 5.33301 -61.5 16 -76.5s27.667 -22.5 51 -22.5c19.333 0 35.833 4.5 49.5 13.5s28.834 24.167 45.501 45.5v331h136v-495h-111l-10 70h-4c-22.667 -26.667 -46.334 -47 -71.001 -61s-53 -21 -85 -21
c-52 0 -90.5 17.167 -115.5 51.5zM107 729l93 90l152 -179l-68 -67z" />
    <glyph glyph-name="uacute" unicode="&#xfa;" horiz-adv-x="565" 
d="M100.5 39.5c-25 34.333 -37.5 83.5 -37.5 147.5v308h136v-291c0 -36 5.33301 -61.5 16 -76.5s27.667 -22.5 51 -22.5c19.333 0 35.833 4.5 49.5 13.5s28.834 24.167 45.501 45.5v331h136v-495h-111l-10 70h-4c-22.667 -26.667 -46.334 -47 -71.001 -61s-53 -21 -85 -21
c-52 0 -90.5 17.167 -115.5 51.5zM230 640l152 179l93 -90l-177 -156z" />
    <glyph glyph-name="ucircumflex" unicode="&#xfb;" horiz-adv-x="565" 
d="M100.5 39.5c-25 34.333 -37.5 83.5 -37.5 147.5v308h136v-291c0 -36 5.33301 -61.5 16 -76.5s27.667 -22.5 51 -22.5c19.333 0 35.833 4.5 49.5 13.5s28.834 24.167 45.501 45.5v331h136v-495h-111l-10 70h-4c-22.667 -26.667 -46.334 -47 -71.001 -61s-53 -21 -85 -21
c-52 0 -90.5 17.167 -115.5 51.5zM112 611l109 133h140l109 -133l-53 -49l-124 96h-4l-124 -96z" />
    <glyph glyph-name="udieresis" unicode="&#xfc;" horiz-adv-x="565" 
d="M100.5 39.5c-25 34.333 -37.5 83.5 -37.5 147.5v308h136v-291c0 -36 5.33301 -61.5 16 -76.5s27.667 -22.5 51 -22.5c19.333 0 35.833 4.5 49.5 13.5s28.834 24.167 45.501 45.5v331h136v-495h-111l-10 70h-4c-22.667 -26.667 -46.334 -47 -71.001 -61s-53 -21 -85 -21
c-52 0 -90.5 17.167 -115.5 51.5zM135 591.5c-12.667 13 -19 29.167 -19 48.5s6.33301 35.5 19 48.5s29 19.5 49 19.5s36.333 -6.5 49 -19.5s19 -29.167 19 -48.5s-6.33301 -35.5 -19 -48.5s-29 -19.5 -49 -19.5s-36.333 6.5 -49 19.5zM349 591.5
c-12.667 13 -19 29.167 -19 48.5s6.33301 35.5 19 48.5s29 19.5 49 19.5s36.333 -6.5 49 -19.5s19 -29.167 19 -48.5s-6.33301 -35.5 -19 -48.5s-29 -19.5 -49 -19.5s-36.333 6.5 -49 19.5z" />
    <glyph glyph-name="yacute" unicode="&#xfd;" horiz-adv-x="513" 
d="M47 -187l24.999 105c14 -4.66699 25.333 -7 34 -7c44 0 74 24 90 72l8 28l-192 484h138l75 -223c8 -23.333 17.333 -54.333 28 -93c4.66699 -18 9 -33.667 13 -47h4c8.66699 38 20.334 84.667 35.001 140l65 223h131l-174 -506c-24 -64 -51.667 -111 -83 -141
s-74 -45 -128 -45c-24 0 -47 3.33301 -69 10zM204.999 640l152 179l93 -90l-177 -156z" />
    <glyph glyph-name="thorn" unicode="&#xfe;" horiz-adv-x="570" 
d="M68 703l136 0.000976562v-176l-3 -72c18.667 16 39 28.667 61 38s44.333 14 67 14c62 0 111 -22.833 147 -68.5s54 -106.834 54 -183.501c0 -54 -9.66699 -101.333 -29 -142s-45 -71.667 -77 -93s-66.333 -32 -103 -32c-22.667 0 -43.5 4 -62.5 12s-38.167 20 -57.5 36
l3 -75v-149h-136v891zM362 139.001c18.667 26 27.999 64.333 27.999 115c0 94 -31 141 -93 141c-30.667 0 -61.667 -16 -93 -48v-212c26.667 -23.333 55.334 -35 86.001 -35c29.333 0 53.333 13 72 39z" />
    <glyph glyph-name="ydieresis" unicode="&#xff;" horiz-adv-x="513" 
d="M47 -187l24.999 105c14 -4.66699 25.333 -7 34 -7c44 0 74 24 90 72l8 28l-192 484h138l75 -223c8 -23.333 17.333 -54.333 28 -93c4.66699 -18 9 -33.667 13 -47h4c8.66699 38 20.334 84.667 35.001 140l65 223h131l-174 -506c-24 -64 -51.667 -111 -83 -141
s-74 -45 -128 -45c-24 0 -47 3.33301 -69 10zM109.999 591.5c-12.667 13 -19 29.167 -19 48.5s6.33301 35.5 19 48.5s29 19.5 49 19.5s36.333 -6.5 49 -19.5s19 -29.167 19 -48.5s-6.33301 -35.5 -19 -48.5s-29 -19.5 -49 -19.5s-36.333 6.5 -49 19.5zM323.999 591.5
c-12.667 13 -19 29.167 -19 48.5s6.33301 35.5 19 48.5s29 19.5 49 19.5s36.333 -6.5 49 -19.5s19 -29.167 19 -48.5s-6.33301 -35.5 -19 -48.5s-29 -19.5 -49 -19.5s-36.333 6.5 -49 19.5z" />
    <glyph glyph-name="Amacron" unicode="&#x100;" horiz-adv-x="568" 
d="M384 163h-205l-44 -163h-140l208 653h163l207 -653h-145zM356 269l-18 67l-36 138l-19 74h-4c-20 -86 -37.667 -156.667 -53 -212l-18 -67h148zM132 812h298v-88h-298v88z" />
    <glyph glyph-name="amacron" unicode="&#x101;" horiz-adv-x="524" 
d="M84.5 30c-27 28 -40.502 63.333 -40.502 106c0 52.667 22.333 93.5 67 122.5s116.334 48.833 215.001 59.5c-2 53.333 -29.333 80 -82 80c-20.667 0 -41.667 -4 -63 -12s-44.666 -19.333 -69.999 -34l-49 90c70 43.333 139.333 65 208 65
c63.333 0 111.333 -18.5 144 -55.5s49 -92.167 49 -165.5v-286h-112l-10 52h-3c-49.333 -42.667 -98.333 -64 -147 -64c-44 0 -79.5 14 -106.5 42zM281.498 105.5c13.667 7.66699 28.499 19.167 44.499 34.5v95c-54 -7.33301 -92.667 -18.333 -116 -33s-35 -33 -35 -55
c0 -17.333 5.33301 -30.5 16 -39.5s25.667 -13.5 45 -13.5c16.667 0 31.834 3.83301 45.501 11.5zM136.997 681h292v-88h-292v88z" />
    <glyph glyph-name="Abreve" unicode="&#x102;" horiz-adv-x="568" 
d="M384 163h-205l-44 -163h-140l208 653h163l207 -653h-145zM356 269l-18 67l-36 138l-19 74h-4c-20 -86 -37.667 -156.667 -53 -212l-18 -67h148zM168 734c-26.667 23.333 -42.665 56.666 -47.998 99.999l76 13c4 -21.333 13.333 -38 28 -50s33.667 -18 57 -18
s42.333 6 57 18s24 28.667 28 50l76 -13c-5.33301 -43.333 -21.333 -76.666 -48 -99.999s-64.334 -35 -113.001 -35s-86.334 11.667 -113.001 35z" />
    <glyph glyph-name="abreve" unicode="&#x103;" horiz-adv-x="524" 
d="M84.5 30c-27 28 -40.502 63.333 -40.502 106c0 52.667 22.333 93.5 67 122.5s116.334 48.833 215.001 59.5c-2 53.333 -29.333 80 -82 80c-20.667 0 -41.667 -4 -63 -12s-44.666 -19.333 -69.999 -34l-49 90c70 43.333 139.333 65 208 65
c63.333 0 111.333 -18.5 144 -55.5s49 -92.167 49 -165.5v-286h-112l-10 52h-3c-49.333 -42.667 -98.333 -64 -147 -64c-44 0 -79.5 14 -106.5 42zM281.498 105.5c13.667 7.66699 28.499 19.167 44.499 34.5v95c-54 -7.33301 -92.667 -18.333 -116 -33s-35 -33 -35 -55
c0 -17.333 5.33301 -30.5 16 -39.5s25.667 -13.5 45 -13.5c16.667 0 31.834 3.83301 45.501 11.5zM159.997 615.5c-28 29 -42.667 66.5 -44 112.5l78 13c4 -24 13.333 -43.833 28 -59.5s35 -23.5 61 -23.5s46.333 7.83301 61 23.5s24 35.5 28 59.5l78 -13
c-1.33301 -46 -16 -83.5 -44 -112.5s-69 -43.5 -123 -43.5s-95 14.5 -123 43.5z" />
    <glyph glyph-name="Ccaron" unicode="&#x10c;" horiz-adv-x="580" 
d="M195.5 27c-45.667 26 -81.834 64.168 -108.501 114.501s-40 110.833 -40 181.5c0 70 13.667 130.833 41 182.5s64.333 91.167 111 118.5s97.667 41 153 41c39.333 0 75.5 -7.83301 108.5 -23.5s61.5 -35.834 85.5 -60.501l-73 -88c-18 17.333 -36.5 30.5 -55.5 39.5
s-39.833 13.5 -62.5 13.5c-32 0 -60.667 -8.83301 -86 -26.5s-45.166 -43 -59.499 -76s-21.5 -71.5 -21.5 -115.5c0 -68.667 14.833 -122.667 44.5 -162s69.834 -59 120.501 -59c50 0 93.667 21 131 63l73 -86c-54.667 -64 -124.334 -96 -209.001 -96
c-56 0 -106.833 13 -152.5 39zM175 814.001l59 37l105 -85h4l105 85l59 -37l-92 -111h-148z" />
    <glyph glyph-name="ccaron" unicode="&#x10d;" horiz-adv-x="466" 
d="M156 19c-36.667 20.667 -65.502 50.501 -86.502 89.501s-31.5 85.167 -31.5 138.5s11.5 99.666 34.5 138.999s53.833 69.333 92.5 90s81 31 127 31c54 0 102.333 -18 145 -54l-65 -88c-12.667 10.667 -24.667 18.5 -36 23.5s-23.333 7.5 -36 7.5
c-36.667 0 -66.167 -13.5 -88.5 -40.5s-33.5 -63.167 -33.5 -108.5c0 -44.667 10.833 -80.5 32.5 -107.5s49.834 -40.5 84.501 -40.5c30 0 61.333 12.667 94 38l54 -89c-23.333 -20 -49.166 -35 -77.499 -45s-56.833 -15 -85.5 -15c-46 0 -87.333 10.333 -124 31z
M97.998 709.001l53 49l124 -95h4l124 95l53 -49l-109 -132h-140z" />
    <glyph glyph-name="Emacron" unicode="&#x112;" horiz-adv-x="545" 
d="M79 653h404v-115h-267v-143h227v-115h-227v-165h277v-115h-414v653zM139 812h298v-88h-298v88z" />
    <glyph glyph-name="emacron" unicode="&#x113;" horiz-adv-x="514" 
d="M472 208l-305.999 0.00195312c6.66699 -39.333 22.834 -68.333 48.501 -87s55.5 -28 89.5 -28c35.333 0 72 11 110 33l45 -83c-24.667 -17.333 -52.167 -30.833 -82.5 -40.5s-60.5 -14.5 -90.5 -14.5c-46.667 0 -88.834 10.333 -126.501 31s-67.334 50.667 -89.001 90
s-32.5 85.333 -32.5 138c0 52 10.833 97.667 32.5 137s50.167 69.666 85.5 90.999s73 32 113 32c67.333 0 119 -21.833 155 -65.5s54 -100.834 54 -171.501c0 -25.333 -2 -46 -6 -62zM361.001 299.002c0 32 -7.33301 57.167 -22 75.5s-37 27.5 -67 27.5
c-24.667 0 -46.5 -8.5 -65.5 -25.5s-31.833 -42.833 -38.5 -77.5h193zM129.001 681.002h292v-88h-292v88z" />
    <glyph glyph-name="Ebreve" unicode="&#x114;" horiz-adv-x="545" 
d="M79 653h404v-115h-267v-143h227v-115h-227v-165h277v-115h-414v653zM175 734c-26.667 23.333 -42.665 56.666 -47.998 99.999l76 13c4 -21.333 13.333 -38 28 -50s33.667 -18 57 -18s42.333 6 57 18s24 28.667 28 50l76 -13
c-5.33301 -43.333 -21.333 -76.666 -48 -99.999s-64.334 -35 -113.001 -35s-86.334 11.667 -113.001 35z" />
    <glyph glyph-name="ebreve" unicode="&#x115;" horiz-adv-x="514" 
d="M472 208l-305.999 0.00195312c6.66699 -39.333 22.834 -68.333 48.501 -87s55.5 -28 89.5 -28c35.333 0 72 11 110 33l45 -83c-24.667 -17.333 -52.167 -30.833 -82.5 -40.5s-60.5 -14.5 -90.5 -14.5c-46.667 0 -88.834 10.333 -126.501 31s-67.334 50.667 -89.001 90
s-32.5 85.333 -32.5 138c0 52 10.833 97.667 32.5 137s50.167 69.666 85.5 90.999s73 32 113 32c67.333 0 119 -21.833 155 -65.5s54 -100.834 54 -171.501c0 -25.333 -2 -46 -6 -62zM361.001 299.002c0 32 -7.33301 57.167 -22 75.5s-37 27.5 -67 27.5
c-24.667 0 -46.5 -8.5 -65.5 -25.5s-31.833 -42.833 -38.5 -77.5h193zM152.001 615.502c-28 29 -42.667 66.5 -44 112.5l78 13c4 -24 13.333 -43.833 28 -59.5s35 -23.5 61 -23.5s46.333 7.83301 61 23.5s24 35.5 28 59.5l78 -13c-1.33301 -46 -16 -83.5 -44 -112.5
s-69 -43.5 -123 -43.5s-95 14.5 -123 43.5z" />
    <glyph glyph-name="Eogonek" unicode="&#x118;" horiz-adv-x="545" 
d="M332 -197c-21.333 16.667 -32 39.6699 -32 69.0029c0 27.333 7.83301 52.166 23.5 74.499s33.834 40.166 54.501 53.499h-299v653h404v-115h-267v-143h227v-115h-227v-165h277v-115h-5c-22.667 -1.33301 -42.834 -11.333 -60.501 -30s-26.5 -39.667 -26.5 -63
c0 -12.667 4.16699 -22.334 12.5 -29.001s18.5 -10 30.5 -10c10.667 0 22.667 4.66699 36 14l32 -70c-12 -9.33301 -27.5 -17.333 -46.5 -24s-36.833 -10 -53.5 -10c-32 0 -58.667 8.33301 -80 25z" />
    <glyph glyph-name="eogonek" unicode="&#x119;" horiz-adv-x="514" 
d="M288.5 -186.5c-19 15.667 -28.498 38.1699 -28.498 67.5029c0 22 5.5 42.5 16.5 61.5s24.167 35.5 39.5 49.5c-8.66699 -2.66699 -18.667 -4 -30 -4c-46.667 0 -88.834 10.333 -126.501 31s-67.334 50.667 -89.001 90s-32.5 85.333 -32.5 138
c0 52 10.833 97.667 32.5 137s50.167 69.666 85.5 90.999s73 32 113 32c67.333 0 119 -21.833 155 -65.5s54 -100.834 54 -171.501c0 -25.333 -2 -46 -6 -62h-302c6 -37.333 20.833 -65.833 44.5 -85.5s53.5 -29.5 89.5 -29.5c35.333 0 72 11 110 33l45 -83
c-42 -29.333 -70.5 -53.5 -85.5 -72.5s-22.5 -38.833 -22.5 -59.5c0 -12.667 4.16699 -22.334 12.5 -29.001s18.5 -10 30.5 -10c11.333 0 23.333 4.33301 36 13l29 -62c-11.333 -10 -26.5 -18 -45.5 -24s-36.167 -9 -51.5 -9c-30 0 -54.5 7.83301 -73.5 23.5z
M361.002 299.003c0 32 -7.33301 57.167 -22 75.5s-37 27.5 -67 27.5c-26 0 -48.5 -9 -67.5 -27s-30.833 -43.333 -35.5 -76h192z" />
    <glyph glyph-name="Gdotaccent" unicode="&#x120;" horiz-adv-x="635" 
d="M200.5 27c-47.667 26 -85.167 64.167 -112.5 114.5s-41 110.833 -41 181.5c0 70 14 130.833 42 182.5s65.833 91.167 113.5 118.5s100.834 41 159.501 41c79.333 0 147 -28 203 -84l-72 -88c-18.667 17.333 -37.834 30.5 -57.501 39.5s-42.5 13.5 -68.5 13.5
c-54 0 -97.333 -19.5 -130 -58.5s-49 -92.167 -49 -159.5c0 -70.667 16 -125.167 48 -163.5s79 -57.5 141 -57.5c14.667 0 29 2 43 6s25.333 9.33301 34 16v122h-113v112h235v-296c-24 -23.333 -54.667 -42.333 -92 -57s-77.666 -22 -120.999 -22
c-60.667 0 -114.834 13 -162.501 39zM307 724c-15.333 14 -23 31.667 -23 53s7.66699 38.833 23 52.5s34.666 20.5 57.999 20.5s42.666 -6.83301 57.999 -20.5s23 -31.167 23 -52.5s-7.66699 -39 -23 -53s-34.666 -21 -57.999 -21s-42.666 7 -57.999 21z" />
    <glyph glyph-name="gdotaccent" unicode="&#x121;" horiz-adv-x="530" 
d="M93.5 -181c-38.333 21.333 -57.499 52.667 -57.499 94s23.667 75.333 71 102v4c-30 19.333 -45 47.333 -45 84c0 17.333 5.16699 34.333 15.5 51s23.5 30.334 39.5 41.001v4c-19.333 13.333 -35.166 31.333 -47.499 54s-18.5 47.667 -18.5 75
c0 37.333 9.16699 69.5 27.5 96.5s42.833 47.5 73.5 61.5s64 21 100 21c25.333 0 50.666 -4 75.999 -12h179v-100h-83c6 -8 11 -18.5 15 -31.5s6 -26.167 6 -39.5c0 -54 -18 -95.333 -54 -124s-82.333 -43 -139 -43c-20.667 0 -41.334 3.33301 -62.001 10
c-6.66699 -6 -11.667 -11.833 -15 -17.5s-5 -13.167 -5 -22.5c0 -12.667 5.83301 -22.334 17.5 -29.001s31.167 -10 58.5 -10h83c61.333 0 107.666 -10 138.999 -30s47 -51.667 47 -95c0 -33.333 -11.167 -63.5 -33.5 -90.5s-54 -48 -95 -63s-88.833 -22.5 -143.5 -22.5
c-61.333 0 -111.166 10.667 -149.499 32zM305.501 263.001c13.667 15.333 20.5 37 20.5 65c0 27.333 -6.83301 48.5 -20.5 63.5s-31.5 22.5 -53.5 22.5s-39.667 -7.5 -53 -22.5s-20 -36.167 -20 -63.5s6.83301 -48.833 20.5 -64.5s31.167 -23.5 52.5 -23.5
c22 0 39.833 7.66699 53.5 23zM350.001 -107.499c22.667 13 33.999 28.833 33.999 47.5c0 16 -6.33301 27 -19 33s-32.667 9 -60 9h-57c-29.333 0 -52 2.33301 -68 7c-20.667 -16.667 -31 -34.667 -31 -54c0 -20 10.333 -35.333 31 -46s48.667 -16 84 -16
c34.667 0 63.334 6.5 86.001 19.5zM216.5 592.501c-14.333 13.667 -21.5 31.167 -21.5 52.5s7.16699 38.833 21.5 52.5s32.833 20.5 55.5 20.5s41.167 -6.83301 55.5 -20.5s21.5 -31.167 21.5 -52.5s-7.16699 -38.833 -21.5 -52.5s-32.833 -20.5 -55.5 -20.5
s-41.167 6.83301 -55.5 20.5z" />
    <glyph glyph-name="Hbar" unicode="&#x126;" horiz-adv-x="708" 
d="M682 487h-71v-487h-137v278h-238v-278h-137v487h-73v62l73 5v99h137v-99h238v99h137v-99h71v-67zM474 487h-238v-89h238v89z" />
    <glyph glyph-name="hbar" unicode="&#x127;" horiz-adv-x="567" 
d="M468.5 408.5c25 -34.333 37.498 -83.501 37.498 -147.501v-261h-137v244c0 36.667 -5.16699 62.334 -15.5 77.001s-27.166 22 -50.499 22c-18.667 0 -35 -4 -49 -12s-30.667 -21.333 -50 -40v-291h-136v559h-70v61l70 5v78h136v-77h171v-67h-171v-78l-6 -92
c23.333 22 47.333 39.333 72 52s52.334 19 83.001 19c52 0 90.5 -17.167 115.5 -51.5z" />
    <glyph glyph-name="Imacron" unicode="&#x12a;" horiz-adv-x="295" 
d="M79 653h137v-653h-137v653zM-1 812h298v-88h-298v88z" />
    <glyph glyph-name="imacron" unicode="&#x12b;" horiz-adv-x="272" 
d="M68 495h136v-495h-136v495zM-10 681h292v-88h-292v88z" />
    <glyph glyph-name="dotlessi" unicode="&#x131;" horiz-adv-x="272" 
d="M68 495h136v-495h-136v495z" />
    <glyph glyph-name="Lslash" unicode="&#x141;" horiz-adv-x="519" 
d="M485 115v-115h-399v215l-59 -35l-48 82l107 60v331h137v-269l160 89l47 -83l-207 -112v-163h262z" />
    <glyph glyph-name="lslash" unicode="&#x142;" horiz-adv-x="296" 
d="M257 101l16.999 -102c-19.333 -7.33301 -42.666 -11 -69.999 -11c-44.667 0 -77 13.667 -97 41s-30 66 -30 116v141l-47 -29l-48 85l95 54v307h136v-240l49 29l47 -85l-96 -55v-213c0 -14 2.66699 -24.167 8 -30.5s11.333 -9.5 18 -9.5s12.667 0.666992 18 2z" />
    <glyph glyph-name="Omacron" unicode="&#x14c;" horiz-adv-x="681" 
d="M187.5 29c-44.333 27.333 -78.833 66.834 -103.5 118.501s-37 112.167 -37 181.5c0 70 12.333 130.167 37 180.5s59.167 88.833 103.5 115.5s95.5 40 153.5 40s109.167 -13.333 153.5 -40s78.666 -65.334 102.999 -116.001s36.5 -110.667 36.5 -180
s-12.167 -129.833 -36.5 -181.5s-58.666 -91.167 -102.999 -118.5s-95.5 -41 -153.5 -41s-109.167 13.667 -153.5 41zM452.5 167.001c27.667 40 41.498 94 41.498 162c0 67.333 -13.833 120.333 -41.5 159s-64.834 58 -111.501 58c-47.333 0 -84.666 -19.167 -111.999 -57.5
s-41 -91.5 -41 -159.5s13.833 -122 41.5 -162s64.834 -60 111.501 -60s83.834 20 111.501 60zM191.998 812.001h298v-88h-298v88z" />
    <glyph glyph-name="omacron" unicode="&#x14d;" horiz-adv-x="553" 
d="M158.5 19c-36.333 20.667 -65.5 50.6699 -87.5 90.0029s-33 85.333 -33 138c0 53.333 11 99.666 33 138.999s51.167 69.333 87.5 90s75.833 31 118.5 31c42 0 81.333 -10.333 118 -31s66 -50.834 88 -90.501s33 -85.834 33 -138.501s-11 -98.667 -33 -138
s-51.333 -69.333 -88 -90s-76 -31 -118 -31c-42.667 0 -82.167 10.333 -118.5 31zM350 138.503c17.333 26.333 26 62.5 26 108.5s-8.66699 82.333 -26 109s-41.666 40 -72.999 40c-32 0 -56.5 -13.333 -73.5 -40s-25.5 -63 -25.5 -109s8.5 -82.167 25.5 -108.5
s41.5 -39.5 73.5 -39.5c31.333 0 55.666 13.167 72.999 39.5zM131 681.003h292v-88h-292v88z" />
    <glyph glyph-name="Obreve" unicode="&#x14e;" horiz-adv-x="681" 
d="M187.5 29c-44.333 27.333 -78.833 66.834 -103.5 118.501s-37 112.167 -37 181.5c0 70 12.333 130.167 37 180.5s59.167 88.833 103.5 115.5s95.5 40 153.5 40s109.167 -13.333 153.5 -40s78.666 -65.334 102.999 -116.001s36.5 -110.667 36.5 -180
s-12.167 -129.833 -36.5 -181.5s-58.666 -91.167 -102.999 -118.5s-95.5 -41 -153.5 -41s-109.167 13.667 -153.5 41zM452.5 167.001c27.667 40 41.498 94 41.498 162c0 67.333 -13.833 120.333 -41.5 159s-64.834 58 -111.501 58c-47.333 0 -84.666 -19.167 -111.999 -57.5
s-41 -91.5 -41 -159.5s13.833 -122 41.5 -162s64.834 -60 111.501 -60s83.834 20 111.501 60zM227.998 734.001c-26.667 23.333 -42.665 56.666 -47.998 99.999l76 13c4 -21.333 13.333 -38 28 -50s33.667 -18 57 -18s42.333 6 57 18s24 28.667 28 50l76 -13
c-5.33301 -43.333 -21.333 -76.666 -48 -99.999s-64.334 -35 -113.001 -35s-86.334 11.667 -113.001 35z" />
    <glyph glyph-name="obreve" unicode="&#x14f;" horiz-adv-x="553" 
d="M158.5 19c-36.333 20.667 -65.5 50.6699 -87.5 90.0029s-33 85.333 -33 138c0 53.333 11 99.666 33 138.999s51.167 69.333 87.5 90s75.833 31 118.5 31c42 0 81.333 -10.333 118 -31s66 -50.834 88 -90.501s33 -85.834 33 -138.501s-11 -98.667 -33 -138
s-51.333 -69.333 -88 -90s-76 -31 -118 -31c-42.667 0 -82.167 10.333 -118.5 31zM350 138.503c17.333 26.333 26 62.5 26 108.5s-8.66699 82.333 -26 109s-41.666 40 -72.999 40c-32 0 -56.5 -13.333 -73.5 -40s-25.5 -63 -25.5 -109s8.5 -82.167 25.5 -108.5
s41.5 -39.5 73.5 -39.5c31.333 0 55.666 13.167 72.999 39.5zM154 615.503c-28 29 -42.667 66.5 -44 112.5l78 13c4 -24 13.333 -43.833 28 -59.5s35 -23.5 61 -23.5s46.333 7.83301 61 23.5s24 35.5 28 59.5l78 -13c-1.33301 -46 -16 -83.5 -44 -112.5
s-69 -43.5 -123 -43.5s-95 14.5 -123 43.5z" />
    <glyph glyph-name="OE" unicode="&#x152;" horiz-adv-x="867" 
d="M203.5 37c-49 24.667 -87.333 61.6689 -115 111.002s-41.5 109.666 -41.5 180.999c0 107.333 30 188.166 90 242.499s141 81.5 243 81.5h425v-115h-252v-143h212v-115h-212v-165h262v-115h-443c-63.333 -0 -119.5 12.333 -168.5 37zM416 111.002v431h-28
c-64 0 -113.333 -16.5 -148 -49.5s-52 -87.5 -52 -163.5c0 -145.333 66.667 -218 200 -218h28z" />
    <glyph glyph-name="oe" unicode="&#x153;" horiz-adv-x="825" 
d="M151.5 19c-35 20.667 -62.6719 50.502 -83.0049 89.502s-30.5 85.167 -30.5 138.5s10.5 99.666 31.5 138.999s49.167 69.333 84.5 90s74 31 116 31c34.667 0 65.834 -8.16699 93.501 -24.5s50.834 -39.166 69.501 -68.499c20 29.333 43.833 52.166 71.5 68.499
s56.834 24.5 87.501 24.5c62.667 0 111.167 -22.333 145.5 -67s51.5 -102.334 51.5 -173.001c0 -23.333 -2 -43 -6 -59h-292c4.66699 -36 18.334 -63.667 41.001 -83s50.334 -29 83.001 -29c18 0 35.5 3 52.5 9s35.5 15 55.5 27l47 -89
c-24.667 -17.333 -52.167 -30.833 -82.5 -40.5s-60.5 -14.5 -90.5 -14.5c-31.333 0 -61.333 8.16699 -90 24.5s-53 39.166 -73 68.499c-20 -31.333 -43.667 -54.666 -71 -69.999s-59.333 -23 -96 -23c-42 0 -80.5 10.333 -115.5 31zM671.995 293.002c0 34 -7 60.667 -21 80
s-35 29 -63 29c-26 0 -47.667 -9.33301 -65 -28s-28 -45.667 -32 -81h181zM338.995 139.002c17.333 26.667 26 62.667 26 108s-8.66699 81.5 -26 108.5s-40.333 40.5 -69 40.5s-51.5 -13.5 -68.5 -40.5s-25.5 -63.167 -25.5 -108.5s8.5 -81.333 25.5 -108
s39.833 -40 68.5 -40s51.667 13.333 69 40z" />
    <glyph glyph-name="Sacute" unicode="&#x15a;" horiz-adv-x="552" 
d="M147 12.5c-42 16.333 -78.999 39.832 -110.999 70.499l79 94c24 -21.333 50.5 -38.333 79.5 -51s57.167 -19 84.5 -19c32 0 56.5 6.16699 73.5 18.5s25.5 29.5 25.5 51.5c0 14 -3.83301 25.667 -11.5 35s-17.334 17 -29.001 23s-30.5 14.333 -56.5 25l-86 37
c-38.667 16 -70.334 38.5 -95.001 67.5s-37 65.5 -37 109.5c0 35.333 9.83301 67.5 29.5 96.5s46.834 52 81.501 69s73.667 25.5 117 25.5c38 0 75.333 -7.5 112 -22.5s68.334 -35.833 95.001 -62.5l-69 -87c-22.667 18 -45 31.333 -67 40s-45.667 13 -71 13
c-27.333 0 -49 -5.66699 -65 -17s-24 -27 -24 -47c0 -14 4.16699 -25.667 12.5 -35s18.666 -17 30.999 -23s31.5 -14.333 57.5 -25l84 -34c42 -17.333 74.333 -40.166 97 -68.499s34 -64.5 34 -108.5c0 -36.667 -9.66699 -70.167 -29 -100.5s-47.333 -54.5 -84 -72.5
s-79.667 -27 -129 -27c-44 0 -87 8.16699 -129 24.5zM217.001 751.999l166 138l73 -89l-179 -118z" />
    <glyph glyph-name="sacute" unicode="&#x15b;" horiz-adv-x="439" 
d="M111.5 7c-34.333 12.667 -64.166 29.3359 -89.499 50.0029l62 86c23.333 -18 45.5 -31.333 66.5 -40s42.5 -13 64.5 -13c22.667 0 39.667 4.16699 51 12.5s17 20.166 17 35.499c0 10.667 -4.5 20 -13.5 28s-21.833 15.5 -38.5 22.5l-50 20.5
c-39.333 15.333 -71.5 34.166 -96.5 56.499s-37.5 51.833 -37.5 88.5c0 45.333 17 82.166 51 110.499s79 42.5 135 42.5c61.333 0 118.333 -20.667 171 -62l-61 -82c-39.333 28 -74.666 42 -105.999 42c-20.667 0 -36.167 -4 -46.5 -12s-15.5 -18.667 -15.5 -32
s6.66699 -24.166 20 -32.499s28.666 -15.5 45.999 -21.5s28.666 -10 33.999 -12c42 -15.333 75.167 -33.833 99.5 -55.5s36.5 -52.834 36.5 -93.501c0 -30 -7.83301 -56.833 -23.5 -80.5s-38.5 -42.5 -68.5 -56.5s-66 -21 -108 -21c-32 0 -65.167 6.33301 -99.5 19z
M178 640.002l152 179l93 -90l-177 -156z" />
    <glyph glyph-name="Scaron" unicode="&#x160;" horiz-adv-x="552" 
d="M147 12.5c-42 16.333 -78.999 39.832 -110.999 70.499l79 94c24 -21.333 50.5 -38.333 79.5 -51s57.167 -19 84.5 -19c32 0 56.5 6.16699 73.5 18.5s25.5 29.5 25.5 51.5c0 14 -3.83301 25.667 -11.5 35s-17.334 17 -29.001 23s-30.5 14.333 -56.5 25l-86 37
c-38.667 16 -70.334 38.5 -95.001 67.5s-37 65.5 -37 109.5c0 35.333 9.83301 67.5 29.5 96.5s46.834 52 81.501 69s73.667 25.5 117 25.5c38 0 75.333 -7.5 112 -22.5s68.334 -35.833 95.001 -62.5l-69 -87c-22.667 18 -45 31.333 -67 40s-45.667 13 -71 13
c-27.333 0 -49 -5.66699 -65 -17s-24 -27 -24 -47c0 -14 4.16699 -25.667 12.5 -35s18.666 -17 30.999 -23s31.5 -14.333 57.5 -25l84 -34c42 -17.333 74.333 -40.166 97 -68.499s34 -64.5 34 -108.5c0 -36.667 -9.66699 -70.167 -29 -100.5s-47.333 -54.5 -84 -72.5
s-79.667 -27 -129 -27c-44 0 -87 8.16699 -129 24.5zM123.001 813.999l59 37l105 -85h4l105 85l59 -37l-92 -111h-148z" />
    <glyph glyph-name="scaron" unicode="&#x161;" horiz-adv-x="439" 
d="M111.5 7c-34.333 12.667 -64.166 29.3359 -89.499 50.0029l62 86c23.333 -18 45.5 -31.333 66.5 -40s42.5 -13 64.5 -13c22.667 0 39.667 4.16699 51 12.5s17 20.166 17 35.499c0 10.667 -4.5 20 -13.5 28s-21.833 15.5 -38.5 22.5l-50 20.5
c-39.333 15.333 -71.5 34.166 -96.5 56.499s-37.5 51.833 -37.5 88.5c0 45.333 17 82.166 51 110.499s79 42.5 135 42.5c61.333 0 118.333 -20.667 171 -62l-61 -82c-39.333 28 -74.666 42 -105.999 42c-20.667 0 -36.167 -4 -46.5 -12s-15.5 -18.667 -15.5 -32
s6.66699 -24.166 20 -32.499s28.666 -15.5 45.999 -21.5s28.666 -10 33.999 -12c42 -15.333 75.167 -33.833 99.5 -55.5s36.5 -52.834 36.5 -93.501c0 -30 -7.83301 -56.833 -23.5 -80.5s-38.5 -42.5 -68.5 -56.5s-66 -21 -108 -21c-32 0 -65.167 6.33301 -99.5 19z
M60 709.002l53 49l124 -95h4l124 95l53 -49l-109 -132h-140z" />
    <glyph glyph-name="Umacron" unicode="&#x16a;" horiz-adv-x="662" 
d="M141.5 63c-43.667 50 -65.5 128 -65.5 234v356h137v-369c0 -63.333 10 -108.666 30 -135.999s49.667 -41 89 -41c40 0 70.333 13.667 91 41s31 72.666 31 135.999v369h132v-356c0 -106 -21.5 -184 -64.5 -234s-106.167 -75 -189.5 -75s-146.833 25 -190.5 75zM182 812
h298v-88h-298v88z" />
    <glyph glyph-name="umacron" unicode="&#x16b;" horiz-adv-x="565" 
d="M100.5 39.5c-25 34.333 -37.5 83.5 -37.5 147.5v308h136v-291c0 -36 5.33301 -61.5 16 -76.5s27.667 -22.5 51 -22.5c19.333 0 35.833 4.5 49.5 13.5s28.834 24.167 45.501 45.5v331h136v-495h-111l-10 70h-4c-22.667 -26.667 -46.334 -47 -71.001 -61s-53 -21 -85 -21
c-52 0 -90.5 17.167 -115.5 51.5zM145 681h292v-88h-292v88z" />
    <glyph glyph-name="Ydieresis" unicode="&#x178;" horiz-adv-x="517" 
d="M190 236l-197.001 417h147l63 -156l54 -144h4c2.66699 6 5.33398 12.333 8.00098 19l9 22l40 103l63 156h143l-197 -417v-236h-137v236zM101.499 721.5c-12.333 12.333 -18.5 28.166 -18.5 47.499s6.16699 35.333 18.5 48s28.166 19 47.499 19s35.333 -6.33301 48 -19
s19 -28.667 19 -48s-6.33301 -35.166 -19 -47.499s-28.667 -18.5 -48 -18.5s-35.166 6.16699 -47.499 18.5zM320.999 721.5c-12.667 12.333 -19 28.166 -19 47.499s6.33301 35.333 19 48s28.667 19 48 19s35.166 -6.33301 47.499 -19s18.5 -28.667 18.5 -48
s-6.16699 -35.166 -18.5 -47.499s-28.166 -18.5 -47.499 -18.5s-35.333 6.16699 -48 18.5z" />
    <glyph glyph-name="Zcaron" unicode="&#x17d;" horiz-adv-x="541" 
d="M37 83l298 455h-270v115h439v-83l-298 -455h300v-115h-469v83zM117 814l59 37l105 -85h4l105 85l59 -37l-92 -111h-148z" />
    <glyph glyph-name="zcaron" unicode="&#x17e;" horiz-adv-x="455" 
d="M37 73l216 314h-192v108h362v-73l-216 -314h223v-108h-393v73zM70 709l53 49l124 -95h4l124 95l53 -49l-109 -132h-140z" />
    <glyph glyph-name="uni018F" unicode="&#x18f;" horiz-adv-x="673" 
d="M490.5 626.5c43 -25.667 76.3359 -63.8311 100.003 -114.498s35.5 -112 35.5 -184c0 -72.667 -12 -134.334 -36 -185.001s-57.833 -89.167 -101.5 -115.5s-94.834 -39.5 -153.501 -39.5c-58 0 -108.167 13 -150.5 39s-75 64.167 -98 114.5s-34.5 110.833 -34.5 181.5
c0 10 0.333008 18.667 1 26s1.33398 13.666 2.00098 18.999h434c-4.66699 62 -20.834 108.333 -48.501 139s-66.834 46 -117.501 46c-51.333 0 -99.666 -20.667 -144.999 -62l-63 94c27.333 24.667 59.666 44.167 96.999 58.5s79.666 21.5 126.999 21.5
c58 0 108.5 -12.833 151.5 -38.5zM437.003 142.003c26.667 28 43.333 70 50 126h-295c3.33301 -56 17.5 -98 42.5 -126s58.5 -42 100.5 -42c41.333 0 75.333 14 102 42z" />
    <glyph glyph-name="florin" unicode="&#x192;" 
d="M339 469l-7.00195 -55.998h107v-100h-119l-23 -196c-8 -68 -25.5 -120.667 -52.5 -158s-71.167 -56 -132.5 -56c-40 1.33301 -68 6.66602 -84 15.999l19 101c12 -4.66699 27 -7.66699 45 -9c17.333 0.666992 31 5.33398 41 14.001s18 23 24 43s11.333 49 16 87l18 158
h-77v95l73 5h15l5 45c8 73.333 27.167 126.166 57.5 158.499s76.833 48.5 139.5 48.5c12.667 0 27.334 -1.83301 44.001 -5.5s30.334 -7.83398 41.001 -12.501l-26 -103c-19.333 8 -35.333 12 -48 12c-44 0 -69.333 -29 -76 -87z" />
    <glyph glyph-name="Gcaron" unicode="&#x1e6;" horiz-adv-x="635" 
d="M200.5 27c-47.667 26 -85.167 64.167 -112.5 114.5s-41 110.833 -41 181.5c0 70 14 130.833 42 182.5s65.833 91.167 113.5 118.5s100.834 41 159.501 41c79.333 0 147 -28 203 -84l-72 -88c-18.667 17.333 -37.834 30.5 -57.501 39.5s-42.5 13.5 -68.5 13.5
c-54 0 -97.333 -19.5 -130 -58.5s-49 -92.167 -49 -159.5c0 -70.667 16 -125.167 48 -163.5s79 -57.5 141 -57.5c14.667 0 29 2 43 6s25.333 9.33301 34 16v122h-113v112h235v-296c-24 -23.333 -54.667 -42.333 -92 -57s-77.666 -22 -120.999 -22
c-60.667 0 -114.834 13 -162.501 39zM199 814l59 37l105 -85h4l105 85l59 -37l-92 -111h-148z" />
    <glyph glyph-name="gcaron" unicode="&#x1e7;" horiz-adv-x="530" 
d="M93.5 -181c-38.333 21.333 -57.499 52.667 -57.499 94s23.667 75.333 71 102v4c-30 19.333 -45 47.333 -45 84c0 17.333 5.16699 34.333 15.5 51s23.5 30.334 39.5 41.001v4c-19.333 13.333 -35.166 31.333 -47.499 54s-18.5 47.667 -18.5 75
c0 37.333 9.16699 69.5 27.5 96.5s42.833 47.5 73.5 61.5s64 21 100 21c25.333 0 50.666 -4 75.999 -12h179v-100h-83c6 -8 11 -18.5 15 -31.5s6 -26.167 6 -39.5c0 -54 -18 -95.333 -54 -124s-82.333 -43 -139 -43c-20.667 0 -41.334 3.33301 -62.001 10
c-6.66699 -6 -11.667 -11.833 -15 -17.5s-5 -13.167 -5 -22.5c0 -12.667 5.83301 -22.334 17.5 -29.001s31.167 -10 58.5 -10h83c61.333 0 107.666 -10 138.999 -30s47 -51.667 47 -95c0 -33.333 -11.167 -63.5 -33.5 -90.5s-54 -48 -95 -63s-88.833 -22.5 -143.5 -22.5
c-61.333 0 -111.166 10.667 -149.499 32zM305.501 263.001c13.667 15.333 20.5 37 20.5 65c0 27.333 -6.83301 48.5 -20.5 63.5s-31.5 22.5 -53.5 22.5s-39.667 -7.5 -53 -22.5s-20 -36.167 -20 -63.5s6.83301 -48.833 20.5 -64.5s31.167 -23.5 52.5 -23.5
c22 0 39.833 7.66699 53.5 23zM350.001 -107.499c22.667 13 33.999 28.833 33.999 47.5c0 16 -6.33301 27 -19 33s-32.667 9 -60 9h-57c-29.333 0 -52 2.33301 -68 7c-20.667 -16.667 -31 -34.667 -31 -54c0 -20 10.333 -35.333 31 -46s48.667 -16 84 -16
c34.667 0 63.334 6.5 86.001 19.5zM93 709.001l53 49l124 -95h4l124 95l53 -49l-109 -132h-140z" />
    <glyph glyph-name="uni0250" unicode="&#x250;" horiz-adv-x="530" 
d="M116 45.5c-36.667 38.333 -55 94.502 -55 168.502v281h112l10 -62h3c20.667 23.333 44.667 41.5 72 54.5s56.666 19.5 87.999 19.5c40.667 0 73.167 -12.5 97.5 -37.5s36.5 -57.5 36.5 -97.5c0 -54.667 -22.667 -98.334 -68 -131.001s-116.666 -54.334 -213.999 -65.001
c1.33301 -24 10 -43.167 26 -57.5s40 -21.5 72 -21.5c20.667 0 41 3.83301 61 11.5s43 19.167 69 34.5l49 -90c-68 -43.333 -134.333 -65 -199 -65c-70 0 -123.333 19.167 -160 57.5zM314.5 294.002c23 15.333 34.5 34.334 34.5 57.001c0 16.667 -5 29.167 -15 37.5
s-23 12.5 -39 12.5c-32.667 0 -65 -19 -97 -57v-84c54.667 7.33301 93.5 18.666 116.5 33.999z" />
    <glyph glyph-name="uni0254" unicode="&#x254;" horiz-adv-x="466" 
d="M100.5 3c-28.333 10 -54.1641 24.999 -77.4971 44.999l54 89c32.667 -25.333 64 -38 94 -38c34 0 62 13.5 84 40.5s33 62.833 33 107.5s-10.5 80.667 -31.5 108s-47.833 41 -80.5 41c-16.667 0 -31.334 -2.5 -44.001 -7.5s-25.334 -12.833 -38.001 -23.5l-65 88
c45.333 36 99.666 54 162.999 54c43.333 0 82.833 -10.167 118.5 -30.5s64.167 -50.166 85.5 -89.499s32 -86 32 -140c0 -53.333 -10.667 -99.5 -32 -138.5s-50.333 -68.833 -87 -89.5s-77.667 -31 -123 -31c-28.667 0 -57.167 5 -85.5 15z" />
    <glyph glyph-name="uni0259" unicode="&#x259;" horiz-adv-x="514" 
d="M92 54c-36.667 44 -54.999 101.666 -54.999 172.999c0 22 1.66699 43 5 63h302c-4.66699 36.667 -17.334 64.5 -38.001 83.5s-47.667 28.5 -81 28.5c-38 0 -75 -11.333 -111 -34l-46 89c25.333 16.667 53.5 29.167 84.5 37.5s62.833 12.5 95.5 12.5
c43.333 0 82.333 -10.5 117 -31.5s62 -51 82 -90s30 -84.833 30 -137.5c0 -52 -10.333 -97.667 -31 -137s-48.5 -69.666 -83.5 -90.999s-73.167 -32 -114.5 -32c-67.333 0 -119.333 22 -156 66zM312.001 119.499c18 17.667 29.333 44.167 34 79.5h-192
c0 -33.333 7.66699 -59.333 23 -78s38 -28 68 -28c26.667 0 49 8.83301 67 26.5z" />
    <glyph glyph-name="uni025B" unicode="&#x25b;" horiz-adv-x="458" 
d="M158 6c-33.333 12 -60.166 29.5029 -80.499 52.5029s-30.5 50.167 -30.5 81.5c0 61.333 34.667 101.333 104 120v4c-26 8 -46 21.667 -60 41s-21 40 -21 62c0 46 18.833 80.833 56.5 104.5s84.834 35.5 141.501 35.5c55.333 0 108 -15.333 158 -46l-51 -88
c-18 10 -34.667 17.333 -50 22s-32 7 -50 7c-21.333 0 -38.5 -4.83301 -51.5 -14.5s-19.5 -22.834 -19.5 -39.501c0 -32.667 25.333 -49 76 -49h66v-91h-81c-28.667 0 -49.834 -4.33301 -63.501 -13s-20.5 -22.334 -20.5 -41.001s9.16699 -33.5 27.5 -44.5
s41.833 -16.5 70.5 -16.5c35.333 0 70.666 11 105.999 33l54 -87c-28.667 -18.667 -56.5 -31.834 -83.5 -39.501s-56.833 -11.5 -89.5 -11.5c-38.667 0 -74.667 6 -108 18z" />
    <glyph glyph-name="uni0283" unicode="&#x283;" horiz-adv-x="273" 
d="M-50 -186l25.001 101c15.333 -4.66699 28.666 -7 39.999 -7c20 0 34 6.5 42 19.5s12 33.833 12 62.5v532c0 58.667 14 105.5 42 140.5s74 52.5 138 52.5c28 0 53 -4.33301 75 -13l-24 -101c-11.333 4.66699 -21.333 7 -30 7c-24 0 -40.667 -6.5 -50 -19.5
s-14 -34.167 -14 -63.5v-531c0 -58.667 -13.167 -105.667 -39.5 -141s-69.833 -53 -130.5 -53c-34 0 -62.667 4.66699 -86 14z" />
    <glyph glyph-name="uni028E" unicode="&#x28e;" horiz-adv-x="513" 
d="M195 529c24 64 51.668 111 83.001 141s74 45 128 45c24 0 47 -3.33301 69 -10l-25 -105c-14 4.66699 -25.333 7 -34 7c-44 0 -74 -24 -90 -72l-17 -51l192 -484h-138l-75 223c-8 23.333 -17.333 54.333 -28 93c-4.66699 18 -9 33.667 -13 47h-4
c-8.66699 -38 -20.334 -84.667 -35.001 -140l-65 -223h-131z" />
    <glyph glyph-name="uni0292" unicode="&#x292;" horiz-adv-x="455" 
d="M5 -119l61.9971 85c18.667 -17.333 38.334 -30.833 59.001 -40.5s43.334 -14.5 68.001 -14.5c30 0 54.667 10.167 74 30.5s29 47.833 29 82.5c0 31.333 -9.16699 55.833 -27.5 73.5s-43.166 26.5 -74.499 26.5c-12.667 0 -22.5 -0.833008 -29.5 -2.5
s-16.833 -5.16699 -29.5 -10.5l-46 67l158 209h-209v108h372v-73l-155 -205c55.333 -2.66699 98.833 -21.334 130.5 -56.001s47.5 -79 47.5 -133c0 -47.333 -10.167 -88.166 -30.5 -122.499s-47.5 -60.5 -81.5 -78.5s-71.333 -27 -112 -27c-80 0 -148.333 27 -205 81z" />
    <glyph glyph-name="uni0294" unicode="&#x294;" horiz-adv-x="443" 
d="M132 318c58 37.333 98.666 69.668 121.999 97.001s35 57.666 35 90.999c0 30.667 -8.83301 54.667 -26.5 72s-41.5 26 -71.5 26c-46.667 0 -89.334 -21.667 -128.001 -65l-69 87c56.667 59.333 127 89 211 89c40.667 0 77.834 -7.66699 111.501 -23
s60.334 -38.333 80.001 -69s29.5 -67.667 29.5 -111c0 -51.333 -13 -95 -39 -131s-65.667 -74.333 -119 -115v-266h-136v318z" />
    <glyph glyph-name="uni0295" unicode="&#x295;" horiz-adv-x="496" 
d="M198 266c-53.333 40.667 -93.001 78.998 -119.001 114.998s-39 79.667 -39 131c0 43.333 10.333 80.333 31 111s48.5 53.667 83.5 69s73.833 23 116.5 23c80 0 146.667 -29.667 200 -89l-68 -87c-36 43.333 -75.333 65 -118 65c-33.333 0 -59.666 -8.66699 -78.999 -26
s-29 -41.333 -29 -72c0 -33.333 11.667 -63.666 35 -90.999s64 -59.666 122 -96.999v-318h-136v266z" />
    <glyph glyph-name="uni02A7" unicode="&#x2a7;" horiz-adv-x="592" 
d="M324 -186l25 101c15.333 -4.66699 28.666 -7 39.999 -7c20 0 34 6.5 42 19.5s12 33.833 12 62.5v532c0 58.667 14 105.5 42 140.5s74 52.5 138 52.5c28 0 53 -4.33301 75 -13l-25 -101c-11.333 4.66699 -21.333 7 -30 7c-23.333 0 -39.833 -6.66699 -49.5 -20
s-14.5 -34.333 -14.5 -63v-531c0 -58.667 -13.167 -105.667 -39.5 -141s-69.833 -53 -130.5 -53c-33.333 0 -61.666 4.66699 -84.999 14zM127 37.5c-26.667 33 -40 79.167 -40 138.5v211h-69v102l76 6l16 132h113v-132h121v-108h-121v-210c0 -54 22 -81 66 -81
c14 0 30.333 3.33301 49 10l22 -100c-36 -12 -71.667 -18 -107 -18c-57.333 0 -99.333 16.5 -126 49.5z" />
    <glyph glyph-name="uni02B9" unicode="&#x2b9;" horiz-adv-x="292" 
 />
    <glyph glyph-name="circumflex" unicode="&#x2c6;" horiz-adv-x="553" 
d="M98 611l109 133h140l109 -133l-53 -49l-124 96h-4l-124 -96z" />
    <glyph glyph-name="caron" unicode="&#x2c7;" horiz-adv-x="553" 
d="M98 709l53 49l124 -95h4l124 95l53 -49l-109 -132h-140z" />
    <glyph glyph-name="uni02C8" unicode="&#x2c8;" horiz-adv-x="142" 
d="M16 742h110l-6 -203h-98z" />
    <glyph glyph-name="uni02D0" unicode="&#x2d0;" horiz-adv-x="292" 
d="M174 243l63 -156h-182l63 156l-63 156h182z" />
    <glyph glyph-name="breve" unicode="&#x2d8;" horiz-adv-x="553" 
d="M154 615.5c-28 29 -42.667 66.5 -44 112.5l78 13c4 -24 13.333 -43.833 28 -59.5s35 -23.5 61 -23.5s46.333 7.83301 61 23.5s24 35.5 28 59.5l78 -13c-1.33301 -46 -16 -83.5 -44 -112.5s-69 -43.5 -123 -43.5s-95 14.5 -123 43.5z" />
    <glyph glyph-name="dotaccent" unicode="&#x2d9;" horiz-adv-x="553" 
d="M221.5 592.5c-14.333 13.667 -21.5 31.167 -21.5 52.5s7.16699 38.833 21.5 52.5s32.833 20.5 55.5 20.5s41.167 -6.83301 55.5 -20.5s21.5 -31.167 21.5 -52.5s-7.16699 -38.833 -21.5 -52.5s-32.833 -20.5 -55.5 -20.5s-41.167 6.83301 -55.5 20.5z" />
    <glyph glyph-name="ring" unicode="&#x2da;" horiz-adv-x="553" 
d="M182.5 592c-22.333 19.333 -33.5 44 -33.5 74s11.167 54.667 33.5 74s53.833 29 94.5 29s72.167 -9.66699 94.5 -29s33.5 -44 33.5 -74s-11.167 -54.667 -33.5 -74s-53.833 -29 -94.5 -29s-72.167 9.66699 -94.5 29zM309.5 629c9 9.33301 13.5 21.666 13.5 36.999
c0 14.667 -4.5 26.834 -13.5 36.501s-19.833 14.5 -32.5 14.5s-23.5 -4.83301 -32.5 -14.5s-13.5 -21.834 -13.5 -36.501c0 -15.333 4.5 -27.666 13.5 -36.999s19.833 -14 32.5 -14s23.5 4.66699 32.5 14z" />
    <glyph glyph-name="ogonek" unicode="&#x2db;" horiz-adv-x="553" 
 />
    <glyph glyph-name="tilde" unicode="&#x2dc;" horiz-adv-x="553" 
d="M300 584.5c-12.667 7 -27 17.167 -43 30.5c-10 8.66699 -18.333 15.167 -25 19.5s-13.334 6.5 -20.001 6.5c-21.333 0 -33.333 -19.667 -36 -59l-86 5c0.666992 49.333 11.334 86.5 32.001 111.5s50 37.5 88 37.5c16.667 0 31.334 -3.5 44.001 -10.5s27 -17.167 43 -30.5
c10 -8.66699 18.333 -15.167 25 -19.5s13.334 -6.5 20.001 -6.5c21.333 0 33.333 19.667 36 59l86 -5c-0.666992 -49.333 -11.334 -86.5 -32.001 -111.5s-50 -37.5 -88 -37.5c-16.667 0 -31.334 3.5 -44.001 10.5z" />
    <glyph glyph-name="hungarumlaut" unicode="&#x2dd;" horiz-adv-x="553" 
d="M153 598l87 180l93 -42l-108 -170zM328 598l87 180l92 -42l-107 -170z" />
    <glyph glyph-name="gravecomb" unicode="&#x300;" horiz-adv-x="0" 
d="M-184 729l93 90l152 -179l-68 -67z" />
    <glyph glyph-name="acutecomb" unicode="&#x301;" horiz-adv-x="0" 
d="M-61 640l152 179l93 -90l-177 -156z" />
    <glyph glyph-name="uni0302" unicode="&#x302;" horiz-adv-x="0" 
d="M-179 611l109 133h140l109 -133l-53 -49l-124 96h-4l-124 -96z" />
    <glyph glyph-name="tildecomb" unicode="&#x303;" horiz-adv-x="0" 
d="M23 584.5c-12.667 7 -27 17.167 -43 30.5c-10 8.66699 -18.333 15.167 -25 19.5s-13.334 6.5 -20.001 6.5c-21.333 0 -33.333 -19.667 -36 -59l-86 5c0.666992 49.333 11.334 86.5 32.001 111.5s50 37.5 88 37.5c16.667 0 31.334 -3.5 44.001 -10.5s27 -17.167 43 -30.5
c10 -8.66699 18.333 -15.167 25 -19.5s13.334 -6.5 20.001 -6.5c21.333 0 33.333 19.667 36 59l86 -5c-0.666992 -49.333 -11.334 -86.5 -32.001 -111.5s-50 -37.5 -88 -37.5c-16.667 0 -31.334 3.5 -44.001 10.5z" />
    <glyph glyph-name="uni0304" unicode="&#x304;" horiz-adv-x="0" 
d="M-146 681h292v-88h-292v88z" />
    <glyph glyph-name="uni0306" unicode="&#x306;" horiz-adv-x="0" 
d="M-123 615.5c-28 29 -42.667 66.5 -44 112.5l78 13c4 -24 13.333 -43.833 28 -59.5s35 -23.5 61 -23.5s46.333 7.83301 61 23.5s24 35.5 28 59.5l78 -13c-1.33301 -46 -16 -83.5 -44 -112.5s-69 -43.5 -123 -43.5s-95 14.5 -123 43.5z" />
    <glyph glyph-name="uni0307" unicode="&#x307;" horiz-adv-x="0" 
d="M-55.5 592.5c-14.333 13.667 -21.5 31.167 -21.5 52.5s7.16699 38.833 21.5 52.5s32.833 20.5 55.5 20.5s41.167 -6.83301 55.5 -20.5s21.5 -31.167 21.5 -52.5s-7.16699 -38.833 -21.5 -52.5s-32.833 -20.5 -55.5 -20.5s-41.167 6.83301 -55.5 20.5z" />
    <glyph glyph-name="uni0308" unicode="&#x308;" horiz-adv-x="0" 
d="M-156 591.5c-12.667 13 -19 29.167 -19 48.5s6.33301 35.5 19 48.5s29 19.5 49 19.5s36.333 -6.5 49 -19.5s19 -29.167 19 -48.5s-6.33301 -35.5 -19 -48.5s-29 -19.5 -49 -19.5s-36.333 6.5 -49 19.5zM58 591.5c-12.667 13 -19 29.167 -19 48.5s6.33301 35.5 19 48.5
s29 19.5 49 19.5s36.333 -6.5 49 -19.5s19 -29.167 19 -48.5s-6.33301 -35.5 -19 -48.5s-29 -19.5 -49 -19.5s-36.333 6.5 -49 19.5z" />
    <glyph glyph-name="uni030A" unicode="&#x30a;" horiz-adv-x="0" 
d="M-94.5 592c-22.333 19.333 -33.5 44 -33.5 74s11.167 54.667 33.5 74s53.833 29 94.5 29s72.167 -9.66699 94.5 -29s33.5 -44 33.5 -74s-11.167 -54.667 -33.5 -74s-53.833 -29 -94.5 -29s-72.167 9.66699 -94.5 29zM32.5 629c9 9.33301 13.5 21.666 13.5 36.999
c0 14.667 -4.5 26.834 -13.5 36.501s-19.833 14.5 -32.5 14.5s-23.5 -4.83301 -32.5 -14.5s-13.5 -21.834 -13.5 -36.501c0 -15.333 4.5 -27.666 13.5 -36.999s19.833 -14 32.5 -14s23.5 4.66699 32.5 14z" />
    <glyph glyph-name="uni030B" unicode="&#x30b;" horiz-adv-x="0" 
d="M-124 598l87 180l93 -42l-108 -170zM51 598l87 180l92 -42l-107 -170z" />
    <glyph glyph-name="uni030C" unicode="&#x30c;" horiz-adv-x="0" 
d="M-179 709l53 49l124 -95h4l124 95l53 -49l-109 -132h-140z" />
    <glyph glyph-name="uni031E" unicode="&#x31e;" horiz-adv-x="0" 
d="M-37 -151h-69v67h212v-67h-69v-105h-74v105z" />
    <glyph glyph-name="dotbelowcomb" unicode="&#x323;" horiz-adv-x="0" 
d="M-55.5 -202.5c-14.333 13.667 -21.5 31.167 -21.5 52.5s7.16699 38.833 21.5 52.5s32.833 20.5 55.5 20.5s41.167 -6.83301 55.5 -20.5s21.5 -31.167 21.5 -52.5s-7.16699 -38.833 -21.5 -52.5s-32.833 -20.5 -55.5 -20.5s-41.167 6.83301 -55.5 20.5z" />
    <glyph glyph-name="uni0327" unicode="&#x327;" horiz-adv-x="0" 
d="M-110 -181c38.667 2 65.5 6.33203 80.5 12.999s22.5 17.334 22.5 32.001c0 11.333 -5.5 20.333 -16.5 27s-30.833 12 -59.5 16l47 97h81l-28 -66c25.333 -6 44.333 -14.667 57 -26s19 -27.333 19 -48c0 -63.333 -64.333 -97 -193 -101z" />
    <glyph glyph-name="uni032E" unicode="&#x32e;" horiz-adv-x="0" 
d="M-123 -189.5c-28 29 -42.667 66.5 -44 112.5l78 13c4 -24 13.333 -43.833 28 -59.5s35 -23.5 61 -23.5s46.333 7.83301 61 23.5s24 35.5 28 59.5l78 -13c-1.33301 -46 -16 -83.5 -44 -112.5s-69 -43.5 -123 -43.5s-95 14.5 -123 43.5z" />
    <glyph glyph-name="uni0331" unicode="&#x331;" horiz-adv-x="0" 
d="M-146 -98h292v-88h-292v88z" />
    <glyph glyph-name="uni0361" unicode="&#x361;" horiz-adv-x="0" 
d="M-457 602c68 41.333 140.833 72.333 218.5 93s157.167 31 238.5 31s160.833 -10.333 238.5 -31s150.5 -51.667 218.5 -93l-36 -64c-60 34.667 -127.333 60 -202 76s-147.667 24 -219 24s-144.333 -8 -219 -24s-142 -41.333 -202 -76z" />
    <glyph glyph-name="theta" unicode="&#x3b8;" horiz-adv-x="545" 
d="M435.5 623c39.667 -61.333 59.5 -150.999 59.5 -268.999c0 -120.667 -19.833 -211.834 -59.5 -273.501s-93.834 -92.5 -162.501 -92.5c-69.333 0 -123.833 31 -163.5 93s-59.5 153 -59.5 273c0 118.667 19.833 208.5 59.5 269.5s94.167 91.5 163.5 91.5
c68.667 0 122.834 -30.667 162.501 -92zM210.5 559.001c-15.667 -30 -24.499 -83 -26.499 -159h178c-2.66699 76 -11.834 129 -27.501 159s-36.167 45 -61.5 45c-26 0 -46.833 -15 -62.5 -45zM335.001 146.501c16 31.667 25 85.832 27 162.499h-178
c2.66699 -77.333 11.667 -131.666 27 -162.999s36 -47 62 -47c25.333 0 46 15.833 62 47.5z" />
    <glyph glyph-name="pi" unicode="&#x3c0;" horiz-adv-x="627" 
d="M408 29.5c-22 27.667 -32.999 67.834 -32.999 120.501l1 68c2 100 3 156.333 3 169h-124c0 -54.667 -2.33301 -113.667 -7 -177s-11 -136 -19 -218l-137 8c23.333 136 35 265 35 387h-108v102l73 6h512v-108h-94c-4.66699 -70.667 -7 -151.667 -7 -243
c0 -16.667 3.66699 -28.334 11 -35.001s18.666 -10 33.999 -10c4.66699 0 17 1.33301 37 4l17 -101c-25.333 -9.33301 -54 -14 -86 -14c-50 0 -86 13.833 -108 41.5z" />
    <glyph glyph-name="chi" unicode="&#x3c7;" horiz-adv-x="519" 
d="M9 -177l189 342l-189 312l135 30l120 -222h4l94 210h142l-171 -327l199 -327l-135 -30l-129 245h-4l-115 -245z" />
    <glyph glyph-name="uni05B0" unicode="&#x5b0;" horiz-adv-x="0" 
d="M88 -81c6 -6.66699 9 -15 9 -25s-3 -18.333 -9 -25s-14 -10 -24 -10s-18.167 3.33301 -24.5 10s-9.5 15 -9.5 25s3.16699 18.333 9.5 25s14.5 10 24.5 10s18 -3.33301 24 -10zM88 -184c6 -7.33301 9 -15.666 9 -24.999c0 -10 -3 -18.333 -9 -25s-14 -10 -24 -10
s-18.167 3.33301 -24.5 10s-9.5 15 -9.5 25c0 9.33301 3.33301 17.666 10 24.999s14.667 11 24 11c10 0 18 -3.66699 24 -11z" />
    <glyph glyph-name="uni05B1" unicode="&#x5b1;" horiz-adv-x="0" 
d="M88 -81c6 -6.66699 9 -15 9 -25s-3 -18.333 -9 -25s-14 -10 -24 -10s-18.167 3.33301 -24.5 10s-9.5 15 -9.5 25s3.16699 18.333 9.5 25s14.5 10 24.5 10s18 -3.33301 24 -10zM192 -81c6 -6.66699 9 -15 9 -25s-3 -18.333 -9 -25s-14 -10 -24 -10
s-18.167 3.33301 -24.5 10s-9.5 15 -9.5 25s3.16699 18.333 9.5 25s14.5 10 24.5 10s18 -3.33301 24 -10zM296 -81c6 -6.66699 9 -15 9 -25s-3 -18.333 -9 -25s-14 -10 -24 -10s-18.167 3.33301 -24.5 10s-9.5 15 -9.5 25s3.16699 18.333 9.5 25s14.5 10 24.5 10
s18 -3.33301 24 -10zM139 -184c6 -7.33301 9 -15.666 9 -24.999c0 -10 -3 -18.333 -9 -25s-14 -10 -24 -10s-18.167 3.33301 -24.5 10s-9.5 15 -9.5 25c0 9.33301 3.33301 17.666 10 24.999s14.667 11 24 11c10 0 18 -3.66699 24 -11zM296 -184
c6 -7.33301 9 -15.666 9 -24.999c0 -10 -3 -18.333 -9 -25s-14 -10 -24 -10s-18.167 3.33301 -24.5 10s-9.5 15 -9.5 25c0 9.33301 3.33301 17.666 10 24.999s14.667 11 24 11c10 0 18 -3.66699 24 -11z" />
    <glyph glyph-name="uni05B2" unicode="&#x5b2;" horiz-adv-x="0" 
d="M285 -81c6 -6.66699 9 -15 9 -25s-3 -18.333 -9 -25s-14 -10 -24 -10s-18.167 3.33301 -24.5 10s-9.5 15 -9.5 25s3.16699 18.333 9.5 25s14.5 10 24.5 10s18 -3.33301 24 -10zM196 -124h-166v39h166v-39zM284.5 -184c6.33301 -7.33301 9.50098 -15.666 9.50098 -24.999
c0 -10 -3 -18.333 -9 -25s-14 -10 -24 -10s-18.167 3.33301 -24.5 10s-9.5 15 -9.5 25c0 9.33301 3.33301 17.666 10 24.999s14.667 11 24 11s17.166 -3.66699 23.499 -11z" />
    <glyph glyph-name="uni05B3" unicode="&#x5b3;" horiz-adv-x="0" 
d="M285 -81c6 -6.66699 9 -15 9 -25s-3 -18.333 -9 -25s-14 -10 -24 -10s-18.167 3.33301 -24.5 10s-9.5 15 -9.5 25s3.16699 18.333 9.5 25s14.5 10 24.5 10s18 -3.33301 24 -10zM196 -124h-67l6 -100h-44l5 100h-66v39h166v-39zM284.5 -184
c6.33301 -7.33301 9.50098 -15.666 9.50098 -24.999c0 -10 -3 -18.333 -9 -25s-14 -10 -24 -10s-18.167 3.33301 -24.5 10s-9.5 15 -9.5 25c0 9.33301 3.33301 17.666 10 24.999s14.667 11 24 11s17.166 -3.66699 23.499 -11z" />
    <glyph glyph-name="uni05B4" unicode="&#x5b4;" horiz-adv-x="0" 
d="M88 -81c6 -6.66699 9 -15 9 -25s-3 -18.333 -9 -25s-14 -10 -24 -10s-18.167 3.33301 -24.5 10s-9.5 15 -9.5 25s3.16699 18.333 9.5 25s14.5 10 24.5 10s18 -3.33301 24 -10z" />
    <glyph glyph-name="uni05B5" unicode="&#x5b5;" horiz-adv-x="0" 
d="M88 -81c6 -6.66699 9 -15 9 -25s-3 -18.333 -9 -25s-14 -10 -24 -10s-18.167 3.33301 -24.5 10s-9.5 15 -9.5 25s3.16699 18.333 9.5 25s14.5 10 24.5 10s18 -3.33301 24 -10zM195 -81c6 -6.66699 9 -15 9 -25s-3 -18.333 -9 -25s-14 -10 -24 -10
s-18.167 3.33301 -24.5 10s-9.5 15 -9.5 25s3.16699 18.333 9.5 25s14.5 10 24.5 10s18 -3.33301 24 -10z" />
    <glyph glyph-name="uni05B6" unicode="&#x5b6;" horiz-adv-x="0" 
d="M88 -81c6 -6.66699 9 -15 9 -25s-3 -18.333 -9 -25s-14 -10 -24 -10s-18.167 3.33301 -24.5 10s-9.5 15 -9.5 25s3.16699 18.333 9.5 25s14.5 10 24.5 10s18 -3.33301 24 -10zM195 -81c6 -6.66699 9 -15 9 -25s-3 -18.333 -9 -25s-14 -10 -24 -10
s-18.167 3.33301 -24.5 10s-9.5 15 -9.5 25s3.16699 18.333 9.5 25s14.5 10 24.5 10s18 -3.33301 24 -10zM141 -174c6 -6.66699 9 -14.667 9 -24c0 -10 -3 -18.5 -9 -25.5s-14 -10.5 -24 -10.5s-18.167 3.5 -24.5 10.5s-9.5 15.5 -9.5 25.5c0 9.33301 3.16699 17.333 9.5 24
s14.5 10 24.5 10s18 -3.33301 24 -10z" />
    <glyph glyph-name="uni05B7" unicode="&#x5b7;" horiz-adv-x="0" 
d="M196 -108h-166v39h166v-39z" />
    <glyph glyph-name="uni05B8" unicode="&#x5b8;" horiz-adv-x="0" 
d="M196 -108h-67l6 -100h-44l5 100h-66v39h166v-39z" />
    <glyph glyph-name="uni05B9" unicode="&#x5b9;" horiz-adv-x="0" 
d="M88 576.5c6 -7 9 -15.167 9 -24.5c0 -10 -3 -18.5 -9 -25.5s-14 -10.5 -24 -10.5s-18.167 3.5 -24.5 10.5s-9.5 15.5 -9.5 25.5c0 9.33301 3.16699 17.5 9.5 24.5s14.5 10.5 24.5 10.5s18 -3.5 24 -10.5z" />
    <glyph glyph-name="uni05BA" unicode="&#x5ba;" horiz-adv-x="0" 
d="M39.5 526.5c-6.33301 7 -9.5 15.5 -9.5 25.5c0 9.33301 3.16699 17.5 9.5 24.5s14.5 10.5 24.5 10.5s18 -3.5 24 -10.5s9 -15.167 9 -24.5c0 -10 -3 -18.5 -9 -25.5s-14 -10.5 -24 -10.5s-18.167 3.5 -24.5 10.5z" />
    <glyph glyph-name="uni05BB" unicode="&#x5bb;" horiz-adv-x="0" 
d="M88 -81c6 -6.66699 9 -15 9 -25s-3 -18.333 -9 -25s-14 -10 -24 -10s-18.167 3.33301 -24.5 10s-9.5 15 -9.5 25s3.16699 18.333 9.5 25s14.5 10 24.5 10s18 -3.33301 24 -10zM158 -149c6 -6.66699 9 -15 9 -25s-3 -18.333 -9 -25s-14 -10 -24 -10
s-18.167 3.33301 -24.5 10s-9.5 15 -9.5 25s3.16699 18.333 9.5 25s14.5 10 24.5 10s18 -3.33301 24 -10zM228 -217c6 -6.66699 9 -15 9 -25s-3 -18.333 -9 -25s-14 -10 -24 -10s-18.167 3.33301 -24.5 10s-9.5 15 -9.5 25s3.16699 18.333 9.5 25s14.5 10 24.5 10
s18 -3.33301 24 -10z" />
    <glyph glyph-name="uni05BC" unicode="&#x5bc;" horiz-adv-x="0" 
d="M88 314.5c6 -7 9 -15.167 9 -24.5c0 -10 -3 -18.5 -9 -25.5s-14 -10.5 -24 -10.5s-18.167 3.5 -24.5 10.5s-9.5 15.5 -9.5 25.5c0 8.66699 3.33301 16.667 10 24s14.667 11 24 11c10 0 18 -3.5 24 -10.5z" />
    <glyph glyph-name="uni05BE" unicode="&#x5be;" horiz-adv-x="329" 
d="M45 571h239v-108h-239v108z" />
    <glyph glyph-name="uni05BF" unicode="&#x5bf;" horiz-adv-x="0" 
d="M221 523h-189v53h189v-53z" />
    <glyph glyph-name="uni05C0" unicode="&#x5c0;" horiz-adv-x="182" 
d="M56 645h70v-745h-70v745z" />
    <glyph glyph-name="uni05C1" unicode="&#x5c1;" horiz-adv-x="0" 
d="M88 580.5c6 -7 9 -15.167 9 -24.5c0 -10 -3 -18.5 -9 -25.5s-14 -10.5 -24 -10.5s-18.167 3.5 -24.5 10.5s-9.5 15.5 -9.5 25.5c0 9.33301 3.16699 17.5 9.5 24.5s14.5 10.5 24.5 10.5s18 -3.5 24 -10.5z" />
    <glyph glyph-name="uni05C2" unicode="&#x5c2;" horiz-adv-x="0" 
d="M88 580.5c6 -7 9 -15.167 9 -24.5c0 -10 -3 -18.5 -9 -25.5s-14 -10.5 -24 -10.5s-18.167 3.5 -24.5 10.5s-9.5 15.5 -9.5 25.5c0 9.33301 3.16699 17.5 9.5 24.5s14.5 10.5 24.5 10.5s18 -3.5 24 -10.5z" />
    <glyph glyph-name="uni05C3" unicode="&#x5c3;" horiz-adv-x="218" 
d="M33 419l77 75l75 -75l-75 -77zM33 94l77 76l75 -76l-75 -77z" />
    <glyph glyph-name="uni05C7" unicode="&#x5c7;" horiz-adv-x="0" 
d="M132 -108h-42l13 -100h-44l12 100h-41v39h102v-39z" />
    <glyph glyph-name="uni05D0" unicode="&#x5d0;" horiz-adv-x="617" 
d="M435 0l-188 291l-89 -291h-137l111 343l31 77l-93 151h145l80 -130l72 -109l27 91l40 148h137l-120 -364l138 -207h-154z" />
    <glyph glyph-name="uni05D1" unicode="&#x5d1;" horiz-adv-x="543" 
d="M513 108v-108h-211h-264v108h264v282c0 48.667 -22.667 73 -68 73h-196v108h236c53.333 0 95.333 -15.167 126 -45.5s46 -77.833 46 -142.5v-275h67z" />
    <glyph glyph-name="uni05D2" unicode="&#x5d2;" horiz-adv-x="424" 
d="M246 0l-18 107.001c-18.667 -30 -40.5 -55.333 -65.5 -76s-55.833 -37.334 -92.5 -50.001l-53 114c93.333 29.333 156.666 76 189.999 140v163c0 24 -3.66699 41 -11 51s-19.666 16.333 -36.999 19l-63 9l18 106l118 -16c40.667 -5.33301 70.667 -20.5 90 -45.5
s29 -60.833 29 -107.5v-190l32 -224h-137z" />
    <glyph glyph-name="uni05D3" unicode="&#x5d3;" horiz-adv-x="542" 
d="M263 346c0 25.333 2.5 48.167 7.5 68.5s11.833 36.5 20.5 48.5h-256v108h469v-108h-78c-12.667 -28.667 -19 -67.667 -19 -117v-346h-144v346z" />
    <glyph glyph-name="uni05D4" unicode="&#x5d4;" horiz-adv-x="573" 
d="M382 390c0 48.667 -22.333 73 -67 73h-261v108h300c53.333 0 95.5 -15.167 126.5 -45.5s46.5 -77.833 46.5 -142.5v-383h-145v390zM48 273l20 67h125v-340h-145v273z" />
    <glyph glyph-name="uni05D5" unicode="&#x5d5;" horiz-adv-x="259" 
d="M61 454l-12 117h144l12 -117v-454h-144v454z" />
    <glyph glyph-name="uni05D6" unicode="&#x5d6;" horiz-adv-x="375" 
d="M101 346c0 25.333 2.5 48.168 7.5 68.501s11.833 36.5 20.5 48.5h-90v108h297v-108h-75c-7.33301 -14.667 -11.833 -31.334 -13.5 -50.001s-2.5 -41 -2.5 -67v-346h-144v346z" />
    <glyph glyph-name="uni05D7" unicode="&#x5d7;" horiz-adv-x="595" 
d="M497.5 523c31 -32 46.5 -80.333 46.5 -145v-378h-145v385c0 52 -22.333 78 -67 78h-134v-463h-144v506v65h317c53.333 0 95.5 -16 126.5 -48z" />
    <glyph glyph-name="uni05D8" unicode="&#x5d8;" horiz-adv-x="591" 
d="M40 571h145.001l49 -453c69.333 6.66699 118.666 27.167 147.999 61.5s43.333 83.166 42 146.499v31c0 30 -8.16699 55.5 -24.5 76.5s-40.833 32.5 -73.5 34.5l-49 3l11 111l61 -3c62 -3.33301 112.833 -22.5 152.5 -57.5s60.5 -84.833 62.5 -149.5l1 -28
c4 -117.333 -33.833 -204.166 -113.5 -260.499s-194.5 -87.5 -344.5 -93.5z" />
    <glyph glyph-name="uni05D9" unicode="&#x5d9;" horiz-adv-x="259" 
d="M61 454l-12 117h144l12 -117v-156l-1 -63l-143 -25v244z" />
    <glyph glyph-name="uni05DA" unicode="&#x5da;" horiz-adv-x="512" 
d="M314 390c0 48.667 -22.667 73 -68 73h-207v108h247c53.333 0 95.333 -15.167 126 -45.5s46 -77.833 46 -142.5v-583h-144v590z" />
    <glyph glyph-name="uni05DB" unicode="&#x5db;" horiz-adv-x="485" 
d="M29 108h160c38.667 0 67.167 12.667 85.5 38s27.5 59.333 27.5 102v75c0 42.667 -9.16699 76.667 -27.5 102s-46.833 38 -85.5 38h-160v108h199c71.333 0 125.666 -22.833 162.999 -68.5s56 -108.167 56 -187.5v-59c0 -79.333 -18.667 -141.833 -56 -187.5
s-91.666 -68.5 -162.999 -68.5h-199v108z" />
    <glyph glyph-name="uni05DC" unicode="&#x5dc;" horiz-adv-x="498" 
d="M466 571v-119l-180 -452h-144l179 463h-290v254h130v-146h305z" />
    <glyph glyph-name="uni05DD" unicode="&#x5dd;" horiz-adv-x="592" 
d="M495.5 525.5c31 -30.333 46.5 -77.833 46.5 -142.5v-383h-145h-314h-30v571h144h172c53.333 0 95.5 -15.167 126.5 -45.5zM397 108v282c0 48.667 -22.333 73 -67 73h-133v-355h200z" />
    <glyph glyph-name="uni05DE" unicode="&#x5de;" horiz-adv-x="642" 
d="M538.5 66.5c-43 -53 -103.499 -79.498 -181.499 -79.498c-28 0 -58.667 4 -92 12l13 108c24.667 -5.33301 45.334 -8 62.001 -8c45.333 0 77.666 15.167 96.999 45.5s29 75.166 29 134.499c0 66 -9.16699 113.833 -27.5 143.5s-46.5 44.5 -84.5 44.5
c-26.667 0 -49.167 -8 -67.5 -24s-29.833 -37.667 -34.5 -65l-62 -378h-144l69 385l-80 186h150l40 -114c14 41.333 35 72.166 63 92.499s60 30.5 96 30.5c71.333 0 125.666 -24.5 162.999 -73.5s56 -122.833 56 -221.5c0 -92.667 -21.5 -165.5 -64.5 -218.5z" />
    <glyph glyph-name="uni05DF" unicode="&#x5df;" horiz-adv-x="259" 
d="M61 454l-12 117h144l12 -117v-654h-144v654z" />
    <glyph glyph-name="uni05E0" unicode="&#x5e0;" horiz-adv-x="381" 
d="M39 108l145.999 -0.000976562v289c0 24 -4.5 41 -13.5 51s-22.833 16.333 -41.5 19l-70 10l18 106l125 -16c40.667 -5.33301 71.834 -22.666 93.501 -51.999s32.5 -67.333 32.5 -114v-401h-290v108z" />
    <glyph glyph-name="uni05E1" unicode="&#x5e1;" horiz-adv-x="605" 
d="M447 75.5c-77.333 -52.333 -190 -80.834 -338 -85.501l-55 473l-14 108h307c65.333 0 116 -18.5 152 -55.5s55 -87.833 57 -152.5l1 -33c4 -117.333 -32.667 -202.166 -110 -254.499zM345.5 147.499c26.333 16.333 44.668 39.334 55.001 69.001s14.833 68.5 13.5 116.5
v30c0 30.667 -7 55 -21 73s-33 27 -57 27h-138l37 -345c47.333 3.33301 84.166 13.166 110.499 29.499z" />
    <glyph glyph-name="uni05E2" unicode="&#x5e2;" horiz-adv-x="576" 
d="M534 571c-0.666992 -132.667 -5.83301 -232.834 -15.5 -300.501s-35.167 -124.667 -76.5 -171s-108 -78.5 -200 -96.5l-214 -42l-20 113l159 30l-115 467h144l101 -435c30 14.667 51.667 37 65 67s21.5 66.333 24.5 109s4.5 107.334 4.5 194.001v65h143z" />
    <glyph glyph-name="uni05E3" unicode="&#x5e3;" horiz-adv-x="564" 
d="M457 503c35.333 -45.333 53 -107.667 53 -187v-516h-144v523c0 42.667 -8.33301 76.667 -25 102s-43 38 -79 38h-76l-12 -67c-1.33301 -14.667 -2 -25.334 -2 -32.001c0 -20 3.5 -35.833 10.5 -47.5s19.5 -18.5 37.5 -20.5l-26 -87
c-104.667 2.66699 -157 47.667 -157 135c0 14.667 2.33301 34.334 7 59.001l37 168h220c68.667 0 120.667 -22.667 156 -68z" />
    <glyph glyph-name="uni05E4" unicode="&#x5e4;" horiz-adv-x="557" 
d="M53 108l202 0.00195312c38.667 0 68.834 12.5 90.501 37.5s32.5 59.5 32.5 103.5v74c0 42 -9.5 75.833 -28.5 101.5s-46.833 38.5 -83.5 38.5h-72l-18 -85c-2 -8.66699 -3 -17 -3 -25c0 -16.667 5 -29.5 15 -38.5s26.333 -15.833 49 -20.5l-23 -90
c-59.333 1.33301 -102.333 14.666 -129 39.999s-40 59.666 -40 102.999c0 16 1.33301 30.667 4 44l40 180h211c69.333 0 123.666 -23 162.999 -69s59 -108 59 -186v-60c0 -80 -21 -142.667 -63 -188s-98.667 -68 -170 -68h-236v108z" />
    <glyph glyph-name="uni05E5" unicode="&#x5e5;" horiz-adv-x="533" 
d="M313 114l99 -314h-138l-241 771h137l88 -279l117 279h137z" />
    <glyph glyph-name="uni05E6" unicode="&#x5e6;" horiz-adv-x="559" 
d="M376 234l132 -234h-145h-333v108h272l-261 463h145l113 -201l82 201h142z" />
    <glyph glyph-name="uni05E7" unicode="&#x5e7;" horiz-adv-x="590" 
d="M245 107c45.333 4 79 19.333 101 46s35.333 72 40 136l13 174h-348v108h503l-5 -93l-11 -151c-10.667 -216.667 -104.667 -326 -282 -328zM43 279l20 69h125v-548h-145v479z" />
    <glyph glyph-name="uni05E8" unicode="&#x5e8;" horiz-adv-x="488" 
d="M290 390c0 48.667 -22.333 73 -67 73h-195v108h234c53.333 0 95.5 -15.167 126.5 -45.5s46.5 -77.833 46.5 -142.5v-383h-145v390z" />
    <glyph glyph-name="uni05E9" unicode="&#x5e9;" horiz-adv-x="678" 
d="M521 94.5c-80.667 -69.667 -205.665 -104.499 -374.998 -104.499h-31l-75 581h137l29 -247c26.667 13.333 44.667 33.333 54 60s13.666 66.667 12.999 120v66h137v-63c-1.33301 -73.333 -16 -132.833 -44 -178.5s-77.333 -80.5 -148 -104.5l14 -115
c95.333 6 163.333 33.5 204 82.5s60.667 117.167 60 204.5l-2 175h145l1 -167c1.33301 -136.667 -38.334 -239.834 -119.001 -309.501z" />
    <glyph glyph-name="uni05EA" unicode="&#x5ea;" horiz-adv-x="635" 
d="M18 81c25.333 2.66699 44.333 7.66699 57 15s21.334 17.5 26.001 30.5s6.66699 31.5 6 55.5v389h303c53.333 0 95.333 -15.167 126 -45.5s46 -77.833 46 -142.5v-383h-144v390c0 48.667 -22.667 73 -68 73h-118v-262c0 -50.667 -7.83301 -91 -23.5 -121
s-39.334 -52.5 -71.001 -67.5s-74.167 -24.833 -127.5 -29.5z" />
    <glyph glyph-name="uni05F3" unicode="&#x5f3;" horiz-adv-x="270" 
d="M50 523l88 180l92 -42l-107 -170z" />
    <glyph glyph-name="uni05F4" unicode="&#x5f4;" horiz-adv-x="455" 
d="M50 523l88 180l92 -42l-107 -170zM225 523l87 180l92 -42l-107 -170z" />
    <glyph glyph-name="uni1E06" unicode="&#x1e06;" horiz-adv-x="603" 
d="M79 653h219c158.667 0 238 -54 238 -162c0 -30.667 -8 -59.334 -24 -86.001s-37.333 -45 -64 -55v-4c36.667 -9.33301 66 -26.833 88 -52.5s33 -59.5 33 -101.5c0 -63.333 -23.333 -111.166 -70 -143.499s-107.667 -48.5 -183 -48.5h-237v653zM290 389
c38 0 66.167 7.16699 84.5 21.5s27.5 34.5 27.5 60.5c0 26.667 -9 46 -27 58s-46 18 -84 18h-75v-158h74zM304 106c87.333 0 131 31.667 131 95c0 30 -10.833 51.833 -32.5 65.5s-54.5 20.5 -98.5 20.5h-88v-181h88zM167 -98h292v-88h-292v88z" />
    <glyph glyph-name="uni1E07" unicode="&#x1e07;" horiz-adv-x="570" 
d="M253.5 4.5c-22.333 11 -43.5 27.1689 -63.5 48.502h-4l-11 -53h-107v703h136v-175l-3 -78c20 17.333 41.5 31.166 64.5 41.499s46.167 15.5 69.5 15.5c60 0 107.5 -22.667 142.5 -68s52.5 -106.333 52.5 -183c0 -54.667 -9.66699 -102.334 -29 -143.001
s-45 -71.667 -77 -93s-66.333 -32 -103 -32c-22.667 0 -45.167 5.5 -67.5 16.5zM362 139.002c18.667 26 28 64.333 28 115c0 94 -31 141 -93 141c-30.667 0 -61.667 -16 -93 -48v-212c26 -23.333 54.667 -35 86 -35c29.333 0 53.333 13 72 39zM141 -97.998h292v-88h-292v88z
" />
    <glyph glyph-name="uni1E0C" unicode="&#x1e0c;" horiz-adv-x="632" 
d="M79 653h181c102.667 0 182.5 -27 239.5 -81s85.5 -135 85.5 -243s-28.167 -189.833 -84.5 -245.5s-133.833 -83.5 -232.5 -83.5h-189v653zM252 111c128 0 192 72.668 192 218.001c0 75.333 -16.5 129.666 -49.5 162.999s-80.5 50 -142.5 50h-36v-431h36zM256.5 -202.499
c-14.333 13.667 -21.5 31.167 -21.5 52.5s7.16699 38.833 21.5 52.5s32.833 20.5 55.5 20.5s41.167 -6.83301 55.5 -20.5s21.5 -31.167 21.5 -52.5s-7.16699 -38.833 -21.5 -52.5s-32.833 -20.5 -55.5 -20.5s-41.167 6.83301 -55.5 20.5z" />
    <glyph glyph-name="uni1E0D" unicode="&#x1e0d;" horiz-adv-x="570" 
d="M95.5 57c-36.333 46 -54.499 109.335 -54.499 190.002c0 52 9.66699 97.667 29 137s44.833 69.666 76.5 90.999s65.167 32 100.5 32c26 0 48.333 -4.33301 67 -13s37.667 -22 57 -40l-5 77v172h137v-703h-112l-10 51h-3c-18.667 -18.667 -39.834 -33.834 -63.501 -45.501
s-47.5 -17.5 -71.5 -17.5c-62 0 -111.167 23 -147.5 69zM325.001 111.502c14 7.66699 27.666 19.833 40.999 36.5v212c-25.333 23.333 -54.666 35 -87.999 35c-27.333 0 -50.333 -12.667 -69 -38s-28 -61.333 -28 -108c0 -49.333 8.33301 -86.5 25 -111.5
s40.667 -37.5 72 -37.5c17.333 0 33 3.83301 47 11.5zM242.5 -202.499c-14.333 13.667 -21.5 31.167 -21.5 52.5s7.16699 38.833 21.5 52.5s32.833 20.5 55.5 20.5s41.167 -6.83301 55.5 -20.5s21.5 -31.167 21.5 -52.5s-7.16699 -38.833 -21.5 -52.5
s-32.833 -20.5 -55.5 -20.5s-41.167 6.83301 -55.5 20.5z" />
    <glyph glyph-name="uni1E0E" unicode="&#x1e0e;" horiz-adv-x="632" 
d="M79 653h181c102.667 0 182.5 -27 239.5 -81s85.5 -135 85.5 -243s-28.167 -189.833 -84.5 -245.5s-133.833 -83.5 -232.5 -83.5h-189v653zM252 111c128 0 192 72.668 192 218.001c0 75.333 -16.5 129.666 -49.5 162.999s-80.5 50 -142.5 50h-36v-431h36zM166 -97.999h292
v-88h-292v88z" />
    <glyph glyph-name="uni1E0F" unicode="&#x1e0f;" horiz-adv-x="570" 
d="M95.5 57c-36.333 46 -54.499 109.335 -54.499 190.002c0 52 9.66699 97.667 29 137s44.833 69.666 76.5 90.999s65.167 32 100.5 32c26 0 48.333 -4.33301 67 -13s37.667 -22 57 -40l-5 77v172h137v-703h-112l-10 51h-3c-18.667 -18.667 -39.834 -33.834 -63.501 -45.501
s-47.5 -17.5 -71.5 -17.5c-62 0 -111.167 23 -147.5 69zM325.001 111.502c14 7.66699 27.666 19.833 40.999 36.5v212c-25.333 23.333 -54.666 35 -87.999 35c-27.333 0 -50.333 -12.667 -69 -38s-28 -61.333 -28 -108c0 -49.333 8.33301 -86.5 25 -111.5
s40.667 -37.5 72 -37.5c17.333 0 33 3.83301 47 11.5zM152 -97.999h292v-88h-292v88z" />
    <glyph glyph-name="uni1E20" unicode="&#x1e20;" horiz-adv-x="635" 
d="M200.5 27c-47.667 26 -85.167 64.167 -112.5 114.5s-41 110.833 -41 181.5c0 70 14 130.833 42 182.5s65.833 91.167 113.5 118.5s100.834 41 159.501 41c79.333 0 147 -28 203 -84l-72 -88c-18.667 17.333 -37.834 30.5 -57.501 39.5s-42.5 13.5 -68.5 13.5
c-54 0 -97.333 -19.5 -130 -58.5s-49 -92.167 -49 -159.5c0 -70.667 16 -125.167 48 -163.5s79 -57.5 141 -57.5c14.667 0 29 2 43 6s25.333 9.33301 34 16v122h-113v112h235v-296c-24 -23.333 -54.667 -42.333 -92 -57s-77.666 -22 -120.999 -22
c-60.667 0 -114.834 13 -162.501 39zM216 812h298v-88h-298v88z" />
    <glyph glyph-name="uni1E21" unicode="&#x1e21;" horiz-adv-x="530" 
d="M93.5 -181c-38.333 21.333 -57.499 52.667 -57.499 94s23.667 75.333 71 102v4c-30 19.333 -45 47.333 -45 84c0 17.333 5.16699 34.333 15.5 51s23.5 30.334 39.5 41.001v4c-19.333 13.333 -35.166 31.333 -47.499 54s-18.5 47.667 -18.5 75
c0 37.333 9.16699 69.5 27.5 96.5s42.833 47.5 73.5 61.5s64 21 100 21c25.333 0 50.666 -4 75.999 -12h179v-100h-83c6 -8 11 -18.5 15 -31.5s6 -26.167 6 -39.5c0 -54 -18 -95.333 -54 -124s-82.333 -43 -139 -43c-20.667 0 -41.334 3.33301 -62.001 10
c-6.66699 -6 -11.667 -11.833 -15 -17.5s-5 -13.167 -5 -22.5c0 -12.667 5.83301 -22.334 17.5 -29.001s31.167 -10 58.5 -10h83c61.333 0 107.666 -10 138.999 -30s47 -51.667 47 -95c0 -33.333 -11.167 -63.5 -33.5 -90.5s-54 -48 -95 -63s-88.833 -22.5 -143.5 -22.5
c-61.333 0 -111.166 10.667 -149.499 32zM305.501 263.001c13.667 15.333 20.5 37 20.5 65c0 27.333 -6.83301 48.5 -20.5 63.5s-31.5 22.5 -53.5 22.5s-39.667 -7.5 -53 -22.5s-20 -36.167 -20 -63.5s6.83301 -48.833 20.5 -64.5s31.167 -23.5 52.5 -23.5
c22 0 39.833 7.66699 53.5 23zM350.001 -107.499c22.667 13 33.999 28.833 33.999 47.5c0 16 -6.33301 27 -19 33s-32.667 9 -60 9h-57c-29.333 0 -52 2.33301 -68 7c-20.667 -16.667 -31 -34.667 -31 -54c0 -20 10.333 -35.333 31 -46s48.667 -16 84 -16
c34.667 0 63.334 6.5 86.001 19.5zM126 681.001h292v-88h-292v88z" />
    <glyph glyph-name="uni1E24" unicode="&#x1e24;" horiz-adv-x="670" 
d="M79 653h137v-255h238v255h137v-653h-137v278h-238v-278h-137v653zM278.5 -202.5c-14.333 13.667 -21.5 31.167 -21.5 52.5s7.16699 38.833 21.5 52.5s32.833 20.5 55.5 20.5s41.167 -6.83301 55.5 -20.5s21.5 -31.167 21.5 -52.5s-7.16699 -38.833 -21.5 -52.5
s-32.833 -20.5 -55.5 -20.5s-41.167 6.83301 -55.5 20.5z" />
    <glyph glyph-name="uni1E25" unicode="&#x1e25;" horiz-adv-x="567" 
d="M68 703l135.998 -0.000976562v-175l-6 -92c23.333 22 47.333 39.333 72 52s52.334 19 83.001 19c52 0 90.5 -17.167 115.5 -51.5s37.5 -83.5 37.5 -147.5v-308h-137v291c0 36.667 -5.16699 62.334 -15.5 77.001s-27.166 22 -50.499 22c-18.667 0 -35 -4 -49 -12
s-30.667 -21.333 -50 -40v-338h-136v703zM239.498 -202.501c-14.333 13.667 -21.5 31.167 -21.5 52.5s7.16699 38.833 21.5 52.5s32.833 20.5 55.5 20.5s41.167 -6.83301 55.5 -20.5s21.5 -31.167 21.5 -52.5s-7.16699 -38.833 -21.5 -52.5s-32.833 -20.5 -55.5 -20.5
s-41.167 6.83301 -55.5 20.5z" />
    <glyph glyph-name="uni1E2A" unicode="&#x1e2a;" horiz-adv-x="670" 
d="M79 653h137v-255h238v255h137v-653h-137v278h-238v-278h-137v653zM211 -189.5c-28 29 -42.667 66.5 -44 112.5l78 13c4 -24 13.333 -43.833 28 -59.5s35 -23.5 61 -23.5s46.333 7.83301 61 23.5s24 35.5 28 59.5l78 -13c-1.33301 -46 -16 -83.5 -44 -112.5
s-69 -43.5 -123 -43.5s-95 14.5 -123 43.5z" />
    <glyph glyph-name="uni1E2B" unicode="&#x1e2b;" horiz-adv-x="567" 
d="M68 703l135.998 -0.000976562v-175l-6 -92c23.333 22 47.333 39.333 72 52s52.334 19 83.001 19c52 0 90.5 -17.167 115.5 -51.5s37.5 -83.5 37.5 -147.5v-308h-137v291c0 36.667 -5.16699 62.334 -15.5 77.001s-27.166 22 -50.499 22c-18.667 0 -35 -4 -49 -12
s-30.667 -21.333 -50 -40v-338h-136v703zM171.998 -189.501c-28 29 -42.667 66.5 -44 112.5l78 13c4 -24 13.333 -43.833 28 -59.5s35 -23.5 61 -23.5s46.333 7.83301 61 23.5s24 35.5 28 59.5l78 -13c-1.33301 -46 -16 -83.5 -44 -112.5s-69 -43.5 -123 -43.5
s-95 14.5 -123 43.5z" />
    <glyph glyph-name="uni1E32" unicode="&#x1e32;" horiz-adv-x="609" 
d="M79 653h137v-277h4l207 277h151l-199 -259l234 -394h-150l-165 286l-82 -106v-180h-137v653zM276.5 -202.5c-14.333 13.667 -21.5 31.167 -21.5 52.5s7.16699 38.833 21.5 52.5s32.833 20.5 55.5 20.5s41.167 -6.83301 55.5 -20.5s21.5 -31.167 21.5 -52.5
s-7.16699 -38.833 -21.5 -52.5s-32.833 -20.5 -55.5 -20.5s-41.167 6.83301 -55.5 20.5z" />
    <glyph glyph-name="uni1E33" unicode="&#x1e33;" horiz-adv-x="539" 
d="M68 703h133v-415h4l165 207h149l-172 -203l186 -292h-148l-116 200l-68 -77v-123h-133v703zM235.5 -202.5c-14.333 13.667 -21.5 31.167 -21.5 52.5s7.16699 38.833 21.5 52.5s32.833 20.5 55.5 20.5s41.167 -6.83301 55.5 -20.5s21.5 -31.167 21.5 -52.5
s-7.16699 -38.833 -21.5 -52.5s-32.833 -20.5 -55.5 -20.5s-41.167 6.83301 -55.5 20.5z" />
    <glyph glyph-name="uni1E34" unicode="&#x1e34;" horiz-adv-x="609" 
d="M79 653h137v-277h4l207 277h151l-199 -259l234 -394h-150l-165 286l-82 -106v-180h-137v653zM186 -98h292v-88h-292v88z" />
    <glyph glyph-name="uni1E35" unicode="&#x1e35;" horiz-adv-x="539" 
d="M68 703h133v-415h4l165 207h149l-172 -203l186 -292h-148l-116 200l-68 -77v-123h-133v703zM145 -98h292v-88h-292v88z" />
    <glyph glyph-name="uni1E62" unicode="&#x1e62;" horiz-adv-x="552" 
d="M147 12.5c-42 16.333 -78.999 39.832 -110.999 70.499l79 94c24 -21.333 50.5 -38.333 79.5 -51s57.167 -19 84.5 -19c32 0 56.5 6.16699 73.5 18.5s25.5 29.5 25.5 51.5c0 14 -3.83301 25.667 -11.5 35s-17.334 17 -29.001 23s-30.5 14.333 -56.5 25l-86 37
c-38.667 16 -70.334 38.5 -95.001 67.5s-37 65.5 -37 109.5c0 35.333 9.83301 67.5 29.5 96.5s46.834 52 81.501 69s73.667 25.5 117 25.5c38 0 75.333 -7.5 112 -22.5s68.334 -35.833 95.001 -62.5l-69 -87c-22.667 18 -45 31.333 -67 40s-45.667 13 -71 13
c-27.333 0 -49 -5.66699 -65 -17s-24 -27 -24 -47c0 -14 4.16699 -25.667 12.5 -35s18.666 -17 30.999 -23s31.5 -14.333 57.5 -25l84 -34c42 -17.333 74.333 -40.166 97 -68.499s34 -64.5 34 -108.5c0 -36.667 -9.66699 -70.167 -29 -100.5s-47.333 -54.5 -84 -72.5
s-79.667 -27 -129 -27c-44 0 -87 8.16699 -129 24.5zM223.501 -202.501c-14.333 13.667 -21.5 31.167 -21.5 52.5s7.16699 38.833 21.5 52.5s32.833 20.5 55.5 20.5s41.167 -6.83301 55.5 -20.5s21.5 -31.167 21.5 -52.5s-7.16699 -38.833 -21.5 -52.5
s-32.833 -20.5 -55.5 -20.5s-41.167 6.83301 -55.5 20.5z" />
    <glyph glyph-name="uni1E63" unicode="&#x1e63;" horiz-adv-x="439" 
d="M111.5 7c-34.333 12.667 -64.166 29.3359 -89.499 50.0029l62 86c23.333 -18 45.5 -31.333 66.5 -40s42.5 -13 64.5 -13c22.667 0 39.667 4.16699 51 12.5s17 20.166 17 35.499c0 10.667 -4.5 20 -13.5 28s-21.833 15.5 -38.5 22.5l-50 20.5
c-39.333 15.333 -71.5 34.166 -96.5 56.499s-37.5 51.833 -37.5 88.5c0 45.333 17 82.166 51 110.499s79 42.5 135 42.5c61.333 0 118.333 -20.667 171 -62l-61 -82c-39.333 28 -74.666 42 -105.999 42c-20.667 0 -36.167 -4 -46.5 -12s-15.5 -18.667 -15.5 -32
s6.66699 -24.166 20 -32.499s28.666 -15.5 45.999 -21.5s28.666 -10 33.999 -12c42 -15.333 75.167 -33.833 99.5 -55.5s36.5 -52.834 36.5 -93.501c0 -30 -7.83301 -56.833 -23.5 -80.5s-38.5 -42.5 -68.5 -56.5s-66 -21 -108 -21c-32 0 -65.167 6.33301 -99.5 19z
M171.5 -202.498c-14.333 13.667 -21.5 31.167 -21.5 52.5s7.16699 38.833 21.5 52.5s32.833 20.5 55.5 20.5s41.167 -6.83301 55.5 -20.5s21.5 -31.167 21.5 -52.5s-7.16699 -38.833 -21.5 -52.5s-32.833 -20.5 -55.5 -20.5s-41.167 6.83301 -55.5 20.5z" />
    <glyph glyph-name="uni1E6C" unicode="&#x1e6c;" horiz-adv-x="553" 
d="M208 538h-182v115h502v-115h-183v-538h-137v538zM221.5 -202.5c-14.333 13.667 -21.5 31.167 -21.5 52.5s7.16699 38.833 21.5 52.5s32.833 20.5 55.5 20.5s41.167 -6.83301 55.5 -20.5s21.5 -31.167 21.5 -52.5s-7.16699 -38.833 -21.5 -52.5s-32.833 -20.5 -55.5 -20.5
s-41.167 6.83301 -55.5 20.5z" />
    <glyph glyph-name="uni1E6D" unicode="&#x1e6d;" horiz-adv-x="376" 
d="M127 37.5c-26.667 33 -40 79.167 -40 138.5v211h-69v102l76 6l16 132h113v-132h121v-108h-121v-210c0 -54 22 -81 66 -81c14 0 30.333 3.33301 49 10l22 -100c-36 -12 -71.667 -18 -107 -18c-57.333 0 -99.333 16.5 -126 49.5zM165.5 -202.5
c-14.333 13.667 -21.5 31.167 -21.5 52.5s7.16699 38.833 21.5 52.5s32.833 20.5 55.5 20.5s41.167 -6.83301 55.5 -20.5s21.5 -31.167 21.5 -52.5s-7.16699 -38.833 -21.5 -52.5s-32.833 -20.5 -55.5 -20.5s-41.167 6.83301 -55.5 20.5z" />
    <glyph glyph-name="uni1E6E" unicode="&#x1e6e;" horiz-adv-x="553" 
d="M208 538h-182v115h502v-115h-183v-538h-137v538zM131 -98h292v-88h-292v88z" />
    <glyph glyph-name="uni1E6F" unicode="&#x1e6f;" horiz-adv-x="376" 
d="M127 37.5c-26.667 33 -40 79.167 -40 138.5v211h-69v102l76 6l16 132h113v-132h121v-108h-121v-210c0 -54 22 -81 66 -81c14 0 30.333 3.33301 49 10l22 -100c-36 -12 -71.667 -18 -107 -18c-57.333 0 -99.333 16.5 -126 49.5zM75 -98h292v-88h-292v88z" />
    <glyph glyph-name="uni1E7E" unicode="&#x1e7e;" horiz-adv-x="550" 
d="M-6 653h145.001l83 -312c10 -36 19 -71 27 -105c21.333 -84 30.333 -119.333 27 -106h4c3.33301 12 14.666 55.667 33.999 131l20 80l82 312h140l-199 -653h-164zM217.501 -202.5c-14.333 13.667 -21.5 31.167 -21.5 52.5s7.16699 38.833 21.5 52.5
s32.833 20.5 55.5 20.5s41.167 -6.83301 55.5 -20.5s21.5 -31.167 21.5 -52.5s-7.16699 -38.833 -21.5 -52.5s-32.833 -20.5 -55.5 -20.5s-41.167 6.83301 -55.5 20.5z" />
    <glyph glyph-name="uni1E7F" unicode="&#x1e7f;" horiz-adv-x="514" 
d="M12 495h138l69 -241l39 -151h4l40 151l69 241h131l-164 -495h-157zM203.5 -202.5c-14.333 13.667 -21.5 31.167 -21.5 52.5s7.16699 38.833 21.5 52.5s32.833 20.5 55.5 20.5s41.167 -6.83301 55.5 -20.5s21.5 -31.167 21.5 -52.5s-7.16699 -38.833 -21.5 -52.5
s-32.833 -20.5 -55.5 -20.5s-41.167 6.83301 -55.5 20.5z" />
    <glyph glyph-name="uni1E92" unicode="&#x1e92;" horiz-adv-x="541" 
d="M37 83l298 455h-270v115h439v-83l-298 -455h300v-115h-469v83zM226.5 -202.5c-14.333 13.667 -21.5 31.167 -21.5 52.5s7.16699 38.833 21.5 52.5s32.833 20.5 55.5 20.5s41.167 -6.83301 55.5 -20.5s21.5 -31.167 21.5 -52.5s-7.16699 -38.833 -21.5 -52.5
s-32.833 -20.5 -55.5 -20.5s-41.167 6.83301 -55.5 20.5z" />
    <glyph glyph-name="uni1E93" unicode="&#x1e93;" horiz-adv-x="455" 
d="M37 73l216 314h-192v108h362v-73l-216 -314h223v-108h-393v73zM185.5 -202.5c-14.333 13.667 -21.5 31.167 -21.5 52.5s7.16699 38.833 21.5 52.5s32.833 20.5 55.5 20.5s41.167 -6.83301 55.5 -20.5s21.5 -31.167 21.5 -52.5s-7.16699 -38.833 -21.5 -52.5
s-32.833 -20.5 -55.5 -20.5s-41.167 6.83301 -55.5 20.5z" />
    <glyph glyph-name="uni1E94" unicode="&#x1e94;" horiz-adv-x="541" 
d="M37 83l298 455h-270v115h439v-83l-298 -455h300v-115h-469v83zM136 -98h292v-88h-292v88z" />
    <glyph glyph-name="uni1E95" unicode="&#x1e95;" horiz-adv-x="455" 
d="M37 73l216 314h-192v108h362v-73l-216 -314h223v-108h-393v73zM95 -98h292v-88h-292v88z" />
    <glyph glyph-name="uni1E96" unicode="&#x1e96;" horiz-adv-x="567" 
d="M68 703l135.998 -0.000976562v-175l-6 -92c23.333 22 47.333 39.333 72 52s52.334 19 83.001 19c52 0 90.5 -17.167 115.5 -51.5s37.5 -83.5 37.5 -147.5v-308h-137v291c0 36.667 -5.16699 62.334 -15.5 77.001s-27.166 22 -50.499 22c-18.667 0 -35 -4 -49 -12
s-30.667 -21.333 -50 -40v-338h-136v703zM148.998 -98.001h292v-88h-292v88z" />
    <glyph glyph-name="uni1EA0" unicode="&#x1ea0;" horiz-adv-x="568" 
d="M384 163h-205l-44 -163h-140l208 653h163l207 -653h-145zM356 269l-18 67l-36 138l-19 74h-4c-20 -86 -37.667 -156.667 -53 -212l-18 -67h148zM225.5 -202.5c-14.333 13.667 -21.5 31.167 -21.5 52.5s7.16699 38.833 21.5 52.5s32.833 20.5 55.5 20.5
s41.167 -6.83301 55.5 -20.5s21.5 -31.167 21.5 -52.5s-7.16699 -38.833 -21.5 -52.5s-32.833 -20.5 -55.5 -20.5s-41.167 6.83301 -55.5 20.5z" />
    <glyph glyph-name="uni1EA1" unicode="&#x1ea1;" horiz-adv-x="524" 
d="M84.5 30c-27 28 -40.502 63.333 -40.502 106c0 52.667 22.333 93.5 67 122.5s116.334 48.833 215.001 59.5c-2 53.333 -29.333 80 -82 80c-20.667 0 -41.667 -4 -63 -12s-44.666 -19.333 -69.999 -34l-49 90c70 43.333 139.333 65 208 65
c63.333 0 111.333 -18.5 144 -55.5s49 -92.167 49 -165.5v-286h-112l-10 52h-3c-49.333 -42.667 -98.333 -64 -147 -64c-44 0 -79.5 14 -106.5 42zM281.498 105.5c13.667 7.66699 28.499 19.167 44.499 34.5v95c-54 -7.33301 -92.667 -18.333 -116 -33s-35 -33 -35 -55
c0 -17.333 5.33301 -30.5 16 -39.5s25.667 -13.5 45 -13.5c16.667 0 31.834 3.83301 45.501 11.5zM200.497 -202.5c-14.333 13.667 -21.5 31.167 -21.5 52.5s7.16699 38.833 21.5 52.5s32.833 20.5 55.5 20.5s41.167 -6.83301 55.5 -20.5s21.5 -31.167 21.5 -52.5
s-7.16699 -38.833 -21.5 -52.5s-32.833 -20.5 -55.5 -20.5s-41.167 6.83301 -55.5 20.5z" />
    <glyph glyph-name="uni1EB8" unicode="&#x1eb8;" horiz-adv-x="545" 
d="M79 653h404v-115h-267v-143h227v-115h-227v-165h277v-115h-414v653zM234.5 -202.5c-14.333 13.667 -21.5 31.167 -21.5 52.5s7.16699 38.833 21.5 52.5s32.833 20.5 55.5 20.5s41.167 -6.83301 55.5 -20.5s21.5 -31.167 21.5 -52.5s-7.16699 -38.833 -21.5 -52.5
s-32.833 -20.5 -55.5 -20.5s-41.167 6.83301 -55.5 20.5z" />
    <glyph glyph-name="uni1EB9" unicode="&#x1eb9;" horiz-adv-x="514" 
d="M472 208l-305.999 0.00195312c6.66699 -39.333 22.834 -68.333 48.501 -87s55.5 -28 89.5 -28c35.333 0 72 11 110 33l45 -83c-24.667 -17.333 -52.167 -30.833 -82.5 -40.5s-60.5 -14.5 -90.5 -14.5c-46.667 0 -88.834 10.333 -126.501 31s-67.334 50.667 -89.001 90
s-32.5 85.333 -32.5 138c0 52 10.833 97.667 32.5 137s50.167 69.666 85.5 90.999s73 32 113 32c67.333 0 119 -21.833 155 -65.5s54 -100.834 54 -171.501c0 -25.333 -2 -46 -6 -62zM361.001 299.002c0 32 -7.33301 57.167 -22 75.5s-37 27.5 -67 27.5
c-24.667 0 -46.5 -8.5 -65.5 -25.5s-31.833 -42.833 -38.5 -77.5h193zM209.501 -202.498c-14.333 13.667 -21.5 31.167 -21.5 52.5s7.16699 38.833 21.5 52.5s32.833 20.5 55.5 20.5s41.167 -6.83301 55.5 -20.5s21.5 -31.167 21.5 -52.5s-7.16699 -38.833 -21.5 -52.5
s-32.833 -20.5 -55.5 -20.5s-41.167 6.83301 -55.5 20.5z" />
    <glyph glyph-name="uni1ECC" unicode="&#x1ecc;" horiz-adv-x="681" 
d="M187.5 29c-44.333 27.333 -78.833 66.834 -103.5 118.501s-37 112.167 -37 181.5c0 70 12.333 130.167 37 180.5s59.167 88.833 103.5 115.5s95.5 40 153.5 40s109.167 -13.333 153.5 -40s78.666 -65.334 102.999 -116.001s36.5 -110.667 36.5 -180
s-12.167 -129.833 -36.5 -181.5s-58.666 -91.167 -102.999 -118.5s-95.5 -41 -153.5 -41s-109.167 13.667 -153.5 41zM452.5 167.001c27.667 40 41.498 94 41.498 162c0 67.333 -13.833 120.333 -41.5 159s-64.834 58 -111.501 58c-47.333 0 -84.666 -19.167 -111.999 -57.5
s-41 -91.5 -41 -159.5s13.833 -122 41.5 -162s64.834 -60 111.501 -60s83.834 20 111.501 60zM285.498 -202.499c-14.333 13.667 -21.5 31.167 -21.5 52.5s7.16699 38.833 21.5 52.5s32.833 20.5 55.5 20.5s41.167 -6.83301 55.5 -20.5s21.5 -31.167 21.5 -52.5
s-7.16699 -38.833 -21.5 -52.5s-32.833 -20.5 -55.5 -20.5s-41.167 6.83301 -55.5 20.5z" />
    <glyph glyph-name="uni1ECD" unicode="&#x1ecd;" horiz-adv-x="553" 
d="M158.5 19c-36.333 20.667 -65.5 50.6699 -87.5 90.0029s-33 85.333 -33 138c0 53.333 11 99.666 33 138.999s51.167 69.333 87.5 90s75.833 31 118.5 31c42 0 81.333 -10.333 118 -31s66 -50.834 88 -90.501s33 -85.834 33 -138.501s-11 -98.667 -33 -138
s-51.333 -69.333 -88 -90s-76 -31 -118 -31c-42.667 0 -82.167 10.333 -118.5 31zM350 138.503c17.333 26.333 26 62.5 26 108.5s-8.66699 82.333 -26 109s-41.666 40 -72.999 40c-32 0 -56.5 -13.333 -73.5 -40s-25.5 -63 -25.5 -109s8.5 -82.167 25.5 -108.5
s41.5 -39.5 73.5 -39.5c31.333 0 55.666 13.167 72.999 39.5zM221.5 -202.497c-14.333 13.667 -21.5 31.167 -21.5 52.5s7.16699 38.833 21.5 52.5s32.833 20.5 55.5 20.5s41.167 -6.83301 55.5 -20.5s21.5 -31.167 21.5 -52.5s-7.16699 -38.833 -21.5 -52.5
s-32.833 -20.5 -55.5 -20.5s-41.167 6.83301 -55.5 20.5z" />
    <glyph glyph-name="uni200E" unicode="&#x200e;" horiz-adv-x="0" 
d="M14 792l63 66h-191v36h191l-63 63l25 27l105 -109l-105 -108z" />
    <glyph glyph-name="uni200F" unicode="&#x200f;" horiz-adv-x="0" 
d="M-144 875l105 109l25 -26l-63 -64h193v-36h-192l62 -66l-25 -24z" />
    <glyph glyph-name="uni2010" unicode="&#x2010;" horiz-adv-x="329" 
d="M43 302h243v-98h-243v98z" />
    <glyph glyph-name="endash" unicode="&#x2013;" horiz-adv-x="480" 
d="M43 297h394v-88h-394v88z" />
    <glyph glyph-name="emdash" unicode="&#x2014;" horiz-adv-x="800" 
d="M43 297h714v-88h-714v88z" />
    <glyph glyph-name="quoteleft" unicode="&#x2018;" horiz-adv-x="292" 
d="M196 481c14 -12.667 21 -29.332 21 -49.999c0 -24 -6.66699 -43 -20 -57s-31 -21 -53 -21c-28.667 0 -50.667 10.833 -66 32.5s-23 52.167 -23 91.5c0 93.333 45.667 162.666 137 207.999l31 -60c-30 -15.333 -52.167 -33 -66.5 -53s-21.5 -44.333 -21.5 -73
c2 0.666992 5 1 9 1c20.667 0 38 -6.33301 52 -19z" />
    <glyph glyph-name="quoteright" unicode="&#x2019;" horiz-adv-x="292" 
d="M214 665c15.333 -21.333 23 -52 23 -92c0 -92.667 -45.333 -162 -136 -208l-31 60c30 15.333 52.167 33 66.5 53s21.5 44.333 21.5 73c-2 -0.666992 -5.33301 -1 -10 -1c-20.667 0 -38 6.5 -52 19.5s-21 29.833 -21 50.5c0 23.333 6.83301 42 20.5 56s31.167 21 52.5 21
c28.667 0 50.667 -10.667 66 -32z" />
    <glyph glyph-name="quotesinglbase" unicode="&#x201a;" horiz-adv-x="292" 
d="M214 135c15.333 -21.333 23 -52 23 -92c0 -92.667 -45.333 -162 -136 -208l-31 60c30 15.333 52.167 33 66.5 53s21.5 44.333 21.5 73c-2 -0.666992 -5.33301 -1 -10 -1c-20.667 0 -38 6.5 -52 19.5s-21 29.833 -21 50.5c0 23.333 6.83301 42 20.5 56s31.167 21 52.5 21
c28.667 0 50.667 -10.667 66 -32z" />
    <glyph glyph-name="quotedblleft" unicode="&#x201c;" horiz-adv-x="519" 
d="M196 481c14 -12.667 21 -29.332 21 -49.999c0 -24 -6.66699 -43 -20 -57s-31 -21 -53 -21c-28.667 0 -50.667 10.833 -66 32.5s-23 52.167 -23 91.5c0 93.333 45.667 162.666 137 207.999l31 -60c-30 -15.333 -52.167 -33 -66.5 -53s-21.5 -44.333 -21.5 -73
c2 0.666992 5 1 9 1c20.667 0 38 -6.33301 52 -19zM423 481.002c14 -12.667 21 -29.332 21 -49.999c0 -24 -6.66699 -43 -20 -57s-31 -21 -53 -21c-28.667 0 -50.667 10.833 -66 32.5s-23 52.167 -23 91.5c0 93.333 45.667 162.666 137 207.999l31 -60
c-30 -15.333 -52.167 -33 -66.5 -53s-21.5 -44.333 -21.5 -73c2 0.666992 5 1 9 1c20.667 0 38 -6.33301 52 -19z" />
    <glyph glyph-name="quotedblright" unicode="&#x201d;" horiz-adv-x="519" 
d="M214 665c15.333 -21.333 23 -52 23 -92c0 -92.667 -45.333 -162 -136 -208l-31 60c30 15.333 52.167 33 66.5 53s21.5 44.333 21.5 73c-2 -0.666992 -5.33301 -1 -10 -1c-20.667 0 -38 6.5 -52 19.5s-21 29.833 -21 50.5c0 23.333 6.83301 42 20.5 56s31.167 21 52.5 21
c28.667 0 50.667 -10.667 66 -32zM441 665c15.333 -21.333 23 -52 23 -92c0 -92.667 -45.333 -162 -136 -208l-31 60c30 15.333 52.167 33 66.5 53s21.5 44.333 21.5 73c-2 -0.666992 -5.33301 -1 -10 -1c-20.667 0 -38 6.5 -52 19.5s-21 29.833 -21 50.5
c0 23.333 6.83301 42 20.5 56s31.167 21 52.5 21c28.667 0 50.667 -10.667 66 -32z" />
    <glyph glyph-name="quotedblbase" unicode="&#x201e;" horiz-adv-x="519" 
d="M214 135c15.333 -21.333 23 -52 23 -92c0 -92.667 -45.333 -162 -136 -208l-31 60c30 15.333 52.167 33 66.5 53s21.5 44.333 21.5 73c-2 -0.666992 -5.33301 -1 -10 -1c-20.667 0 -38 6.5 -52 19.5s-21 29.833 -21 50.5c0 23.333 6.83301 42 20.5 56s31.167 21 52.5 21
c28.667 0 50.667 -10.667 66 -32zM441 135c15.333 -21.333 23 -52 23 -92c0 -92.667 -45.333 -162 -136 -208l-31 60c30 15.333 52.167 33 66.5 53s21.5 44.333 21.5 73c-2 -0.666992 -5.33301 -1 -10 -1c-20.667 0 -38 6.5 -52 19.5s-21 29.833 -21 50.5
c0 23.333 6.83301 42 20.5 56s31.167 21 52.5 21c28.667 0 50.667 -10.667 66 -32z" />
    <glyph glyph-name="dagger" unicode="&#x2020;" horiz-adv-x="501" 
d="M204 447l-158 -8v110l158 -8l-8 171h110l-8 -171l158 8v-110l-158 8l8 -527h-110z" />
    <glyph glyph-name="daggerdbl" unicode="&#x2021;" horiz-adv-x="501" 
d="M204 91l-158 -8v110l158 -11l-8 134l8 134l-158 -11v110l158 -8l-8 171h110l-8 -171l158 8v-110l-158 11l8 -134l-8 -134l158 11v-110l-158 8l8 -171h-110z" />
    <glyph glyph-name="bullet" unicode="&#x2022;" horiz-adv-x="338" 
d="M77.5 166c-25 26 -37.5 58.333 -37.5 97s12.5 71 37.5 97s55.5 39 91.5 39s66.5 -13 91.5 -39s37.5 -58.333 37.5 -97s-12.5 -71 -37.5 -97s-55.5 -39 -91.5 -39s-66.5 13 -91.5 39z" />
    <glyph glyph-name="ellipsis" unicode="&#x2026;" horiz-adv-x="996" 
d="M106 13c-16 16.667 -24 37.667 -24 63s8 46.333 24 63s36 25 60 25s44 -8.33301 60 -25s24 -37.667 24 -63s-8 -46.333 -24 -63s-36 -25 -60 -25s-44 8.33301 -60 25zM440 13c-16 16.667 -24 37.667 -24 63s8 46.333 24 63s36 25 60 25s44 -8.33301 60 -25
s24 -37.667 24 -63s-8 -46.333 -24 -63s-36 -25 -60 -25s-44 8.33301 -60 25zM774 13c-16 16.667 -24 37.667 -24 63s8 46.333 24 63s36 25 60 25s44 -8.33301 60 -25s24 -37.667 24 -63s-8 -46.333 -24 -63s-36 -25 -60 -25s-44 8.33301 -60 25z" />
    <glyph glyph-name="uni202D" unicode="&#x202d;" horiz-adv-x="0" 
d="M-57 792l63 66h-162v36h160l-61 63l26 27l104 -109l-104 -108zM41 792l82 83l-82 82l25 27l105 -109l-105 -108z" />
    <glyph glyph-name="uni202E" unicode="&#x202e;" horiz-adv-x="0" 
d="M-171 914l105 107l25 -26l-80 -81l80 -83l-25 -26zM-71 914l102 107l28 -26l-63 -66h161v-34h-161l63 -64l-28 -26z" />
    <glyph glyph-name="perthousand" unicode="&#x2030;" horiz-adv-x="1233" 
d="M86.5 316.5c-29.667 37 -44.5 87.833 -44.5 152.5c0 64 14.833 114.333 44.5 151s68.5 55 116.5 55c47.333 0 85.833 -18.333 115.5 -55s44.5 -87 44.5 -151s-14.833 -114.667 -44.5 -152s-68.167 -56 -115.5 -56c-48 0 -86.833 18.5 -116.5 55.5zM560 665h80l-354 -677
h-80zM249.5 370c11.667 21.333 17.5 54.333 17.5 99s-5.83301 77.334 -17.5 98.001s-27.167 31 -46.5 31s-35 -10.333 -47 -31s-18 -53.334 -18 -98.001s6 -77.667 18 -99s27.667 -32 47 -32s34.833 10.667 46.5 32zM540.5 44c-29.667 37.333 -44.5 88 -44.5 152
s14.833 114.333 44.5 151s68.167 55 115.5 55c48 0 86.833 -18.333 116.5 -55s44.5 -87 44.5 -151c0 -64.667 -14.833 -115.5 -44.5 -152.5s-68.5 -55.5 -116.5 -55.5c-47.333 0 -85.833 18.667 -115.5 56zM914.5 44c-29.667 37.333 -44.5 88 -44.5 152
s14.833 114.333 44.5 151s68.167 55 115.5 55c48 0 86.833 -18.333 116.5 -55s44.5 -87 44.5 -151c0 -64.667 -14.833 -115.5 -44.5 -152.5s-68.5 -55.5 -116.5 -55.5c-47.333 0 -85.833 18.667 -115.5 56zM703 97c12 21.333 18 54.333 18 99s-6 77.334 -18 98.001
s-27.667 31 -47 31s-34.833 -10.333 -46.5 -31s-17.5 -53.334 -17.5 -98.001s5.83301 -77.667 17.5 -99s27.167 -32 46.5 -32s35 10.667 47 32zM1077 97c12 21.333 18 54.333 18 99s-6 77.334 -18 98.001s-27.667 31 -47 31s-34.833 -10.333 -46.5 -31
s-17.5 -53.334 -17.5 -98.001s5.83301 -77.667 17.5 -99s27.167 -32 46.5 -32s35 10.667 47 32z" />
    <glyph glyph-name="guilsinglleft" unicode="&#x2039;" horiz-adv-x="289" 
d="M48 204v97l135 146l52 -42l-112 -153l112 -153l-52 -41z" />
    <glyph glyph-name="guilsinglright" unicode="&#x203a;" horiz-adv-x="289" 
d="M54 99l112 153l-112 153l52 42l135 -146v-97l-135 -146z" />
    <glyph glyph-name="fraction" unicode="&#x2044;" horiz-adv-x="95" 
d="M184 665h80l-354 -677h-80z" />
    <glyph glyph-name="uni20AA" unicode="&#x20aa;" horiz-adv-x="838" 
d="M60 571h329.999c52.667 0 93.834 -15.833 123.501 -47.5s44.5 -80.167 44.5 -145.5v-145h-107v152c0 26 -5 45.5 -15 58.5s-26 19.5 -48 19.5h-183v-463h-145v571zM272.999 364h107v-245c76 -0.666992 133.5 10.333 172.5 33s65 53.667 78 93s19.167 90 18.5 152l-2 174
h145l1 -174c0.666992 -95.333 -15 -171.833 -47 -229.5s-83 -100 -153 -127s-163 -40.5 -279 -40.5h-41v364z" />
    <glyph glyph-name="Euro" unicode="&#x20ac;" 
d="M515 81c-49.333 -62 -109.666 -93.001 -180.999 -93.001c-63.333 0 -117.333 20 -162 60s-74 97 -88 171h-63v64l56 5c-0.666992 6 -1 15 -1 27s0.333008 21 1 27h-56v64l64 5c14.667 74.667 45.167 132.834 91.5 174.501s102.833 62.5 169.5 62.5
c30 0 59 -6.83301 87 -20.5s52.333 -32.834 73 -57.501l-76 -74c-28.667 30.667 -58.334 46 -89.001 46s-56.167 -11.167 -76.5 -33.5s-34.833 -54.5 -43.5 -96.5h221v-70h-229v-23c0 -13.333 0.333008 -23.333 1 -30h188v-70h-179c8.66699 -40 23.167 -70.833 43.5 -92.5
s45.5 -32.5 75.5 -32.5c19.333 0 36.833 4.83301 52.5 14.5s30.5 23.834 44.5 42.501z" />
    <glyph glyph-name="uni210A" unicode="&#x210a;" horiz-adv-x="579" 
d="M168 -184c-33.333 9.33301 -63.666 22.999 -90.999 40.999l46 90c44 -25.333 90 -38 138 -38c68 0 104.667 29.333 110 88l3 67c-18 -16 -37.667 -28.667 -59 -38s-43.666 -14 -66.999 -14c-40.667 0 -76.334 10.167 -107.001 30.5s-54.334 49 -71.001 86
s-25 79.5 -25 127.5c0 48.667 10 92.167 30 130.5s46 68 78 89s66 31.5 102 31.5c25.333 0 48.333 -4.66699 69 -14s40.334 -24 59.001 -44h4l10 46h110v-495c0 -63.333 -21.333 -112.166 -64 -146.499s-103.334 -51.5 -182.001 -51.5c-28.667 0 -59.667 4.66699 -93 14z
M328.5 133.499c13.667 7.66699 27.833 20.5 42.5 38.5v188c-26 23.333 -55.333 35 -88 35c-28 0 -51.5 -12.333 -70.5 -37s-28.5 -58 -28.5 -100c0 -42.667 8.66699 -76 26 -100s41.666 -36 72.999 -36c16.667 0 31.834 3.83301 45.501 11.5z" />
    <glyph glyph-name="trademark" unicode="&#x2122;" horiz-adv-x="675" 
d="M93 594h-89v82h268v-82h-89v-231h-90v231zM315 676h103l40 -101l23 -69h4l23 69l40 101h103v-313h-83v102l10 114h-4l-59 -170h-64l-59 170h-4l10 -114v-102h-83v313z" />
    <glyph glyph-name="estimated" unicode="&#x212e;" horiz-adv-x="800" 
d="M223.5 34c-54.333 30 -97.501 70.8281 -129.501 122.495s-48 107.834 -48 168.501s16 116.834 48 168.501s75.167 92.5 129.5 122.5s113.5 45 177.5 45s123.167 -15 177.5 -45s97.333 -70.667 129 -122s47.5 -107.666 47.5 -168.999v-9h-575
c-2.66699 0 -4 -1.33301 -4 -4v-183c0 -6 2.66699 -13 8 -21c27.333 -31.333 60 -55.666 98 -72.999s78 -26 120 -26c44.667 0 86.834 9.83301 126.501 29.5s73.5 46.834 101.5 81.501h52c-33.333 -40.667 -74.5 -72.667 -123.5 -96s-101.5 -35 -157.5 -35
c-64 0 -123.167 15 -177.5 45zM620.999 334.995c3.33301 0 5 1.66797 5 5.00098v184c0 7.33301 -3 14.666 -9 21.999c-28.667 30 -61.5 53.333 -98.5 70s-75.833 25 -116.5 25c-42 0 -81.667 -8.66699 -119 -26s-70 -41.333 -98 -72c-6 -7.33301 -9 -15 -9 -23v-180
c0 -3.33301 1.33301 -5 4 -5h441z" />
    <glyph glyph-name="partialdiff" unicode="&#x2202;" horiz-adv-x="569" 
d="M464 589.5c39.333 -50.333 59 -121.499 59 -213.499c0 -76.667 -11.833 -144.334 -35.5 -203.001s-57 -104.167 -100 -136.5s-91.833 -48.5 -146.5 -48.5c-35.333 0 -67.833 8 -97.5 24s-53.167 38.833 -70.5 68.5s-26 64.167 -26 103.5c0 45.333 9 85.333 27 120
s43.333 61.5 76 80.5s70 28.5 112 28.5c24 0 47.5 -5.5 70.5 -16.5s43.167 -26.5 60.5 -46.5v22c0 61.333 -9.16699 107 -27.5 137s-47.166 45 -86.499 45c-37.333 0 -72.333 -15.333 -105 -46l-59 84c55.333 48.667 114.666 73 177.999 73
c74.667 0 131.667 -25.167 171 -75.5zM333.5 135.001c22.333 24 38.502 61.332 48.502 111.999c-14 20.667 -30 36 -48 46s-36.667 15 -56 15c-32.667 0 -58.334 -9.83301 -77.001 -29.5s-28 -48.5 -28 -86.5c0 -29.333 8 -52.166 24 -68.499s35.667 -24.5 59 -24.5
c29.333 0 55.166 12 77.499 36z" />
    <glyph glyph-name="product" unicode="&#x220f;" horiz-adv-x="704" 
d="M81 636h542v-756h-137v636h-268v-636h-137v756z" />
    <glyph glyph-name="summation" unicode="&#x2211;" horiz-adv-x="530" 
d="M26 -39l211 296l-201 297v82h461v-115h-294v-4l174 -259l-182 -259v-4h326v-115h-495v81z" />
    <glyph glyph-name="minus" unicode="&#x2212;" 
d="M34 379h455v-97h-455v97z" />
    <glyph glyph-name="uni2215" unicode="&#x2215;" horiz-adv-x="95" 
d="M184 665h80l-354 -677h-80z" />
    <glyph glyph-name="uni2219" unicode="&#x2219;" horiz-adv-x="525" 
d="M201 266c-16 16.667 -24 37.667 -24 63s8 46.333 24 63s36 25 60 25s44 -8.33301 60 -25s24 -37.667 24 -63s-8 -46.333 -24 -63s-36 -25 -60 -25s-44 8.33301 -60 25z" />
    <glyph glyph-name="radical" unicode="&#x221a;" horiz-adv-x="583" 
d="M128 331l-74 -30l-24 65l167 69l102 -303l20 -79h4c3.33301 20.667 8 47 14 79l161 688h92l-217 -903h-95z" />
    <glyph glyph-name="infinity" unicode="&#x221e;" horiz-adv-x="809" 
d="M469 147c-31.333 18.667 -63 48.667 -95 90h-4c-48.667 -62.667 -104 -94 -166 -94c-30 0 -57.833 8 -83.5 24s-45.834 37.5 -60.501 64.5s-22 55.833 -22 86.5c0 62.667 17 111.834 51 147.501s78.667 53.5 134 53.5c63.333 0 118.333 -31.667 165 -95h4
c27.333 35.333 56.666 62.666 87.999 81.999s66 29 104 29c34.667 0 66.334 -8.33301 95.001 -25s51.167 -39.834 67.5 -69.501s24.5 -63.167 24.5 -100.5c0 -45.333 -8.5 -84.666 -25.5 -117.999s-40.167 -58.833 -69.5 -76.5s-62 -26.5 -98 -26.5
c-41.333 0 -77.666 9.33301 -108.999 28zM645.5 271.5c17 17.667 25.499 39.167 25.499 64.5c0 30 -9 54 -27 72s-42.333 27 -73 27c-47.333 0 -91.666 -28.667 -132.999 -86c25.333 -34.667 48.5 -60.667 69.5 -78s44.5 -26 70.5 -26c28 0 50.5 8.83301 67.5 26.5z
M323.999 313c-16.667 24.667 -34.5 44 -53.5 58s-38.5 21 -58.5 21c-23.333 0 -41.5 -6.33301 -54.5 -19s-19.5 -29.667 -19.5 -51c0 -22 7.16699 -40.667 21.5 -56s33.5 -23 57.5 -23c39.333 0 75 23.333 107 70z" />
    <glyph glyph-name="integral" unicode="&#x222b;" horiz-adv-x="381" 
d="M44 -151l12.999 100.001c8.66699 -2.66699 20.667 -4 36 -4c25.333 0 42.333 10.167 51 30.5s13 55.833 13 106.5c0 34 -1.66699 68.167 -5 102.5s-8 75.166 -14 122.499c-6.66699 51.333 -11.667 95 -15 131s-5 72.333 -5 109c0 78.667 12.667 139 38 181
s72.666 63 141.999 63c20 0 38.667 -2.33301 56 -7l-14 -100c-8 2.66699 -19.667 4 -35 4c-25.333 0 -42.333 -10.333 -51 -31s-13 -56 -13 -106c0 -54 6.33301 -128.667 19 -224c6.66699 -60 11.5 -106.167 14.5 -138.5s4.5 -66.5 4.5 -102.5
c0 -78.667 -12.667 -139 -38 -181s-72.666 -63 -141.999 -63c-19.333 0 -37.666 2.33301 -54.999 7z" />
    <glyph glyph-name="approxequal" unicode="&#x2248;" 
d="M294.5 369.5c-15 7.66699 -32.168 18.5 -51.501 32.5c-15.333 11.333 -27.833 19.666 -37.5 24.999s-20.167 8 -31.5 8c-26.667 0 -50.667 -19.333 -72 -58l-72 54c42.667 67.333 91.334 101 146.001 101c20 0 37.5 -3.83301 52.5 -11.5s32.167 -18.5 51.5 -32.5
c15.333 -11.333 27.833 -19.666 37.5 -24.999s20.167 -8 31.5 -8c26.667 0 51 19.333 73 58l71 -54c-43.333 -67.333 -92 -101 -146 -101c-20 0 -37.5 3.83301 -52.5 11.5zM294.499 139.5c-15 7.66699 -32.168 18.5 -51.501 32.5
c-15.333 11.333 -27.833 19.666 -37.5 24.999s-20.167 8 -31.5 8c-26.667 0 -50.667 -19.333 -72 -58l-72 54c42.667 67.333 91.334 101 146.001 101c20 0 37.5 -3.83301 52.5 -11.5s32.167 -18.5 51.5 -32.5c15.333 -11.333 27.833 -19.666 37.5 -24.999s20.167 -8 31.5 -8
c26.667 0 51 19.333 73 58l71 -54c-43.333 -67.333 -92 -101 -146 -101c-20 0 -37.5 3.83301 -52.5 11.5z" />
    <glyph glyph-name="notequal" unicode="&#x2260;" 
d="M126 167h-92v97h146l76 133h-222v97h276l72 122h88l-72 -122h91v-97h-145l-76 -133h221v-97h-275l-73 -123h-88z" />
    <glyph glyph-name="lessequal" unicode="&#x2264;" 
d="M34 298v114l455 144v-113l-178 -51l-138 -35v-4l138 -36l178 -50v-113zM34 97h455v-97h-455v97z" />
    <glyph glyph-name="greaterequal" unicode="&#x2265;" 
d="M34 267l179 50l138 36v4l-138 35l-179 51v113l455 -144v-114l-455 -144v113zM34 97h455v-97h-455v97z" />
    <glyph glyph-name="lozenge" unicode="&#x25ca;" horiz-adv-x="543" 
d="M53 330l163 340h112l163 -340l-163 -340h-112zM274 105l55 122l48 103l-48 103l-55 123h-4l-55 -123l-49 -103l49 -103l55 -122h4z" />
    <glyph glyph-name="uni25CC" unicode="&#x25cc;" horiz-adv-x="600" 
d="M361 403c-7.33301 -5.33301 -15.999 -7.99902 -25.999 -7.99902c-10.667 0 -19.834 4 -27.501 12s-11.5 18.333 -11.5 31s3.83301 22.667 11.5 30s16.834 11 27.501 11c4 0 6.66699 -0.333008 8 -1c7.33301 6 15.666 9 24.999 9c12 0 22 -3.83301 30 -11.5
s12 -17.834 12 -30.501c0 -13.333 -3.83301 -23.833 -11.5 -31.5s-17.834 -11.5 -30.501 -11.5c-3.33301 0 -5.66602 0.333008 -6.99902 1zM213.001 469.001c8 -7.33301 12 -17.666 12 -30.999c0 -12.667 -3.83301 -22.834 -11.5 -30.501s-17.5 -11.5 -29.5 -11.5
c-11.333 0 -21 3.83301 -29 11.5s-12 17.834 -12 30.501c0 13.333 3.83301 23.666 11.5 30.999s17.5 11 29.5 11c11.333 0 21 -3.66699 29 -11zM425.001 346.501c-8 7.66699 -12 17.832 -12 30.499s4 22.834 12 30.501s17.667 11.5 29 11.5c12 0 21.833 -3.66699 29.5 -11
s11.5 -17.666 11.5 -30.999c0 -12.667 -3.66699 -22.834 -11 -30.501s-17.333 -11.5 -30 -11.5c-11.333 0 -21 3.83301 -29 11.5zM78.001 325.999c-8 8 -12 18.667 -12 32c0 12.667 3.83301 22.667 11.5 30s17.167 11 28.5 11c12.667 0 22.667 -3.5 30 -10.5
s11 -17.167 11 -30.5s-3.66699 -24 -11 -32s-17.333 -12 -30 -12c-10.667 0 -20 4 -28 12zM108.501 216.499c-7.66699 -7.66699 -17.833 -11.5 -30.5 -11.5c-10.667 0 -20 4 -28 12s-12 18.333 -12 31s3.83301 22.667 11.5 30s17.167 11 28.5 11c12 0 22 -3.66699 30 -11
s12 -17.333 12 -30c0 -13.333 -3.83301 -23.833 -11.5 -31.5zM530.002 277.999c8 -7.33301 12 -17.333 12 -30c0 -13.333 -3.83301 -23.833 -11.5 -31.5s-17.5 -11.5 -29.5 -11.5s-22 3.83301 -30 11.5s-12 18.167 -12 31.5c0 12.667 4 22.667 12 30s18 11 30 11
c11.333 0 21 -3.66699 29 -11zM135.502 169.499c7.66699 -7.66699 11.5 -18.167 11.5 -31.5c0 -12.667 -3.66699 -22.834 -11 -30.501s-17.333 -11.5 -30 -11.5c-10.667 0 -20 3.83301 -28 11.5s-12 17.834 -12 30.501c0 13.333 4 23.833 12 31.5s17.333 11.5 28 11.5
c12 0 21.833 -3.83301 29.5 -11.5zM503.002 169.499c8 -7.66699 12 -18.167 12 -31.5c0 -12.667 -3.83301 -22.834 -11.5 -30.501s-17.5 -11.5 -29.5 -11.5c-11.333 0 -21.166 3.83301 -29.499 11.5s-12.5 17.834 -12.5 30.501s4.16699 23 12.5 31s18.166 12 29.499 12
s21 -3.83301 29 -11.5zM213.002 87.499c8 -7 12 -16.833 12 -29.5c0 -14 -3.83301 -24.833 -11.5 -32.5s-17.5 -11.5 -29.5 -11.5c-11.333 0 -21 4 -29 12s-12 18.667 -12 32c0 12.667 4 22.5 12 29.5s17.667 10.5 29 10.5s21 -3.5 29 -10.5zM424.002 87.499
c8 -7 11.999 -16.833 11.999 -29.5c0 -14 -3.66699 -24.833 -11 -32.5s-17.666 -11.5 -30.999 -11.5c-11.333 0 -20.833 4 -28.5 12s-11.5 18.667 -11.5 32c0 12.667 3.83301 22.5 11.5 29.5s17.167 10.5 28.5 10.5c12 0 22 -3.5 30 -10.5zM319.501 60.499
c7.66699 -7 11.502 -16.833 11.502 -29.5c0 -14 -3.83301 -24.833 -11.5 -32.5s-17.834 -11.5 -30.501 -11.5c-10.667 0 -19.834 4 -27.501 12s-11.5 18.667 -11.5 32c0 12.667 3.66699 22.5 11 29.5s16.666 10.5 27.999 10.5c12.667 0 22.834 -3.5 30.501 -10.5z" />
    <glyph glyph-name="dotlessj" unicode="&#xf6be;" horiz-adv-x="269" 
d="M-45 -186l23.998 101c16.667 -4.66699 30.334 -7 41.001 -7c20 0 34 6.5 42 19.5s12 33.833 12 62.5l1 505h137l-2 -501c0 -58.667 -13.167 -105.667 -39.5 -141s-69.833 -53 -130.5 -53c-33.333 0 -61.666 4.66699 -84.999 14z" />
    <glyph glyph-name="uniFB2A" unicode="&#xfb2a;" horiz-adv-x="678" 
d="M521 94.5c-80.667 -69.667 -205.665 -104.499 -374.998 -104.499h-31l-75 581h137l29 -247c26.667 13.333 44.667 33.333 54 60s13.666 66.667 12.999 120v66h137v-63c-1.33301 -73.333 -16 -132.833 -44 -178.5s-77.333 -80.5 -148 -104.5l14 -115
c95.333 6 163.333 33.5 204 82.5s60.667 117.167 60 204.5l-2 175h145l1 -167c1.33301 -136.667 -38.334 -239.834 -119.001 -309.501zM590.002 680.501c6 -7 9 -15.167 9 -24.5c0 -10 -3 -18.5 -9 -25.5s-14 -10.5 -24 -10.5s-18.167 3.5 -24.5 10.5s-9.5 15.5 -9.5 25.5
c0 9.33301 3.16699 17.5 9.5 24.5s14.5 10.5 24.5 10.5s18 -3.5 24 -10.5z" />
    <glyph glyph-name="uniFB2B" unicode="&#xfb2b;" horiz-adv-x="678" 
d="M521 94.5c-80.667 -69.667 -205.665 -104.499 -374.998 -104.499h-31l-75 581h137l29 -247c26.667 13.333 44.667 33.333 54 60s13.666 66.667 12.999 120v66h137v-63c-1.33301 -73.333 -16 -132.833 -44 -178.5s-77.333 -80.5 -148 -104.5l14 -115
c95.333 6 163.333 33.5 204 82.5s60.667 117.167 60 204.5l-2 175h145l1 -167c1.33301 -136.667 -38.334 -239.834 -119.001 -309.501zM120.002 680.501c6 -7 9 -15.167 9 -24.5c0 -10 -3 -18.5 -9 -25.5s-14 -10.5 -24 -10.5s-18.167 3.5 -24.5 10.5s-9.5 15.5 -9.5 25.5
c0 9.33301 3.16699 17.5 9.5 24.5s14.5 10.5 24.5 10.5s18 -3.5 24 -10.5z" />
    <glyph glyph-name="uniFB2C" unicode="&#xfb2c;" horiz-adv-x="678" 
d="M521 94.5c-80.667 -69.667 -205.665 -104.499 -374.998 -104.499h-31l-75 581h137l29 -247c26.667 13.333 44.667 33.333 54 60s13.666 66.667 12.999 120v66h137v-63c-1.33301 -73.333 -16 -132.833 -44 -178.5s-77.333 -80.5 -148 -104.5l14 -115
c95.333 6 163.333 33.5 204 82.5s60.667 117.167 60 204.5l-2 175h145l1 -167c1.33301 -136.667 -38.334 -239.834 -119.001 -309.501zM401.002 276.501c6 -7 9 -15.167 9 -24.5c0 -10 -3 -18.5 -9 -25.5s-14 -10.5 -24 -10.5s-18.167 3.5 -24.5 10.5s-9.5 15.5 -9.5 25.5
c0 8.66699 3.33301 16.667 10 24s14.667 11 24 11c10 0 18 -3.5 24 -10.5zM590.002 680.501c6 -7 9 -15.167 9 -24.5c0 -10 -3 -18.5 -9 -25.5s-14 -10.5 -24 -10.5s-18.167 3.5 -24.5 10.5s-9.5 15.5 -9.5 25.5c0 9.33301 3.16699 17.5 9.5 24.5s14.5 10.5 24.5 10.5
s18 -3.5 24 -10.5z" />
    <glyph glyph-name="uniFB2D" unicode="&#xfb2d;" horiz-adv-x="678" 
d="M521 94.5c-80.667 -69.667 -205.665 -104.499 -374.998 -104.499h-31l-75 581h137l29 -247c26.667 13.333 44.667 33.333 54 60s13.666 66.667 12.999 120v66h137v-63c-1.33301 -73.333 -16 -132.833 -44 -178.5s-77.333 -80.5 -148 -104.5l14 -115
c95.333 6 163.333 33.5 204 82.5s60.667 117.167 60 204.5l-2 175h145l1 -167c1.33301 -136.667 -38.334 -239.834 -119.001 -309.501zM401.002 276.501c6 -7 9 -15.167 9 -24.5c0 -10 -3 -18.5 -9 -25.5s-14 -10.5 -24 -10.5s-18.167 3.5 -24.5 10.5s-9.5 15.5 -9.5 25.5
c0 8.66699 3.33301 16.667 10 24s14.667 11 24 11c10 0 18 -3.5 24 -10.5zM120.002 680.501c6 -7 9 -15.167 9 -24.5c0 -10 -3 -18.5 -9 -25.5s-14 -10.5 -24 -10.5s-18.167 3.5 -24.5 10.5s-9.5 15.5 -9.5 25.5c0 9.33301 3.16699 17.5 9.5 24.5s14.5 10.5 24.5 10.5
s18 -3.5 24 -10.5z" />
    <glyph glyph-name="uniFB2E" unicode="&#xfb2e;" horiz-adv-x="617" 
d="M435 0l-188 291l-89 -291h-137l111 343l31 77l-93 151h145l80 -130l72 -109l27 91l40 148h137l-120 -364l138 -207h-154zM400 -94h-166v39h166v-39z" />
    <glyph glyph-name="uniFB2F" unicode="&#xfb2f;" horiz-adv-x="617" 
d="M435 0l-188 291l-89 -291h-137l111 343l31 77l-93 151h145l80 -130l72 -109l27 91l40 148h137l-120 -364l138 -207h-154zM400 -94h-67l6 -100h-44l5 100h-66v39h166v-39z" />
    <glyph glyph-name="uniFB30" unicode="&#xfb30;" horiz-adv-x="617" 
d="M435 0l-188 291l-89 -291h-137l111 343l31 77l-93 151h145l80 -130l72 -109l27 91l40 148h137l-120 -364l138 -207h-154zM306 116.5c6 -7 9 -15.167 9 -24.5c0 -10 -3 -18.5 -9 -25.5s-14 -10.5 -24 -10.5s-18.167 3.5 -24.5 10.5s-9.5 15.5 -9.5 25.5
c0 8.66699 3.33301 16.667 10 24s14.667 11 24 11c10 0 18 -3.5 24 -10.5z" />
    <glyph glyph-name="uniFB31" unicode="&#xfb31;" horiz-adv-x="543" 
d="M513 108v-108h-211h-264v108h264v282c0 48.667 -22.667 73 -68 73h-196v108h236c53.333 0 95.333 -15.167 126 -45.5s46 -77.833 46 -142.5v-275h67zM190 321.5c6 -7 9 -15.167 9 -24.5c0 -10 -3 -18.5 -9 -25.5s-14 -10.5 -24 -10.5s-18.167 3.5 -24.5 10.5
s-9.5 15.5 -9.5 25.5c0 8.66699 3.33301 16.667 10 24s14.667 11 24 11c10 0 18 -3.5 24 -10.5z" />
    <glyph glyph-name="uniFB32" unicode="&#xfb32;" horiz-adv-x="424" 
d="M246 0l-18 107.001c-18.667 -30 -40.5 -55.333 -65.5 -76s-55.833 -37.334 -92.5 -50.001l-53 114c93.333 29.333 156.666 76 189.999 140v163c0 24 -3.66699 41 -11 51s-19.666 16.333 -36.999 19l-63 9l18 106l118 -16c40.667 -5.33301 70.667 -20.5 90 -45.5
s29 -60.833 29 -107.5v-190l32 -224h-137zM123 336.501c6 -7 9 -15.167 9 -24.5c0 -10 -3 -18.5 -9 -25.5s-14 -10.5 -24 -10.5s-18.167 3.5 -24.5 10.5s-9.5 15.5 -9.5 25.5c0 8.66699 3.33301 16.667 10 24s14.667 11 24 11c10 0 18 -3.5 24 -10.5z" />
    <glyph glyph-name="uniFB33" unicode="&#xfb33;" horiz-adv-x="542" 
d="M263 346c0 25.333 2.5 48.167 7.5 68.5s11.833 36.5 20.5 48.5h-256v108h469v-108h-78c-12.667 -28.667 -19 -67.667 -19 -117v-346h-144v346zM168 321.501c6 -7 9 -15.167 9 -24.5c0 -10 -3 -18.5 -9 -25.5s-14 -10.5 -24 -10.5s-18.167 3.5 -24.5 10.5
s-9.5 15.5 -9.5 25.5c0 8.66699 3.33301 16.667 10 24s14.667 11 24 11c10 0 18 -3.5 24 -10.5z" />
    <glyph glyph-name="uniFB34" unicode="&#xfb34;" horiz-adv-x="573" 
d="M382 390c0 48.667 -22.333 73 -67 73h-261v108h300c53.333 0 95.5 -15.167 126.5 -45.5s46.5 -77.833 46.5 -142.5v-383h-145v390zM48 273l20 67h125v-340h-145v273zM308 321.5c6 -7 9 -15.167 9 -24.5c0 -10 -3 -18.5 -9 -25.5s-14 -10.5 -24 -10.5
s-18.167 3.5 -24.5 10.5s-9.5 15.5 -9.5 25.5c0 8.66699 3.33301 16.667 10 24s14.667 11 24 11c10 0 18 -3.5 24 -10.5z" />
    <glyph glyph-name="uniFB35" unicode="&#xfb35;" horiz-adv-x="259" 
d="M61 454l-12 117h144l12 -117v-454h-144v454zM16 321.5c6 -7 9 -15.167 9 -24.5c0 -10 -3 -18.5 -9 -25.5s-14 -10.5 -24 -10.5s-18.167 3.5 -24.5 10.5s-9.5 15.5 -9.5 25.5c0 8.66699 3.33301 16.667 10 24s14.667 11 24 11c10 0 18 -3.5 24 -10.5z" />
    <glyph glyph-name="uniFB36" unicode="&#xfb36;" horiz-adv-x="375" 
d="M101 346c0 25.333 2.5 48.168 7.5 68.501s11.833 36.5 20.5 48.5h-90v108h297v-108h-75c-7.33301 -14.667 -11.833 -31.334 -13.5 -50.001s-2.5 -41 -2.5 -67v-346h-144v346zM54 321.502c6 -7 9 -15.167 9 -24.5c0 -10 -3 -18.5 -9 -25.5s-14 -10.5 -24 -10.5
s-18.167 3.5 -24.5 10.5s-9.5 15.5 -9.5 25.5c0 8.66699 3.33301 16.667 10 24s14.667 11 24 11c10 0 18 -3.5 24 -10.5z" />
    <glyph glyph-name="uniFB38" unicode="&#xfb38;" horiz-adv-x="591" 
d="M40 571h145.001l49 -453c69.333 6.66699 118.666 27.167 147.999 61.5s43.333 83.166 42 146.499v31c0 30 -8.16699 55.5 -24.5 76.5s-40.833 32.5 -73.5 34.5l-49 3l11 111l61 -3c62 -3.33301 112.833 -22.5 152.5 -57.5s60.5 -84.833 62.5 -149.5l1 -28
c4 -117.333 -33.833 -204.166 -113.5 -260.499s-194.5 -87.5 -344.5 -93.5zM336.001 336.5c6 -7 9 -15.167 9 -24.5c0 -10 -3 -18.5 -9 -25.5s-14 -10.5 -24 -10.5s-18.167 3.5 -24.5 10.5s-9.5 15.5 -9.5 25.5c0 8.66699 3.33301 16.667 10 24s14.667 11 24 11
c10 0 18 -3.5 24 -10.5z" />
    <glyph glyph-name="uniFB39" unicode="&#xfb39;" horiz-adv-x="259" 
d="M61 454l-12 117h144l12 -117v-156l-1 -63l-143 -25v244zM16 417.5c6 -7 9 -15.167 9 -24.5c0 -10 -3 -18.5 -9 -25.5s-14 -10.5 -24 -10.5s-18.167 3.5 -24.5 10.5s-9.5 15.5 -9.5 25.5c0 8.66699 3.33301 16.667 10 24s14.667 11 24 11c10 0 18 -3.5 24 -10.5z" />
    <glyph glyph-name="uniFB3A" unicode="&#xfb3a;" horiz-adv-x="512" 
d="M314 390c0 48.667 -22.667 73 -68 73h-207v108h247c53.333 0 95.333 -15.167 126 -45.5s46 -77.833 46 -142.5v-583h-144v590zM186 321.5c6 -7 9 -15.167 9 -24.5c0 -10 -3 -18.5 -9 -25.5s-14 -10.5 -24 -10.5s-18.167 3.5 -24.5 10.5s-9.5 15.5 -9.5 25.5
c0 8.66699 3.33301 16.667 10 24s14.667 11 24 11c10 0 18 -3.5 24 -10.5z" />
    <glyph glyph-name="uniFB3B" unicode="&#xfb3b;" horiz-adv-x="485" 
d="M29 108h160c38.667 0 67.167 12.667 85.5 38s27.5 59.333 27.5 102v75c0 42.667 -9.16699 76.667 -27.5 102s-46.833 38 -85.5 38h-160v108h199c71.333 0 125.666 -22.833 162.999 -68.5s56 -108.167 56 -187.5v-59c0 -79.333 -18.667 -141.833 -56 -187.5
s-91.666 -68.5 -162.999 -68.5h-199v108zM180 319.5c6 -7 9 -15.167 9 -24.5c0 -10 -3 -18.5 -9 -25.5s-14 -10.5 -24 -10.5s-18.167 3.5 -24.5 10.5s-9.5 15.5 -9.5 25.5c0 8.66699 3.33301 16.667 10 24s14.667 11 24 11c10 0 18 -3.5 24 -10.5z" />
    <glyph glyph-name="uniFB3C" unicode="&#xfb3c;" horiz-adv-x="498" 
d="M466 571v-119l-180 -452h-144l179 463h-290v254h130v-146h305zM147 271.5c-6 -7 -14 -10.5 -24 -10.5s-18.167 3.5 -24.5 10.5s-9.5 15.5 -9.5 25.5c0 8.66699 3.33301 16.667 10 24s14.667 11 24 11c10 0 18 -3.5 24 -10.5s9 -15.167 9 -24.5c0 -10 -3 -18.5 -9 -25.5z
" />
    <glyph glyph-name="uniFB3E" unicode="&#xfb3e;" horiz-adv-x="642" 
d="M538.5 66.5c-43 -53 -103.499 -79.498 -181.499 -79.498c-28 0 -58.667 4 -92 12l13 108c24.667 -5.33301 45.334 -8 62.001 -8c45.333 0 77.666 15.167 96.999 45.5s29 75.166 29 134.499c0 66 -9.16699 113.833 -27.5 143.5s-46.5 44.5 -84.5 44.5
c-26.667 0 -49.167 -8 -67.5 -24s-29.833 -37.667 -34.5 -65l-62 -378h-144l69 385l-80 186h150l40 -114c14 41.333 35 72.166 63 92.499s60 30.5 96 30.5c71.333 0 125.666 -24.5 162.999 -73.5s56 -122.833 56 -221.5c0 -92.667 -21.5 -165.5 -64.5 -218.5z
M369.001 321.502c6 -7 9 -15.167 9 -24.5c0 -10 -3 -18.5 -9 -25.5s-14 -10.5 -24 -10.5s-18.167 3.5 -24.5 10.5s-9.5 15.5 -9.5 25.5c0 8.66699 3.33301 16.667 10 24s14.667 11 24 11c10 0 18 -3.5 24 -10.5z" />
    <glyph glyph-name="uniFB40" unicode="&#xfb40;" horiz-adv-x="381" 
d="M39 108l145.999 -0.000976562v289c0 24 -4.5 41 -13.5 51s-22.833 16.333 -41.5 19l-70 10l18 106l125 -16c40.667 -5.33301 71.834 -22.666 93.501 -51.999s32.5 -67.333 32.5 -114v-401h-290v108zM114.999 321.499c6 -7 9 -15.167 9 -24.5c0 -10 -3 -18.5 -9 -25.5
s-14 -10.5 -24 -10.5s-18.167 3.5 -24.5 10.5s-9.5 15.5 -9.5 25.5c0 8.66699 3.33301 16.667 10 24s14.667 11 24 11c10 0 18 -3.5 24 -10.5z" />
    <glyph glyph-name="uniFB41" unicode="&#xfb41;" horiz-adv-x="605" 
d="M447 75.5c-77.333 -52.333 -190 -80.834 -338 -85.501l-55 473l-14 108h307c65.333 0 116 -18.5 152 -55.5s55 -87.833 57 -152.5l1 -33c4 -117.333 -32.667 -202.166 -110 -254.499zM345.5 147.499c26.333 16.333 44.668 39.334 55.001 69.001s14.833 68.5 13.5 116.5
v30c0 30.667 -7 55 -21 73s-33 27 -57 27h-138l37 -345c47.333 3.33301 84.166 13.166 110.499 29.499zM332.002 329.5c6 -7 9 -15.167 9 -24.5c0 -10 -3 -18.5 -9 -25.5s-14 -10.5 -24 -10.5s-18.167 3.5 -24.5 10.5s-9.5 15.5 -9.5 25.5c0 8.66699 3.33301 16.667 10 24
s14.667 11 24 11c10 0 18 -3.5 24 -10.5z" />
    <glyph glyph-name="uniFB43" unicode="&#xfb43;" horiz-adv-x="564" 
d="M457 503c35.333 -45.333 53 -107.667 53 -187v-516h-144v523c0 42.667 -8.33301 76.667 -25 102s-43 38 -79 38h-76l-12 -67c-1.33301 -14.667 -2 -25.334 -2 -32.001c0 -20 3.5 -35.833 10.5 -47.5s19.5 -18.5 37.5 -20.5l-26 -87
c-104.667 2.66699 -157 47.667 -157 135c0 14.667 2.33301 34.334 7 59.001l37 168h220c68.667 0 120.667 -22.667 156 -68zM311 321.499c6 -7 9 -15.167 9 -24.5c0 -10 -3 -18.5 -9 -25.5s-14 -10.5 -24 -10.5s-18.167 3.5 -24.5 10.5s-9.5 15.5 -9.5 25.5
c0 8.66699 3.33301 16.667 10 24s14.667 11 24 11c10 0 18 -3.5 24 -10.5z" />
    <glyph glyph-name="uniFB44" unicode="&#xfb44;" horiz-adv-x="557" 
d="M53 108l202 0.00195312c38.667 0 68.834 12.5 90.501 37.5s32.5 59.5 32.5 103.5v74c0 42 -9.5 75.833 -28.5 101.5s-46.833 38.5 -83.5 38.5h-72l-18 -85c-2 -8.66699 -3 -17 -3 -25c0 -16.667 5 -29.5 15 -38.5s26.333 -15.833 49 -20.5l-23 -90
c-59.333 1.33301 -102.333 14.666 -129 39.999s-40 59.666 -40 102.999c0 16 1.33301 30.667 4 44l40 180h211c69.333 0 123.666 -23 162.999 -69s59 -108 59 -186v-60c0 -80 -21 -142.667 -63 -188s-98.667 -68 -170 -68h-236v108zM319 314.502c6 -7 9 -15.167 9 -24.5
c0 -10 -3 -18.5 -9 -25.5s-14 -10.5 -24 -10.5s-18.167 3.5 -24.5 10.5s-9.5 15.5 -9.5 25.5c0 8.66699 3.33301 16.667 10 24s14.667 11 24 11c10 0 18 -3.5 24 -10.5z" />
    <glyph glyph-name="uniFB46" unicode="&#xfb46;" horiz-adv-x="559" 
d="M376 234l132 -234h-145h-333v108h272l-261 463h145l113 -201l82 201h142zM156 239.5c6 -7 9 -15.167 9 -24.5c0 -10 -3 -18.5 -9 -25.5s-14 -10.5 -24 -10.5s-18.167 3.5 -24.5 10.5s-9.5 15.5 -9.5 25.5c0 8.66699 3.33301 16.667 10 24s14.667 11 24 11
c10 0 18 -3.5 24 -10.5z" />
    <glyph glyph-name="uniFB47" unicode="&#xfb47;" horiz-adv-x="590" 
d="M245 107c45.333 4 79 19.333 101 46s35.333 72 40 136l13 174h-348v108h503l-5 -93l-11 -151c-10.667 -216.667 -104.667 -326 -282 -328zM43 279l20 69h125v-548h-145v479zM311 336.5c6 -7 9 -15.167 9 -24.5c0 -10 -3 -18.5 -9 -25.5s-14 -10.5 -24 -10.5
s-18.167 3.5 -24.5 10.5s-9.5 15.5 -9.5 25.5c0 8.66699 3.33301 16.667 10 24s14.667 11 24 11c10 0 18 -3.5 24 -10.5z" />
    <glyph glyph-name="uniFB48" unicode="&#xfb48;" horiz-adv-x="488" 
d="M290 390c0 48.667 -22.333 73 -67 73h-195v108h234c53.333 0 95.5 -15.167 126.5 -45.5s46.5 -77.833 46.5 -142.5v-383h-145v390zM177 321.5c6 -7 9 -15.167 9 -24.5c0 -10 -3 -18.5 -9 -25.5s-14 -10.5 -24 -10.5s-18.167 3.5 -24.5 10.5s-9.5 15.5 -9.5 25.5
c0 8.66699 3.33301 16.667 10 24s14.667 11 24 11c10 0 18 -3.5 24 -10.5z" />
    <glyph glyph-name="uniFB49" unicode="&#xfb49;" horiz-adv-x="678" 
d="M521 94.5c-80.667 -69.667 -205.665 -104.499 -374.998 -104.499h-31l-75 581h137l29 -247c26.667 13.333 44.667 33.333 54 60s13.666 66.667 12.999 120v66h137v-63c-1.33301 -73.333 -16 -132.833 -44 -178.5s-77.333 -80.5 -148 -104.5l14 -115
c95.333 6 163.333 33.5 204 82.5s60.667 117.167 60 204.5l-2 175h145l1 -167c1.33301 -136.667 -38.334 -239.834 -119.001 -309.501zM401.002 276.501c6 -7 9 -15.167 9 -24.5c0 -10 -3 -18.5 -9 -25.5s-14 -10.5 -24 -10.5s-18.167 3.5 -24.5 10.5s-9.5 15.5 -9.5 25.5
c0 8.66699 3.33301 16.667 10 24s14.667 11 24 11c10 0 18 -3.5 24 -10.5z" />
    <glyph glyph-name="uniFB4A" unicode="&#xfb4a;" horiz-adv-x="635" 
d="M18 81c25.333 2.66699 44.333 7.66699 57 15s21.334 17.5 26.001 30.5s6.66699 31.5 6 55.5v389h303c53.333 0 95.333 -15.167 126 -45.5s46 -77.833 46 -142.5v-383h-144v390c0 48.667 -22.667 73 -68 73h-118v-262c0 -50.667 -7.83301 -91 -23.5 -121
s-39.334 -52.5 -71.001 -67.5s-74.167 -24.833 -127.5 -29.5zM367 321.5c6 -7 9 -15.167 9 -24.5c0 -10 -3 -18.5 -9 -25.5s-14 -10.5 -24 -10.5s-18.167 3.5 -24.5 10.5s-9.5 15.5 -9.5 25.5c0 8.66699 3.33301 16.667 10 24s14.667 11 24 11c10 0 18 -3.5 24 -10.5z" />
    <glyph glyph-name="uniFB4B" unicode="&#xfb4b;" horiz-adv-x="259" 
d="M61 454l-12 117h144l12 -117v-454h-144v454zM134 697.5c6 -7 9 -15.167 9 -24.5c0 -10 -3 -18.5 -9 -25.5s-14 -10.5 -24 -10.5s-18.167 3.5 -24.5 10.5s-9.5 15.5 -9.5 25.5c0 9.33301 3.16699 17.5 9.5 24.5s14.5 10.5 24.5 10.5s18 -3.5 24 -10.5z" />
    <glyph glyph-name="a.sups" horiz-adv-x="357" 
d="M58.5 399.5c-18.333 19 -27.499 42.5 -27.499 70.5c0 35.333 15 62.5 45 81.5s77.667 31.5 143 37.5c-1.33301 16 -6 28.167 -14 36.5s-20.333 12.5 -37 12.5c-24.667 0 -55.334 -10.333 -92.001 -31l-34 64c49.333 29.333 97 44 143 44
c42.667 0 75.167 -12.333 97.5 -37s33.5 -61 33.5 -109v-190h-77l-9 34h-4c-29.333 -28 -61 -42 -95 -42c-30 0 -54.167 9.5 -72.5 28.5zM219.001 473l-0.000976562 59.999c-63.333 -7.33301 -95 -25.666 -95 -54.999c0 -22 13 -33 39 -33
c18.667 0 37.334 9.33301 56.001 28z" />
    <glyph glyph-name="e.sups" horiz-adv-x="345" 
d="M72.5 417.5c-31.667 31 -47.498 72.833 -47.498 125.5c0 34 7.16699 64 21.5 90s33.5 46.167 57.5 60.5s50 21.5 78 21.5c46.667 0 81.667 -15.167 105 -45.5s35 -67.5 35 -111.5c0 -14.667 -1.66699 -28 -5 -40h-199c3.33301 -24.667 12.666 -43 27.999 -55
s35 -18 59 -18c27.333 0 51.666 7 72.999 21l34 -58c-17.333 -12 -36.5 -21.167 -57.5 -27.5s-41.833 -9.5 -62.5 -9.5c-48 0 -87.833 15.5 -119.5 46.5zM240.002 574c0 19.333 -4.66699 35.333 -14 48s-24 19 -44 19c-17.333 0 -31.833 -5.66699 -43.5 -17
s-19.167 -28 -22.5 -50h124z" />
    <glyph glyph-name="eogonek.sups" horiz-adv-x="345" 
d="M72.5 417.5c-31.667 31 -47.498 72.833 -47.498 125.5c0 34 7.16699 64 21.5 90s33.5 46.167 57.5 60.5s50 21.5 78 21.5c46.667 0 81.667 -15.167 105 -45.5s35 -67.5 35 -111.5c0 -14.667 -1.66699 -28 -5 -40h-199c3.33301 -24.667 12.666 -43 27.999 -55
s35 -18 59 -18c27.333 0 51.666 7 72.999 21l34 -58c-17.333 -12 -36.5 -21.167 -57.5 -27.5s-41.833 -9.5 -62.5 -9.5c-48 0 -87.833 15.5 -119.5 46.5zM240.002 574c0 19.333 -4.66699 35.333 -14 48s-24 19 -44 19c-17.333 0 -31.833 -5.66699 -43.5 -17
s-19.167 -28 -22.5 -50h124z" />
    <glyph glyph-name="j.sups" horiz-adv-x="187" 
d="M54 768c-10.667 9.33301 -16 21.668 -16 37.001c0 14.667 5.33301 26.667 16 36s24.334 14 41.001 14c16 0 29.333 -4.66699 40 -14s16 -21.333 16 -36s-5.33301 -26.834 -16 -36.501s-24 -14.5 -40 -14.5c-16.667 0 -30.334 4.66699 -41.001 14zM-32 250.002l16.999 72
c9.33301 -2.66699 18.333 -4 27 -4c12.667 0 21.5 4 26.5 12s7.5 21.333 7.5 40v337h97v-333c0 -40 -9.16699 -72 -27.5 -96s-48.166 -36 -89.499 -36c-24 0 -43.333 2.66699 -58 8z" />
    <glyph glyph-name="o.sups" horiz-adv-x="372" 
d="M106 391.5c-24.667 13.667 -44.334 33.5 -59.001 59.5s-22 56.333 -22 91c0 35.333 7.33301 66 22 92s34.334 46 59.001 60s51.334 21 80.001 21s55.167 -7 79.5 -21s43.833 -34 58.5 -60s22 -56.667 22 -92c0 -34.667 -7.33301 -65 -22 -91s-34.167 -45.833 -58.5 -59.5
s-50.833 -20.5 -79.5 -20.5s-55.334 6.83301 -80.001 20.5zM231.5 473c10.333 16.667 15.5 39.667 15.5 69c0 30 -5.16699 53.5 -15.5 70.5s-25.5 25.5 -45.5 25.5c-20.667 0 -36.167 -8.5 -46.5 -25.5s-15.5 -40.5 -15.5 -70.5c0 -29.333 5.16699 -52.333 15.5 -69
s25.833 -25 46.5 -25c20 0 35.167 8.33301 45.5 25z" />
    <glyph glyph-name="zero.heb" 
d="M143.5 26.5c-33.667 25.667 -59.6689 63.5 -78.002 113.5s-27.5 110.333 -27.5 181c0 105.333 20 186.166 60 242.499s94.667 84.5 164 84.5c68.667 0 123 -28.167 163 -84.5s60 -137.166 60 -242.499c0 -70.667 -9.16699 -131 -27.5 -181
s-44.166 -87.833 -77.499 -113.5s-72.666 -38.5 -117.999 -38.5s-84.833 12.833 -118.5 38.5zM330.998 145.5c16.667 34.333 25 92.833 25 175.5c0 81.333 -8.33301 138.5 -25 171.5s-39.667 49.5 -69 49.5c-30 0 -53.167 -16.333 -69.5 -49s-24.5 -90 -24.5 -172
c0 -82.667 8.33301 -141.167 25 -175.5s39.667 -51.5 69 -51.5s52.333 17.167 69 51.5z" />
    <glyph glyph-name="one.heb" 
d="M71 111h140v384h-118v85c32.667 6 61 13.333 85 22s47 20 69 34h101v-525h121v-111h-398v111z" />
    <glyph glyph-name="two.heb" 
d="M38 79c69.333 66 122.169 118 158.502 156s65.5 74.333 87.5 109s33 66.667 33 96c0 31.333 -8.33301 55.833 -25 73.5s-40 26.5 -70 26.5c-21.333 0 -41.333 -6 -60 -18s-37.334 -28 -56.001 -48l-75 74c32 34 64.167 59.167 96.5 75.5s70.166 24.5 113.499 24.5
c62 0 112 -18.167 150 -54.5s57 -84.833 57 -145.5c0 -49.333 -18.333 -100.5 -55 -153.5s-89.334 -115.167 -158.001 -186.5c38.667 4.66699 74.334 7 107.001 7h137v-115h-441v79z" />
    <glyph glyph-name="three.heb" 
d="M23 78l62.998 86.9961c45.333 -44 93 -66 143 -66c32.667 0 58.834 7.16699 78.501 21.5s29.5 34.5 29.5 60.5c0 32 -12.833 56 -38.5 72s-71.5 24 -137.5 24v98c56 0 95.833 7.83301 119.5 23.5s35.5 37.834 35.5 66.501c0 24 -7.33301 42.5 -22 55.5s-35 19.5 -61 19.5
c-22.667 0 -43.5 -4.66699 -62.5 -14s-38.833 -23.666 -59.5 -42.999l-69 84c62.667 54 128.334 81 197.001 81c65.333 0 117.333 -15.167 156 -45.5s58 -72.833 58 -127.5c0 -65.333 -35.667 -112.666 -107 -141.999v-4c38.667 -11.333 69.667 -30.166 93 -56.499
s35 -59.5 35 -99.5c0 -38 -10.333 -71 -31 -99s-48.667 -49.333 -84 -64s-74.333 -22 -117 -22c-92.667 0 -165.667 30 -219 90z" />
    <glyph glyph-name="four.heb" 
d="M499 156h-76v-156h-127v156h-277v94l239 386h165v-376h76v-104zM296 260v117c0 28 1.66699 74.333 5 139h-4l-43 -86l-9 -18l-94 -152h145z" />
    <glyph glyph-name="five.heb" 
d="M23 77l61.999 86.999c46 -43.333 93 -65 141 -65c34 0 61.167 9.33301 81.5 28s30.5 45 30.5 79c0 32.667 -9.66699 58.334 -29 77.001s-44.666 28 -75.999 28c-18.667 0 -34.5 -2.33301 -47.5 -7s-29.5 -13.667 -49.5 -27l-62 40l18 319h354v-115h-236l-11 -131
c26 11.333 51 17 75 17c58 0 106 -16.833 144 -50.5s57 -82.834 57 -147.501c0 -45.333 -10.5 -84.666 -31.5 -117.999s-49 -58.833 -84 -76.5s-73.167 -26.5 -114.5 -26.5c-88.667 0 -162.667 29.667 -222 89z" />
    <glyph glyph-name="six.heb" 
d="M435.5 346.5c34.333 -33 51.501 -81.833 51.501 -146.5c0 -42.667 -9.33301 -80 -28 -112s-43.834 -56.667 -75.501 -74s-66.5 -26 -104.5 -26c-42.667 0 -82 11.333 -118 34s-64.833 57.5 -86.5 104.5s-32.5 105.5 -32.5 175.5c0 76.667 11.667 141 35 193
s54.333 90.5 93 115.5s81 37.5 127 37.5c38 0 72 -7 102 -21s56 -32 78 -54l-72 -82c-12 13.333 -27.167 24.333 -45.5 33s-36.5 13 -54.5 13c-40 0 -72.333 -16.667 -97 -50s-38.334 -87.333 -41.001 -162c16.667 22 37.334 39.333 62.001 52s48 19 70 19
c56.667 0 102.167 -16.5 136.5 -49.5zM338.001 119c16 18.667 24.001 45.667 24.001 81c0 33.333 -8 58.166 -24 74.499s-37.667 24.5 -65 24.5c-18.667 0 -36.834 -5.33301 -54.501 -16s-33.5 -27.667 -47.5 -51c6 -49.333 18.333 -85.166 37 -107.499
s41.667 -33.5 69 -33.5c24.667 0 45 9.33301 61 28z" />
    <glyph glyph-name="seven.heb" 
d="M208 282.5c24.667 77 66.667 156.5 126 238.5h-290v115h437v-84c-48.667 -58.667 -85.167 -114 -109.5 -166s-41.333 -106.5 -51 -163.5s-16.5 -131.167 -20.5 -222.5h-138c6 111.333 21.333 205.5 46 282.5z" />
    <glyph glyph-name="eight.heb" 
d="M149 10.5c-33.333 15 -59.5 35.668 -78.5 62.001s-28.5 56.5 -28.5 90.5c0 66 36.667 118.667 110 158v4c-57.333 42 -86 91.667 -86 149c0 52.667 18.667 94.834 56 126.501s85.333 47.5 144 47.5c57.333 0 103.5 -15.833 138.5 -47.5s52.5 -73.834 52.5 -126.501
c0 -28.667 -8 -55.334 -24 -80.001s-36 -45 -60 -61v-4c34 -18.667 60.833 -41.167 80.5 -67.5s29.5 -59.166 29.5 -98.499c0 -32.667 -9.33301 -62.334 -28 -89.001s-44.834 -47.667 -78.501 -63s-72.167 -23 -115.5 -23c-41.333 0 -78.666 7.5 -111.999 22.5zM345 465.001
c0 26.667 -7.33301 47.834 -22 63.501s-34.667 23.5 -60 23.5c-22 0 -40.167 -6.83301 -54.5 -20.5s-21.5 -32.834 -21.5 -57.501c0 -25.333 9.5 -45.833 28.5 -61.5s47.833 -31.167 86.5 -46.5c28.667 32 43 65 43 99zM330 106.001c16.667 14.667 25 35.333 25 62
c0 18.667 -5.66699 34.667 -17 48s-25.833 24.5 -43.5 33.5s-44.167 20.833 -79.5 35.5c-16.667 -14 -30 -30.333 -40 -49s-15 -38 -15 -58c0 -28 10 -50.667 30 -68s44.667 -26 74 -26c27.333 0 49.333 7.33301 66 22z" />
    <glyph glyph-name="nine.heb" 
d="M361 614c36 -22.667 64.833 -57.5 86.5 -104.5s32.5 -105.5 32.5 -175.5c0 -76.667 -11.667 -141 -35 -193s-54.333 -90.5 -93 -115.5s-81 -37.5 -127 -37.5c-38 0 -72 7 -102 21s-56 32 -78 54l72 82c11.333 -13.333 26.166 -24.333 44.499 -33s36.833 -13 55.5 -13
c40 0 72.333 16.667 97 50s38.334 87.333 41.001 162c-16.667 -22 -37.334 -39.333 -62.001 -52s-48 -19 -70 -19c-56.667 0 -102.167 16.5 -136.5 49.5s-51.5 81.833 -51.5 146.5c0 42.667 9.33301 80 28 112s43.834 56.667 75.501 74s66.5 26 104.5 26
c42.667 0 82 -11.333 118 -34zM303.5 353c17.667 10.667 33.499 27.668 47.499 51.001c-6 49.333 -18.333 85.166 -37 107.499s-41.667 33.5 -69 33.5c-24.667 0 -45 -9.33301 -61 -28s-24 -45.667 -24 -81c0 -34 7.83301 -59 23.5 -75s37.5 -24 65.5 -24
c18.667 0 36.834 5.33301 54.501 16z" />
    <glyph glyph-name="zero.lat" 
d="M143.5 26.5c-33.667 25.667 -59.6689 63.5 -78.002 113.5s-27.5 110.333 -27.5 181c0 105.333 20 186.166 60 242.499s94.667 84.5 164 84.5c68.667 0 123 -28.167 163 -84.5s60 -137.166 60 -242.499c0 -70.667 -9.16699 -131 -27.5 -181
s-44.166 -87.833 -77.499 -113.5s-72.666 -38.5 -117.999 -38.5s-84.833 12.833 -118.5 38.5zM330.998 145.5c16.667 34.333 25 92.833 25 175.5c0 81.333 -8.33301 138.5 -25 171.5s-39.667 49.5 -69 49.5c-30 0 -53.167 -16.333 -69.5 -49s-24.5 -90 -24.5 -172
c0 -82.667 8.33301 -141.167 25 -175.5s39.667 -51.5 69 -51.5s52.333 17.167 69 51.5z" />
    <glyph glyph-name="one.lat" 
d="M71 111h140v384h-118v85c32.667 6 61 13.333 85 22s47 20 69 34h101v-525h121v-111h-398v111z" />
    <glyph glyph-name="two.lat" 
d="M38 79c69.333 66 122.169 118 158.502 156s65.5 74.333 87.5 109s33 66.667 33 96c0 31.333 -8.33301 55.833 -25 73.5s-40 26.5 -70 26.5c-21.333 0 -41.333 -6 -60 -18s-37.334 -28 -56.001 -48l-75 74c32 34 64.167 59.167 96.5 75.5s70.166 24.5 113.499 24.5
c62 0 112 -18.167 150 -54.5s57 -84.833 57 -145.5c0 -49.333 -18.333 -100.5 -55 -153.5s-89.334 -115.167 -158.001 -186.5c38.667 4.66699 74.334 7 107.001 7h137v-115h-441v79z" />
    <glyph glyph-name="three.lat" 
d="M23 78l62.998 86.9961c45.333 -44 93 -66 143 -66c32.667 0 58.834 7.16699 78.501 21.5s29.5 34.5 29.5 60.5c0 32 -12.833 56 -38.5 72s-71.5 24 -137.5 24v98c56 0 95.833 7.83301 119.5 23.5s35.5 37.834 35.5 66.501c0 24 -7.33301 42.5 -22 55.5s-35 19.5 -61 19.5
c-22.667 0 -43.5 -4.66699 -62.5 -14s-38.833 -23.666 -59.5 -42.999l-69 84c62.667 54 128.334 81 197.001 81c65.333 0 117.333 -15.167 156 -45.5s58 -72.833 58 -127.5c0 -65.333 -35.667 -112.666 -107 -141.999v-4c38.667 -11.333 69.667 -30.166 93 -56.499
s35 -59.5 35 -99.5c0 -38 -10.333 -71 -31 -99s-48.667 -49.333 -84 -64s-74.333 -22 -117 -22c-92.667 0 -165.667 30 -219 90z" />
    <glyph glyph-name="four.lat" 
d="M499 156h-76v-156h-127v156h-277v94l239 386h165v-376h76v-104zM296 260v117c0 28 1.66699 74.333 5 139h-4l-43 -86l-9 -18l-94 -152h145z" />
    <glyph glyph-name="five.lat" 
d="M23 77l61.999 86.999c46 -43.333 93 -65 141 -65c34 0 61.167 9.33301 81.5 28s30.5 45 30.5 79c0 32.667 -9.66699 58.334 -29 77.001s-44.666 28 -75.999 28c-18.667 0 -34.5 -2.33301 -47.5 -7s-29.5 -13.667 -49.5 -27l-62 40l18 319h354v-115h-236l-11 -131
c26 11.333 51 17 75 17c58 0 106 -16.833 144 -50.5s57 -82.834 57 -147.501c0 -45.333 -10.5 -84.666 -31.5 -117.999s-49 -58.833 -84 -76.5s-73.167 -26.5 -114.5 -26.5c-88.667 0 -162.667 29.667 -222 89z" />
    </font>
</defs>
</svg>
